<svg viewBox="0 0 330 200" xmlns="http://www.w3.org/2000/svg"><g><g><g><g><g><line x1="51.5625" y1="177" x2="46.5625" y2="177" style="visibility: inherit;" fill="rgb(0, 0, 0)" stroke="rgb(204, 204, 204)" stroke-width="1px"></line><line x1="51.5625" y1="164.35714285714286" x2="46.5625" y2="164.35714285714286" style="visibility: inherit;" fill="rgb(0, 0, 0)" stroke="rgb(204, 204, 204)" stroke-width="1px"></line><line x1="51.5625" y1="151.71428571428572" x2="46.5625" y2="151.71428571428572" style="visibility: inherit;" fill="rgb(0, 0, 0)" stroke="rgb(204, 204, 204)" stroke-width="1px"></line><line x1="51.5625" y1="139.07142857142856" x2="46.5625" y2="139.07142857142856" style="visibility: inherit;" fill="rgb(0, 0, 0)" stroke="rgb(204, 204, 204)" stroke-width="1px"></line><line x1="51.5625" y1="126.42857142857143" x2="46.5625" y2="126.42857142857143" style="visibility: inherit;" fill="rgb(0, 0, 0)" stroke="rgb(204, 204, 204)" stroke-width="1px"></line><line x1="51.5625" y1="113.78571428571429" x2="46.5625" y2="113.78571428571429" style="visibility: inherit;" fill="rgb(0, 0, 0)" stroke="rgb(204, 204, 204)" stroke-width="1px"></line><line x1="51.5625" y1="101.14285714285715" x2="46.5625" y2="101.14285714285715" style="visibility: inherit;" fill="rgb(0, 0, 0)" stroke="rgb(204, 204, 204)" stroke-width="1px"></line><line x1="51.5625" y1="88.5" x2="46.5625" y2="88.5" style="visibility: inherit;" fill="rgb(0, 0, 0)" stroke="rgb(204, 204, 204)" stroke-width="1px"></line><line x1="51.5625" y1="75.85714285714288" x2="46.5625" y2="75.85714285714288" style="visibility: inherit;" fill="rgb(0, 0, 0)" stroke="rgb(204, 204, 204)" stroke-width="1px"></line><line x1="51.5625" y1="63.21428571428572" x2="46.5625" y2="63.21428571428572" style="visibility: inherit;" fill="rgb(0, 0, 0)" stroke="rgb(204, 204, 204)" stroke-width="1px"></line><line x1="51.5625" y1="50.57142857142859" x2="46.5625" y2="50.57142857142859" style="visibility: inherit;" fill="rgb(0, 0, 0)" stroke="rgb(204, 204, 204)" stroke-width="1px"></line><line x1="51.5625" y1="37.92857142857143" x2="46.5625" y2="37.92857142857143" style="visibility: inherit;" fill="rgb(0, 0, 0)" stroke="rgb(204, 204, 204)" stroke-width="1px"></line><line x1="51.5625" y1="25.285714285714274" x2="46.5625" y2="25.285714285714274" style="visibility: inherit;" fill="rgb(0, 0, 0)" stroke="rgb(204, 204, 204)" stroke-width="1px"></line><line x1="51.5625" y1="12.642857142857157" x2="46.5625" y2="12.642857142857157" style="visibility: inherit;" fill="rgb(0, 0, 0)" stroke="rgb(204, 204, 204)" stroke-width="1px"></line><line x1="51.5625" y1="0" x2="46.5625" y2="0" style="visibility: inherit;" fill="rgb(0, 0, 0)" stroke="rgb(204, 204, 204)" stroke-width="1px"></line></g><g transform="translate(41.5625, 0)"><text x="0" y="177" dx="0em" dy="0.3em" style="text-anchor: end; visibility: hidden; font-family: Roboto, sans-serif; font-size: 12px; font-weight: 200;" fill="rgb(255, 255, 255)" stroke="none" stroke-width="1px">-0.2</text><text x="0" y="164.35714285714286" dx="0em" dy="0.3em" style="text-anchor: end; visibility: inherit; font-family: Roboto, sans-serif; font-size: 12px; font-weight: 200;" fill="rgb(255, 255, 255)" stroke="none" stroke-width="1px">0</text><text x="0" y="151.71428571428572" dx="0em" dy="0.3em" style="text-anchor: end; visibility: hidden; font-family: Roboto, sans-serif; font-size: 12px; font-weight: 200;" fill="rgb(255, 255, 255)" stroke="none" stroke-width="1px">0.2</text><text x="0" y="139.07142857142856" dx="0em" dy="0.3em" style="text-anchor: end; visibility: inherit; font-family: Roboto, sans-serif; font-size: 12px; font-weight: 200;" fill="rgb(255, 255, 255)" stroke="none" stroke-width="1px">0.4</text><text x="0" y="126.42857142857143" dx="0em" dy="0.3em" style="text-anchor: end; visibility: hidden; font-family: Roboto, sans-serif; font-size: 12px; font-weight: 200;" fill="rgb(255, 255, 255)" stroke="none" stroke-width="1px">0.6</text><text x="0" y="113.78571428571429" dx="0em" dy="0.3em" style="text-anchor: end; visibility: inherit; font-family: Roboto, sans-serif; font-size: 12px; font-weight: 200;" fill="rgb(255, 255, 255)" stroke="none" stroke-width="1px">0.8</text><text x="0" y="101.14285714285715" dx="0em" dy="0.3em" style="text-anchor: end; visibility: hidden; font-family: Roboto, sans-serif; font-size: 12px; font-weight: 200;" fill="rgb(255, 255, 255)" stroke="none" stroke-width="1px">1</text><text x="0" y="88.5" dx="0em" dy="0.3em" style="text-anchor: end; visibility: inherit; font-family: Roboto, sans-serif; font-size: 12px; font-weight: 200;" fill="rgb(255, 255, 255)" stroke="none" stroke-width="1px">1.2</text><text x="0" y="75.85714285714288" dx="0em" dy="0.3em" style="text-anchor: end; visibility: hidden; font-family: Roboto, sans-serif; font-size: 12px; font-weight: 200;" fill="rgb(255, 255, 255)" stroke="none" stroke-width="1px">1.4</text><text x="0" y="63.21428571428572" dx="0em" dy="0.3em" style="text-anchor: end; visibility: inherit; font-family: Roboto, sans-serif; font-size: 12px; font-weight: 200;" fill="rgb(255, 255, 255)" stroke="none" stroke-width="1px">1.6</text><text x="0" y="50.57142857142859" dx="0em" dy="0.3em" style="text-anchor: end; visibility: hidden; font-family: Roboto, sans-serif; font-size: 12px; font-weight: 200;" fill="rgb(255, 255, 255)" stroke="none" stroke-width="1px">1.8</text><text x="0" y="37.92857142857143" dx="0em" dy="0.3em" style="text-anchor: end; visibility: inherit; font-family: Roboto, sans-serif; font-size: 12px; font-weight: 200;" fill="rgb(255, 255, 255)" stroke="none" stroke-width="1px">2</text><text x="0" y="25.285714285714274" dx="0em" dy="0.3em" style="text-anchor: end; visibility: hidden; font-family: Roboto, sans-serif; font-size: 12px; font-weight: 200;" fill="rgb(255, 255, 255)" stroke="none" stroke-width="1px">2.2</text><text x="0" y="12.642857142857157" dx="0em" dy="0.3em" style="text-anchor: end; visibility: inherit; font-family: Roboto, sans-serif; font-size: 12px; font-weight: 200;" fill="rgb(255, 255, 255)" stroke="none" stroke-width="1px">2.4</text><text x="0" y="0" dx="0em" dy="0.3em" style="text-anchor: end; visibility: hidden; font-family: Roboto, sans-serif; font-size: 12px; font-weight: 200;" fill="rgb(255, 255, 255)" stroke="none" stroke-width="1px">2.6</text></g><line x1="51.5625" y1="0" x2="51.5625" y2="177" fill="rgb(0, 0, 0)" stroke="rgb(204, 204, 204)" stroke-width="1px"></line></g></g><g transform="translate(51, 0)" clip-path="url(#clip_0)"><clipPath id="clip_0"><rect width="278" height="177"></rect></clipPath><g><g><g><line x1="0" y1="0" x2="0" y2="177" fill="rgb(0, 0, 0)" stroke="rgb(189, 189, 189)" stroke-width="1px" opacity="0.25"></line><line x1="30.9375" y1="0" x2="30.9375" y2="177" fill="rgb(0, 0, 0)" stroke="rgb(189, 189, 189)" stroke-width="1px" opacity="0.25"></line><line x1="61.875" y1="0" x2="61.875" y2="177" fill="rgb(0, 0, 0)" stroke="rgb(189, 189, 189)" stroke-width="1px" opacity="0.25"></line><line x1="92.8125" y1="0" x2="92.8125" y2="177" fill="rgb(0, 0, 0)" stroke="rgb(189, 189, 189)" stroke-width="1px" opacity="0.25"></line><line x1="123.75" y1="0" x2="123.75" y2="177" fill="rgb(0, 0, 0)" stroke="rgb(189, 189, 189)" stroke-width="1px" opacity="0.25"></line><line x1="154.6875" y1="0" x2="154.6875" y2="177" fill="rgb(0, 0, 0)" stroke="rgb(189, 189, 189)" stroke-width="1px" opacity="0.25"></line><line x1="185.625" y1="0" x2="185.625" y2="177" fill="rgb(0, 0, 0)" stroke="rgb(189, 189, 189)" stroke-width="1px" opacity="0.25"></line><line x1="216.5625" y1="0" x2="216.5625" y2="177" fill="rgb(0, 0, 0)" stroke="rgb(189, 189, 189)" stroke-width="1px" opacity="0.25"></line><line x1="247.5" y1="0" x2="247.5" y2="177" fill="rgb(0, 0, 0)" stroke="rgb(189, 189, 189)" stroke-width="1px" opacity="0.25"></line><line x1="278.4375" y1="0" x2="278.4375" y2="177" fill="rgb(0, 0, 0)" stroke="rgb(189, 189, 189)" stroke-width="1px" opacity="0.25"></line></g><g><line x1="0" y1="177" x2="278.4375" y2="177" fill="rgb(0, 0, 0)" stroke="rgb(189, 189, 189)" stroke-width="1px" opacity="0.25"></line><line x1="0" y1="164.35714285714286" x2="278.4375" y2="164.35714285714286" fill="rgb(0, 0, 0)" stroke="rgb(189, 189, 189)" stroke-width="1px" opacity="0.25"></line><line x1="0" y1="151.71428571428572" x2="278.4375" y2="151.71428571428572" fill="rgb(0, 0, 0)" stroke="rgb(189, 189, 189)" stroke-width="1px" opacity="0.25"></line><line x1="0" y1="139.07142857142856" x2="278.4375" y2="139.07142857142856" fill="rgb(0, 0, 0)" stroke="rgb(189, 189, 189)" stroke-width="1px" opacity="0.25"></line><line x1="0" y1="126.42857142857143" x2="278.4375" y2="126.42857142857143" fill="rgb(0, 0, 0)" stroke="rgb(189, 189, 189)" stroke-width="1px" opacity="0.25"></line><line x1="0" y1="113.78571428571429" x2="278.4375" y2="113.78571428571429" fill="rgb(0, 0, 0)" stroke="rgb(189, 189, 189)" stroke-width="1px" opacity="0.25"></line><line x1="0" y1="101.14285714285715" x2="278.4375" y2="101.14285714285715" fill="rgb(0, 0, 0)" stroke="rgb(189, 189, 189)" stroke-width="1px" opacity="0.25"></line><line x1="0" y1="88.5" x2="278.4375" y2="88.5" fill="rgb(0, 0, 0)" stroke="rgb(189, 189, 189)" stroke-width="1px" opacity="0.25"></line><line x1="0" y1="75.85714285714288" x2="278.4375" y2="75.85714285714288" fill="rgb(0, 0, 0)" stroke="rgb(189, 189, 189)" stroke-width="1px" opacity="0.25"></line><line x1="0" y1="63.21428571428572" x2="278.4375" y2="63.21428571428572" fill="rgb(0, 0, 0)" stroke="rgb(189, 189, 189)" stroke-width="1px" opacity="0.25"></line><line x1="0" y1="50.57142857142859" x2="278.4375" y2="50.57142857142859" fill="rgb(0, 0, 0)" stroke="rgb(189, 189, 189)" stroke-width="1px" opacity="0.25"></line><line x1="0" y1="37.92857142857143" x2="278.4375" y2="37.92857142857143" fill="rgb(0, 0, 0)" stroke="rgb(189, 189, 189)" stroke-width="1px" opacity="0.25"></line><line x1="0" y1="25.285714285714274" x2="278.4375" y2="25.285714285714274" fill="rgb(0, 0, 0)" stroke="rgb(189, 189, 189)" stroke-width="1px" opacity="0.25"></line><line x1="0" y1="12.642857142857157" x2="278.4375" y2="12.642857142857157" fill="rgb(0, 0, 0)" stroke="rgb(189, 189, 189)" stroke-width="1px" opacity="0.25"></line><line x1="0" y1="0" x2="278.4375" y2="0" fill="rgb(0, 0, 0)" stroke="rgb(189, 189, 189)" stroke-width="1px" opacity="0.25"></line></g></g></g><g><g><line x1="0" y1="164.35714285714286" x2="278.4375" y2="164.35714285714286" fill="rgb(0, 0, 0)" stroke="rgb(153, 153, 153)" stroke-width="1.5px"></line></g></g><g><g><line x1="30.9375" y1="0" x2="30.9375" y2="177" fill="rgb(0, 0, 0)" stroke="rgb(153, 153, 153)" stroke-width="1.5px"></line></g></g><g><g><g><g><g><path stroke="rgb(255, 112, 67)" stroke-width="2px" d="M30.9375,19.193540709359315L31.076718749999998,5.230190800768997L32.2059375,10.262637861616065L32.31421875,13.936233625567246L32.67,15.19486221363539L32.84015625,12.625168669314332L32.99484375,10.062970575225652L33.05671875,11.001435395576651L33.350625,12.532650721840003L33.67546875,15.51972289608567L33.79921875,14.123053115688034L33.9075,13.817339788567194L34.52625,9.580004804269738L34.66546875,11.007821905055724L35.03671875,12.940959087177124L35.268750000000004,12.096009778524559L35.469843749999995,11.742965783842127L35.50078125,13.012291935565536L35.59359375,10.317865450547822L35.6090625,11.923975912934907L35.64,14.036111239370513L35.6709375,10.717075169011967L35.90296875,13.975287352857475L36.073125000000005,14.355928491340514L36.30515625,11.778757760114921L36.52171875,13.459180738974544L37.140468750000004,11.452763798250878L37.171406250000004,12.278215964353246L37.4653125,12.44366901210012L37.975781250000004,13.60915641634237L38.0221875,13.864750876048692L38.176874999999995,11.576886473361073L38.37796875,12.133387286316523L38.594531249999996,15.32754352320356L38.73375,15.438482274875986L39.47625,15.554751200841626L40.23421875,10.83853417471421L40.528124999999996,10.884800305578835L40.82203125,12.063350371389118L40.88390625,11.925092063708725L40.914843749999996,11.789965712621616L41.34796875,10.497433875105939L41.44078125,10.02421209276662L41.812031250000004,10.845873113695037L42.02859375,6.395382558288737L42.36890625,9.979123255823607L43.60640625,9.095735940602317L43.683749999999996,9.014682350230796L44.163281250000004,10.821853345121157L44.42625,10.219737919597888L44.735625000000006,12.53856614207674L44.874843750000004,11.557434385865752L44.8903125,13.16077864348734L45.06046875,13.852632288643095L45.4471875,9.866450074019543L45.52453125,9.337717909379935L45.601875,8.588205018328535L45.802968750000005,10.437118018594072L46.004062499999996,12.52989668118005L46.20515625,11.945187876283526L46.468125,13.596172020062074L46.529999999999994,13.576172872659981L46.591875,12.439547054251767L46.947656249999994,12.879497087509748L47.102343749999996,14.842629556620057L47.4271875,13.591068028837212L47.59734375,12.461668661322651L47.705625,11.181478091444742L47.81390625,11.682899154813219L48.13875,12.131699274534641L48.3553125,12.09752453854108L48.52546875,13.082822634861266L48.55640625,9.844403747030476L48.7884375,8.185244466846246L48.9121875,12.322304519746615L49.376250000000006,11.95531717616637L49.62375,11.925133682785914L49.6546875,14.27459926626422L49.933125000000004,12.842392027845868L50.2425,13.664867811824282L50.551875,11.971375895736715L50.923125,13.518104177916623L51.04687499999999,14.173643118605638L51.2325,14.304855704755374L51.37171875,12.973690356795753L51.48,10.589123879321434L51.6965625,12.406181175464898L52.036874999999995,13.771867587965035L52.222500000000004,12.656513892208618L52.655625,15.257042903403352L52.841249999999995,13.418938954463991L52.88765625,12.222808360929127L52.9959375,13.452507345942426L53.289843749999996,15.215547744161249L53.5528125,14.642338562529842L53.58375,15.558736782384829L53.72296875,12.987601854783346L53.9240625,12.763794235559407L54.20249999999999,11.414532944577486L54.24890625,11.323866734770597L54.27984375,11.633123257251608L54.34171875,13.886053477818978L54.6975,15.569401819847853L55.2234375,14.251183713793754L55.26984375,12.342613649133275L55.30078125,13.388922206192689L55.4709375,13.301759469628886L55.6565625,11.161100019458683L55.73390625,13.314944502805519L56.19796875,14.263784672504114L56.30625,14.942519632390404L56.43,14.67429393460741L56.476406250000004,14.609430031702125L56.55375,12.921627631960277L57.0178125,11.402852587891116L57.3271875,6.951976766837301L57.915,11.594449296556906L58.440937500000004,13.152742183612164L58.88953125,14.180353138689023L59.10609375,14.414158880447204L59.152499999999996,10.788253227143988L59.1834375,12.343746259798884L59.4309375,11.364208524987681L59.956875,9.921994377796906L60.06515625,11.573563567857681L60.096093749999994,13.455734779530344L60.467343750000005,13.466548275151876L60.74578125,14.279679007052811L60.77671874999999,15.032622230652052L60.9159375,12.386998126185071L61.5965625,10.621533261446714L61.612031249999994,13.239998084047878L61.875,13.197369707667493L61.89046875,12.85260326958601L62.416406249999994,12.040835280995996L62.6175,10.61600412117328L62.787656250000005,13.684019623746364L63.282656249999995,14.263335651146459L63.4528125,14.436494216059762L63.9478125,14.31615617046576L64.05609375,15.058716480381785L64.10249999999999,14.292103352813436L64.21078125,15.340758497261978L64.28812500000001,14.175000962462416L64.35,12.593401820142326L64.36546874999999,12.309172100233585L64.5665625,13.920490805153602L64.5975,11.002986939201357L64.67484375,12.149677438407911L65.20078125,14.458078679024206L65.38640625000001,12.79126328025999L65.71124999999999,8.981190719402868L65.88140625,11.599014495728632L65.97421875,11.9862313938505L66.268125,13.800950308412883L66.2990625,15.12284068877304L66.5775,18.21342007799119L66.6703125,23.673385473133997L66.763125,28.680629369556314L66.77859375,33.063966085108326L66.9178125,33.48179727512986L66.93328125000001,35.37755792484005L67.2271875,48.34522736755205L67.52109374999999,65.93526371956754L67.86140625,89.66547342069339L67.89234375000001,97.93781643722036L68.10890625,104.1937657435409L68.20171875,114.98256332429565L68.32546875,118.612341130858L68.54203125000001,123.89336720837844L68.78953125,126.92004888580172L68.91328125,125.34051970693173L69.43921875,129.10459204177255L69.65578124999999,126.7609613091787L69.70218750000001,132.39670560919626L69.77953125,131.94460119957898L69.8259375,134.88083691263728L70.10437499999999,136.93235353746732L70.1353125,133.73117510321399L70.46015625,129.9282476381733L70.53750000000001,132.54125154217581L70.6303125,133.56532458356747L70.78500000000001,132.46307031532876L70.89328125,136.4426219978888L70.95515625,137.67368399954452L71.07890625,137.86163340636347L71.62031250000001,137.4567541577116L71.88328125,136.8067698298511L72.0534375,135.32645102509704L72.19265625,138.83307718394647L72.28546875,137.83517757408038L72.45562500000001,137.87825141844198L72.4865625,140.43828564327043L72.5175,142.57664612709416L73.02796875,141.4627350691834L73.198125,139.89675487337072L73.39921875,137.10248643057938L73.55390625,141.77576439234338L74.48203125,140.5257133531307L74.4975,142.23699083425439L74.97703125,140.35501147635057L75.3946875,143.10670903264705L75.549375,140.5855170987117L75.93609375,137.65923989172046L76.05984375,140.89761892683748L76.1990625,143.14330613620973L76.27640625,144.25856673211308L76.41562499999999,143.60626499689744L76.4775,142.2741399900061L76.83328125,145.496926785125L77.17359375,145.8919874033158L77.25093749999999,144.11806371046623L77.26640625,147.71330197209517L77.529375,149.0657743951089L77.59125,142.16524178796877L77.9934375,145.05026221241022L78.00890625,147.54358628541934L78.1790625,149.7909190174128L78.4265625,152.25074803925665L78.519375,150.98830054885983L78.59671875000001,151.7695196243762L78.643125,149.71669178867742L78.82875,149.28315022898644L78.87515625,147.3732595547527L79.02984375,149.42286355181616L79.06078125,149.58435105612327L79.37015625000001,151.2429418570767L79.43203125000001,145.13486026056142L79.5403125,146.05407880910187L79.55578125,147.20000798121148L80.45296875,143.7362907820986L81.05624999999999,148.77136502869064L81.5203125,149.91497398397746L81.56671875,147.16145008280444L82.12359375,149.92909155217407L82.32468750000001,147.37139816411323L82.72687499999999,148.27942121820442L83.28375,151.41430429141653L83.33015624999999,154.7700354809391L83.4075,152.88145148910618L83.42296875,152.05791033259695L84.01078125,152.6261479987942L84.22734375,154.45459963415092L84.72234375,149.3795470874124L85.55765625,151.09041316010521L85.68140625000001,148.58421381106186L86.53218749999999,149.02411234381492L86.54765625,147.7347494755633L86.9034375,145.97741905588023L87.0271875,148.91559378433806L87.5221875,150.21874033757624L88.31109375,149.48461458124436L88.41937499999999,151.76493972094062L88.46578125,146.92486539385865L88.58953125,148.94106626622596L88.62046875,147.24264455504846L88.68234375,146.2125931302764L88.8834375,147.60110828527726L89.93531250000001,145.38827866719657L90.07453125,149.1013234426681L90.10546875,151.7032868729381L90.50765625,152.71886789938753L90.60046875,148.9192944475469L90.78609374999999,147.76357686229431L90.86343749999999,147.7248799306624L90.894375,150.30639252890273L90.92531249999999,150.29529996625345L91.018125,145.18306333029466L91.141875,147.45869339315328L91.34296875,150.11673662931378L91.77609375,148.4191143036694L92.255625,148.62473231848372L92.5959375,150.4484490629384L93.245625,151.46986323368927L93.3075,152.33969445007756L94.14281249999999,148.70072323240893L94.4521875,151.54682429058755L94.49859375000001,150.92356793536786L94.5140625,151.23288366767196L94.74609375,151.7144298634418L94.7925,153.39099822317206L94.8853125,153.03686316704963L94.90078125,154.0672045058638L94.96265625,154.9843294913974L95.08640625000001,153.24459633374082L95.30296875,149.04227725097715L95.61234375000001,148.04517485159144L95.720625,147.7432175655046L96.2465625,151.450593521145L96.5559375,153.12496298292953L97.31390624999999,151.34867870652485L97.62328124999999,152.74028410137265L97.99453125,152.23792050510133L98.27296875,151.666734513731L98.55140625,150.2183866287673L98.64421875000001,151.93286505509982L99,151.9204043381444L99.07734375,152.44864371360387L99.2165625,154.42208135390905L99.29390624999999,153.2783120758639L99.57234375,151.29137972773094L99.58781250000001,153.42600627070397L99.66515625000001,154.82925062118267L99.69609375,155.33606033041482L99.89718749999999,154.02668078294894L100.00546875,152.3845287849737L100.1446875,154.93513025157478L100.25296875000001,149.20220104557256L100.3921875,149.51564478952022L100.7634375,149.708276181177L101.21203125,148.18071996665768L101.64515625,151.34759227120657L101.84625,153.7172786761918L102.07828125,152.49849307781616L102.1246875,151.57853834094587L102.14015625,152.2943552522437L102.17109375000001,155.01624538872952L102.465,154.30392455000552L102.85171875,154.20051682086682L103.14562500000001,151.5191145740605L103.40859375,151.91006759846718L103.4240625,146.47289100060428L103.48593749999999,147.71597538155058L103.6096875,146.2694293033499L103.74890625,150.28743167093762L103.87265624999999,147.549560050964L104.4759375,147.66465086899464L105.23390625,142.39970686276968L105.28031250000001,145.15867552176672L105.54328124999999,148.35689911170425L105.8371875,147.46448446977595L105.88359375,147.79055275208543L105.94546875,150.5601560927353L106.28578125,153.5354357910876L106.3940625,151.38265148545224L106.4559375,150.91073909803325L106.51781249999999,152.65445098947512L106.65703124999999,152.0255117005086L106.71890625,152.44368535622385L106.858125,153.303950538304L106.8890625,152.10556036791343L107.49234374999999,150.78492481830116L107.724375,151.2489245233849L108.0028125,150.74003497392283L108.28125,150.4858895748108L108.35859375,151.52135630347684L108.5596875,150.27223685919256L108.63703124999999,151.0207828038702L108.66796875,152.05699461082378L108.77625,151.64969439051688L108.8690625,146.80072168383853L108.93093750000001,148.2039320201678L109.1165625,150.46463763132283L109.22484375,152.95677860392172L109.31765625000001,152.3256427396121L109.45687500000001,152.6865313363201L109.51875,151.83048142352177L109.6115625,151.059743291999L109.79718749999999,150.11579514257022L109.89,149.80883095050143L109.93640624999999,148.32016744416956L110.29218750000001,148.60163404849087L110.6015625,143.24551376883335L110.7871875,144.20911834009124L110.9728125,147.68175840128612L111.65343750000001,149.7302059661014L112.1175,150.92463915913993L112.2103125,152.79938969832477L112.25671875,150.1663907159675L112.3959375,149.6894578591003L112.41140625,148.6440511080631L112.51968749999999,146.52818612482767L112.53515625,149.01363967579292L113.4478125,151.320012921139L113.57156250000001,150.7497757114096L113.61796875,150.91447189671538L113.911875,150.76402649586473L113.97375,151.21668901540173L114.32953124999999,153.27592598325978L114.43781249999999,154.09471252389363L114.5925,153.44588425014126L114.63890624999999,156.23340052858077L114.68531250000001,155.84903389808585L114.73171875,151.31743176594748L115.4278125,151.4309230946708L115.6134375,146.70705843161224L115.76812500000001,149.70582237570179L115.90734375000001,149.17383368705072L116.4178125,151.54264707715214L116.60343750000001,152.21160399058573L116.68078125000001,150.81756143227116L116.77359374999999,149.6094684142592L116.99015625000001,148.11153787860746L117.315,151.64230280384535L117.376875,150.65078742789865L117.45421875,150.31977344147944L117.79453125,152.69315343639516L118.4596875,147.71149624057227L118.62984375,147.60701587598095L119.0475,148.72436609447342L119.06296875,147.33334900060927L119.5115625,149.0876418308168L119.55796875,147.02220973279006L119.65078125000001,150.28055866517465L120.45515625,148.676617155505L120.56343749999999,148.87200790986245L120.8109375,151.92563944025872L121.089375,150.72437049682503L121.19765625,152.3090862496827L121.59984375,148.66041728044357L121.72359374999999,151.65459775864537L121.90921875000001,151.99411445607132L121.9865625,154.16534651772952L122.00203125,152.05334408002022L122.5125,149.97920119116856L122.83734375,149.37558860902368L122.93015625,149.14823225674513L123.02296875,149.48115652609076L123.05390625,150.78823500459316L123.06937500000001,146.3838677977617L123.42515625,148.07927753734305L123.48703125,147.86750721970114L123.57984375000001,150.31578945327863L123.9975,150.15752488797344L124.07484375,152.26071224083054L124.1521875,152.03933072753196L124.29140625,146.77527437097012L124.63171875,150.47336135242944L125.11125,150.8289364551152L125.544375,151.854088387085L125.57531250000001,152.7238853393581L125.68359375,148.4315970074288L125.74546875,147.53942502752426L125.90015625,148.84156531266518L125.93109375,151.4971841234863L126.0084375,153.91344564375964L126.10125000000001,155.05319241649238L126.41062500000001,150.0479623375316L126.64265624999999,151.37140117445892L126.781875,151.5086020133454L126.95203124999999,149.5681321102458L127.60171875,151.72196061097338L127.648125,152.3131051248987L127.6790625,150.23944275129486L127.77187500000001,149.14872328114555L127.94203125,148.74889679015052L128.32875,150.11244902255075L128.4525,152.45636977612423L128.56078125,149.97991243176472L128.71546875,148.22937263438504L128.73093749999998,148.80883011496562L129.0403125,151.14498558422113L129.07125,153.48062070477118L129.39609375,151.39763617334773L129.55078125,151.97836283805205L129.86015625000002,149.5106350862432L130.06125,151.27112838058932L130.2778125,149.5546920333631L130.32421875,148.58480408651735L130.38609375000001,150.44631710524365L131.113125,152.00114277058418L131.22140625,150.62716015864697L131.608125,152.83701573339957L132.3196875,152.4804111729307L132.598125,152.81623156642658L132.9384375,153.6010695669738L133.0003125,154.06706321593532L133.20140625,153.52923012673418L133.32515625,151.95116656192448L133.6809375,153.24292367669358L133.72734375000002,154.14202623606315L133.959375,152.4018525551763L134.330625,151.70936965726995L134.43890625,152.6975034675277L134.50078125000002,152.46400730276906L134.65546875,153.8835860659L134.71734375,151.66372791601265L134.77921875,152.7288040512045L134.88750000000002,152.4929198188669L135.11953125,152.0138341626236L135.135,154.85428931168119L135.320625,153.30944590054222L135.49078125,152.33775990816173L135.50625,151.06693095418856L135.8775,152.08770005376962L136.31062500000002,151.08092603198358L136.54265625,150.01956412773615L136.929375,148.86217272202373L137.2696875,150.92827286970734L137.50171875,153.19254809282918L137.53265625,151.06566436174845L137.71828125,148.84504866734858L137.795625,149.31833136247738L138.02765625,150.50786514296703L138.21328125,148.91816667701687L140.28609375,148.6064437976064L140.50265625,147.00401005876125L140.518125,147.22982443751985L141.21421875,151.89789966593867L141.61640625,151.51554973887954L142.04953125,151.8564442126009L142.065,150.47397837039722L142.08046875000002,149.84047004748945L142.17328125,145.89998352628686L142.26609374999998,147.93177618828173L142.48265625,150.18290656952118L143.37984375,150.71418907091993L143.39531250000002,150.4461546607714L143.81296874999998,149.60642803375472L144.13781250000002,151.71821948047352L144.15328125,152.9091687799276L144.49359375,155.0519860370284L144.52453125000002,149.86178117805957L144.91125000000002,150.07250489439255L144.95765625,149.83445394551737L144.973125,146.71259667329437L145.0040625,150.41259442096705L145.08140625000001,148.6621747589795L145.40625,147.49551853909506L145.52999999999997,149.25769839041652L145.60734374999998,152.54869880886804L145.6846875,153.15479766495187L145.76203124999998,154.46270618921528L145.99406249999998,151.3361349707008L146.04046875,152.47424087129426L146.086875,155.01030264723875L146.6128125,156.72484554861276L147.89671875,156.59760950982573L147.91218750000002,156.55952829536372L148.02046875000002,157.4060618640406L148.20609374999998,157.0612491499523L148.51546875,158.23217726727023L148.54640625,158.25126790966976L148.56187500000001,158.84771329783092L148.70109374999998,155.63655212977855L148.9021875,154.91301423968187L149.01046875,154.70735487225156L149.1496875,153.4589681924901L149.30437500000002,156.93146762899545L149.35078125,158.6262346761047L149.36624999999998,157.91583030476173L149.56734375,159.53195827007548L149.96953125000002,157.76207679901958L150.03140625,156.87980198243778L150.24796875,159.03383559683107L150.83578125,157.2219663891571L151.284375,158.94981504973464L151.34625,160.53675805961603L151.60921875,159.4562522801319L151.79484375,159.60603406027315L152.10421875,159.0260854263114L152.69203125,160.87783445611532L152.83124999999998,159.56088711096947L152.955,159.47861011702565L153.21796874999998,159.4221806808465L153.75937499999998,160.6662877508174L154.33171875,161.70120697698164L154.45546875,161.3938861802162L154.5946875,160.82833600324895L154.85765625000002,158.74041678264953L155.60015625,159.34564339947406L155.925,159.95498071446752L156.28078125,160.20960553679564L156.31171875,161.41685961595041L156.43546874999998,161.307009898127L156.54375,160.3821316780794L156.59015625,160.8025400678391L156.93046875,161.64236340314594L156.94593749999999,161.48805989227816L156.976875,161.08852347907413L156.99234375,161.7316925724608L157.42546875000002,162.08392509292779L157.6575,162.29406614153388L157.79671875,162.3426186580991L157.87406249999998,162.12657975811402L157.95140625,162.33028766405198L157.96687500000002,162.85856648674823L158.15249999999997,162.70817031997743L158.41546875,161.6242317819324L158.4309375,162.40419195919026L158.57015625,162.0808826837595L158.87953124999999,160.98807375985035L159.00328125,161.59948166907134L159.04968749999998,160.5122609491026L159.1425,159.72934260397406L159.48281250000002,160.13029321219648L159.9778125,161.42603028051266L160.08609375,161.4532830318174L160.33359375,161.48727893522832L160.3490625,161.75856627084542L160.41093750000002,162.1508245432199L160.48828125,162.4599698466637L160.55015625,162.86108068874307L161.184375,161.37270307881985L161.24625,161.98731343647495L161.49374999999998,161.3410592435978L161.555625,160.36154506005795L161.7103125,158.992190120506L161.75671875,160.60831330931305L162.08156250000002,161.12710480425002L162.34453125,162.05978113810522L162.77765624999998,161.6913505214045L162.80859375,162.36466773374272L162.88593749999998,160.78658518251672L162.916875,159.9585471750568L162.97875000000002,160.74155735104335L163.52015625,161.86561961700627L163.67484375,162.01817514650378L163.8140625,162.05053885350608L163.89140625,160.94111224603643L164.1234375,161.99818790402279L164.34,161.17585386665706L164.54109375000002,161.15768248775117L164.94328124999998,161.5119998553562L165.59296875,162.12945382744437L166.14984375,161.44595474475412L166.24265625,161.4818376049966L166.33546875,160.01951367977682L166.47468750000002,159.94107287697616L166.58296875,161.25530732785666L166.629375,161.66179967037698L167.37187500000002,159.61060859840512L167.4646875,159.21004335779787L167.54203125,159.3759215117709L167.619375,159.43312830915207L167.63484375000002,159.1131935714237L167.68125,160.10837038895798L167.71218750000003,160.37697375260436L167.78953125,161.04009602706222L167.805,160.99871111964254L167.8359375,161.61923388307477L168.03703125,160.9106684792521L168.09890625000003,160.9264746648233L168.3928125,160.9457518109903L168.59390625,161.7386802897992L169.2590625,161.08349408007516L169.46015625,161.4835709788569L169.6303125,161.45936477956752L169.66125,160.26851566535495L170.1871875,161.1635775755055L170.38828124999998,161.90049892605586L170.51203125,162.6347818961324L171.34734375,160.67710157385105L171.703125,159.96014090632067L171.84234375,160.75351990038385L172.0434375,161.44870375419907L172.61578125,161.71331180112853L172.63125,162.24222797051377L173.29640625,162.64483772304834L173.34281249999998,162.38077398292532L173.43562500000002,161.54166677386945L173.49749999999997,162.35587046929422L173.5284375,161.37041610306295L173.57484374999999,159.45629975819634L173.8996875,160.210891547687L173.97703125,159.7995606235274L174.44109375,160.70704893843413L174.5803125,161.9341403454021L174.71953125,162.0661570608942L175.18359375,162.65139209572052L175.4775,162.53342301528798L175.64765625,160.80844020368204L176.22,160.50881362229654L176.28187499999999,160.75600121352542L176.60671875000003,161.36859593926525L176.776875,162.0718133619071L176.900625,162.56878009428496L177.1790625,161.17301810867394L177.34921875,161.3708326103284L177.90609375,160.11378589803797L177.99890624999998,161.4643530574441L178.138125,160.9966353902987L178.35468749999998,160.9902731500217L178.4475,160.82901886184334L179.3446875,161.1564072270949L179.375625,161.1821904356847L179.5921875,160.48980700313183L179.6540625,161.45137572203274L179.9634375,160.09470729691589L180.10265625000002,159.33756520930325L180.1490625,160.82375758339998L180.84515625,159.94939817373265L180.984375,160.14373083524632L181.30921875,160.81665730735156L181.44843749999998,159.10767687501522L181.54125000000002,160.48777853132918L181.61859374999997,160.30277694742293L181.81968750000001,160.32176941344812L182.34562499999998,160.6163920115937L182.63953125,161.40400087762572L182.88703125,161.64880313543412L182.91796875,161.4001661387729L183.10359375000002,162.3639140405221L183.83062500000003,162.21238989251634L184.14,161.27270916834428L184.15546875,160.8236582227219L184.201875,160.5830231871663L184.24828125,161.32753828335197L184.46484375,161.8389498260862L184.49578125000002,161.36576193237497L184.61953125,161.94461333274785L185.05265625,162.0031775089371L185.191875,162.21358207216966L185.315625,162.21644931900312L185.439375,162.5473909729397L185.7178125,161.9852461960761L186.1509375,159.9382267947958L186.35203124999998,161.44918258247003L186.90890625,161.84782947870286L186.924375,161.42741271259985L186.93984375000002,161.61078615982038L187.8215625,161.36839361541266L187.89890624999998,160.4590235451456L188.42484375,161.09880679300574L188.47125,161.47055429531682L188.67234375,161.75829232969014L188.68781249999998,162.3992920789692L188.904375,162.96549066038548L188.99718750000002,162.53114924605092L189.0590625,162.0264929021493L189.151875,162.1605787147L189.29109375,162.08944126735756L189.41484375,162.73055268990728L189.56953124999998,162.24436961554983L189.8634375,162.01940938413526L189.94078125000001,160.54918250574613L190.04906250000002,161.60328991413127L190.62140624999998,161.562035174157L191.22468750000002,161.55069988598999L191.24015624999998,160.6534063866428L191.27109375,160.73496748447283L191.39484375,161.35419934185833L191.44125,160.99327801974536L191.8125,161.52512081206567L191.87437500000001,160.02534794482597L191.99812500000002,159.72001904096862L192.07546875,160.0376948316622L192.18374999999997,159.96710935786874L192.26109375000001,161.03242463071524L192.33843750000003,159.37068227499353L192.493125,159.19441351144434L192.66328125,160.65661401504272L192.84890625,160.7522755009174L192.91078124999999,162.0522766644166L193.111875,161.29537513674023L193.77703125000002,162.2053598050518L193.93171875000002,162.61830399442744L193.978125,161.83687299027036L194.14828125,161.31979353352355L194.17921875,161.8571828185918L194.64328125,161.95160483712226L194.65875,162.4924425533924L194.67421875000002,161.27131814795385L194.7515625,161.4597893914057L194.79796875,160.63639932933293L194.92171875,160.91061093269917L195.35484375,160.76738517743257L195.40124999999998,159.53984548861072L195.586875,160.491466227706L195.9890625,159.75543815917203L196.00453125,160.16383829622185L196.31390625,157.65555979086756L196.515,159.65135815950725L196.62328125000002,159.88799631764843L196.83984375,160.27173730257792L196.93265625,161.05276275397665L196.96359375,161.57703250001524L197.08734375,161.51586209180488L197.4740625,161.90919636347272L197.69062499999998,162.33245572164327L198.35578124999998,162.5652527961903L198.51046875,161.8862559648617L198.66515625,162.47947170024128L198.7734375,161.1511232663862L199.28390625,161.94288287215107L199.423125,161.90376856556426L199.73250000000002,161.9123475577501L200.0109375,160.65922932631182L200.22750000000002,160.8061732684032L200.475,161.66021674720255L200.50593750000002,159.52864635496024L200.76890625000001,161.30892145826468L201.03187499999999,160.59006507640086L201.57328124999998,161.54658786563152L201.75890625,158.9743598012043L201.774375,160.75692791690585L202.2384375,161.8893574446662L202.37765625,162.30231326603732L202.40859375,161.69571963920072L202.47046874999998,161.95036099612042L202.67156250000002,161.67038682279014L203.2284375,162.20103076541142L203.259375,161.9401088694215L203.33671875000002,160.76348822203158L203.7853125,160.87901610196332L203.95546875000002,160.81102721205772L204.54328125,160.28286835289848L204.82171875,160.74783772041368L205.87359375,160.37634463345987L205.981875,161.18819664687078L206.29125000000002,162.17247898987137L206.91,162.72050521950928L207.04921875,159.9247992760514L207.52875,160.8946740167356L207.54421875,161.92634910669486L207.72984375000001,161.02824527177296L207.77625,161.42603446996344L207.82265625,160.9648571997395L207.86906249999998,159.6144948672105L208.22484375,161.08043682869797L208.4259375,161.89140802245112L208.93640625,162.56369098004626L209.446875,163.12077985197922L209.70984375,162.8524692030863L210.08109374999998,162.99418819321957L210.0965625,162.05725236704637L210.2821875,162.19246956422484L210.51421875,161.9015663514196L210.5296875,162.52796057955592L210.54515625,162.698717026081L210.56062500000002,161.75471594203063L210.7153125,161.36716331712248L210.8390625,161.22009125443688L210.931875,161.568323061208L211.24125,161.19528383324234L211.31859375,161.0093157539775L211.33406250000002,160.30824488444046L211.34953125,160.5250061579478L211.56609375000002,161.20604818917192L211.8909375,158.146057951023L212.03015624999998,158.88288037163775L212.24671875,160.43586816981804L212.33953125,161.53291116738328L212.37046875,160.26109382922144L212.52515625,161.58710872852618L212.58703125,162.6170517982485L212.6334375,160.95660099233982L212.80359374999998,160.70552604660017L212.86546875,159.7539558030472L212.9428125,160.44669511868392L213.1903125,161.4456439679664L213.36046875,161.8741396086928L213.6234375,161.69099902902428L213.63890625,162.55797516413412L213.79359375,161.3193301790571L213.90187500000002,161.12062832274873L213.94828125,161.2407577274415L214.28859375000002,161.3028453470742L214.30406250000001,161.36520395721985L214.35046875,160.6222944609369L214.93828125,161.52934899352974L215.03109375,161.34286429091088L215.0465625,162.13166776137822L215.1703125,161.21937540438424L215.263125,161.3959280963383L215.55703125,157.37482886577925L215.7890625,158.1118379283862L216.14484374999998,160.38719255614424L216.19125000000003,161.3845296407636L216.26859375,161.75384093988598L216.53156249999998,160.56492357780306L216.79453125,161.85536646241235L216.82546875,160.8956719089917L216.98015625,160.59036170048884L217.10390625,161.50117815831823L217.13484375000002,161.29710785605792L217.16578125,161.615195036069L217.24312500000002,159.52433697589365L217.28953125,158.33816047328446L217.38234375,159.5422128371674L217.614375,159.36944935088454L217.67625,160.4248187621199L217.81546874999998,161.26881261294093L217.93921875,162.02952431860783L218.34140625,162.6164016120136L218.604375,162.41034765294623L218.89828125,161.31848614919187L219.26953125,161.32180564163497L219.40875,161.92839951220034L219.59437499999999,162.23056991255297L219.718125,162.3698373793424L219.82640625,162.62735990594138L220.04296875,162.03379574992584L220.38328124999998,162.66751581391972L221.09484375,160.44997144360966L221.88375,161.2841524299446L222.3478125,160.88507306908065L222.39421875,161.660331054908L222.48703125,161.3634861485808L222.51796875,162.12145681098355L222.70359374999998,162.5383337796005L223.35328125,161.26282700723328L223.3996875,161.94147465886297L223.41515625000002,162.34014052750285L223.430625,160.4246864699562L223.678125,161.1003742890288L224.03390625,161.1488557118357L224.06484375,161.96292051599292L224.43609375,162.10661693777874L224.4515625,162.82041589142852L224.52890625,161.07241509327193L224.915625,161.31742260629133L225.25593750000002,160.34639473635758L225.45703125,158.40116880676715L225.70453124999997,160.06426559544332L226.23046875,160.95404994847271L226.32328124999998,160.70176069952186L226.38515625,161.60645223030656L226.47796875,161.7318031971663L226.58625,162.4496873792107L226.80281250000002,159.70171150550388L226.895625,159.6027078412652L226.94203124999999,160.820023729152L227.019375,160.96653104764866L227.14312500000003,161.7696215328136L227.52984375,161.54648076862873L227.8546875,161.3727608395223L228.33421875,160.12066226629895L229.01484375,160.06823997901967L229.07671875,160.80483076067875L229.4634375,160.12955229869465L229.7109375,160.56000810743387L229.75734375000002,161.76902796847872L230.48437499999997,161.9621242479876L230.59265625,162.36559511752867L230.82468749999998,163.03098846964417L231.04125,162.96674627811495L231.10312499999998,161.59301291151175L231.48984374999998,160.6770526947322L231.55171875,161.13327366239L231.66,161.48331992222427L231.72187499999998,161.36501111409913L231.845625,161.58563946177102L231.92296875000002,162.24600400801364L231.969375,161.50459548165207L232.04671875,160.88693968467086L232.23234375,161.55660744769034L233.26874999999998,161.13876676045453L233.28421875,161.30415427876642L233.330625,160.14273346692485L233.4234375,159.79816656505307L233.701875,160.66580139717178L233.8565625,161.55513062602282L233.98031250000003,162.012671311195L234.02671875000001,162.41420583732148L234.073125,162.91870100553592L234.08859375,162.77263647805606L234.7228125,163.15927242841502L234.75375,163.51106156880527L235.10953125,162.56821330153437L235.38796875,162.12209223304004L235.62,161.85753599312193L235.92937500000002,161.93273033886638L236.424375,162.10557436864408L236.4553125,161.5149761063251L236.47078125000002,160.49942748105315L236.53265625,161.4685287980548L236.70281250000002,162.33546633416037L236.84203125,162.70062239670781L236.98125000000002,160.322462887788L237.2596875,160.00040148250284L237.27515624999998,160.6205187834707L237.52265625,161.23656991768607L237.6928125,161.7871499620728L237.98671875000002,162.23124587814692L238.54359375,161.12855932922432L239.33249999999998,161.03911965472687L239.61093749999998,159.60005397897305L239.93578125,159.53053501172525L240.12140625,160.95716172256908L240.44625,161.47795520975492L240.508125,162.36240793407933L240.57,162.76805137421348L241.17328125,160.97040317061084L241.621875,161.51325779309678L241.66828124999998,161.21475420481875L241.77656249999998,162.14141894561553L241.8384375,162.6192238049018L242.00859375,162.67445002055936L242.17875,162.30139167108487L242.48812500000003,161.3471479215694L242.59640625,161.98178164236722L242.68921875,161.95186053451542L243.0759375,162.05379417658406L243.52453125,160.8528090586355L244.32890625,160.93371456651292L245.25703125,161.45862876625472L245.6128125,161.11966816964855L245.64375,162.23758155152245L245.75203125000002,162.9253370758569L245.7675,162.0556761884411L245.829375,162.26021396785794L246.33984375,162.33803852014347L246.40171875,162.31430347032907L246.6028125,162.25500734639843L246.66468749999999,161.89216487722632L247.12875,161.23436428080225L247.29890625,161.0845524797836L248.01046875,161.4988179877187L248.56734375,162.43425581680128" style="fill: none;" fill="none"></path></g></g></g></g><g opacity="0.2"><g><g><g><path stroke="rgb(255, 112, 67)" stroke-width="2px" d="M30.9375,19.193540709359315L31.076718749999998,-3.147819144385213L32.2059375,15.093787040029255L32.31421875,18.256382243973878L32.67,16.83812769821712L32.84015625,9.070357407842366L32.99484375,6.398986305509298L33.05671875,12.369726112910685L33.350625,14.790895904813496L33.67546875,19.955176949501038L33.79921875,12.040716137204853L33.9075,13.360433476311828L34.52625,3.237837961741862L34.66546875,13.146750313895101L35.03671875,15.838392530168804L35.268750000000004,10.829181739262186L35.469843749999995,11.21354918820518L35.50078125,14.915958881378174L35.59359375,6.276636191776834L35.6090625,14.332994801657552L35.64,17.20419839450291L35.6709375,5.738630277769918L35.90296875,18.86254130090987L36.073125000000005,14.926885690007893L36.30515625,7.913019980703084L36.52171875,15.979808041027608L37.140468750000004,8.443143521036419L37.171406250000004,13.516392946243286L37.4653125,12.691848431314739L37.975781250000004,15.357386878558573L38.0221875,14.24814248085022L38.176874999999995,8.145090324538106L38.37796875,12.968138439314718L38.594531249999996,20.118777649743226L38.73375,15.604890397616801L39.47625,15.729154586791992L40.23421875,3.7642087084906413L40.528124999999996,10.954199501446329L40.82203125,13.831175463540221L40.88390625,11.717704602650247L40.914843749999996,11.58727618626186L41.34796875,8.558636120387492L41.44078125,9.314379419599263L41.812031250000004,12.078364644731792L42.02859375,-0.28035327366418517L42.36890625,15.354734301567078L43.60640625,7.770654967853007L43.683749999999996,8.893101964678081L44.163281250000004,13.532609837395812L44.42625,9.316564781325216L44.735625000000006,16.016808475766865L44.874843750000004,10.085736751556396L44.8903125,15.565795029912678L45.06046875,14.890412756374898L45.4471875,3.887176752090454L45.52453125,8.544619662421102L45.601875,7.46393568175181L45.802968750000005,13.21048751899174L46.004062499999996,15.669064675058635L46.20515625,11.06812466893878L46.468125,16.07264823572976L46.529999999999994,13.546174151556844L46.591875,10.734608326639446L46.947656249999994,13.539422137396688L47.102343749999996,17.787328260285523L47.4271875,11.713725737163005L47.59734375,10.76756961005076L47.705625,9.26119223662785L47.81390625,12.435030749865946L48.13875,12.804899454116821L48.3553125,12.0462624345507L48.52546875,14.560769779341573L48.55640625,4.986775415284302L48.7884375,5.696505546569824L48.9121875,18.527894599097127L49.376250000000006,11.404836160796041L49.62375,11.87985844271525L49.6546875,17.79879764148167L49.933125000000004,10.694081170218343L50.2425,14.89858148779189L50.551875,9.431138021605367L50.923125,15.838196601186482L51.04687499999999,15.15695152963912L51.2325,14.501674583980021L51.37171875,10.976942334856304L51.48,7.012274163109924L51.6965625,15.131767119680134L52.036874999999995,15.82039720671517L52.222500000000004,10.983483348573955L52.655625,19.157836420195455L52.841249999999995,10.661783031054911L52.88765625,10.428612470626831L52.9959375,15.297055823462362L53.289843749999996,17.86010834148952L53.5528125,13.782524790082661L53.58375,16.93333411216736L53.72296875,9.130899463381084L53.9240625,12.42808280672347L54.20249999999999,9.390641008104595L54.24890625,11.187867420060302L54.27984375,12.097008040973124L54.34171875,17.265448808670044L54.6975,18.094424332891194L55.2234375,12.273856554712566L55.26984375,9.479758552142558L55.30078125,14.95838504178184L55.4709375,13.171015364783162L55.6565625,7.95011084420341L55.73390625,16.545711227825706L56.19796875,15.687044927052083L56.30625,15.960622072219849L56.43,14.271955387932922L56.476406250000004,14.512134177344198L56.55375,10.389924032347555L57.0178125,9.124690021787373L57.3271875,0.27566303525653046L57.915,18.55815809113639L58.440937500000004,15.490181514195028L58.88953125,15.721769571304321L59.10609375,14.764867493084493L59.152499999999996,5.349394747189127L59.1834375,14.676985808781229L59.4309375,9.894901922770915L59.956875,7.7586731570107625L60.06515625,14.050917352948872L60.096093749999994,16.27899159703937L60.467343750000005,13.482768518584127L60.74578125,15.499375104904175L60.77671874999999,16.162037066050942L60.9159375,8.4185619694846L61.5965625,7.973335964339132L61.612031249999994,17.167695317949565L61.875,13.133427143096924L61.89046875,12.335453612463827L62.416406249999994,10.823183298110962L62.6175,8.478757381439209L62.787656250000005,18.28604287760598L63.282656249999995,15.132309692246581L63.4528125,14.696232063429708L63.9478125,14.135649102074767L64.05609375,16.17255694525582L64.10249999999999,13.142183661460876L64.21078125,16.913741213934774L64.28812500000001,12.426364660263062L64.35,10.221003106662211L64.36546874999999,11.882827520370483L64.5665625,16.33746886253357L64.5975,6.62673114027297L64.67484375,13.869713187217712L65.20078125,17.92068053994861L65.38640625000001,10.291040182113647L65.71124999999999,3.2660818781171668L65.88140625,15.525750160217285L65.97421875,12.567056741033284L66.268125,16.52302868025643L66.2990625,17.105676259313313L66.5775,22.84928916181838L66.6703125,31.863333565848226L66.763125,36.1914952141898L66.77859375,39.63897115843636L66.9178125,34.10854406016213L66.93328125000001,38.22119889940535L67.2271875,67.79673153162004L67.52109374999999,92.32031824759076L67.86140625,125.26078797238213L67.89234375000001,110.3463309620108L68.10890625,113.57768970302175L68.20171875,131.16575969542777L68.32546875,124.05700784070152L68.54203125000001,131.8149063246591L68.78953125,131.4600714019367L68.91328125,122.9712259386267L69.43921875,134.75070054403375L69.65578124999999,123.24551521028792L69.70218750000001,140.85032205922263L69.77953125,131.26644458515304L69.8259375,139.28519048222475L70.10437499999999,140.00962847471237L70.1353125,128.929407451834L70.46015625,124.22385644061225L70.53750000000001,136.4607573981796L70.6303125,135.10143414565496L70.78500000000001,130.8096889129707L70.89328125,142.41194952172893L70.95515625,139.52027700202805L71.07890625,138.1435575165919L71.62031250000001,136.84943528473377L71.88328125,135.83179333806038L72.0534375,133.10597281796592L72.19265625,144.09301642222064L72.28546875,136.3383281592812L72.45562500000001,137.94286218498436L72.4865625,144.27833698051316L72.5175,145.7841868528298L73.02796875,139.79186848231726L73.198125,137.5477845796517L73.39921875,132.91108376639232L73.55390625,148.78568133498942L74.48203125,138.65063679431168L74.4975,144.80390705593996L74.97703125,137.53204243949483L75.3946875,147.23425536709172L75.549375,136.80372919780868L75.93609375,133.2698240812336L76.05984375,145.75518747951304L76.1990625,146.51183695026805L76.27640625,145.93145762596814L76.41562499999999,142.62781239407403L76.4775,140.27595247966903L76.83328125,150.3311069778034L77.17359375,146.48457833060195L77.25093749999999,141.4571781711919L77.26640625,153.10615936453854L77.529375,151.0944830296295L77.59125,131.81444287725859L77.9934375,149.3777928490724L78.00890625,151.283572394933L78.1790625,153.16191811540295L78.4265625,155.94049157202244L78.519375,149.0946293132646L78.59671875000001,152.94134823765074L78.643125,146.6374500351293L78.82875,148.63283788944995L78.87515625,144.50842354340213L79.02984375,152.49726954741138L79.06078125,149.82658231258392L79.37015625000001,153.73082805850675L79.43203125000001,135.97273786578862L79.5403125,147.4329066319125L79.55578125,148.91890173937594L80.45296875,138.54071498342924L81.05624999999999,156.3239763985787L81.5203125,151.63038741690772L81.56671875,143.03116423104493L82.12359375,154.0805537562285L82.32468750000001,143.534858082022L82.72687499999999,149.6414557993412L83.28375,156.1166289012347L83.33015624999999,159.80363226522294L83.4075,150.04857550135682L83.42296875,150.8225985978331L84.01078125,153.47850449809005L84.22734375,157.19727708718608L84.72234375,141.76696826730458L85.55765625,153.6567122691444L85.68140625000001,144.82491478749685L86.53218749999999,149.68396014294456L86.54765625,145.8007051731859L86.9034375,143.34142342635565L87.0271875,153.3228558770248L87.5221875,152.17346016743352L88.31109375,148.38342594674657L88.41937499999999,155.185427430485L88.46578125,139.66475390323572L88.58953125,151.9653675747769L88.62046875,144.6950119882822L88.68234375,144.6675159931183L88.8834375,149.68388101777862L89.93531250000001,142.06903424007552L90.07453125,154.67089060587543L90.10546875,155.60623201834304L90.50765625,154.2422394390617L90.60046875,143.21993426978588L90.78609374999999,146.03000048441547L90.86343749999999,147.66683453321457L90.894375,154.1786614262632L90.92531249999999,150.27866112227952L91.018125,137.51470837635654L91.141875,150.87213848744122L91.34296875,154.10380148355452L91.77609375,145.87268081520287L92.255625,148.93315934070517L92.5959375,153.18402417962042L93.245625,153.00198448981558L93.3075,153.64444127465998L94.14281249999999,143.242266405906L94.4521875,155.81597587785552L94.49859375000001,149.9886834025383L94.5140625,151.69685726612806L94.74609375,152.43674915709664L94.7925,155.90585076276747L94.8853125,152.50566058286597L94.90078125,155.61271651408504L94.96265625,156.36001696969782L95.08640625000001,150.63499659725596L95.30296875,142.7387986268316L95.61234375000001,146.54952125251293L95.720625,147.29028163637435L96.2465625,157.0116574546056L96.5559375,155.63651717560631L97.31390624999999,148.6842522919178L97.62328124999999,154.8276921936444L97.99453125,151.48437511069434L98.27296875,150.80995552667548L98.55140625,148.04586480132173L98.64421875000001,154.5045826945986L99,151.90171326271127L99.07734375,153.24100277679307L99.2165625,157.38223781436682L99.29390624999999,151.56265815879618L99.57234375,148.31098120553153L99.58781250000001,156.62794608516353L99.66515625000001,156.93411714690072L99.69609375,156.09627489426305L99.89718749999999,152.0626114617501L100.00546875,149.92130078801085L100.1446875,158.76103245147635L100.25296875000001,140.60280723656928L100.3921875,149.9858104054417L100.7634375,149.9972232686622L101.21203125,145.88938564487864L101.64515625,156.09790072802988L101.84625,157.27180828366963L102.07828125,150.67031468025277L102.1246875,150.1986062356404L102.14015625,153.36808061919044L102.17109375000001,159.09908059345824L102.465,153.23544329191958L102.85171875,154.04540522715877L103.14562500000001,147.497011203851L103.40859375,152.49649713507722L103.4240625,138.3171261038099L103.48593749999999,149.58060195297003L103.6096875,144.09961018604892L103.74890625,156.3144352223192L103.87265624999999,143.44275262100356L104.4759375,147.8372870960406L105.23390625,134.50229085343227L105.28031250000001,149.29712851026227L105.54328124999999,153.1542344966105L105.8371875,146.1258625068835L105.88359375,148.27965517554966L105.94546875,154.7145611037101L106.28578125,157.99835533861605L106.3940625,148.15347502699922L106.4559375,150.20287051690477L106.51781249999999,155.27001882663797L106.65703124999999,151.08210276705879L106.71890625,153.07094583979676L106.858125,154.59434831142426L106.8890625,150.3079751123275L107.49234374999999,148.8039714938828L107.724375,151.9449240810105L108.0028125,149.9767006497298L108.28125,150.10467147614276L108.35859375,153.07455639647586L108.5596875,148.3985576927662L108.63703124999999,152.14360172088658L108.66796875,153.6113123212542L108.77625,151.03874406005656L108.8690625,139.527262623821L108.93093750000001,150.3087475246617L109.1165625,153.8556960480554L109.22484375,156.69499006282007L109.31765625000001,151.37893894314766L109.45687500000001,153.2278642313821L109.51875,150.5464065543243L109.6115625,149.9036360947149L109.79718749999999,148.699872918427L109.89,149.34838466239827L109.93640624999999,146.08717218467166L110.29218750000001,149.0238339549729L110.6015625,135.21133334934711L110.7871875,145.65452519697803L110.9728125,152.89071849307845L111.65343750000001,152.8028773133244L112.1175,152.71628894869772L112.2103125,155.611515507102L112.25671875,146.21689224243164L112.3959375,148.97405857379948L112.41140625,147.0759409815073L112.51968749999999,143.35438864997457L112.53515625,152.74182000224081L113.4478125,154.77957278915812L113.57156250000001,149.89441989681552L113.61796875,151.16151617467403L113.911875,150.53835839458873L113.97375,151.89568279470717L114.32953124999999,156.3647814350469L114.43781249999999,155.32289233484437L114.5925,152.47264183951276L114.63890624999999,160.41467494624L114.68531250000001,155.27248395234346L114.73171875,144.5200285677399L115.4278125,151.60116008775574L115.6134375,139.6212614370244L115.76812500000001,154.20396829183613L115.90734375000001,148.37585065407413L116.4178125,155.09586716230427L116.60343750000001,153.2150393607361L116.68078125000001,148.7264975947993L116.77359374999999,147.79732888724124L116.99015625000001,145.86464207512992L117.315,156.93845019170215L117.376875,149.1635143639786L117.45421875,149.82325246185064L117.79453125,156.2532234287688L118.4596875,140.23901044683797L118.62984375,147.45029532909393L119.0475,150.40039142221212L119.06296875,145.24682335981302L119.5115625,151.71908107612816L119.55796875,143.9240615857499L119.65078125000001,155.16808206375157L120.45515625,146.2707048910005L120.56343749999999,149.1650940413986L120.8109375,156.50608673585313L121.089375,148.9224670816745L121.19765625,154.6861598789692L121.59984375,143.18741382658482L121.72359374999999,156.14586847594808L121.90921875000001,152.5033895022103L121.9865625,157.4221946102168L122.00203125,148.88534042345626L122.5125,146.86798685789108L122.83734375,148.47016973580634L122.93015625,148.80719772832734L123.02296875,149.98054293010918L123.05390625,152.74885272234678L123.06937500000001,139.7773169875145L123.42515625,150.6223921467151L123.48703125,147.54985174323832L123.57984375000001,153.9882128036448L123.9975,149.9201280400157L124.07484375,155.4154932701162L124.1521875,151.70725845758406L124.29140625,138.87918983612744L124.63171875,156.0204918246184L125.11125,151.3622991091439L125.544375,153.39181628503968L125.57531250000001,154.02858076776778L125.68359375,141.99316450953484L125.74546875,146.20116705766748L125.90015625,150.79477574037654L125.93109375,155.48061233971802L126.0084375,157.53783792416965L126.10125000000001,156.76281257559148L126.41062500000001,142.54011721909046L126.64265624999999,153.35655942984988L126.781875,151.7144032716751L126.95203124999999,146.65742725559642L127.60171875,154.9527033620647L127.648125,153.1998218957867L127.6790625,147.1289491908891L127.77187500000001,147.5126440759216L127.94203125,148.14915705365794L128.32875,152.15777737115113L128.4525,155.97225090648448L128.56078125,146.26522641522544L128.71546875,145.60356293831555L128.73093749999998,149.67801633583647L129.0403125,154.6492187881044L129.07125,156.98407338559628L129.39609375,148.27315937621253L129.55078125,152.84945283510854L129.86015625000002,145.80904345852989L130.06125,153.9118683221085L130.2778125,146.9800375125238L130.32421875,147.12997216624873L130.38609375000001,153.23858663333314L131.113125,154.33338126859496L131.22140625,148.5661862407412L131.608125,156.15179909552847L132.3196875,151.9455043322274L132.598125,153.31996215667044L132.9384375,154.77832656779458L133.0003125,154.76605368937766L133.20140625,152.72248049293248L133.32515625,149.58407121470998L133.6809375,155.18055934884717L133.72734375000002,155.49068007511752L133.959375,149.79159203384606L134.330625,150.67064531041044L134.43890625,154.17970418291432L134.50078125000002,152.1137630556311L134.65546875,156.01295421059643L134.71734375,148.3339406911816L134.77921875,154.3264182539923L134.88750000000002,152.13909347036054L135.11953125,151.29520567825864L135.135,159.11497203526753L135.320625,150.99218078383376L135.49078125,150.880230919591L135.50625,149.1606875232288L135.8775,153.6188537031412L136.31062500000002,149.57076499930452L136.54265625,148.42752127136504L136.929375,147.12608561345507L137.2696875,154.02742309123278L137.50171875,156.58896092751195L137.53265625,147.87533876512734L137.71828125,145.5141251257488L137.795625,150.0282554051706L138.02765625,152.2921658137015L138.21328125,146.53361897809165L140.28609375,148.1388594784907L140.50265625,144.60035945049356L140.518125,147.56854600565774L141.21421875,158.90001250856687L141.61640625,150.94202484829086L142.04953125,152.36778592318296L142.065,148.40027960709165L142.08046875000002,148.89020756312777L142.17328125,139.989253744483L142.26609374999998,150.9794651812741L142.48265625,153.5596021413803L143.37984375,151.511112823018L143.39531250000002,150.0441030455487L143.81296874999998,148.3468380932297L144.13781250000002,154.88590665055173L144.15328125,154.69559272910868L144.49359375,158.26621192267964L144.52453125000002,142.07647388960635L144.91125000000002,150.38859046889203L144.95765625,149.47737752220462L144.973125,142.02981076495988L145.0040625,155.96259104247605L145.08140625000001,146.03654526599814L145.40625,145.74553420926844L145.52999999999997,151.90096816739867L145.60734374999998,157.48519943654537L145.6846875,154.0639459490776L145.76203124999998,156.4245689756104L145.99406249999998,146.64627814292908L146.04046875,154.18139972218444L146.086875,158.8143953111555L146.6128125,159.2966599006738L147.89671875,156.40675545164515L147.91218750000002,156.5024064736707L148.02046875000002,158.6758622170559L148.20609374999998,156.54403007881982L148.51546875,159.98856944324714L148.54640625,158.27990387326906L148.56187500000001,159.74238138007266L148.70109374999998,150.8198103777L148.9021875,153.82770740453688L149.01046875,154.3988658211061L149.1496875,151.5863881728479L149.30437500000002,162.14021678375346L149.35078125,161.1683852467686L149.36624999999998,156.8502237477473L149.56734375,161.95615021804613L149.96953125000002,155.1072545924357L150.03140625,155.55638975756509L150.24796875,162.26488601842095L150.83578125,154.50416257764613L151.284375,161.5415880406009L151.34625,162.91717257443815L151.60921875,157.83549361090576L151.79484375,159.83070673048496L152.10421875,158.1561624753688L152.69203125,163.6554580008212L152.83124999999998,157.5854660932507L152.955,159.35519462610995L153.21796874999998,159.33753652657782L153.75937499999998,162.53244835577374L154.33171875,163.25358581622797L154.45546875,160.93290498506812L154.5946875,159.98001073779804L154.85765625000002,155.60853795175044L155.60015625,160.25348332471083L155.925,160.86898668695775L156.28078125,160.59154277028782L156.31171875,163.22774073468256L156.43546874999998,161.14223532139192L156.54375,158.99481434800794L156.59015625,161.43315265247864L156.93046875,162.90209840610623L156.94593749999999,161.2566046259765L156.976875,160.4892188592681L156.99234375,162.69644621254076L157.42546875000002,162.61227387362825L157.6575,162.609277714443L157.79671875,162.41544743294696L157.87406249999998,161.80252140813639L157.95140625,162.6358495229589L157.96687500000002,163.65098472079262L158.15249999999997,162.48257606982122L158.41546875,159.99832397486483L158.4309375,163.57413222507705L158.57015625,161.59591877061342L158.87953124999999,159.34886037398664L159.00328125,162.51659353290287L159.04968749999998,158.88142986914943L159.1425,158.5549650862813L159.48281250000002,160.73171912453006L159.9778125,163.36963588298698L160.08609375,161.4941621587745L160.33359375,161.5382727903447L160.3490625,162.16549727427108L160.41093750000002,162.7392119517816L160.48828125,162.9236878018294L160.55015625,163.4627469518621L161.184375,159.140136663935L161.24625,162.9092289729576L161.49374999999998,160.37167795428206L161.555625,158.89227378474814L161.7103125,156.93815771117806L161.75671875,163.03249809252364L162.08156250000002,161.90529204665552L162.34453125,163.458795638888L162.77765624999998,161.13870459635345L162.80859375,163.3746435522501L162.88593749999998,158.41946135567767L162.916875,158.71649016386698L162.97875000000002,161.91607261502315L163.52015625,163.55171301595067L163.67484375,162.24700844075L163.8140625,162.09908441400955L163.89140625,159.27697233483195L164.1234375,163.58380139100234L164.34,159.9423528106085L164.54109375000002,161.13042541939234L164.94328124999998,162.04347590676377L165.59296875,163.0556347855766L166.14984375,160.42070612071882L166.24265625,161.53566189536025L166.33546875,157.82602779194713L166.47468750000002,159.82341167277525L166.58296875,163.22665900417735L166.629375,162.27153818415744L167.37187500000002,156.5338219904474L167.4646875,158.60919549688697L167.54203125,159.62473874273044L167.619375,159.51893850522382L167.63484375000002,158.63329146483113L167.68125,161.6011356152594L167.71218750000003,160.77987879807395L167.78953125,162.03477943874896L167.805,160.936633758513L167.8359375,162.5500180282231L168.03703125,159.84782037351815L168.09890625000003,160.95018394318012L168.3928125,160.97466753024077L168.59390625,162.92807300801257L169.2590625,160.1007147654891L169.46015625,162.08368632702957L169.6303125,161.42305548063348L169.66125,158.48224199403612L170.1871875,162.50617044073132L170.38828124999998,163.0058809518814L170.51203125,163.73620635124723L171.34734375,157.740581090429L171.703125,158.88469990502512L171.84234375,161.94358839147856L172.0434375,162.49147953492192L172.61578125,162.11022387152272L172.63125,163.03560222459157L173.29640625,163.24875235185027L173.34281249999998,161.98467837274075L173.43562500000002,160.28300596028566L173.49749999999997,163.5771760124314L173.5284375,159.892234553716L173.57484374999999,156.58512524089645L173.8996875,161.34277923192298L173.97703125,159.18256423728806L174.44109375,162.06828141079416L174.5803125,163.7747774558541L174.71953125,162.26418213413228L175.18359375,163.52924464796004L175.4775,162.35646939463913L175.64765625,158.22096598627311L176.22,160.05937375021833L176.28187499999999,161.12678260036876L176.60671875000003,162.28748802787493L176.776875,163.12663949586985L176.900625,163.31423019285182L177.1790625,159.07937513025743L177.34921875,161.66755436281008L177.90609375,158.2282158296023L177.99890624999998,163.4902037965533L178.138125,160.29505888958064L178.35468749999998,160.98072978960616L178.4475,160.58713742957582L179.3446875,161.6474897749722L179.375625,161.22086524856942L179.5921875,159.45123185430256L179.6540625,162.89372880038408L179.9634375,158.0597046592406L180.10265625000002,158.20185207788435L180.1490625,163.05304614454508L180.84515625,158.63785905923163L180.984375,160.43522982751685L181.30921875,161.82604701550943L181.44843749999998,156.54420622651068L181.54125000000002,162.55793101580014L181.61859374999997,160.0252745715635L181.81968750000001,160.3502581124859L182.34562499999998,161.05832590881204L182.63953125,162.58541417667377L182.88703125,162.01600652214674L182.91796875,161.0272106437811L183.10359375000002,163.80953589314595L183.83062500000003,161.98510367050767L184.14,159.8631880820862L184.15546875,160.1500818042883L184.201875,160.2220706338329L184.24828125,162.44431092763054L184.46484375,162.60606714018752L184.49578125000002,160.65598009180812L184.61953125,162.8128904333072L185.05265625,162.09102377322105L185.191875,162.52918891701847L185.315625,162.22075018925327L185.439375,163.0438034538446L185.7178125,161.1420290307807L186.1509375,156.86769769287537L186.35203124999998,163.71561626398136L186.90890625,162.4457998230521L186.924375,160.79678756344532L186.93984375000002,161.88584633065122L187.8215625,161.00480479880105L187.89890624999998,159.09496843974506L188.42484375,162.05848166479598L188.47125,162.02817554878337L188.67234375,162.18989938125014L188.68781249999998,163.36079170288784L188.904375,163.81478853250985L188.99718750000002,161.87963712454905L189.0590625,161.2695083862969L189.151875,162.36170743352602L189.29109375,161.98273509634393L189.41484375,163.6922198237319L189.56953124999998,161.5150950040136L189.8634375,161.6819690370134L189.94078125000001,158.34384218816248L190.04906250000002,163.18445102670896L190.62140624999998,161.50015306419562L191.22468750000002,161.53369695373942L191.24015624999998,159.3074661376221L191.27109375,160.85730913121787L191.39484375,162.28304712793658L191.44125,160.45189603657593L191.8125,162.32288500054608L191.87437500000001,157.77568864396642L191.99812500000002,159.26202568518264L192.07546875,160.51420851770257L192.18374999999997,159.8612311471786L192.26109375000001,162.63039753998498L192.33843750000003,156.87806874141097L192.493125,158.9300103661205L192.66328125,162.84991477044034L192.84890625,160.8957677297294L192.91078124999999,164.00227840966545L193.111875,160.16002284522568L193.77703125000002,163.5703368075192L193.93171875000002,163.23772027849088L193.978125,160.66472648403476L194.14828125,160.54417434840332L194.17921875,162.66326674619424L194.64328125,162.09323786491794L194.65875,163.30369912779759L194.67421875000002,159.4396315397961L194.7515625,161.7424962565835L194.79796875,159.4013142362237L194.92171875,161.32192833774855L195.35484375,160.55254654453267L195.40124999999998,157.698535955378L195.586875,161.9188973363489L195.9890625,158.65139605637108L196.00453125,160.77643850179655L196.31390625,153.89314203283618L196.515,162.6450557124668L196.62328125000002,160.24295355486018L196.83984375,160.8473487799721L196.93265625,162.2243009310748L196.96359375,162.3634371190731L197.08734375,161.42410647948938L197.4740625,162.49919777097446L197.69062499999998,162.9673447588991L198.35578124999998,162.9144484080108L198.51046875,160.8677607178688L198.66515625,163.36929530331065L198.7734375,159.1586006156036L199.28390625,163.13052228079843L199.423125,161.84509710568403L199.73250000000002,161.9252160460289L200.0109375,158.77955197915435L200.22750000000002,161.0265891815403L200.475,162.94128196540157L200.50593750000002,156.3312907665968L200.76890625000001,163.97933411322137L201.03187499999999,159.5117805036051L201.57328124999998,162.9813720494775L201.75890625,155.1160177045635L201.774375,163.43078009045814L202.2384375,163.58800173630672L202.37765625,162.92174699809402L202.40859375,160.78582919894586L202.47046874999998,162.33232303149998L202.67156250000002,161.2504255627947L203.2284375,162.99699667934328L203.259375,161.54872602543662L203.33671875000002,158.99855725094676L203.7853125,161.05230792186092L203.95546875000002,160.7090438771993L204.54328125,159.49063006415963L204.82171875,161.4452917716865L205.87359375,159.8191050030291L205.981875,162.40597466698716L206.29125000000002,163.64890250437227L206.91,163.54254456396615L207.04921875,155.73124036086458L207.52875,162.34948612776188L207.54421875,163.47386174163384L207.72984375000001,159.68108951939004L207.77625,162.02271826724922L207.82265625,160.27309129440357L207.86906249999998,157.58895136841704L208.22484375,163.27934977092912L208.4259375,163.10786481308085L208.93640625,163.572115416439L209.446875,163.95641315987868L209.70984375,162.45000322974687L210.08109374999998,163.2067666784195L210.0965625,160.65184862778653L210.2821875,162.39529535999256L210.51421875,161.46521153221173L210.5296875,163.46755192176042L210.54515625,162.95485169586857L210.56062500000002,160.33871431595514L210.7153125,160.7858343797603L210.8390625,160.9994831604085L210.931875,162.09067077136467L211.24125,160.6357249912939L211.31859375,160.7303636350802L211.33406250000002,159.25663858013493L211.34953125,160.8501480682088L211.56609375000002,162.22761123600816L211.8909375,153.55607259379966L212.03015624999998,159.98811400255988L212.24671875,162.76534986708847L212.33953125,163.17847566373115L212.37046875,158.35336782197868L212.52515625,163.5761310774833L212.58703125,164.16196640283204L212.6334375,158.46592478347677L212.80359374999998,160.32891362799066L212.86546875,158.3266004377178L212.9428125,161.485804092139L213.1903125,162.9440672418901L213.36046875,162.51688306978238L213.6234375,161.41628815952157L213.63890625,163.85843936679885L213.79359375,159.46136270144154L213.90187500000002,160.82257553828615L213.94828125,161.42095183448066L214.28859375000002,161.39597677652327L214.30406250000001,161.45874187243837L214.35046875,159.5079302165125L214.93828125,162.889930792419L215.03109375,161.06313723698258L215.0465625,163.31487296707928L215.1703125,159.85093686889326L215.263125,161.66075713426937L215.55703125,151.34318001994063L215.7890625,159.21735152229667L216.14484374999998,163.80022449778127L216.19125000000003,162.8805352676926L216.26859375,162.30780788856958L216.53156249999998,158.78154753467868L216.79453125,163.79103078932633L216.82546875,159.4561300788607L216.98015625,160.1323963877346L217.10390625,162.86740284506232L217.13484375000002,160.9910024026675L217.16578125,162.09232580608557L217.24312500000002,156.3880498856306L217.28953125,156.55889571937067L217.38234375,161.34829138299185L217.614375,159.11030412146022L217.67625,162.007872878973L217.81546874999998,162.53480338917245L217.93921875,163.1705918771082L218.34140625,163.49671755212228L218.604375,162.10126671434512L218.89828125,159.68069389356035L219.26953125,161.32678488029967L219.40875,162.83829031804842L219.59437499999999,162.6838255130819L219.718125,162.57873857952654L219.82640625,163.01364369583982L220.04296875,161.14344951590257L220.38328124999998,163.61809590991055L221.09484375,157.12365488814456L221.88375,162.53542390944702L222.3478125,160.28645402778474L222.39421875,162.82321803364903L222.48703125,160.91821878909002L222.51796875,163.2584128045876L222.70359374999998,163.16364923252593L223.35328125,159.3495668486825L223.3996875,162.95944613630752L223.41515625000002,162.9381393304627L223.430625,157.55150538363625L223.678125,162.11390601763767L224.03390625,161.221577846046L224.06484375,163.18401772222882L224.43609375,162.3221615704575L224.4515625,163.8911143219032L224.52890625,158.45041389603702L224.915625,161.68493387582046L225.25593750000002,158.88985293145691L225.45703125,155.48332991238152L225.70453124999997,162.55891077845757L226.23046875,162.2887264780168L226.32328124999998,160.32332682609558L226.38515625,162.9634895264836L226.47796875,161.9198296474559L226.58625,163.52651365227732L226.80281250000002,155.57974769494365L226.895625,159.4542023449072L226.94203124999999,162.6459975609822L227.019375,161.18629202539367L227.14312500000003,162.974257260561L227.52984375,161.21176962235143L227.8546875,161.11218094586263L228.33421875,158.24251440646393L229.01484375,159.9896065481007L229.07671875,161.9097169331674L229.4634375,159.11663460571853L229.7109375,161.2056918205427L229.75734375000002,163.582557760046L230.48437499999997,162.25176866725087L230.59265625,162.9708014218403L230.82468749999998,164.0290784978175L231.04125,162.87038299082113L231.10312499999998,159.5324128616069L231.48984374999998,159.30311236956288L231.55171875,161.81760511387674L231.66,162.00838931197566L231.72187499999998,161.18754790191142L231.845625,161.9165819832789L231.92296875000002,163.2365508273776L231.969375,160.3924826921097L232.04671875,159.96045598919903L232.23234375,162.5611090922196L233.26874999999998,160.5120057296008L233.28421875,161.55223555623422L233.330625,158.40060224916255L233.4234375,159.2813162122454L233.701875,161.96725364534984L233.8565625,162.88912446929942L233.98031250000003,162.69898233895321L234.02671875000001,163.01650762651116L234.073125,163.67544375785758L234.08859375,162.5535396868363L234.7228125,163.73922635395346L234.75375,164.03874527939064L235.10953125,161.15394090062807L235.38796875,161.45291063029853L235.62,161.46070163324475L235.92937500000002,162.04552185748307L236.424375,162.3648404133107L236.4553125,160.62907871284654L236.47078125000002,158.9761045431452L236.53265625,162.9221807735573L236.70281250000002,163.6358726383187L236.84203125,163.248356490529L236.98125000000002,156.75522362440825L237.2596875,159.51730937457512L237.27515624999998,161.55069473492247L237.52265625,162.16064661900913L237.6928125,162.6130200286529L237.98671875000002,162.89738975225816L238.54359375,159.47452950584037L239.33249999999998,160.9049601429807L239.61093749999998,157.4414554653423L239.93578125,159.42625656085355L240.12140625,163.0971017888348L240.44625,162.25914544053376L240.508125,163.6890870205659L240.57,163.3765165344147L241.17328125,158.2739308652069L241.621875,162.3275397268257L241.66828124999998,160.76699882240166L241.77656249999998,163.53141605681074L241.8384375,163.33593109383116L242.00859375,162.75728934404572L242.17875,161.7418041468731L242.48812500000003,159.9157822972962L242.59640625,162.93373222356396L242.68921875,161.9069788727377L243.0759375,162.20669463968704L243.52453125,159.05133138171266L244.32890625,161.05507282832903L245.25703125,162.2460000658674L245.6128125,160.61122727473932L245.64375,163.9144516243333L245.75203125000002,163.9569703623586L245.7675,160.75118485731738L245.829375,162.56702063698322L246.33984375,162.45477534857181L246.40171875,162.27870089560747L246.6028125,162.1660631605025L246.66468749999999,161.34790117346813L247.12875,160.2476633861661L247.29890625,160.85983477825565L248.01046875,162.12021624962134L248.56734375,163.83741256042515" style="fill: none;" fill="none"></path></g></g></g></g></g></g><g transform="translate(51, 177)" clip-path="url(#clip_1)"><clipPath id="clip_1"><rect width="278" height="23"></rect></clipPath><g><g><line x1="0" y1="0" x2="0" y2="5" style="visibility: inherit;" fill="rgb(0, 0, 0)" stroke="rgb(204, 204, 204)" stroke-width="1px"></line><line x1="30.9375" y1="0" x2="30.9375" y2="5" style="visibility: inherit;" fill="rgb(0, 0, 0)" stroke="rgb(204, 204, 204)" stroke-width="1px"></line><line x1="61.875" y1="0" x2="61.875" y2="5" style="visibility: inherit;" fill="rgb(0, 0, 0)" stroke="rgb(204, 204, 204)" stroke-width="1px"></line><line x1="92.8125" y1="0" x2="92.8125" y2="5" style="visibility: inherit;" fill="rgb(0, 0, 0)" stroke="rgb(204, 204, 204)" stroke-width="1px"></line><line x1="123.75" y1="0" x2="123.75" y2="5" style="visibility: inherit;" fill="rgb(0, 0, 0)" stroke="rgb(204, 204, 204)" stroke-width="1px"></line><line x1="154.6875" y1="0" x2="154.6875" y2="5" style="visibility: inherit;" fill="rgb(0, 0, 0)" stroke="rgb(204, 204, 204)" stroke-width="1px"></line><line x1="185.625" y1="0" x2="185.625" y2="5" style="visibility: inherit;" fill="rgb(0, 0, 0)" stroke="rgb(204, 204, 204)" stroke-width="1px"></line><line x1="216.5625" y1="0" x2="216.5625" y2="5" style="visibility: inherit;" fill="rgb(0, 0, 0)" stroke="rgb(204, 204, 204)" stroke-width="1px"></line><line x1="247.5" y1="0" x2="247.5" y2="5" style="visibility: inherit;" fill="rgb(0, 0, 0)" stroke="rgb(204, 204, 204)" stroke-width="1px"></line><line x1="278.4375" y1="0" x2="278.4375" y2="5" style="visibility: inherit;" fill="rgb(0, 0, 0)" stroke="rgb(204, 204, 204)" stroke-width="1px"></line></g><g transform="translate(0, 8)"><text x="0" y="0" dx="0em" dy="0.95em" style="text-anchor: middle; visibility: hidden; font-family: Roboto, sans-serif; font-size: 12px; font-weight: 200;" fill="rgb(255, 255, 255)" stroke="none" stroke-width="1px">-2k</text><text x="30.9375" y="0" dx="0em" dy="0.95em" style="text-anchor: middle; visibility: inherit; font-family: Roboto, sans-serif; font-size: 12px; font-weight: 200;" fill="rgb(255, 255, 255)" stroke="none" stroke-width="1px">0</text><text x="61.875" y="0" dx="0em" dy="0.95em" style="text-anchor: middle; visibility: inherit; font-family: Roboto, sans-serif; font-size: 12px; font-weight: 200;" fill="rgb(255, 255, 255)" stroke="none" stroke-width="1px">2k</text><text x="92.8125" y="0" dx="0em" dy="0.95em" style="text-anchor: middle; visibility: inherit; font-family: Roboto, sans-serif; font-size: 12px; font-weight: 200;" fill="rgb(255, 255, 255)" stroke="none" stroke-width="1px">4k</text><text x="123.75" y="0" dx="0em" dy="0.95em" style="text-anchor: middle; visibility: inherit; font-family: Roboto, sans-serif; font-size: 12px; font-weight: 200;" fill="rgb(255, 255, 255)" stroke="none" stroke-width="1px">6k</text><text x="154.6875" y="0" dx="0em" dy="0.95em" style="text-anchor: middle; visibility: inherit; font-family: Roboto, sans-serif; font-size: 12px; font-weight: 200;" fill="rgb(255, 255, 255)" stroke="none" stroke-width="1px">8k</text><text x="185.625" y="0" dx="0em" dy="0.95em" style="text-anchor: middle; visibility: inherit; font-family: Roboto, sans-serif; font-size: 12px; font-weight: 200;" fill="rgb(255, 255, 255)" stroke="none" stroke-width="1px">10k</text><text x="216.5625" y="0" dx="0em" dy="0.95em" style="text-anchor: middle; visibility: inherit; font-family: Roboto, sans-serif; font-size: 12px; font-weight: 200;" fill="rgb(255, 255, 255)" stroke="none" stroke-width="1px">12k</text><text x="247.5" y="0" dx="0em" dy="0.95em" style="text-anchor: middle; visibility: inherit; font-family: Roboto, sans-serif; font-size: 12px; font-weight: 200;" fill="rgb(255, 255, 255)" stroke="none" stroke-width="1px">14k</text><text x="278.4375" y="0" dx="0em" dy="0.95em" style="text-anchor: middle; visibility: hidden; font-family: Roboto, sans-serif; font-size: 12px; font-weight: 200;" fill="rgb(255, 255, 255)" stroke="none" stroke-width="1px">16k</text></g><line x1="0" y1="0" x2="278.4375" y2="0" fill="rgb(0, 0, 0)" stroke="rgb(204, 204, 204)" stroke-width="1px"></line></g></g></g></g></svg>