<svg viewBox="0 0 330 200" xmlns="http://www.w3.org/2000/svg"><g><g><g><g><g><line x1="51.5625" y1="177" x2="46.5625" y2="177" style="visibility: inherit;" fill="rgb(0, 0, 0)" stroke="rgb(204, 204, 204)" stroke-width="1px"></line><line x1="51.5625" y1="159.29999999999998" x2="46.5625" y2="159.29999999999998" style="visibility: inherit;" fill="rgb(0, 0, 0)" stroke="rgb(204, 204, 204)" stroke-width="1px"></line><line x1="51.5625" y1="141.59999999999997" x2="46.5625" y2="141.59999999999997" style="visibility: inherit;" fill="rgb(0, 0, 0)" stroke="rgb(204, 204, 204)" stroke-width="1px"></line><line x1="51.5625" y1="123.89999999999999" x2="46.5625" y2="123.89999999999999" style="visibility: inherit;" fill="rgb(0, 0, 0)" stroke="rgb(204, 204, 204)" stroke-width="1px"></line><line x1="51.5625" y1="106.19999999999997" x2="46.5625" y2="106.19999999999997" style="visibility: inherit;" fill="rgb(0, 0, 0)" stroke="rgb(204, 204, 204)" stroke-width="1px"></line><line x1="51.5625" y1="88.49999999999999" x2="46.5625" y2="88.49999999999999" style="visibility: inherit;" fill="rgb(0, 0, 0)" stroke="rgb(204, 204, 204)" stroke-width="1px"></line><line x1="51.5625" y1="70.8" x2="46.5625" y2="70.8" style="visibility: inherit;" fill="rgb(0, 0, 0)" stroke="rgb(204, 204, 204)" stroke-width="1px"></line><line x1="51.5625" y1="53.09999999999999" x2="46.5625" y2="53.09999999999999" style="visibility: inherit;" fill="rgb(0, 0, 0)" stroke="rgb(204, 204, 204)" stroke-width="1px"></line><line x1="51.5625" y1="35.39999999999997" x2="46.5625" y2="35.39999999999997" style="visibility: inherit;" fill="rgb(0, 0, 0)" stroke="rgb(204, 204, 204)" stroke-width="1px"></line><line x1="51.5625" y1="17.700000000000017" x2="46.5625" y2="17.700000000000017" style="visibility: inherit;" fill="rgb(0, 0, 0)" stroke="rgb(204, 204, 204)" stroke-width="1px"></line><line x1="51.5625" y1="0" x2="46.5625" y2="0" style="visibility: inherit;" fill="rgb(0, 0, 0)" stroke="rgb(204, 204, 204)" stroke-width="1px"></line></g><g transform="translate(41.5625, 0)"><text x="0" y="177" dx="0em" dy="0.3em" style="text-anchor: end; visibility: hidden; font-family: Roboto, sans-serif; font-size: 12px; font-weight: 200;" fill="rgb(255, 255, 255)" stroke="none" stroke-width="1px">0.15</text><text x="0" y="159.29999999999998" dx="0em" dy="0.3em" style="text-anchor: end; visibility: inherit; font-family: Roboto, sans-serif; font-size: 12px; font-weight: 200;" fill="rgb(255, 255, 255)" stroke="none" stroke-width="1px">0.16</text><text x="0" y="141.59999999999997" dx="0em" dy="0.3em" style="text-anchor: end; visibility: hidden; font-family: Roboto, sans-serif; font-size: 12px; font-weight: 200;" fill="rgb(255, 255, 255)" stroke="none" stroke-width="1px">0.17</text><text x="0" y="123.89999999999999" dx="0em" dy="0.3em" style="text-anchor: end; visibility: inherit; font-family: Roboto, sans-serif; font-size: 12px; font-weight: 200;" fill="rgb(255, 255, 255)" stroke="none" stroke-width="1px">0.18</text><text x="0" y="106.19999999999997" dx="0em" dy="0.3em" style="text-anchor: end; visibility: hidden; font-family: Roboto, sans-serif; font-size: 12px; font-weight: 200;" fill="rgb(255, 255, 255)" stroke="none" stroke-width="1px">0.19</text><text x="0" y="88.49999999999999" dx="0em" dy="0.3em" style="text-anchor: end; visibility: inherit; font-family: Roboto, sans-serif; font-size: 12px; font-weight: 200;" fill="rgb(255, 255, 255)" stroke="none" stroke-width="1px">0.2</text><text x="0" y="70.8" dx="0em" dy="0.3em" style="text-anchor: end; visibility: hidden; font-family: Roboto, sans-serif; font-size: 12px; font-weight: 200;" fill="rgb(255, 255, 255)" stroke="none" stroke-width="1px">0.21</text><text x="0" y="53.09999999999999" dx="0em" dy="0.3em" style="text-anchor: end; visibility: inherit; font-family: Roboto, sans-serif; font-size: 12px; font-weight: 200;" fill="rgb(255, 255, 255)" stroke="none" stroke-width="1px">0.22</text><text x="0" y="35.39999999999997" dx="0em" dy="0.3em" style="text-anchor: end; visibility: hidden; font-family: Roboto, sans-serif; font-size: 12px; font-weight: 200;" fill="rgb(255, 255, 255)" stroke="none" stroke-width="1px">0.23</text><text x="0" y="17.700000000000017" dx="0em" dy="0.3em" style="text-anchor: end; visibility: inherit; font-family: Roboto, sans-serif; font-size: 12px; font-weight: 200;" fill="rgb(255, 255, 255)" stroke="none" stroke-width="1px">0.24</text><text x="0" y="0" dx="0em" dy="0.3em" style="text-anchor: end; visibility: hidden; font-family: Roboto, sans-serif; font-size: 12px; font-weight: 200;" fill="rgb(255, 255, 255)" stroke="none" stroke-width="1px">0.25</text></g><line x1="51.5625" y1="0" x2="51.5625" y2="177" fill="rgb(0, 0, 0)" stroke="rgb(204, 204, 204)" stroke-width="1px"></line></g></g><g transform="translate(51, 0)" clip-path="url(#clip_0)"><clipPath id="clip_0"><rect width="278" height="177"></rect></clipPath><g><g><g><line x1="0" y1="0" x2="0" y2="177" fill="rgb(0, 0, 0)" stroke="rgb(189, 189, 189)" stroke-width="1px" opacity="0.25"></line><line x1="30.9375" y1="0" x2="30.9375" y2="177" fill="rgb(0, 0, 0)" stroke="rgb(189, 189, 189)" stroke-width="1px" opacity="0.25"></line><line x1="61.875" y1="0" x2="61.875" y2="177" fill="rgb(0, 0, 0)" stroke="rgb(189, 189, 189)" stroke-width="1px" opacity="0.25"></line><line x1="92.8125" y1="0" x2="92.8125" y2="177" fill="rgb(0, 0, 0)" stroke="rgb(189, 189, 189)" stroke-width="1px" opacity="0.25"></line><line x1="123.75" y1="0" x2="123.75" y2="177" fill="rgb(0, 0, 0)" stroke="rgb(189, 189, 189)" stroke-width="1px" opacity="0.25"></line><line x1="154.6875" y1="0" x2="154.6875" y2="177" fill="rgb(0, 0, 0)" stroke="rgb(189, 189, 189)" stroke-width="1px" opacity="0.25"></line><line x1="185.625" y1="0" x2="185.625" y2="177" fill="rgb(0, 0, 0)" stroke="rgb(189, 189, 189)" stroke-width="1px" opacity="0.25"></line><line x1="216.5625" y1="0" x2="216.5625" y2="177" fill="rgb(0, 0, 0)" stroke="rgb(189, 189, 189)" stroke-width="1px" opacity="0.25"></line><line x1="247.5" y1="0" x2="247.5" y2="177" fill="rgb(0, 0, 0)" stroke="rgb(189, 189, 189)" stroke-width="1px" opacity="0.25"></line><line x1="278.4375" y1="0" x2="278.4375" y2="177" fill="rgb(0, 0, 0)" stroke="rgb(189, 189, 189)" stroke-width="1px" opacity="0.25"></line></g><g><line x1="0" y1="177" x2="278.4375" y2="177" fill="rgb(0, 0, 0)" stroke="rgb(189, 189, 189)" stroke-width="1px" opacity="0.25"></line><line x1="0" y1="159.29999999999998" x2="278.4375" y2="159.29999999999998" fill="rgb(0, 0, 0)" stroke="rgb(189, 189, 189)" stroke-width="1px" opacity="0.25"></line><line x1="0" y1="141.59999999999997" x2="278.4375" y2="141.59999999999997" fill="rgb(0, 0, 0)" stroke="rgb(189, 189, 189)" stroke-width="1px" opacity="0.25"></line><line x1="0" y1="123.89999999999999" x2="278.4375" y2="123.89999999999999" fill="rgb(0, 0, 0)" stroke="rgb(189, 189, 189)" stroke-width="1px" opacity="0.25"></line><line x1="0" y1="106.19999999999997" x2="278.4375" y2="106.19999999999997" fill="rgb(0, 0, 0)" stroke="rgb(189, 189, 189)" stroke-width="1px" opacity="0.25"></line><line x1="0" y1="88.49999999999999" x2="278.4375" y2="88.49999999999999" fill="rgb(0, 0, 0)" stroke="rgb(189, 189, 189)" stroke-width="1px" opacity="0.25"></line><line x1="0" y1="70.8" x2="278.4375" y2="70.8" fill="rgb(0, 0, 0)" stroke="rgb(189, 189, 189)" stroke-width="1px" opacity="0.25"></line><line x1="0" y1="53.09999999999999" x2="278.4375" y2="53.09999999999999" fill="rgb(0, 0, 0)" stroke="rgb(189, 189, 189)" stroke-width="1px" opacity="0.25"></line><line x1="0" y1="35.39999999999997" x2="278.4375" y2="35.39999999999997" fill="rgb(0, 0, 0)" stroke="rgb(189, 189, 189)" stroke-width="1px" opacity="0.25"></line><line x1="0" y1="17.700000000000017" x2="278.4375" y2="17.700000000000017" fill="rgb(0, 0, 0)" stroke="rgb(189, 189, 189)" stroke-width="1px" opacity="0.25"></line><line x1="0" y1="0" x2="278.4375" y2="0" fill="rgb(0, 0, 0)" stroke="rgb(189, 189, 189)" stroke-width="1px" opacity="0.25"></line></g></g></g><g><g><line x1="0" y1="442.5" x2="278.4375" y2="442.5" fill="rgb(0, 0, 0)" stroke="rgb(153, 153, 153)" stroke-width="1.5px"></line></g></g><g><g><line x1="30.9375" y1="0" x2="30.9375" y2="177" fill="rgb(0, 0, 0)" stroke="rgb(153, 153, 153)" stroke-width="1.5px"></line></g></g><g><g><g><g><g><path stroke="rgb(255, 112, 67)" stroke-width="2px" d="M40.327031250000005,-4.079106330302537L40.45078125,2.4704777071692225L40.5590625,6.779956126911978L40.8375,10.623455527431888L41.038593750000004,7.977746515522629L41.06953125,10.996922488405511L41.34796875,16.72875588544926L41.4871875,12.691858833420723L42.49265625,14.931371919781906L42.693749999999994,17.121839559791063L43.0340625,17.489074324653537L43.04953125,20.541219865440496L43.111406249999995,22.54898046265044L43.1578125,24.972415571380925L43.2815625,25.890632812984023L43.3434375,26.90729649274729L43.358906250000004,24.376266988877756L43.482656250000005,27.684110655739296L43.683749999999996,31.619184463826265L43.714687500000004,34.192815381316954L43.869375,34.83825818528853L44.070468749999996,37.253781270442296L44.3953125,39.81195637884871L45.106875,40.88979255345473L45.24609375,42.94526909479384L45.4471875,44.835127450428736L45.462656249999995,45.21941684666233L45.5090625,47.88326092381934L45.880312499999995,48.35063617563439L46.17421875,49.18110703966827L46.42171875,51.96151572626847L46.4990625,53.17456008210976L46.529999999999994,54.23078539293595L46.9321875,55.110628950689296L46.9940625,54.63471042299425L47.41171875,58.267847491095885L47.519999999999996,60.827962424228474L47.782968749999995,63.42970648796868L47.9221875,65.82304531581491L48.015,64.83857261791096L48.2315625,64.27830526572339L48.324374999999996,63.926662231274356L48.37078125,67.04631908622764L48.40171875,67.71330708232593L48.49453125,69.0225750981272L48.68015625,69.68555814866859L48.74203125,67.68511586647992L49.004999999999995,66.12655576641127L49.23703125,67.00634483643144L49.7165625,68.40296467380469L49.73203125,66.51828402362287L49.88671875,67.67916086991768L49.97953125,68.44155031833435L50.07234375,70.47213786163749L50.2734375,71.56304121553356L50.50546875,72.49654684150076L50.985,73.72760015676526L51.18609375,74.09658490715456L51.21703125,76.03857713447833L51.37171875,77.97765364906026L51.9440625,78.72581814936677L52.005937499999995,77.82553106847699L52.17609375,79.3221803116075L52.23796875,78.2863554302175L52.26890625,78.92244021718778L52.34625,76.10234435840292L52.47,75.1004433102302L52.91859375,74.98909432827166L52.9340625,71.56017747256801L52.98046875,71.58507899811657L53.150625,72.34085573195688L53.289843749999996,72.68380205953352L53.66109375,72.03043551866445L53.8003125,72.16940222670834L53.893125000000005,73.64771587523816L54.43453125,74.25811325441404L54.883125,74.3553343724399L54.9140625,73.99894635640806L55.455468749999994,75.09805071906868L55.4709375,75.6603549053246L55.9659375,77.20706306165106L56.3990625,79.41369281514336L56.491875,80.2623680909396L56.6465625,81.660033074674L56.832187499999996,83.8644225078254L56.863125,83.91098783260071L56.90953125,84.58315202170502L56.9559375,84.02780448740879L57.1415625,85.95786489932836L57.4509375,86.91434075671356L57.59015625,88.8329185860584L57.605625,90.69274600456353L57.6675,88.6000064037977L57.74484375,89.10441839111998L58.0696875,90.67995151438029L58.1625,91.38671288383347L58.27078125,91.6893956389882L58.39453125,91.10426766749765L59.04421875,92.18202865441239L59.1215625,91.80070405768153L59.35359375,92.68657676995447L59.415468749999995,93.61075352893047L59.539218749999996,94.31626898623524L59.69390625,95.93668352087498L60.1115625,96.91000957100317L60.26625,97.29672155475502L60.2971875,98.17311453515046L60.37453125,99.28177573367554L60.43640625,99.53737801407556L60.74578125,101.19711891512348L61.070625,101.97623553531893L61.25625,102.82638142355458L61.45734375,104.42412342128769L62.029687499999994,105.6745987295619L62.24625,105.72285773235615L62.370000000000005,105.21264641580031L62.63296875,105.62051132317525L62.74125,104.74842237730181L62.926875,105.04306987419868L62.9578125,105.70054925030168L62.988749999999996,106.96539939485221L63.15890625,106.76351840310092L63.499218750000004,108.24847796430416L63.7621875,107.64237757204653L64.14890625,108.16699383872097L64.3190625,108.68759221234102L64.92234375,109.37838270185176L64.95328125,109.83993371837478L65.030625,109.64737508612006L65.16984375,110.41255697301179L65.29359375,111.44493801558741L65.35546875,112.32845712386256L65.4328125,112.66512715619643L65.649375,111.87131035415179L66.0825,112.35476092619814L66.15984375,112.73903730391332L66.43828125,111.81067537619191L66.53109375,112.72929120328094L66.84046875,112.63985383405868L67.010625,112.69163226095526L67.21171875,113.15221417283733L67.58296875,114.20475527575744L67.64484374999999,114.30388628205137L67.6603125,114.26555922093206L67.93875,115.05113044578871L68.5265625,115.08795525888839L68.7740625,114.00253154697756L68.9596875,114.35997268242433L69.2071875,114.32563262124076L69.57843749999999,114.30031206244371L69.980625,114.33086631825174L70.08890625000001,114.32826060991647L70.2590625,115.41839037743253L70.30546875,116.0550097791193L70.66125,116.35209976870871L70.90875,115.56211458915945L70.92421875000001,116.34548131973025L71.0325,116.22787774390001L71.15625,116.99099602846613L71.69765625000001,117.4280588711968L71.89875,117.61845428733932L72.39375,116.73728090852713L72.45562500000001,117.66017231262211L72.65671875,118.14043568901015L73.70859375,118.73809180431873L73.73953125,119.95365962861817L73.81687500000001,121.02270736877688L73.86328125,120.87957943720748L74.12625000000001,121.41617947923675L74.26546875000001,121.46234926291793L74.37375,122.26936629836183L74.8378125,122.41171786075813L75.735,122.27463967697024L75.7659375,123.07765106276707L75.85875,123.35361960938563L75.8896875,123.52499655129205L75.93609375,123.64985246715297L75.9825,123.69655260471593L76.1371875,123.76970625143264L76.15265625,124.1809557378785L76.24546875,124.50749502215648L76.663125,124.37020361272253L76.70953125000001,124.62081125140266L76.94156249999999,124.29348576026321L77.42109375,125.22756353777015L77.4984375,125.66067384720441L77.71499999999999,126.64777955179783L77.94703125,126.68758452686414L78.14812500000001,126.90016687040095L78.25640625,126.69232472033517L78.4265625,126.45529080630199L78.4884375,127.03307725238528L78.519375,127.05950623356274L78.75140625,127.03189594764265L78.9525,127.64205150458983L79.3546875,127.81566784674492L79.52484374999999,128.03789744831505L80.11265625,128.80167269422407L80.19,128.5915114227961L81.00984375,128.73861178306973L81.07171875,129.55517443167457L81.118125,129.16227772459445L81.25734375,130.02362649979347L81.38109375,130.00820425787575L81.41203125,128.66818446845608L81.82968749999999,129.30518999516048L82.06171875,129.66898310502572L82.34015624999999,129.9632090985056L82.58765625,129.15700496157345L82.9434375,129.37769817867814L83.20640625,129.98709857633258L83.29921875000001,130.24745111667605L83.36109375,130.4703887128195L83.593125,130.85075482147616L83.60859375,130.88405379026327L83.73234375,131.1890031021584L84.02624999999999,131.49848507335793L84.4284375,130.41388495296118L84.75328125,130.34263194921743L85.06265625,130.84980396025287L85.14,131.20115753958584L85.29468750000001,130.33477705415316L85.4184375,130.72088027077743L85.46484375,130.4138261012064L85.9134375,130.27094441539896L85.944375,130.76634236384623L87.04265625000001,131.51938970802473L87.32109375,131.33038832300738L87.41390625000001,131.54681418812316L87.47578125,131.61542231212368L87.66140625,131.89272547308943L87.78515625,131.9723319467757L87.87796875000001,132.14543549692002L88.12546875,132.2441594114395L88.21828125,131.41717478893756L88.32656250000001,132.0663342868576L88.3884375,132.53639297317937L88.74421875,133.05610098129165L88.8215625,133.03666267396025L88.89890625,133.7460193081822L89.0071875,134.3894423512195L89.23921875,134.31400665781217L89.71875,134.2521121780167L90.29109375,134.87621726558646L90.5540625,134.7234951320494L90.69328125000001,135.27438780813293L91.23468749999999,135.85522642142945L91.65234375,136.08483601144908L91.80703125000001,136.84258110701236L92.27109375,137.69319227354188L92.33296875,137.96833534719227L92.42578125,136.9889172552333L92.54953125,137.32145800643093L92.8434375,137.6697988461519L92.88984375000001,137.56207637131544L92.93625,137.3638487253013L93.35390625000001,136.34564729584844L93.50859374999999,136.18148604082964L93.66328125,136.7735562756375L93.740625,137.03793533509312L93.81796874999999,137.52183262658758L93.8334375,137.13701776016788L94.11187500000001,136.54090627861618L94.59140624999999,136.80525140831276L94.86984375,137.02866438465054L94.8853125,136.56274184604712L95.17921875,136.10142391621682L95.33390625000001,135.73706370754394L95.42671874999999,135.7408821923762L95.535,134.65667989393492L96.41671875,133.7253696847201L96.6178125,133.9555155403772L96.69515625000001,133.38992662175497L97.08187500000001,133.4843687665374L97.40671875,133.48748948111L97.5459375,133.8743239071742L97.60781250000001,133.87561990299903L97.7315625,134.2864256640567L98.814375,134.65961744083546L99.04640625,134.05624465157308L99.556875,134.6933421262517L100.11375000000001,134.65782580428342L100.2684375,134.2576979771101L100.28390625,133.8709129009103L100.546875,132.95250292495967L100.8871875,133.36071140519817L101.2275,133.85683867137547L101.24296875,133.56796970953098L101.28937499999999,133.99949769663L101.39765625000001,134.43292932149475L101.47500000000001,134.55900268516254L101.49046874999999,134.64844066596947L101.52140625,135.1900009198687L101.6296875,135.34533303750345L102.20203125,135.42651993718226L102.65062499999999,136.1981044592674L102.71249999999999,136.46104401612487L103.021875,136.5915812169714L103.1765625,136.59964729985495L103.2075,136.28806651737983L103.48593749999999,136.7369322446294L103.50140625,136.89516641832026L103.764375,137.18129379572315L104.6925,136.88647782163233L104.9709375,137.2033898527345L105.06375,136.9862284781113L105.249375,137.44249040089352L105.32671875,138.23831266224235L105.4659375,138.71253928059403L105.496875,139.1098760038446L105.54328124999999,139.79431171974394L105.69796875,140.0903527636598L105.74437499999999,140.3605310086496L105.991875,141.0203097471801L106.363125,140.57512073207644L106.51781249999999,140.46127656004114L106.53328125,140.6260698037381L106.99734375,141.18763162799985L107.05921875,141.57935641772127L107.30671875,141.2453854873023L107.67796875,141.32105765594042L107.724375,141.20799445367697L107.7553125,141.21171783086652L107.91,141.2788155718667L107.98734375,141.45627973687817L108.12656249999999,141.67621454779803L108.26578124999999,142.36916919680777L108.37406250000001,142.15799398938918L108.4359375,141.95729908975855L108.48234375,142.61901545653063L108.57515624999999,142.7594724056001L108.69890625000001,141.85031447376952L108.79171875,141.74768790997507L109.44140625,141.72440503432315L109.54968749999999,141.38763630051093L109.92093750000001,141.9070817470098L110.12203125,142.0475712581201L110.21484375,142.66091107879998L110.26125,142.63680161800016L110.6015625,142.76990715878372L111.59156250000001,143.0529779641396L111.6225,143.57495920313534L111.7771875,143.96205604291393L112.10203125,144.40582939014078L112.1175,144.3456503413332L112.47328125,144.21360219551843L112.59703125,143.85345859457505L112.87546875000001,144.0774642833845L113.23125,143.76147559059643L114.08203125,143.61699933271743L114.159375,143.75752420737214L114.283125,143.73247491544143L114.4996875,143.73059428047344L114.73171875,143.7362596548477L114.85546875,143.73785830847635L115.01015625000001,143.69983245443177L116.015625,144.1252550886992L116.38687499999999,144.29247111635468L116.5415625,144.0254748195191L116.86640625,143.9752315156784L116.92828125,144.23515848959977L117.39234375,143.94605443670062L117.68625,142.98032727503798L117.7790625,143.1679195832254L118.38234375,143.22336095089526L118.47515625,143.19160614283226L118.6453125,143.7017929340448L118.985625,144.23660910731527L119.40328125,144.3057262832423L119.480625,144.85624719102674L119.49609374999999,144.72941767497608L119.6971875,144.68531401156162L119.83640625,145.14300842590637L119.8828125,145.27962771294358L119.96015625,145.37327368403328L120.02203125000001,144.9271583909647L120.0375,145.19851762878642L120.09937500000001,145.56571192478063L120.3159375,145.54915305930112L120.470625,145.56058739570992L120.91921875,145.61339205728726L120.93468750000001,145.5975794091664L121.02749999999999,146.09761465419353L121.24406250000001,146.05134443836906L121.3678125,146.41367505338607L121.50703125,147.09159488796024L121.63078125,147.4895088754739L121.708125,147.18805564203657L121.78546874999999,147.48731585024652L121.8009375,147.3034577727837L121.955625,147.0239529542738L122.69812499999999,146.69994474551L122.88375,147.20567734048763L123.193125,146.97481713966076L123.564375,147.27307804685807L123.95109375,147.34115090632392L123.98203124999999,147.5256492693407L124.07484375,148.08021638443893L124.0903125,148.12903680661336L124.1521875,147.81874105251384L124.63171875,147.80196503668697L124.78640625,147.88326841335285L124.91015625,148.0089746322214L125.173125,147.7487271221748L125.28140624999999,147.77446104650883L125.31234375,148.03527385333712L125.72999999999999,147.4676000198863L125.80734374999999,147.54948135313458L126.11671874999999,147.61915433833934L126.30234375,147.54313381186657L126.81281249999999,147.8025754381614L126.8746875,148.13340175561095L126.99843750000001,148.38880300200523L127.26140625,148.56999138388716L127.3696875,148.65399564176298L127.91109375,147.36132718042774L127.97296875,147.5003478580628L128.390625,147.8588715503589L128.6690625,147.88843343860015L128.83921875,148.2789065337934L128.96296875,148.40082670713502L129.2878125,148.49333108512425L129.45796875,148.59614746169368L130.123125,148.31625024861395L130.185,148.0180178878947L130.4634375,148.31245972979264L130.66453125,148.3052683162855L130.741875,148.09124261867103L130.989375,148.1303117344063L131.06671875,148.40005000108906L131.34515625,148.8504500734046L131.59265625,148.8781541159542L131.9484375,149.07603924083358L132.04125,149.3450384369532L132.14953125,149.17815907443102L132.70640625,149.41183172677512L133.1859375,149.81935929496566L133.711875,149.61086378553088L133.85109375,148.988579860718L134.1759375,149.19433364023305L134.22234375,149.3723030761L134.2378125,149.508292912331L134.26875,149.86727111733038L134.3615625,149.6265397973199L134.6709375,148.78021063188038L135.33609375,148.5878114232114L135.50625,148.85565775005475L135.9703125,149.22231053320786L136.54265625,149.32141814057383L136.7746875,147.9463619795018L136.82109375,147.22282754594542L136.85203125,146.7089068865806L136.88296875,146.36174517682386L137.300625,146.4811323639651L137.37796875,146.64212157906178L137.40890625,146.70113432875536L137.43984375,147.01778482134887L137.47078125000002,147.43742227858039L137.548125,147.77133643828373L137.56359375,147.85838396316967L137.795625,147.63767932601417L137.8575,147.97617164373867L138.21328125,147.93648909006092L138.50718750000001,147.52059988359767L138.70828125,147.50862038626914L138.75468750000002,148.00501999135975L139.14140625000002,148.28978228853407L139.3734375,147.96496578270387L139.51265625000002,147.67772732043917L139.8375,148.12690615026827L139.88390625,148.5200375934741L140.22421875,148.3932988532246L140.53359375,148.2285033526968L140.641875,147.79871555651616L140.81203125,147.28538576404603L141.57000000000002,147.28204508580555L142.065,147.3927673988072L142.126875,147.53473871248895L142.23515625000002,147.53191404876944L142.498125,147.4598927564683L142.51359375,147.41248216831036L142.97765625,147.42976065300962L143.0240625,147.24995260146218L143.17875,147.4658680559311L143.24062500000002,147.3694295223521L143.56546875,147.8196506889745L143.611875,148.02440247078843L143.75109375,147.6483381230323L143.85937500000003,147.32966993068644L143.983125,147.5296969040651L144.045,147.7489169574054L144.06046875,147.65690726877307L144.43171875,148.07596427873347L144.52453125000002,148.56044644386708L144.55546875,148.92718031021218L145.14328124999997,148.81749559172908L145.23609375,148.4043821066832L145.37531249999998,148.10355964212795L145.52999999999997,148.1442333151655L145.5609375,148.05690722632164L145.65375,148.3944320602709L145.91671875,148.6537903761254L146.458125,149.05244762260062L146.5509375,149.68119676527712L146.9840625,150.12450856775973L147.076875,150.476496941097L147.54093749999998,150.93552049488443L147.571875,150.4801064440559L147.63375000000002,150.45527495571866L147.74203125,149.89534331607533L147.8503125,149.86898082575104L148.995,149.33714798099294L149.50546875,149.21581723882568L149.75296875,149.43482852612198L150.2015625,149.70479263871053L150.58828125000002,149.28743979202167L151.12968750000002,149.33365967175556L151.26890625,149.4751423898752L151.47,149.45694007443421L151.93406249999998,149.71093798601075L152.1196875,149.71478893328444L152.398125,149.16551209961267L152.56828125,148.8959073682826L152.59921874999998,148.74230592753742L153.24890625,149.00211440068122L153.31078125000002,149.44015261312225L153.77484375,149.43677496187954L154.33171875,149.8063551828396L154.36265625000001,149.3450140401425L154.45546875,149.43685316585348L154.79578125,149.56468915105216L154.81125,149.78214008716753L155.08968750000003,149.7789555057441L155.69296875,149.5818399494424L155.72390625,149.4505062438173L155.86312500000003,149.68685442361303L157.11609375,150.0246641141615L157.348125,150.0412528145114L157.98234375,149.8016557663621L158.461875,149.6196501495116L158.709375,149.72186662648676L158.8021875,149.79899213069518L158.9259375,150.07582444528342L159.21984375,149.9973822217502L159.575625,150.27768320779452L159.7921875,150.43429337756294L159.82312499999998,150.13175313054785L159.96234375,150.37037587942686L159.9778125,150.71822486369084L160.0396875,151.02249271772052L160.48828125,151.29076697202643L160.53468750000002,151.4639769510894L160.61203125,151.4457036081324L160.64296875000002,151.82013288321107L160.85953125,152.25586264500194L160.92140625000002,151.96762337933802L161.1225,151.64328247335783L161.49374999999998,151.3748141621634L161.5246875,150.98191866634883L161.84953125,151.23175367472817L162.11249999999998,151.2384058543439L162.23625,151.24335109949115L162.87046875000001,151.24598235274001L163.05609375,151.60862047164395L163.1025,151.91388002724656L163.3809375,152.11308529832516L163.39640624999998,152.2116531570215L163.411875,152.33197502343492L163.48921875,152.47199839334297L163.61296875,152.3768857561251L163.65937499999998,152.4422278627806L164.60296874999997,152.2456595792455L165.32999999999998,152.32771972323468L166.14984375,152.53849530161787L166.18078125,152.56430142528356L166.42828125000003,152.61227256255302L166.55203125,152.3174696935991L166.629375,152.40726780061024L166.7221875,152.49585954092217L166.73765625,152.27374440053438L167.00062499999999,152.23956761254L167.0625,152.60546016506686L167.5265625,152.5399060794742L167.5575,153.03310896283077L167.5884375,152.96125860576657L168.238125,152.66513221505L168.4546875,152.85564673340818L168.56296874999998,152.2483770719629L168.62484375,151.65906431355097L168.6403125,151.69046636370786L169.16625,151.4289138437591L169.24359375,151.5540328948127L170.0634375,151.82672715568748L171.20812500000002,151.87619841351727L171.5484375,152.22727129048786L171.96609375,152.54345388349324L172.6003125,152.7498311265863L172.7240625,152.80931729101124L172.9096875,152.80906008708024L173.0953125,152.711201075187L173.76046875,152.74063665439434L173.85328125,152.11281037929166L174.24,151.86264616554402L174.425625,152.12214671332308L174.44109375,152.23091784265043L174.71953125,152.37864010973558L174.9515625,152.68466229581884L174.96703125,152.85185110669698L174.98250000000002,153.23598953306072L175.15265625,153.28330649131274L175.2609375,153.74267997024424L175.663125,153.84242344469848L175.725,154.12073386042326L175.75593750000002,153.96733638741503L176.08078125,153.8302563268097L176.158125,153.83154523010597L176.22,153.89315645588238L176.2509375,153.97451009386373L176.29734375,153.80072822570614L176.51390625,153.7169406845956L176.9625,153.49762154690887L177.024375,153.86286265399724L177.03984375000002,153.89857003047447L177.25640625,153.94647974885427L177.42656250000002,153.81142086502908L177.44203125,154.20200095931054L177.55031250000002,154.50467475421374L177.890625,154.81983525371024L177.90609375,155.1073210706192L178.138125,155.1122455839815L178.23093749999998,155.2123089124347L178.2928125,155.17665785949117L178.4475,154.9848028804349L178.756875,155.05567810801776L179.29828125,155.35954691952878L179.5303125,155.16007641335656L179.60765625000002,155.52177718514545L180.69046875,155.63510904486407L180.7059375,155.76356111226042L180.96890625,156.0787951097354L181.0771875,156.41262099576005L181.18546874999998,156.4763729722506L181.29375,155.9108406928994L181.5103125,156.04984487263744L181.98984375,156.35070776782482L182.20640625000001,156.69773293194285L182.2528125,156.60894136346974L182.42296875,156.6352578319609L182.53125,156.91074305632202L182.5621875,156.79209226428736L182.8715625,156.78796171426407L183.1809375,156.87164339245857L183.4284375,157.06883817151473L183.50578124999998,156.9913965031609L183.72234375000002,156.44119710569692L183.7996875,156.4979364933422L183.84609375,156.64811280797153L184.09359375,156.75246972306178L184.74328125,156.98010492650485L184.78968749999999,157.0249361584995L185.191875,157.19488832770773L185.2846875,157.06011667072445L185.30015625,157.02256764163067L185.34656249999998,157.10007730579434L185.54765625000002,157.28395959701987L185.6559375,157.4896118971032L186.38296875,157.7641440798127L186.78515624999997,157.619270789113L186.84703125,157.86289920154846L187.18734375,157.56783486991066L187.2028125,157.41853709103205L187.55859375,157.5833283231399L187.63593749999998,157.48491247040755L187.65140625,157.42132460482168L187.86796875,157.60697515767242L188.11546875000002,157.62433021233568L188.161875,157.71799720319407L188.27015625,157.87547739680014L188.28562499999998,157.96372202945804L188.42484375,157.92526058230175L188.51765625,157.79305447831058L188.595,157.90498386395979L189.32203125,157.59096761479995L189.4303125,157.5164812792221L189.46124999999998,157.42394722264933L189.63140625,157.50933356913322L190.07999999999998,157.6293901995533L190.17281250000002,157.9335300094001L190.23468749999998,158.1410858077259L190.2965625,157.85853681574275L191.0390625,158.00572003059713L191.22468750000002,157.74442247478893L191.61140625000002,157.35944511208564L191.64234375,157.30537842525592L192.06,157.6249471737402L192.4621875,157.65747966494743L192.5859375,157.51230664300445L192.740625,157.66832999870735L193.06546875,157.94061062096122L193.40578125,157.98282683146655L193.8853125,157.9758964677515L194.05546875000002,157.98012822740648L194.2565625,157.70908585687198L194.47312499999998,157.703454118508L194.65875,158.07238418730955L194.720625,158.15520642259077L194.7825,158.07628315200603L194.9371875,158.02005044521442L194.968125,158.14262246374352L195.04546875,158.24030032505866L195.06093750000002,157.91186340912193L195.23109375,158.1174456952517L195.29296875,158.3094611926244L195.4321875,158.04587180100728L195.72609375000002,158.05573082275635L196.2675,158.36123462546502L196.59234375,158.248852740245L196.6696875,158.29874871413455L197.30390624999998,157.72043716923122L197.4121875,157.37868805635736L197.5359375,157.46565361350076L197.9071875,157.58709051748957L198.17015625000002,157.59183454730126L198.309375,157.91748312057018L198.47953125,157.92429523272673L198.57234375,157.64788567326076L198.63421875,157.7698272902075L199.19109375,157.83100220244427L199.2065625,157.9251254401196L199.423125,157.80294844745265L199.77890625,157.86327908549063L200.0109375,158.08315863912324L200.3203125,157.99617470197143L200.38218750000001,158.05150663870168L200.8153125,158.09832183740167L200.92359374999998,158.09200804340307L200.97,157.94857066399038L201.03187499999999,157.8067411018578L201.20203125,157.96814926493528L201.54234375,158.11184796355377L202.50140625,158.31400245954086L202.57874999999999,158.18992971271783L202.67156250000002,158.36903556589402L202.82625,158.47537937661684L203.36765624999998,158.55189687430965L203.5378125,158.72002132699802L204.125625,158.51276421020873L204.48140625,158.50586416392727L204.94546875,158.61101761330588L204.991875,158.46214664372565L205.03828124999998,158.52495567954554L205.1465625,158.55746868483342L205.3321875,158.86058897398613L205.34765625,158.91812157050103L205.65703125,158.2306898899988L206.16750000000002,158.43477231315953L206.6315625,158.39543161432178L206.8171875,158.22549807577312L207.219375,158.42305420989325L207.3740625,158.47758293952936L207.466875,158.5754211467369L207.63703124999998,158.94160334095952L207.9,158.81430907282336L207.94640625,158.72652316435946L208.51875,158.96120287052443L208.59609375,158.98146462607264L208.76624999999999,159.2303995802894L208.7971875,159.3142314810878L208.89000000000001,159.25026927093577L208.99828125,159.4616115610704L209.26125,159.7273438003194L209.52421875,159.40430981085217L209.77171875,159.73695694411512L209.98828125,159.90972159962152L210.0346875,160.3012644683818L210.0965625,160.31776038143812L210.25125,160.247162277419L210.29765625000002,160.0612705068144L210.42140625,160.21533211805328L211.00921875,160.29820833433195L211.13296875,159.96550450035429L211.3959375,160.00145399439626L211.50421875,159.86867713692564L211.5815625,159.7762503752852L211.6125,159.83005831150797L211.62796875,160.11579731207945L211.72078125,160.30873001280807L211.798125,160.2320445052639L212.06109375,160.28790624132776L212.2003125,160.5243139419243L212.664375,160.7176390354864L212.77265625,160.38815867053918L212.8809375,160.54416874472392L212.911875,160.15632505601187L212.92734375,160.55785225748332L213.11296875,160.42511604479574L213.29859375,160.61259263087703L213.66984375,160.79488404104217L213.6853125,161.08054158548242L213.71625,161.30254054814733L213.73171875,161.59920168474264L213.82453125,161.50986631171435L214.13390625000002,161.47698758197933L214.70624999999998,161.1058581126848L214.75265624999997,160.7775706513892L214.95375,161.03363679732138L215.386875,161.31932103950234L215.5415625,161.34458192245555L215.61890625,161.35346732702214L215.85093750000001,161.19959249811055L216.08296875000002,161.04745591751356L216.2221875,161.17486347220097L216.26859375,161.22009328077144L216.68625,161.52234738816142L216.73265625000002,161.46569857599636L217.04203124999998,161.41706569399054L217.0884375,161.46850132238745L217.9546875,161.4865138385701L218.00109375,161.67099036899768L218.55796875,161.66380743720293L218.89828125,161.93022406329453L218.91375000000002,161.8298292051048L219.19218750000002,162.02831954913916L219.3159375,162.0110089568952L219.36234375,162.02822997406508L219.67171875,162.0278586121034L219.78,162.20164651923787L219.90375,162.31710104134388L220.1821875,162.58844794251135L220.44515625,162.563620956581L220.53796874999998,162.59480909568697L220.5534375,162.67298347995688L220.56890625,162.84078791555203L220.64624999999998,163.00924631378066L220.78546875,163.294326727699L220.87828125,163.2348332995499L220.89375,163.47737401888187L221.18765625,163.45516238232207L221.21859375,163.4459940508356L221.65171875,163.44771952055342L221.76,163.3695783360508L221.88375,163.56161078775438L221.89921875000002,163.1310855857535L222.82734374999998,163.24739413199558L223.1521875,163.45380221249718L223.32234375,163.3671235796551L223.3996875,163.43743371668276L223.44609375,163.38150793752214L223.7090625,163.10805473080083L223.7709375,163.35793695869052L223.80187500000002,163.31680795866012L223.98749999999998,163.55463763790544L224.93109375,163.74647792386105L224.97750000000002,163.77054354212927L225.48796875,163.59582732704186L225.5653125,163.84962455302886L225.6271875,163.84276336421217L226.23046875,163.86674964003026L226.41609375000002,163.9766511791797L226.43156249999998,164.33941193145174L226.6171875,164.36449175042333L227.019375,164.17409935716196L227.1121875,163.94898176149053L227.37515624999997,164.11836939532475L227.6690625,164.0049863117947L227.76187499999997,163.8369962760383L227.83921875,163.56883031707238L227.9784375,163.61231026754618L228.628125,163.53582498529687L228.7828125,163.2603869645025L229.494375,163.4137213815168L229.5253125,163.37507387056212L229.55625,163.5349107289571L229.72640625,163.5647909278637L229.80375,163.77056337983146L229.85015625,163.79982188469333L229.989375,164.01938796266668L230.3296875,163.96408921554135L231.33515624999998,164.08442846811096L231.474375,164.22029745366547L231.73734375,164.48978662607922L232.03125,164.17725601978108L232.82015625,164.41929154468838L232.88203124999998,164.532698206769L233.31515625,164.78522755549454L233.84109375,164.72467143365597L234.05765624999998,164.71771690475785L234.13500000000002,164.97660344892188L234.36703125,164.9693573583334L234.45984375,165.2517835101553L234.4753125,165.33967795395932L234.92390625000002,165.38406994151416L235.24875,165.70704940617262L235.32609374999998,165.5805046756165L235.35703125,165.37843019105114L235.41890625000002,165.64049669782048L235.4653125,165.70298468290548L235.49625,165.9278847196216L235.82109375000002,166.01983672663786L236.053125,166.07872911890257L236.16140625,165.96283432685894L236.22328124999999,165.63643061566384L236.60999999999999,165.47833029421093L237.290625,165.30182206825776L237.66187499999998,164.9321728891833L237.6928125,164.9718781806968L237.8165625,164.9472608199332L237.92484375,165.02469475188695L238.01765625,165.2627959194121L238.21875,165.33617252643103L238.51265625,165.390883448627L238.94578124999998,165.5860141139216L239.1159375,165.6397192412977L239.20875,165.6027416358233L239.61093749999998,165.58125609822054L239.641875,165.85833459541067L239.8275,165.68346265635756L240.136875,165.59890304057691L240.30703125,165.55207764911458L240.89484374999998,165.49829881861675L240.94125,165.46408942545108L241.66828124999998,165.15317611476996L241.7146875,165.21923210286346L241.9621875,165.4387468513948L242.17875,165.55387073101372L242.59640625,165.5662586408726L242.62734375,165.5753499344843L242.72015624999997,165.83606374352604L242.99859375,165.84984940087517L243.3234375,166.09163882664038L243.3853125,165.9355221677088L243.46265625,166.03013689362973L244.14328125,165.71120938731292L244.40625,165.62277498722545L244.45265625,165.5588087750298L244.59187500000002,165.57799601112052L244.70015625,165.76869272330353L244.79296875,165.60363176824492L244.8703125,165.75049967459347L245.10234375000002,166.0443182850509L245.705625,166.24784732371796L246.06140624999998,166.18185309444897L246.076875,166.24150425973662L246.51,166.354318439958L246.95859375,166.243632863612L247.22156249999998,166.49721409819384L247.3453125,166.65656707743506L247.5,166.6667444521475L247.7784375,166.50815356157113L247.995,166.2088440809624L248.04140625000002,166.4883907614864L248.13421875,166.6662028733088L248.3353125,166.63979038105052L248.56734375,166.8394569453239" style="fill: none;" fill="none"></path></g></g></g></g><g opacity="0.2"><g><g><g><path stroke="rgb(255, 112, 67)" stroke-width="2px" d="M33.48984375,-4.0458279848098755L33.598125,5.005668997764587L33.629062499999996,199.88467544317245L33.6909375,-30.92723160982132L33.83015625,97.14062109589577L34.0003125,122.40747570991516L34.1859375,335.3957995399833L34.6190625,-117.09110856056213L34.835625,76.01681292057037L34.974843750000005,86.12252086400986L35.03671875,-89.42040503025055L35.083125,161.91994607448578L35.2996875,57.98329085111618L35.51625,8.808134347200394L35.825625,88.84590357542038L36.073125000000005,36.54398426413536L36.21234375,0.7167421281337738L36.784687500000004,0.6169125437736511L36.815625,-23.12517374753952L37.60453125,94.75022345781326L37.7128125,-106.48590981960297L37.8984375,195.22618129849434L37.91390625,86.00111648440361L38.006718750000005,-157.60182201862335L38.19234375,147.6076278090477L38.6409375,271.3340540975332L39.36796875,-15.954323709011078L39.7546875,96.016094237566L39.8784375,159.58034679293633L39.92484375,82.22391843795776L39.98671875,137.60554745793343L40.095,326.51975601911545L40.14140625,76.8296130001545L40.327031250000005,102.0061594247818L40.45078125,303.0250149965286L41.038593750000004,-120.98886698484421L41.06953125,161.03738397359848L41.34796875,307.0182379335165L41.4871875,-195.58575242757797L42.49265625,132.5973992049694L42.693749999999994,134.28416311740875L43.0340625,37.47871622443199L43.04953125,189.56121504306793L43.111406249999995,135.62818318605423L43.1578125,163.74736815690994L43.2815625,79.3359026312828L43.3434375,87.0391595363617L43.358906250000004,-127.70348131656647L43.714687500000004,196.07432395219803L43.869375,76.04084059596062L44.070468749999996,193.71038049459457L44.3953125,207.8982348740101L45.106875,112.71553963422775L45.24609375,181.83627784252167L45.4471875,174.2953857779503L45.462656249999995,71.90182954072952L45.5090625,235.31849406659603L45.880312499999995,81.67043790221214L46.17421875,109.15691167116165L46.42171875,255.33677861094475L46.4990625,143.02678182721138L46.529999999999994,133.44409123063087L46.9321875,121.90888166427612L46.9940625,18.063378632068634L47.41171875,340.8017957210541L48.015,-15.342053174972534L48.2315625,18.133114278316498L48.324374999999996,34.64202627539635L48.37078125,329.7063374519348L48.40171875,124.48063418269157L48.49453125,181.6508612036705L48.68015625,127.32320576906204L48.74203125,-108.0515331029892L49.004999999999995,-72.21131443977356L49.23703125,145.89728459715843L49.7165625,194.9082563817501L49.73203125,-105.90745210647583L49.88671875,174.93901625275612L49.97953125,139.57412883639336L50.07234375,261.7694304138422L50.2734375,175.32174468040466L50.50546875,162.12852001190186L50.985,193.0406914651394L51.18609375,110.1912622153759L51.21703125,267.7574383467436L51.37171875,271.15437403321266L51.9440625,153.93313094973564L52.005937499999995,-13.48240077495575L52.23796875,-28.626482784748077L52.26890625,145.1458328962326L52.34625,-220.02419292926788L52.47,-31.000712513923645L52.91859375,63.097809702157974L52.9340625,-297.6832222938537L52.98046875,74.28879842162132L53.150625,155.07337734103203L53.289843749999996,110.53012892603874L53.66109375,-0.6533628702163696L53.8003125,87.7521300315857L53.893125000000005,240.726250782609L54.43453125,143.78582954406738L54.883125,85.51541984081268L54.9140625,32.77377560734749L55.455468749999994,203.20777416229248L55.4709375,141.69776916503906L55.9659375,260.21711334586143L56.832187499999996,352.4466134235263L56.863125,89.62533921003342L56.90953125,167.65805035829544L56.9559375,14.904491007328033L57.1415625,327.8776229918003L57.6675,-181.01284861564636L57.74484375,154.52799394726753L58.0696875,296.4003923535347L58.1625,184.28369835019112L58.27078125,131.736728399992L58.39453125,13.180063515901566L59.04421875,236.6456077247858L59.1215625,40.35794913768768L59.35359375,212.9610849916935L60.1115625,232.41379603743553L60.26625,151.4661929011345L60.2971875,221.68840616941452L60.37453125,256.4833154529333L60.43640625,135.99935933947563L60.74578125,339.3825276196003L62.029687499999994,289.3999647349119L62.24625,112.85440430045128L62.370000000000005,29.381099492311478L62.63296875,166.58738136291504L62.74125,-26.35063201189041L62.926875,149.5867855846882L62.9578125,205.65326929092407L62.988749999999996,300.32442033290863L63.15890625,75.73093369603157L63.499218750000004,337.7675434201956L63.7621875,13.450170457363129L64.14890625,190.13856500387192L64.95328125,183.1232750415802L65.030625,78.91184449195862L65.16984375,233.19047547876835L65.35546875,255.57527504861355L65.4328125,167.53189846873283L65.649375,-18.15985858440399L66.0825,191.95016205310822L66.15984375,176.32700353860855L66.43828125,-42.58342355489731L66.53109375,266.26745872199535L66.84046875,97.61682271957397L67.010625,121.43202066421509L67.21171875,191.28250390291214L67.58296875,293.6243122816086L67.64484374999999,131.28421157598495L67.6603125,107.66872555017471L67.93875,250.9128114581108L68.5265625,121.48709177970886L68.7740625,-75.50988435745239L68.9596875,177.0630258321762L69.2071875,108.27334731817245L69.57843749999999,109.81684193015099L69.980625,119.76617217063904L70.08890625000001,113.86259078979492L70.2590625,311.13124318420887L70.30546875,230.87006404995918L70.66125,170.17583951354027L70.90875,-28.205431401729584L70.92421875000001,259.54857163131237L71.0325,94.6334083378315L71.15625,257.7376603335142L71.69765625000001,198.39430019259453L71.89875,153.04429158568382L72.39375,-47.93418377637863L73.81687500000001,325.13597555458546L73.86328125,93.43650832772255L74.12625000000001,224.73600424826145L74.26546875000001,130.38935869932175L74.37375,278.95771108567715L74.8378125,150.16490042209625L75.735,95.43935090303421L75.7659375,280.9252242743969L75.85875,177.8220735490322L75.8896875,157.48738065361977L75.93609375,148.4929856657982L75.9825,133.02604660391808L76.1371875,138.4424015879631L76.15265625,206.99512660503387L76.24546875,190.52385181188583L76.663125,96.50463938713074L76.70953125000001,175.68527206778526L76.94156249999999,57.336495369672775L77.42109375,317.0425524562597L77.71499999999999,330.9182184934616L77.94703125,134.95630502700806L78.14812500000001,171.2282833456993L78.25640625,83.18834871053696L78.4265625,76.65392875671387L78.4884375,248.88313226401806L78.519375,132.65397369861603L78.75140625,121.16563260555267L78.9525,257.75963075459003L79.3546875,164.97631385922432L79.52484374999999,175.7781122624874L80.11265625,293.47773291170597L80.19,83.11441943049431L81.00984375,160.68498685956L81.07171875,307.5297689437866L81.118125,43.22127789258957L81.25734375,319.10444878041744L81.38109375,126.61073639988899L81.41203125,-167.57713168859482L83.593125,217.59275570511818L83.60859375,138.50351259112358L83.73234375,201.2022677063942L84.4284375,-120.26745647192001L84.75328125,113.81936207413673L85.06265625,248.84989969432354L85.4184375,221.43953114748L85.46484375,58.03390458226204L85.9134375,96.48129746317863L85.944375,248.2992149144411L87.04265625000001,310.75306445360184L87.32109375,86.20212078094482L87.41390625000001,183.3878168463707L87.47578125,148.10139521956444L87.66140625,198.73680666089058L87.78515625,151.22185438871384L87.87796875000001,174.13441881537437L88.12546875,156.2658727169037L88.21828125,-70.43142020702362L88.74421875,261.0811337828636L88.8215625,128.23359355330467L88.89890625,309.556428194046L89.0071875,294.3418588489294L89.23921875,115.50438523292542L89.71875,118.77254471182823L90.29109375,291.4298549294472L90.5540625,96.29965245723724L90.69328125000001,274.28695254027843L92.8434375,227.64378815889359L92.88984375000001,109.65832784771919L92.93625,85.8695313334465L93.35390625000001,-128.90892684459686L93.50859374999999,93.29413577914238L93.66328125,291.8895062059164L93.81796874999999,265.01056864857674L93.8334375,35.469728261232376L94.11187500000001,-21.388534605503082L94.86984375,196.54590994119644L94.8853125,12.099582999944687L95.17921875,12.530683279037476L95.33390625000001,37.87146717309952L95.42671874999999,136.76929995417595L95.535,-158.1384488940239L96.69515625000001,-20.58625817298889L97.08187500000001,159.26397800445557L97.40671875,134.3416079878807L97.5459375,240.02886794507504L97.60781250000001,134.23220425844193L97.7315625,247.6141756027937L99.556875,311.8282435834408L100.11375000000001,124.75746676325798L100.2684375,22.431799918413162L100.28390625,25.49568459391594L100.546875,-125.04149973392487L101.2275,273.9379841834307L101.24296875,51.799026131629944L101.28937499999999,256.45928777754307L101.39765625000001,257.74293534457684L101.47500000000001,170.51657885313034L101.49046874999999,160.2210232615471L101.52140625,290.421958565712L101.6296875,179.98013332486153L102.20203125,158.8134129345417L102.65062499999999,359.0111405029893L102.71249999999999,212.57772356271744L103.021875,174.47257339954376L103.1765625,138.94608601927757L103.2075,45.42799964547157L103.48593749999999,267.948182746768L103.764375,221.22549757361412L104.6925,50.08224740624428L104.9709375,230.73676452040672L105.06375,72.74039804935455L105.249375,272.74554155766964L105.991875,339.9101671949029L106.363125,6.062649339437485L106.51781249999999,105.98428264260292L106.53328125,190.64739257097244L107.05921875,261.0280407965183L107.30671875,39.175792783498764L107.67796875,164.50077161192894L107.724375,106.4964334666729L107.7553125,142.35740929841995L107.91,161.97132468223572L107.98734375,196.3076376914978L108.26578124999999,357.50614028424025L108.37406250000001,76.45044520497322L108.4359375,79.37266945838928L108.48234375,349.42312873899937L108.69890625000001,-143.53352576494217L108.79171875,109.4629941880703L109.44140625,134.3840454518795L109.54968749999999,34.984770119190216L109.92093750000001,306.3818869739771L110.21484375,337.70262122154236L110.26125,134.9535883963108L110.6015625,185.27859181165695L112.10203125,287.33423084020615L112.1175,124.92273285984993L112.47328125,101.50548174977303L112.59703125,27.12948739528656L112.87546875000001,216.82977810502052L113.23125,40.92197969555855L114.08203125,96.49944350123405L114.159375,189.68098416924477L114.283125,135.5295404791832L114.4996875,143.11347663402557L114.73171875,145.59911459684372L114.85546875,144.26458954811096L115.01015625000001,131.14545240998268L116.015625,284.86469484865665L116.38687499999999,199.72304910421371L116.5415625,55.340431183576584L116.86640625,127.25299537181854L116.92828125,230.91855458915234L117.39234375,47.339953780174255L117.68625,-180.36607950925827L117.7790625,206.10248923301697L118.38234375,161.85994282364845L118.47515625,132.496198117733L118.6453125,315.8767881989479L118.985625,325.07718555629253L119.40328125,167.72240549325943L119.480625,331.7344341427088L119.49609374999999,101.59259855747223L119.6971875,129.65586841106415L119.83640625,301.4152926206589L120.09937500000001,272.1430693566799L120.3159375,139.83023062348366L120.470625,149.51712906360626L120.91921875,163.9194917678833L120.93468750000001,140.10540157556534L121.02749999999999,320.0997906178236L121.24406250000001,129.9201200902462L121.3678125,272.96895146369934L121.63078125,286.99019461870193L121.708125,41.30911275744438L121.78546874999999,252.7898582071066L121.8009375,82.48919874429703L121.955625,48.31129431724548L122.69812499999999,32.060778737068176L122.88375,326.46806091070175L123.193125,64.99512568116188L123.564375,253.37916925549507L123.95109375,171.60180687904358L123.98203124999999,213.3980405330658L124.07484375,346.4361537247896L124.0903125,165.62229171395302L124.1521875,36.43526628613472L124.63171875,141.76932469010353L124.78640625,177.17187568545341L124.91015625,193.37349191308022L125.173125,53.66524592041969L125.28140624999999,157.09407582879066L125.31234375,242.65548057854176L125.80734374999999,177.3593232035637L126.11671874999999,173.02864462137222L126.30234375,119.77049767971039L126.81281249999999,242.74898014962673L128.390625,280.64973682165146L128.6690625,158.85621964931488L128.83921875,293.3939393609762L129.45796875,187.00003892183304L130.123125,43.594194799661636L130.185,36.249612271785736L130.4634375,258.8440939038992L130.66453125,145.60117185115814L130.741875,67.48052626848221L130.989375,162.86963269114494L131.06671875,250.32994911074638L131.34515625,319.3293884396553L131.59265625,159.38147887587547L131.9484375,224.2221126705408L132.04125,251.6629707813263L132.14953125,85.59982001781464L132.70640625,238.5817477852106L133.1859375,305.58423936367035L133.711875,69.79127123951912L133.85109375,-89.62755471467972L134.26875,288.40079851448536L134.3615625,56.578159779310226L134.6709375,-178.86449486017227L135.33609375,73.9853797852993L135.50625,252.87628926336765L136.85203125,-54.44296717643738L136.88296875,10.269470661878586L137.300625,193.35505574941635L137.37796875,209.94749754667282L137.40890625,169.942314773798L137.43984375,271.91689006984234L137.56359375,182.35098704695702L137.795625,60.05038306117058L137.8575,282.5116838514805L138.21328125,132.14058324694633L138.50718750000001,-18.276805579662323L138.70828125,142.72571057081223L138.75468750000002,346.4942315965891L139.14140625000002,262.3247967660427L139.3734375,17.695552110671997L139.51265625000002,32.307438254356384L139.8375,328.80940094590187L139.88390625,306.89203329384327L140.22421875,97.26136609911919L140.53359375,81.64466947317123L140.641875,-26.10808700323105L140.81203125,-60.73046386241913L141.57000000000002,145.92632353305817L142.065,192.39202335476875L142.126875,205.31820058822632L142.23515625000002,146.38058111071587L142.498125,118.06142047047615L142.51359375,128.03187713027L142.97765625,154.50309589505196L143.0240625,73.53547409176826L143.17875,236.11019410192966L143.24062500000002,107.71973490715027L143.56546875,333.18804256618023L143.75109375,-7.629142999649048L143.85937500000003,15.564368516206741L143.983125,230.3554603457451L144.045,238.65024380385876L144.06046875,109.45059791207314L144.43171875,322.330764234066L144.55546875,301.8521822243929L145.14328124999997,103.01603391766548L145.23609375,-24.34116929769516L145.37531249999998,22.138351052999496L145.52999999999997,165.1993677020073L145.5609375,111.38903260231018L145.65375,290.3152187168598L147.571875,-42.84891486167908L147.63375000000002,139.8997288942337L147.74203125,-88.44574123620987L147.8503125,138.63238111138344L148.995,-77.65291035175323L149.50546875,97.36156493425369L149.75296875,243.16091895103455L150.58828125000002,-29.79553073644638L151.12968750000002,169.19260382652283L151.26890625,210.34549713134766L151.47,141.6153734922409L151.93406249999998,259.27768662571907L152.1196875,151.37815296649933L152.398125,-88.39858263731003L152.56828125,32.13821589946747L152.59921874999998,82.13521912693977L153.24890625,261.8112612515688L153.31078125000002,339.8842668905854L153.77484375,147.96638131141663L154.33171875,310.90411439538L154.81125,245.0567315518856L155.08968750000003,148.38186755776405L155.69296875,62.996054738759995L155.72390625,91.68681353330612L155.86312500000003,253.77057507634163L157.11609375,298.9790155738592L157.348125,157.3651586472988L157.98234375,43.886061161756516L158.461875,69.06139433383942L158.709375,195.02119436860085L158.9259375,273.06733042001724L159.21984375,115.10343164205551L159.575625,275.1210768520832L159.7921875,220.2736745774746L159.82312499999998,15.048393309116364L159.96234375,257.04659432172775L160.53468750000002,229.27927896380424L160.61203125,143.22628274559975L160.64296875000002,320.44551484286785L160.85953125,348.7271701544523L160.92140625000002,21.842053681612015L161.1225,5.042040199041367L161.49374999999998,29.880985915660858L161.5246875,-27.03543394804001L161.84953125,264.5660962164402L162.11249999999998,154.25970688462257L162.23625,153.4920872747898L162.87046875000001,152.4439162015915L163.05609375,316.90449222922325L163.48921875,216.67627528309822L163.61296875,108.71391624212265L163.65937499999998,182.47384205460548L164.60296874999997,61.79569959640503L165.32999999999998,190.13152286410332L166.14984375,249.75291565060616L166.18078125,164.48054194450378L166.42828125000003,174.78920593857765L166.55203125,15.872640162706375L166.629375,194.0170432627201L166.7221875,193.59409287571907L166.73765625,49.11436200141907L167.00062499999999,136.34819582104683L167.0625,322.93195724487305L167.5265625,121.98887720704079L167.5575,383.1497625634074L167.5884375,119.3993479013443L168.238125,14.184478372335434L168.4546875,242.04915761947632L168.62484375,-124.86584186553955L168.6403125,166.44197568297386L169.16625,28.42289373278618L169.24359375,210.4626551270485L170.0634375,280.36082446575165L171.20812500000002,175.22051721811295L171.5484375,318.07533368468285L172.7240625,181.0046723484993L172.9096875,152.68701508641243L173.0953125,106.22511327266693L173.76046875,166.73887968063354L173.85328125,-146.78187757730484L174.24,32.633987814188L174.425625,275.936079248786L174.98250000000002,337.5180024281144L175.15265625,176.00715324282646L175.2609375,374.5939056202769L175.725,288.211280554533L175.75593750000002,79.98077273368835L176.08078125,87.64306917786598L176.158125,154.45453941822052L176.22,183.70484501123428L176.2509375,193.38082417845726L176.29734375,69.5343254506588L176.51390625,113.04549157619476L176.9625,46.92491590976715L177.024375,331.5301329642534L177.03984375000002,171.28630846738815L177.25640625,177.30069145560265L177.42656250000002,87.90613397955894L177.44203125,344.99471079558134L177.90609375,295.9798289090395L178.138125,157.52783998847008L178.23093749999998,204.3467018008232L178.2928125,137.65270605683327L178.4475,60.58286905288696L178.756875,189.96565014123917L179.29828125,305.18564634025097L179.5303125,56.7078723013401L179.60765625000002,334.2284198105335L182.20640625000001,329.7242593020201L182.2528125,112.29309037327766L182.42296875,169.78295668959618L182.53125,294.6806464344263L182.5621875,97.39574700593948L182.8715625,154.71815809607506L183.1809375,198.8458938896656L183.4284375,256.0786957293749L183.50578124999998,118.07009786367416L183.72234375000002,-120.35586565732956L185.191875,243.19970346987247L185.2846875,88.79207208752632L185.30015625,137.98376575112343L185.34656249999998,196.4385898411274L186.38296875,297.50194653868675L186.78515624999997,83.80729213356972L186.84703125,282.1092136949301L187.18734375,6.945791691541672L187.2028125,81.13328352570534L187.55859375,241.8655476719141L187.63593749999998,107.10229486227036L187.65140625,124.83743593096733L187.86796875,252.82893285155296L188.11546875000002,166.53434112668037L188.161875,205.85171520709991L188.28562499999998,203.39656680822372L188.42484375,138.10472175478935L188.51765625,89.59864765405655L188.595,215.69435834884644L189.32203125,-4.687849581241608L189.4303125,118.98715853691101L189.46124999999998,109.51455742120743L189.63140625,201.75909787416458L190.23468749999998,266.0017827898264L190.2965625,10.890629589557648L191.0390625,234.63357344269753L191.22468750000002,21.58033400774002L191.61140625000002,-43.439083099365234L191.64234375,129.079177826643L192.06,324.612285643816L192.4621875,174.67249631881714L192.5859375,81.51537895202637L192.740625,239.4195118546486L193.40578125,180.1428410410881L193.8853125,154.33474391698837L194.05546875000002,160.20546197891235L194.2565625,15.049184560775757L194.47312499999998,154.73659425973892L194.65875,352.60288562625647L194.720625,201.86502009630203L194.7825,116.38697370886803L194.9371875,128.29000979661942L194.968125,223.0036774277687L195.29296875,260.27802653610706L195.4321875,17.945112884044647L195.72609375000002,163.30052196979523L196.2675,321.02547593414783L196.59234375,98.35914865136147L196.6696875,184.91218954324722L197.9071875,222.58476242423058L198.17015625000002,160.13322070240974L198.309375,332.51894038170576L198.47953125,161.57986611127853L198.57234375,9.190941900014877L198.63421875,223.31983521580696L199.2065625,208.60811948776245L199.423125,91.95744797587395L199.77890625,190.40534868836403L200.0109375,276.7862395942211L200.3203125,110.99752128124237L200.38218750000001,187.97351583838463L200.8153125,183.43616232275963L200.92359374999998,154.67189624905586L200.97,80.18454641103745L201.03187499999999,80.84959343075752L201.20203125,245.62237098813057L202.50140625,268.28015238046646L202.57874999999999,90.64151734113693L202.67156250000002,255.960311293602L203.5378125,250.55656358599663L204.125625,45.20650193095207L204.48140625,154.7305279970169L204.94546875,216.19287326931953L204.991875,76.87344834208488L205.03828124999998,192.9757560789585L205.1465625,176.40552207827568L205.3321875,325.395255535841L206.16750000000002,270.8329016715288L206.6315625,136.71095833182335L206.8171875,64.4825528562069L207.219375,267.49223716557026L207.63703124999998,361.5983619913459L207.9,88.30893382430077L207.94640625,110.06484657526016L208.51875,289.1537272185087L208.59609375,170.2310161292553L208.76624999999999,297.5523228943348L208.7971875,205.93300312757492L208.89000000000001,123.65266844630241L208.99828125,277.17579916119576L210.0346875,379.24783028662205L210.0965625,169.54935282468796L210.25125,120.7073923945427L210.29765625000002,55.86756303906441L210.42140625,246.63555555045605L211.3959375,180.21437019109726L211.50421875,85.1557432115078L211.5815625,107.72780567407608L211.6125,190.15446916222572L211.72078125,269.2072883248329L211.798125,116.91450119018555L212.06109375,191.86692237854004L212.92734375,388.5861164331436L213.11296875,84.98667910695076L213.29859375,267.2425577044487L213.73171875,330.83919882774353L213.82453125,110.5073145031929L214.13390625000002,142.692082375288L214.70624999999998,-51.09365165233612L215.386875,325.02988189458847L215.5415625,175.8310206234455L215.61890625,166.45278945565224L215.85093750000001,72.82561585307121L216.08296875000002,73.60718786716461L216.2221875,234.45621438324451L216.68625,335.6267461180687L216.73265625000002,128.81089076399803L217.04203124999998,133.36243405938148L217.0884375,191.16165339946747L217.9546875,171.89251273870468L218.00109375,268.322523906827L218.55796875,157.50811144709587L218.89828125,316.17797814309597L218.91375000000002,103.6618535220623L219.19218750000002,277.1153211593628L219.3159375,151.96687057614326L219.36234375,172.02760577201843L219.67171875,161.81207209825516L219.78,263.25685165822506L220.1821875,320.59929460287094L220.44515625,148.09601470828056L220.53796874999998,180.78227788209915L220.78546875,330.01342222094536L220.87828125,128.41758593916893L220.89375,305.51946222782135L221.18765625,150.43790861964226L221.21859375,158.0690561234951L221.65171875,164.46036502718925L221.76,117.47779324650764L221.88375,276.4200219511986L223.1521875,285.0152700394392L223.32234375,112.28327885270119L223.3996875,204.9033473432064L223.44609375,130.375986546278L223.7090625,1.613335758447647L223.7709375,311.0342752933502L223.80187500000002,138.99345561861992L223.98749999999998,304.30209517478943L224.97750000000002,178.03215086460114L225.48796875,59.985658675432205L225.5653125,314.4594322890043L225.6271875,159.7683745622635L226.23046875,178.12026992440224L226.6171875,179.29825901985168L227.019375,50.728198885917664L227.1121875,29.721205830574036L227.37515624999997,265.1850264519453L227.6690625,96.30832985043526L227.76187499999997,63.46911773085594L227.83921875,3.2418371737003326L227.9784375,189.62488442659378L228.628125,117.74663418531418L228.7828125,-1.7454484105110168L229.494375,255.3326377272606L229.5253125,140.19172713160515L229.55625,259.4794821739197L229.989375,296.1670258641243L230.3296875,130.66012501716614L231.33515624999998,236.60712651908398L233.31515625,317.57159650325775L233.84109375,128.06289419531822L234.05765624999998,160.50458148121834L234.13500000000002,321.9149087369442L234.36703125,160.5738951265812L234.45984375,336.681675799191L235.24875,362.131856828928L235.32609374999998,88.57096999883652L235.35703125,42.32592388987541L235.41890625000002,325.3271419554949L236.053125,202.0556589961052L236.16140625,95.11857748031616L236.22328124999999,-34.014431834220886L236.60999999999999,68.7121094763279L237.290625,57.200637459754944L237.66187499999998,-61.59968018531799L237.6928125,189.31977778673172L237.8165625,149.84201699495316L237.92484375,212.56809666752815L239.1159375,198.717130869627L239.20875,142.8137768805027L239.61093749999998,152.3316903412342L239.641875,336.8312883004546L239.8275,57.71088927984238L240.136875,113.35632160305977L240.30703125,136.60458773374557L240.89484374999998,132.23170906305313L240.94125,144.28977772593498L241.66828124999998,-27.40848273038864L242.17875,236.9859118759632L242.59640625,173.25739547610283L242.62734375,171.22319296002388L242.72015624999997,327.8994747251272L242.99859375,174.42441254854202L243.3234375,316.5737885981798L243.3853125,68.71461510658264L243.46265625,224.98660683631897L244.14328125,-33.13925474882126L244.40625,110.45095100998878L244.45265625,125.62802821397781L244.59187500000002,177.56278038024902L244.70015625,284.9535919725895L244.79296875,62.37927407026291L244.8703125,257.65232384204865L245.705625,293.75693924725056L246.06140624999998,124.81248512864113L246.076875,203.6568358540535L246.51,237.15732336044312L246.95859375,96.73544749617577L247.22156249999998,325.8349145203829L247.3453125,266.8450328707695L247.5,173.0692358314991L247.7784375,66.6814412176609L247.995,-22.305278778076172L248.13421875,278.78884479403496L248.3353125,149.97518464922905L248.56734375,292.8898724913597" style="fill: none;" fill="none"></path></g></g></g></g></g></g><g transform="translate(51, 177)" clip-path="url(#clip_1)"><clipPath id="clip_1"><rect width="278" height="23"></rect></clipPath><g><g><line x1="0" y1="0" x2="0" y2="5" style="visibility: inherit;" fill="rgb(0, 0, 0)" stroke="rgb(204, 204, 204)" stroke-width="1px"></line><line x1="30.9375" y1="0" x2="30.9375" y2="5" style="visibility: inherit;" fill="rgb(0, 0, 0)" stroke="rgb(204, 204, 204)" stroke-width="1px"></line><line x1="61.875" y1="0" x2="61.875" y2="5" style="visibility: inherit;" fill="rgb(0, 0, 0)" stroke="rgb(204, 204, 204)" stroke-width="1px"></line><line x1="92.8125" y1="0" x2="92.8125" y2="5" style="visibility: inherit;" fill="rgb(0, 0, 0)" stroke="rgb(204, 204, 204)" stroke-width="1px"></line><line x1="123.75" y1="0" x2="123.75" y2="5" style="visibility: inherit;" fill="rgb(0, 0, 0)" stroke="rgb(204, 204, 204)" stroke-width="1px"></line><line x1="154.6875" y1="0" x2="154.6875" y2="5" style="visibility: inherit;" fill="rgb(0, 0, 0)" stroke="rgb(204, 204, 204)" stroke-width="1px"></line><line x1="185.625" y1="0" x2="185.625" y2="5" style="visibility: inherit;" fill="rgb(0, 0, 0)" stroke="rgb(204, 204, 204)" stroke-width="1px"></line><line x1="216.5625" y1="0" x2="216.5625" y2="5" style="visibility: inherit;" fill="rgb(0, 0, 0)" stroke="rgb(204, 204, 204)" stroke-width="1px"></line><line x1="247.5" y1="0" x2="247.5" y2="5" style="visibility: inherit;" fill="rgb(0, 0, 0)" stroke="rgb(204, 204, 204)" stroke-width="1px"></line><line x1="278.4375" y1="0" x2="278.4375" y2="5" style="visibility: inherit;" fill="rgb(0, 0, 0)" stroke="rgb(204, 204, 204)" stroke-width="1px"></line></g><g transform="translate(0, 8)"><text x="0" y="0" dx="0em" dy="0.95em" style="text-anchor: middle; visibility: hidden; font-family: Roboto, sans-serif; font-size: 12px; font-weight: 200;" fill="rgb(255, 255, 255)" stroke="none" stroke-width="1px">-2k</text><text x="30.9375" y="0" dx="0em" dy="0.95em" style="text-anchor: middle; visibility: inherit; font-family: Roboto, sans-serif; font-size: 12px; font-weight: 200;" fill="rgb(255, 255, 255)" stroke="none" stroke-width="1px">0</text><text x="61.875" y="0" dx="0em" dy="0.95em" style="text-anchor: middle; visibility: inherit; font-family: Roboto, sans-serif; font-size: 12px; font-weight: 200;" fill="rgb(255, 255, 255)" stroke="none" stroke-width="1px">2k</text><text x="92.8125" y="0" dx="0em" dy="0.95em" style="text-anchor: middle; visibility: inherit; font-family: Roboto, sans-serif; font-size: 12px; font-weight: 200;" fill="rgb(255, 255, 255)" stroke="none" stroke-width="1px">4k</text><text x="123.75" y="0" dx="0em" dy="0.95em" style="text-anchor: middle; visibility: inherit; font-family: Roboto, sans-serif; font-size: 12px; font-weight: 200;" fill="rgb(255, 255, 255)" stroke="none" stroke-width="1px">6k</text><text x="154.6875" y="0" dx="0em" dy="0.95em" style="text-anchor: middle; visibility: inherit; font-family: Roboto, sans-serif; font-size: 12px; font-weight: 200;" fill="rgb(255, 255, 255)" stroke="none" stroke-width="1px">8k</text><text x="185.625" y="0" dx="0em" dy="0.95em" style="text-anchor: middle; visibility: inherit; font-family: Roboto, sans-serif; font-size: 12px; font-weight: 200;" fill="rgb(255, 255, 255)" stroke="none" stroke-width="1px">10k</text><text x="216.5625" y="0" dx="0em" dy="0.95em" style="text-anchor: middle; visibility: inherit; font-family: Roboto, sans-serif; font-size: 12px; font-weight: 200;" fill="rgb(255, 255, 255)" stroke="none" stroke-width="1px">12k</text><text x="247.5" y="0" dx="0em" dy="0.95em" style="text-anchor: middle; visibility: inherit; font-family: Roboto, sans-serif; font-size: 12px; font-weight: 200;" fill="rgb(255, 255, 255)" stroke="none" stroke-width="1px">14k</text><text x="278.4375" y="0" dx="0em" dy="0.95em" style="text-anchor: middle; visibility: hidden; font-family: Roboto, sans-serif; font-size: 12px; font-weight: 200;" fill="rgb(255, 255, 255)" stroke="none" stroke-width="1px">16k</text></g><line x1="0" y1="0" x2="278.4375" y2="0" fill="rgb(0, 0, 0)" stroke="rgb(204, 204, 204)" stroke-width="1px"></line></g></g></g></g></svg>