<svg viewBox="0 0 330 200" xmlns="http://www.w3.org/2000/svg"><g><g><g><g><g><line x1="30.78125" y1="177" x2="25.78125" y2="177" style="visibility: inherit;" fill="rgb(0, 0, 0)" stroke="rgb(204, 204, 204)" stroke-width="1px"></line><line x1="30.78125" y1="154.875" x2="25.78125" y2="154.875" style="visibility: inherit;" fill="rgb(0, 0, 0)" stroke="rgb(204, 204, 204)" stroke-width="1px"></line><line x1="30.78125" y1="132.75" x2="25.78125" y2="132.75" style="visibility: inherit;" fill="rgb(0, 0, 0)" stroke="rgb(204, 204, 204)" stroke-width="1px"></line><line x1="30.78125" y1="110.625" x2="25.78125" y2="110.625" style="visibility: inherit;" fill="rgb(0, 0, 0)" stroke="rgb(204, 204, 204)" stroke-width="1px"></line><line x1="30.78125" y1="88.5" x2="25.78125" y2="88.5" style="visibility: inherit;" fill="rgb(0, 0, 0)" stroke="rgb(204, 204, 204)" stroke-width="1px"></line><line x1="30.78125" y1="66.375" x2="25.78125" y2="66.375" style="visibility: inherit;" fill="rgb(0, 0, 0)" stroke="rgb(204, 204, 204)" stroke-width="1px"></line><line x1="30.78125" y1="44.25" x2="25.78125" y2="44.25" style="visibility: inherit;" fill="rgb(0, 0, 0)" stroke="rgb(204, 204, 204)" stroke-width="1px"></line><line x1="30.78125" y1="22.125" x2="25.78125" y2="22.125" style="visibility: inherit;" fill="rgb(0, 0, 0)" stroke="rgb(204, 204, 204)" stroke-width="1px"></line><line x1="30.78125" y1="0" x2="25.78125" y2="0" style="visibility: inherit;" fill="rgb(0, 0, 0)" stroke="rgb(204, 204, 204)" stroke-width="1px"></line></g><g transform="translate(20.78125, 0)"><text x="0" y="177" dx="0em" dy="0.3em" style="text-anchor: end; visibility: hidden; font-family: Roboto, sans-serif; font-size: 12px; font-weight: 200;" fill="rgb(255, 255, 255)" stroke="none" stroke-width="1px">-5</text><text x="0" y="154.875" dx="0em" dy="0.3em" style="text-anchor: end; visibility: inherit; font-family: Roboto, sans-serif; font-size: 12px; font-weight: 200;" fill="rgb(255, 255, 255)" stroke="none" stroke-width="1px">0</text><text x="0" y="132.75" dx="0em" dy="0.3em" style="text-anchor: end; visibility: hidden; font-family: Roboto, sans-serif; font-size: 12px; font-weight: 200;" fill="rgb(255, 255, 255)" stroke="none" stroke-width="1px">5</text><text x="0" y="110.625" dx="0em" dy="0.3em" style="text-anchor: end; visibility: inherit; font-family: Roboto, sans-serif; font-size: 12px; font-weight: 200;" fill="rgb(255, 255, 255)" stroke="none" stroke-width="1px">10</text><text x="0" y="88.5" dx="0em" dy="0.3em" style="text-anchor: end; visibility: hidden; font-family: Roboto, sans-serif; font-size: 12px; font-weight: 200;" fill="rgb(255, 255, 255)" stroke="none" stroke-width="1px">15</text><text x="0" y="66.375" dx="0em" dy="0.3em" style="text-anchor: end; visibility: inherit; font-family: Roboto, sans-serif; font-size: 12px; font-weight: 200;" fill="rgb(255, 255, 255)" stroke="none" stroke-width="1px">20</text><text x="0" y="44.25" dx="0em" dy="0.3em" style="text-anchor: end; visibility: hidden; font-family: Roboto, sans-serif; font-size: 12px; font-weight: 200;" fill="rgb(255, 255, 255)" stroke="none" stroke-width="1px">25</text><text x="0" y="22.125" dx="0em" dy="0.3em" style="text-anchor: end; visibility: inherit; font-family: Roboto, sans-serif; font-size: 12px; font-weight: 200;" fill="rgb(255, 255, 255)" stroke="none" stroke-width="1px">30</text><text x="0" y="0" dx="0em" dy="0.3em" style="text-anchor: end; visibility: hidden; font-family: Roboto, sans-serif; font-size: 12px; font-weight: 200;" fill="rgb(255, 255, 255)" stroke="none" stroke-width="1px">35</text></g><line x1="30.78125" y1="0" x2="30.78125" y2="177" fill="rgb(0, 0, 0)" stroke="rgb(204, 204, 204)" stroke-width="1px"></line></g></g><g transform="translate(30, 0)" clip-path="url(#clip_0)"><clipPath id="clip_0"><rect width="299" height="177"></rect></clipPath><g><g><g><line x1="0" y1="0" x2="0" y2="177" fill="rgb(0, 0, 0)" stroke="rgb(189, 189, 189)" stroke-width="1px" opacity="0.25"></line><line x1="23.016826923076923" y1="0" x2="23.016826923076923" y2="177" fill="rgb(0, 0, 0)" stroke="rgb(189, 189, 189)" stroke-width="1px" opacity="0.25"></line><line x1="46.03365384615385" y1="0" x2="46.03365384615385" y2="177" fill="rgb(0, 0, 0)" stroke="rgb(189, 189, 189)" stroke-width="1px" opacity="0.25"></line><line x1="69.05048076923077" y1="0" x2="69.05048076923077" y2="177" fill="rgb(0, 0, 0)" stroke="rgb(189, 189, 189)" stroke-width="1px" opacity="0.25"></line><line x1="92.0673076923077" y1="0" x2="92.0673076923077" y2="177" fill="rgb(0, 0, 0)" stroke="rgb(189, 189, 189)" stroke-width="1px" opacity="0.25"></line><line x1="115.08413461538463" y1="0" x2="115.08413461538463" y2="177" fill="rgb(0, 0, 0)" stroke="rgb(189, 189, 189)" stroke-width="1px" opacity="0.25"></line><line x1="138.10096153846155" y1="0" x2="138.10096153846155" y2="177" fill="rgb(0, 0, 0)" stroke="rgb(189, 189, 189)" stroke-width="1px" opacity="0.25"></line><line x1="161.11778846153845" y1="0" x2="161.11778846153845" y2="177" fill="rgb(0, 0, 0)" stroke="rgb(189, 189, 189)" stroke-width="1px" opacity="0.25"></line><line x1="184.1346153846154" y1="0" x2="184.1346153846154" y2="177" fill="rgb(0, 0, 0)" stroke="rgb(189, 189, 189)" stroke-width="1px" opacity="0.25"></line><line x1="207.1514423076923" y1="0" x2="207.1514423076923" y2="177" fill="rgb(0, 0, 0)" stroke="rgb(189, 189, 189)" stroke-width="1px" opacity="0.25"></line><line x1="230.16826923076925" y1="0" x2="230.16826923076925" y2="177" fill="rgb(0, 0, 0)" stroke="rgb(189, 189, 189)" stroke-width="1px" opacity="0.25"></line><line x1="253.18509615384616" y1="0" x2="253.18509615384616" y2="177" fill="rgb(0, 0, 0)" stroke="rgb(189, 189, 189)" stroke-width="1px" opacity="0.25"></line><line x1="276.2019230769231" y1="0" x2="276.2019230769231" y2="177" fill="rgb(0, 0, 0)" stroke="rgb(189, 189, 189)" stroke-width="1px" opacity="0.25"></line><line x1="299.21875" y1="0" x2="299.21875" y2="177" fill="rgb(0, 0, 0)" stroke="rgb(189, 189, 189)" stroke-width="1px" opacity="0.25"></line></g><g><line x1="0" y1="177" x2="299.21875" y2="177" fill="rgb(0, 0, 0)" stroke="rgb(189, 189, 189)" stroke-width="1px" opacity="0.25"></line><line x1="0" y1="154.875" x2="299.21875" y2="154.875" fill="rgb(0, 0, 0)" stroke="rgb(189, 189, 189)" stroke-width="1px" opacity="0.25"></line><line x1="0" y1="132.75" x2="299.21875" y2="132.75" fill="rgb(0, 0, 0)" stroke="rgb(189, 189, 189)" stroke-width="1px" opacity="0.25"></line><line x1="0" y1="110.625" x2="299.21875" y2="110.625" fill="rgb(0, 0, 0)" stroke="rgb(189, 189, 189)" stroke-width="1px" opacity="0.25"></line><line x1="0" y1="88.5" x2="299.21875" y2="88.5" fill="rgb(0, 0, 0)" stroke="rgb(189, 189, 189)" stroke-width="1px" opacity="0.25"></line><line x1="0" y1="66.375" x2="299.21875" y2="66.375" fill="rgb(0, 0, 0)" stroke="rgb(189, 189, 189)" stroke-width="1px" opacity="0.25"></line><line x1="0" y1="44.25" x2="299.21875" y2="44.25" fill="rgb(0, 0, 0)" stroke="rgb(189, 189, 189)" stroke-width="1px" opacity="0.25"></line><line x1="0" y1="22.125" x2="299.21875" y2="22.125" fill="rgb(0, 0, 0)" stroke="rgb(189, 189, 189)" stroke-width="1px" opacity="0.25"></line><line x1="0" y1="0" x2="299.21875" y2="0" fill="rgb(0, 0, 0)" stroke="rgb(189, 189, 189)" stroke-width="1px" opacity="0.25"></line></g></g></g><g><g><line x1="0" y1="154.875" x2="299.21875" y2="154.875" fill="rgb(0, 0, 0)" stroke="rgb(153, 153, 153)" stroke-width="1.5px"></line></g></g><g><g><line x1="23.016826923076923" y1="0" x2="23.016826923076923" y2="177" fill="rgb(0, 0, 0)" stroke="rgb(153, 153, 153)" stroke-width="1.5px"></line></g></g><g><g><g><g><g><path stroke="rgb(255, 112, 67)" stroke-width="2px" d="M23.362079326923077,144.69105625748634L23.70733173076923,144.67762741323176L23.822415865384617,144.67998485876498L23.9375,144.67262020140603L24.16766826923077,144.6541876164428L24.74308894230769,144.65408374567457L24.858173076923077,144.6509831708346L25.088341346153847,144.65999808704325L25.203425480769234,144.65176840863074L25.433593750000004,144.6551772842143L25.548677884615383,144.6488226441801L26.124098557692307,144.65049651366098L26.354266826923077,144.645468984967L26.469350961538463,144.65357983190853L26.814603365384613,144.6564695088902L26.9296875,144.66613019565952L27.15985576923077,144.65976910933009L27.39002403846154,144.64500286555182L27.505108173076923,144.6507725944945L27.62019230769231,144.64661714825093L27.735276442307693,144.64547078904596L27.850360576923077,144.65146312892537L28.42578125,144.64581904816652L28.540865384615387,144.64425653333035L28.88611778846154,144.6338310230773L29.00120192307692,144.63464624379338L29.116286057692307,144.64051309326342L29.46153846153846,144.64233432827874L29.576622596153847,144.6498463909922L29.806790865384617,144.6544799914114L30.036959134615383,144.66379369559957L30.612379807692307,144.6545772072649L30.727463942307693,144.65515305409755L31.18780048076923,144.66200406623278L31.41796875,144.65679813248596L31.533052884615383,144.6534798775968L31.763221153846153,144.64688322254804L32.33864182692307,144.64934978379748L33.144230769230774,144.6532397039746L33.25931490384615,144.65720117596308L33.48948317307692,144.66410289849645L33.71965144230769,144.67971672834415L33.83473557692307,144.66925826609156L33.94981971153846,144.66877235819294L34.06490384615385,144.6774249438914L34.29507211538461,144.67085424537086L34.41015625,144.668957945574L34.64032451923077,144.6627769143918L34.87049278846154,144.6551401113737L34.98557692307692,144.65598459229463L35.10066105769231,144.6680593651304L35.21574519230769,144.67203204906465L35.56099759615385,144.67541483037212L35.67608173076923,144.68709865511025L36.71183894230769,144.68403424404667L36.82692307692308,144.6661070336635L36.94200721153846,144.66676220165053L37.05709134615385,144.6620226970582L37.172175480769226,144.68232886861523L37.632512019230774,144.67689370938703L37.74759615384615,144.67379635884214L38.43810096153846,144.66408860334377L38.66826923076923,144.66360739890436L39.01352163461538,144.664855691692L39.35877403846154,144.6731836238037L39.47385817307692,144.6752833534243L39.70402644230769,144.67670795777013L39.81911057692307,144.6604757427101L40.04927884615385,144.66787368659922L40.16436298076923,144.65725577321413L40.39453125,144.66042210883668L40.50961538461539,144.655370602286L40.73978365384615,144.63967737116403L41.08503605769231,144.64497199329753L41.20012019230769,144.6445752656264L41.54537259615385,144.64803165031455L41.66045673076923,144.6488837740065L41.77554086538461,144.64813817955238L42.00570913461539,144.64472301595112L42.69621394230769,144.65867275614187L43.38671875,144.66189035608178L44.42247596153846,144.6688881330195L44.652644230769226,144.67593996088237L44.8828125,144.66766711400732L44.99789663461539,144.67574108499116L45.22806490384616,144.6670182500957L45.45823317307692,144.67183244280642L45.80348557692308,144.67740117981973L46.26382211538462,144.67505431194562L46.37890625,144.67500183525084L46.49399038461538,144.67881089096642L46.60907451923077,144.67554999424596L46.72415865384615,144.6805189077541L46.95432692307692,144.6731517396886L47.06941105769231,144.67574801419812L47.41466346153846,144.67796221034956L47.64483173076923,144.6933516776398L48.105168269230774,144.68109544814806L48.22025240384615,144.6857639083353L48.45042067307692,144.6972188194518L48.68058894230769,144.71078976396166L48.79567307692307,144.7001170834556L48.91075721153846,144.68769690629685L49.14092548076923,144.67811043376986L49.48617788461538,144.69006250454282L49.601262019230774,144.69532768870832L50.06159855769231,144.6991890888177L50.40685096153847,144.69763522304737L51.21243990384615,144.69799072393434L51.44260817307693,144.6966795835893L51.90294471153847,144.70115009164417L52.01802884615385,144.69777054527947L52.36328125,144.70618218075498L52.47836538461539,144.70754069880184L53.05378605769231,144.7018390787909L53.28395432692308,144.71521022727285L53.39903846153846,144.71019499508088L53.51412259615385,144.70430385658725L53.74429086538462,144.69230870898855L53.97445913461539,144.7010851875867L54.43479567307692,144.70101933489093L54.54987980769231,144.7034423263797L54.89513221153846,144.71278985222452L55.125300480769226,144.71415984081628L55.47055288461539,144.71069786988772L56.04597355769231,144.70710326973474L56.50631009615385,144.70624596900214L56.96664663461538,144.69793745926606L57.19681490384615,144.69892948033586L57.42698317307692,144.70198690179993L57.542067307692314,144.69946723745434L58.23257211538461,144.7028448441323L58.34765625,144.69555201683792L58.46274038461538,144.70219026237945L58.577824519230774,144.7151727613048L58.80799278846154,144.71050603147495L59.03816105769231,144.7158308184102L59.15324519230769,144.71875762011675L59.49849759615385,144.71316266720385L59.72866586538461,144.71975304055232L59.84375,144.71805356053844L60.07391826923077,144.71091192368831L60.18900240384615,144.71457671728814L60.76442307692307,144.72153703186154L60.99459134615385,144.72643448521492L61.22475961538461,144.71828781441104L61.80018028846153,144.7168661561776L61.91526442307693,144.72214169475484L62.03034855769231,144.72606479434228L62.26051682692307,144.72121286217333L62.95102163461539,144.72170128192238L63.06610576923077,144.72203775118433L63.18118990384616,144.7178021983333L63.87169471153846,144.7276060987572L64.10186298076923,144.73320530679868L64.79236778846153,144.72721331449364L65.36778846153847,144.73221819728306L65.828125,144.73933383540285L66.05829326923077,144.74186298507271L66.17337740384615,144.7424842938064L66.5186298076923,144.74103959337532L66.86388221153847,144.73897836987564L67.66947115384615,144.74489374189028L67.78455528846155,144.7521178085511L67.89963942307692,144.76311640413502L68.0147235576923,144.7531833457669L68.1298076923077,144.74395556943745L68.24489182692308,144.75250348230082L68.70522836538461,144.75863445871184L68.8203125,144.76315766622724L68.93539663461539,144.76572939206238L69.16556490384616,144.76872007096125L69.28064903846153,144.7725114988565L69.97115384615384,144.7681063419766L70.20132211538461,144.7665822999257L70.43149038461539,144.77488386538306L70.54657451923076,144.77714621928277L70.66165865384616,144.7741561541869L70.77674278846153,144.7652305480377L71.1219951923077,144.77226053248214L71.23707932692308,144.77800940201752L71.35216346153847,144.7843954295446L71.69741586538461,144.76800982044057L71.8125,144.77922854586024L71.92758413461539,144.78203890515414L72.15775240384616,144.7918766142016L72.27283653846153,144.79156058736675L72.5030048076923,144.79298514878695L72.6180889423077,144.8066124397059L72.73317307692308,144.81351063380436L73.19350961538461,144.82162574625065L73.30859375,144.8257207002548L73.53876201923077,144.83118812682903L73.65384615384616,144.83187411474765L73.9990985576923,144.8346644751947L74.1141826923077,144.82999965161218L74.8046875,144.8389792585323L75.14993990384616,144.83931470582118L75.26502403846155,144.8345492709004L75.38010817307692,144.84535395691387L75.4951923076923,144.85795520552296L75.72536057692308,144.87012270635506L75.84044471153847,144.8549413009499L76.07061298076923,144.85879633559492L76.18569711538463,144.8509949525887L76.41586538461539,144.85032199975984L76.53094951923076,144.85814848852436L76.64603365384616,144.8601624226877L76.76111778846155,144.8557080919016L77.91195913461539,144.8684549048649L78.02704326923076,144.8748406156678L78.71754807692308,144.8806078352468L78.83263221153847,144.89026530973842L78.94771634615384,144.8843776261272L79.29296875,144.881542834147L79.52313701923076,144.88764283507376L79.9834735576923,144.89015718456596L80.32872596153847,144.89137648844522L80.67397836538461,144.90484914577814L80.7890625,144.9050592977369L81.01923076923077,144.9106618710098L81.13431490384615,144.93102744254725L81.24939903846155,144.94278249443184L81.70973557692307,144.95986742431376L81.93990384615385,144.96165290705656L82.05498798076923,144.96609707633553L82.28515625,144.98491830597644L82.40024038461539,145.00096279344996L82.63040865384615,145.001445931394L82.74549278846153,145.01285749235484L82.86057692307693,145.02816888806683L83.55108173076923,145.0380526596598L83.78125000000001,145.0324739750004L83.89633413461539,145.0407370025391L84.4717548076923,145.05071105201156L84.81700721153847,145.06925999654274L85.04717548076923,145.07089285173393L85.16225961538461,145.09213909589846L85.27734374999999,145.10722548784676L85.39242788461539,145.10847701800046L85.73768028846153,145.11790975975404L85.85276442307693,145.10973762487455L86.0829326923077,145.1118926551656L86.19801682692307,145.1262415314287L86.65835336538461,145.15077332224269L86.88852163461539,145.1566285811534L87.11868990384615,145.1697385425544L87.4639423076923,145.19631461108034L87.69411057692308,145.20448935348972L87.92427884615385,145.2108055573324L88.26953125,145.2346575471956L88.38461538461539,145.2541891730395L88.61478365384616,145.27744789893026L88.72986778846153,145.2904749008139L88.84495192307692,145.30004685566513L89.42037259615385,145.3388145617029L89.88070913461537,145.37375589438497L90.11087740384616,145.40861447684847L90.34104567307692,145.44344528882039L90.68629807692308,145.4902312394437L90.80138221153845,145.52342785141644L90.91646634615384,145.49948273894108L91.26171875,145.51760840628265L91.60697115384616,145.57281849887124L91.72205528846153,145.57007608535443L91.83713942307692,145.61239205045192L91.9522235576923,145.64492540498165L92.41256009615384,145.65928847546675L93.79356971153847,145.76685839967845L94.71424278846155,145.89689181300918L94.9444110576923,145.96018291460635L95.17457932692308,146.0196443852673L95.28966346153847,146.09320505214717L95.51983173076923,146.1969819560171L95.63491586538463,146.25202798371967L95.75,146.28674759265618L95.86508413461539,146.3046078617936L96.09525240384616,146.43653064075298L96.90084134615384,146.5178843186136L97.01592548076923,146.55505329522677L97.13100961538463,146.60379976301746L97.24609375,146.64219410355213L97.47626201923076,146.6627609190955L98.05168269230768,146.70780286974056L98.16676682692308,146.73827268391742L98.62710336538461,146.82774996107142L98.7421875,146.85504003168683L99.08743990384615,146.9399938953036L99.20252403846155,147.05075469207407L99.5477764423077,147.18617186913704L99.77794471153847,147.29732997337643L100.00811298076923,147.45031729394745L100.12319711538461,147.58242488925026L100.35336538461539,147.59137901278368L100.69861778846155,147.62871493370238L100.81370192307693,147.66730497762035L100.9287860576923,147.72655995899942L101.15895432692307,147.79327626127733L101.73437500000001,147.9317888002104L101.84945913461539,147.98762159645304L102.07962740384615,148.09917197936588L102.5399639423077,148.2433207258604L102.65504807692307,148.29576020303531L102.88521634615385,148.3783821900362L103.11538461538461,148.45662976439385L103.46063701923077,148.47546132117844L103.57572115384615,148.59143360703834L104.26622596153847,148.62528918614726L104.7265625,148.6698744357501L104.84164663461539,148.76265229088537L105.4170673076923,148.91059297631014L105.87740384615385,149.15389128227307L105.99248798076923,149.25386218211514L106.33774038461539,149.33801843369287L106.56790865384616,149.3615938145992L106.79807692307692,149.421603091033L106.9131610576923,149.46039488566822L107.0282451923077,149.57024591852377L107.25841346153845,149.593529614488L107.60366586538461,149.6832057601839L107.83383413461537,149.6959125040279L107.94891826923077,149.8472482126302L108.29417067307692,149.82533201092446L108.75450721153845,149.8193104597959L108.98467548076924,149.79288879619486L109.21484375,149.88063999571372L109.32992788461537,149.9328497081687L109.44501201923077,150.07165171647773L109.79026442307692,150.2472632549314L109.90534855769232,150.32619931514662L110.25060096153845,150.3466097122584L110.48076923076924,150.48672719622198L110.59585336538461,150.49538455158634L110.82602163461537,150.60620090267182L111.17127403846153,150.6282403594437L111.28635817307692,150.66561124709997L112.55228365384616,150.75878184776442L112.66736778846155,150.71150618419344L113.24278846153847,150.70782009451307L113.703125,150.7570960055853L113.93329326923076,150.9591618145494L114.27854567307692,150.97534875189177L114.3936298076923,151.1375030845705L114.50871394230768,151.16971699216214L114.73888221153847,151.22844467114908L114.85396634615384,151.29709862148871L114.96905048076923,151.21855281687104L115.31430288461539,151.30469532033084L115.42938701923076,151.33317278215296L115.77463942307692,151.44774378653233L115.8897235576923,151.45822948168455L116.00480769230768,151.37270064195542L116.11989182692308,151.4737039616605L116.23497596153847,151.45228417982324L116.35006009615384,151.47323212921174L116.81039663461539,151.5631754962769L117.04056490384615,151.44803441815014L117.27073317307692,151.56783822434943L117.61598557692308,151.59515154616807L118.42157451923077,151.6156431909006L118.65174278846155,151.69462715134472L118.76682692307692,151.7385837769571L118.8819110576923,151.71773210221397L118.9969951923077,151.62270648775362L119.45733173076923,151.71300464634515L120.03275240384615,151.72551315262587L120.14783653846153,151.9080685733622L120.26292067307693,151.85164203158624L120.3780048076923,151.97571487201836L120.95342548076923,152.020761485909L121.06850961538461,151.98249248944794L121.18359375000001,152.02519670851507L121.29867788461539,151.94759596003428L121.52884615384615,152.07485873780516L121.64393028846153,152.14375783542374L121.9891826923077,152.09203748901973L123.14002403846153,152.05207062662853L123.4852764423077,152.14320721978842L123.71544471153845,152.0580572202665L123.83052884615385,152.1601233241159L124.06069711538461,152.228443758997L124.29086538461539,152.23158994647997L124.40594951923077,152.15405311260147L124.75120192307692,152.1521034298977L125.21153846153845,152.3047560417994L125.671875,152.33204101848747L125.78695913461539,152.40459546960224L126.01712740384616,152.42621570594562L126.13221153846153,152.47443032335156L126.59254807692308,152.472540521994L126.82271634615385,152.60901568723452L127.05288461538461,152.7592594521654L127.16796875,152.74323541514428L127.39813701923077,152.71872294214705L127.85847355769232,152.81057423116098L128.20372596153845,152.80562837176407L128.7791466346154,152.80365034407512L129.12439903846155,152.77299629069307L129.2394831730769,152.84575980517303L129.58473557692307,152.81457563920463L129.69981971153845,152.8355959854414L129.92998798076923,152.71431256520734L130.2752403846154,152.643962193818L130.39032451923077,152.66993951254628L130.62049278846155,152.53808105743548L130.73557692307693,152.58961470188598L130.9657451923077,152.5706604486784L131.08082932692307,152.67145628209408L131.31099759615384,152.77281755214298L131.5411658653846,152.77885705260408L132.3467548076923,152.8409134943157L132.92217548076923,152.9609813468172L133.0372596153846,152.92047912108106L133.2674278846154,152.75048765951522L133.61268028846155,152.81794435638642L133.72776442307693,152.9197961200104L133.8428485576923,152.98409997410883L133.95793269230768,153.0416852765144L134.0730168269231,153.05749097078711L134.18810096153845,153.16505379552302L134.99368990384613,153.22247202140338L135.10877403846155,153.0286953824884L135.22385817307693,153.07991140753663L135.3389423076923,153.08294656575492L135.45402644230768,153.12122237484724L135.91436298076923,153.11763362461122L136.0294471153846,153.14910351256634L136.14453125,153.15509448684134L136.60486778846155,153.24933223891546L136.8350360576923,153.23132394738528L136.95012019230768,153.17762073268767L137.5255408653846,153.18021799613837L137.87079326923077,153.2744969747807L137.98587740384616,153.27186860536392L138.21604567307693,153.27410443278845L138.33112980769232,153.1922560210873L138.44621394230768,153.21087849820438L138.67638221153848,153.17476008499904L138.79146634615384,153.00103940976936L138.90655048076923,153.0715168931268L139.36688701923077,153.1462397507186L139.48197115384616,153.16546540833045L139.82722355769232,153.24502969478698L139.94230769230768,153.32645103670552L140.5177283653846,153.20596988374663L140.6328125,153.21453779930133L140.7478966346154,153.1571787085856L141.32331730769232,153.23633656394247L141.43840144230768,153.34932960505193L141.55348557692307,153.24924025137554L141.66856971153848,153.26554259132348L141.78365384615384,153.1379125488852L142.0138221153846,153.0672855850965L142.12890625,153.10043581372136L142.35907451923077,153.15575269651683L142.58924278846155,153.1799129895695L142.70432692307693,153.1276183531754L143.27974759615384,153.23590915433007L143.5099158653846,153.28443072586023L143.625,153.243025277382L143.7400841346154,153.3340559630604L144.31550480769232,153.35970122173612L144.4305889423077,153.37671629826562L144.54567307692307,153.33116773359328L145.0060096153846,153.3457101011459L145.12109375,153.3793438351647L145.35126201923077,153.36723177656603L145.9266826923077,153.47359395267867L146.27193509615384,153.45204436556304L146.5021033653846,153.41503752439314L146.6171875,153.46833495883277L146.96243990384616,153.39991177653488L147.07752403846155,153.4768511560764L147.30769230769232,153.48500087671303L147.4227764423077,153.41762647020312L147.65294471153845,153.46252719457192L147.76802884615384,153.39023835688312L148.57361778846155,153.51979662004177L149.26412259615384,153.54507239569296L149.95462740384616,153.44708413612554L150.06971153846152,153.550066303305L150.18479567307693,153.4642709301146L150.41496394230768,153.51482652117429L150.76021634615384,153.4385845068079L151.2205528846154,153.5028334622638L151.56580528846152,153.52638194355285L151.68088942307693,153.5869171381271L152.25631009615384,153.5645025807971L152.83173076923077,153.55747655492345L153.29206730769232,153.64008125279224L153.5222355769231,153.73747933998723L153.86748798076925,153.7264135744454L154.09765625,153.68807965188705L154.32782451923077,153.5728801991037L154.44290865384616,153.61033222305417L154.78816105769232,153.74507227346007L155.24849759615384,153.6002582459994L155.82391826923077,153.64390152169443L156.39933894230768,153.44287288186104L156.74459134615384,153.54333340778342L156.85967548076925,153.48421908096225L156.9747596153846,153.65175744593694L157.32001201923077,153.7738055314388L157.43509615384616,153.73894344715941L157.7803485576923,153.65262146002564L157.89543269230768,153.88406837243903L158.12560096153845,153.8675885557355L158.24068509615384,153.80893095128474L158.70102163461536,153.81192608936007L158.93118990384616,153.82150261029003L159.2764423076923,153.85130120340293L159.5066105769231,153.92945878489064L159.73677884615384,154.00130503991596L159.85186298076923,154.02239366788734L159.9669471153846,154.07846889085187L160.31219951923077,154.0105159518877L160.42728365384616,153.91635965736128L160.54236778846152,153.9179307793975L160.7725360576923,154.0311432231611L160.88762019230768,153.9650382084169L161.0027043269231,153.79580743065114L161.578125,153.74455576026406L161.6932091346154,153.8566838023428L161.92337740384616,153.9158640929236L162.03846153846155,153.9913695346091L162.15354567307693,153.89263930535543L162.2686298076923,153.8171200710635L162.3837139423077,153.91671135813442L162.84405048076923,153.8425594261381L162.9591346153846,153.8141460985252L163.07421875,153.8404023691568L163.41947115384613,153.8394606314644L163.53455528846155,153.66729483864037L163.8798076923077,153.75870753257607L164.4552283653846,153.91032886428198L164.80048076923077,153.98180562632228L164.91556490384613,153.9714924115905L165.49098557692307,153.8829137614605L165.60606971153845,153.99533209932252L165.9513221153846,153.9417057198259L166.06640625000003,153.92657348913053L166.52674278846155,153.93397731478316L167.21724759615387,154.0001196209443L167.33233173076923,153.98543346866973L168.13792067307693,153.9218633178354L168.59825721153845,153.9852600295271L169.28876201923077,154.05165946330678L169.40384615384613,154.07047171574163L169.51893028846155,154.06826874326597L170.20943509615387,154.10485127105406L170.32451923076923,154.0043402409427L170.4396033653846,154.06822513514715L170.55468749999997,153.9830072929981L170.6697716346154,153.87940223609277L171.01502403846155,153.9020135412634L171.13010817307693,153.91699612657627L171.3602764423077,153.98293015404388L171.47536057692307,154.0674805802946L171.70552884615387,154.0401975364069L171.9356971153846,154.09522068448902L172.05078125,154.0071279954518L172.97145432692307,153.98007251724232L173.08653846153845,154.08374530195618L173.20162259615387,154.02009862087542L174.00721153846155,154.04571866802928L174.2373798076923,154.14719078473044L174.58263221153845,154.19169220819103L174.69771634615384,154.28819643151343L175.04296875,154.273835235432L175.1580528846154,154.35936449272788L175.27313701923077,154.38277998415737L175.73347355769232,154.30735355690967L175.96364182692307,154.1894294415626L176.30889423076923,154.2266451087892L176.5390625,154.221396877597L177.22956730769232,154.2443639383692L177.3446514423077,154.21882713331772L177.45973557692307,154.14083384446357L177.92007211538464,154.10887656049252L178.03515625,154.20977416653935L178.1502403846154,154.15644872654408L178.26532451923075,154.23264870146795L178.38040865384616,154.11967105278785L178.49549278846155,154.10889703563817L178.6105769230769,154.06764579142538L178.95582932692307,154.0494209657242L179.30108173076923,154.0681957025375L179.53125,154.03441111041548L179.76141826923075,154.00080073150144L179.87650240384616,154.00552227725476L179.99158653846155,154.1023840824241L180.1066706730769,153.99222389526275L180.22175480769232,153.86667521131199L180.33683894230768,153.89771095720977L180.45192307692307,154.02320925839823L181.02734375,153.99920228922198L181.1424278846154,154.04946415472114L181.37259615384616,154.12691358471992L181.6027644230769,154.1175760605421L181.83293269230768,154.14912619917638L182.5234375,154.17764844500022L182.6385216346154,154.25062510283132L183.0988581730769,154.13325546792538L183.32902644230768,154.20361406405576L183.44411057692307,154.15070460361346L183.78936298076923,154.03758139535148L183.9044471153846,154.07679713256186L184.01953125,154.0067632916088L184.1346153846154,154.05292741527268L184.24969951923075,154.0253778548527L184.47986778846155,154.0789743826664L184.71003605769232,154.10081688786033L184.82512019230768,154.00661437375962L184.94020432692307,153.84789737112402L185.05528846153848,153.84200788472432L185.17037259615384,153.89412726175695L185.6307091346154,153.92801639296675L186.55138221153848,153.8742459810969L186.78155048076923,153.9733309488148L186.8966346153846,154.0270517229295L187.01171875,154.16372047785418L187.1268028846154,154.22688286495097L187.24188701923077,154.22394335701563L187.58713942307693,154.1795790297218L188.85306490384616,154.22993740302786L189.4284855769231,154.28868671180533L189.65865384615384,154.32817670157254L190.00390625,154.33276593656484L190.23407451923077,154.349438804053L190.46424278846152,154.2382418531606L190.69441105769232,154.12972728276876L191.03966346153845,154.259128270407L191.73016826923077,154.15460144464524L192.07542067307693,154.17220582941093L192.30558894230768,154.05632325581612L192.53575721153845,154.11384334213741L192.65084134615384,153.99098668385977L192.76592548076925,154.01129286238233L192.8810096153846,153.9005986346555L192.99609375,153.91820014335727L193.22626201923077,154.01304308678291L193.34134615384616,154.04955319484205L193.45643028846152,154.12290113916893L193.57151442307693,154.1775077786611L193.68659855769232,154.18686188940794L193.80168269230768,154.23611115883762L194.14693509615384,154.10654801002164L194.26201923076925,154.15819909547076L194.4921875,154.15116538400684L195.06760817307693,154.15657420683874L195.29777644230768,154.13096446283848L195.52794471153845,154.17764897398413L195.64302884615384,154.21162815577958L195.8731971153846,154.1298824278092L195.98828125,154.00588412562072L196.44861778846152,154.03627309111013L196.6787860576923,154.11245552033552L197.25420673076923,154.14840985161783L197.484375,154.1786394302156L197.5994591346154,154.19534917743889L197.71454326923077,154.23764067743542L197.82962740384616,154.27791352522198L198.1748798076923,154.16273522646327L198.4050480769231,153.95548796058807L198.63521634615384,154.12184777139575L198.8653846153846,154.129052874994L199.21063701923077,154.11423804587452L199.32572115384616,154.16513828678907L199.55588942307693,154.11614804450718L199.6709735576923,154.06430393480207L200.01622596153845,154.04983325671134L200.24639423076923,154.17385086263369L200.4765625,154.23530957151362L201.51231971153845,154.11114556233778L201.62740384615387,154.1116075870704L201.8575721153846,154.1772265162168L202.31790865384613,154.16728614590687L203.12349759615387,154.1049623567002L203.23858173076923,154.10208721557225L203.3536658653846,154.13800875255203L203.46875000000003,154.13901025831416L203.5838341346154,154.15823371105134L204.04417067307693,154.1446805268141L204.61959134615387,154.1125799347101L204.8497596153846,153.9171489097985L205.19501201923077,153.989673401408L205.31009615384613,153.95457170442694L205.54026442307693,154.00480743473872L205.6553485576923,153.99647331819253L206.23076923076923,153.93925755197193L206.3458533653846,153.84276887701498L206.46093749999997,153.87570960200225L206.69110576923077,153.82351763020984L206.80618990384613,153.89431053893333L207.03635817307693,153.83241822001295L207.49669471153845,153.77921501151172L207.95703124999997,153.91442927295537L208.18719951923077,153.88358644877556L208.41736778846155,154.0296541833149L208.53245192307693,154.04144880980672L209.5682091346154,154.05756859959376L209.68329326923077,154.0513833598107L209.79837740384613,154.09527755986147L209.91346153846155,153.982652617785L210.0285456730769,154.01268546306L210.1436298076923,154.1037099502839L210.2587139423077,154.08576286347653L210.37379807692307,154.01968963335543L210.48888221153845,153.93871347065306L210.8341346153846,154.02521034005133L211.0643028846154,154.04346251019246L211.17938701923077,153.91907355380576L211.40955528846155,153.95780231410976L212.10006009615384,153.7857140521257L212.21514423076923,153.8068694465395L212.5603966346154,153.8581887934751L212.67548076923077,153.81880593620923L212.90564903846155,153.83555761688856L213.13581730769232,153.80855186873964L213.94140625,153.93416702906316L214.0564903846154,153.9291445337824L214.17157451923077,154.06289617498845L214.5168269230769,153.99597226425306L214.63191105769232,153.9454693172552L214.97716346153848,153.99439309179203L215.09224759615384,154.01292550470848L215.4375,154.0293429281612L215.66766826923075,154.05551190680634L215.89783653846155,154.0443001687101L216.47325721153848,154.141307216203L216.58834134615384,154.1001328486017L216.70342548076923,153.93220091201172L216.81850961538464,153.9591542661325L217.0486778846154,153.86813736506807L217.39393028846155,153.87886497990928L217.5090144230769,153.99430939646007L217.73918269230768,153.8298992747234L217.85426682692307,153.97634561878027L218.77493990384616,153.9752235927703L219.12019230769232,153.8507318566895L219.35036057692307,153.8971315111603L219.46544471153848,153.78221571793708L219.81069711538464,153.87454486313374L219.92578125,153.6624289741611L220.38611778846155,153.57284672986137L220.96153846153848,153.56385023029839L221.421875,153.67197823371563L221.76712740384616,153.564679008008L221.88221153846155,153.48468488601634L221.9972956730769,153.52218711460992L222.22746394230768,153.6943398785161L222.45763221153848,153.7362643618891L222.57271634615384,153.61389726634692L222.68780048076923,153.55460422345047L222.8028846153846,153.40719957995367L222.91796875,153.38783865022148L223.60847355769232,153.25885357888677L224.06881009615384,153.19599434602046L224.18389423076923,153.27187177325445L224.2989783653846,153.26985768967884L224.64423076923077,153.1932575299896L224.87439903846152,153.31452604716745L225.10456730769232,153.32945084520614L225.3347355769231,153.303205369764L225.44981971153848,153.20909835737103L226.25540865384616,153.05514033714388L226.48557692307693,153.07482516677476L226.60066105769232,152.75846424037573L226.8308293269231,152.76170772823122L227.2911658653846,152.9233338728815L227.40625,152.8452438236375L227.5213341346154,153.0709889368627L227.63641826923077,153.19405197174808L228.44200721153845,152.9773498747933L228.67217548076925,153.12297741500527L229.59284855769232,153.23925742183343L229.8230168269231,153.31119193086445L230.16826923076925,153.3693170926727L231.08894230769232,153.3545429473718L231.43419471153845,153.31455345419985L231.89453125,153.15011547790743L232.12469951923077,152.97459429868275L232.70012019230768,152.91963406820076L233.04537259615384,152.81636889498478L233.2755408653846,152.7659338001169L233.390625,152.5629542378267L233.50570913461536,152.63697177244063L233.85096153846152,152.7306077221324L234.19621394230768,152.1769294196044L234.3112980769231,152.01539388189903L234.65655048076923,152.05959822651488L234.7716346153846,151.95794392191755L235.69230769230768,152.14367123426405L235.8073918269231,152.1727877024933L235.92247596153845,152.15068896440187L236.15264423076923,151.69228413172925L236.4978966346154,151.54260268714614L236.95823317307693,151.23218888160463L237.1884014423077,151.31867360171168L237.3034855769231,151.51427025854986L237.41856971153845,151.4743808903068L237.64873798076923,150.91458879450457L237.7638221153846,150.30591606431432L238.10907451923077,150.3816621560314L238.22415865384613,150.51607336635982L238.33924278846155,150.83078735801917L238.45432692307693,150.8782568891413L238.5694110576923,150.70004796124297L239.02974759615387,150.83245235833755L239.60516826923077,150.9069944109856L239.72025240384613,151.20750450238495L240.41075721153845,150.89585728922717L240.64092548076923,150.38790072026484L240.7560096153846,149.6868769812658L240.9861778846154,149.09938778211426L241.33143028846155,149.21738406368115L241.44651442307693,149.1440697979682L241.79176682692307,149.05366689422704L241.90685096153845,149.37080614600222L242.2521033653846,149.52637665475302L242.4822716346154,149.67932625205935L242.71243990384613,150.24907725559473L242.94260817307693,149.96642661411596L243.40294471153845,149.95926940926L244.20853365384613,149.42457351602297L244.32361778846155,149.05162943224823L244.6688701923077,148.96461606509814L245.01412259615387,149.08372324628257L245.12920673076923,147.26334156110624L245.35937499999997,146.7935828968774L245.4744591346154,146.18134399469884L245.93479567307693,146.5516328883368L246.0498798076923,146.89794270074634L246.85546875,146.72315450537639L247.20072115384613,147.05143786252583L247.6610576923077,145.55136568643624L247.77614182692307,144.33195192838213L247.89122596153845,143.12669811481365L248.69681490384616,135.69659439878916L248.9269831730769,130.70380533222723L249.50240384615384,125.60774197839135L249.9627403846154,128.4352692342023L250.07782451923077,130.17160658303925L250.53816105769232,130.11098771321159L251.34375,128.70824370241425L251.57391826923077,126.98057869734002L251.80408653846155,122.44330658791074L251.9191706730769,114.03608753495843L252.1493389423077,110.12715743690667L252.37950721153848,101.13321892839028L252.49459134615384,96.40592556150557L252.60967548076923,89.82262381760611L252.83984375,86.84817716427413L252.9549278846154,77.57202118155706L253.18509615384616,70.00191231825785L253.53034855769232,67.33740031639279L253.6454326923077,63.61366635597209L253.76051682692307,63.90392364647965L253.87560096153848,59.652214136822664L253.99068509615384,55.711910377638226L254.3359375,71.63989764141594L254.4510216346154,83.24220142587812L254.56610576923075,86.8101653024986L254.68118990384616,87.93093652129386L254.79627403846155,87.40206184232395L254.9113581730769,85.48210525016663L255.37169471153848,81.46439777293305L255.71694711538464,79.75267750432185L255.9471153846154,86.7012343191253L256.0621995192308,90.92697830227301L256.4074519230769,79.04228032513649L256.5225360576923,77.956033698383L257.0979567307692,72.5460549922691L257.5582932692308,67.7103725834698L257.67337740384613,70.70604610075233L257.78846153846155,63.36435380091232L258.0186298076923,55.94305274090539L258.2487980769231,51.54640976755832L259.0543870192308,47.015921652446906L259.16947115384613,54.22488057742189L259.28455528846155,55.781596886157566L259.3996394230769,68.77185861159293L259.5147235576923,71.5111812939426L259.6298076923077,66.45276267051038L259.7448918269231,70.59133170108308L259.85997596153845,70.70024588303396L259.9750600961538,68.02939255620545L260.2052283653846,60.832233355971916L260.4353966346154,68.08983932721043L260.8957331730769,68.74710390677744L261.1259014423077,57.10297563586548L261.35606971153845,61.79811666055816L262.3918269230769,70.56491362270492L262.7370793269231,61.69438802477138L262.85216346153845,58.557161250040416L263.0823317307692,66.22025531868226L263.1974158653846,63.964121323939786L264.0030048076923,66.74686452504626L264.1180889423077,67.58659363555815L264.2331730769231,54.37644153015067L264.46334134615387,40.744438436413034L264.6935096153846,48.75230145897501L265.1538461538462,56.13750229305093L265.3840144230769,61.27334194305825L265.4990985576923,54.08909736628566L265.7292668269231,52.99595606266333L265.84435096153845,55.85397155859834L265.95943509615387,62.49833625980504L266.41977163461536,54.253651798297284L266.5348557692308,47.07407712856104L266.76502403846155,38.24516321122831L267.1102764423077,32.1198866691007L267.34044471153845,36.49751144324762L267.5706129807692,40.96954864668365L267.6856971153846,39.246774819270364L267.80078125,36.03976429571105L268.0309495192308,34.04494452738117L268.6063701923077,29.49880147173881L269.1817908653846,36.186520883085436L269.41195913461536,48.47843111983453L269.5270432692308,53.73950321248494L269.75721153846155,60.17160293597755L269.8722956730769,58.69502782148815L269.98737980769226,65.9693109901229L270.2175480769231,59.88184240739491L270.33263221153845,53.49123556355536L270.44771634615387,55.86600524186618L270.79296875,50.03632791733393L271.0231370192308,46.52125285898428L271.1382211538462,35.53069322015582L271.25330528846155,18.790280644200713L271.3683894230769,19.589533490574183L271.4834735576923,22.455125473370682L271.5985576923077,26.512113687315182L271.94381009615387,14.857009588360533L272.0588942307692,12.854124936802215L272.2890625,6.511463099672227L272.6343149038462,-1.3067193726640436L273.5549879807692,-17.255980732049263L273.90024038461536,1.5205479988612418L274.1304086538462,24.7329086670455L274.24549278846155,31.695848236520167L274.5907451923077,21.87762477754445L274.7058293269231,5.685433161035987L274.93599759615387,1.721513115002806L275.62650240384613,-2.4238934338596883L276.66225961538464,-0.5976718703176294L277.0075120192308,14.602606850121736L277.12259615384613,11.800442012357905L277.23768028846155,20.840101506068383L277.4678485576923,13.106929364063344L277.5829326923077,16.812731322279493L277.69801682692304,11.768177846577657L277.81310096153845,9.761541986182444L277.92818509615387,3.141198023586652L278.0432692307692,-8.518891697409192L278.2734375,-0.48137960107026956L278.38852163461536,9.911314840828732L278.5036057692308,4.8634339010212395L278.61868990384613,-0.5020192880764367L278.73377403846155,6.6143028068634075L279.5393629807692,16.88894508095465L279.88461538461536,12.818904641278499L279.9996995192308,20.191311092680543L280.11478365384613,0.4596233702046968L280.22986778846155,-4.450246397088566L280.34495192307696,16.257700887780764L280.4600360576923,25.476072399061344L281.0354567307692,11.450149915713718L281.61087740384613,-4.701699300256351L285.0634014423077,-7.826303233519443L285.29356971153845,0.10069848809314552L285.40865384615387,-1.8728284843353713" style="fill: none;" fill="none"></path></g></g></g></g><g opacity="0.2"><g><g><g><path stroke="rgb(255, 112, 67)" stroke-width="2px" d="M23.362079326923077,144.69105625748634L23.70733173076923,144.66769006848335L23.822415865384617,144.68302030563353L23.9375,144.66015313267707L24.16766826923077,144.6174571931362L24.74308894230769,144.6538537144661L24.858173076923077,144.64360753297805L25.088341346153847,144.68253816962243L25.203425480769234,144.63045165538787L25.433593750000004,144.66423388123513L25.548677884615383,144.63162692785264L26.124098557692307,144.65508701205255L26.354266826923077,144.63154569268227L26.469350961538463,144.67620393633842L26.814603365384613,144.66457253694534L26.9296875,144.6933255672455L27.15985576923077,144.64181086421013L27.39002403846154,144.60322732329368L27.505108173076923,144.6671214222908L27.62019230769231,144.63482885956765L27.735276442307693,144.64221598505975L27.850360576923077,144.668487650156L28.42578125,144.62977645397186L28.540865384615387,144.63981374502183L28.88611778846154,144.60417999029158L29.00120192307692,144.636965239048L29.116286057692307,144.65720440149306L29.46153846153846,144.64751631617546L29.576622596153847,144.67122221589088L29.806790865384617,144.66766580343247L30.036959134615383,144.69029876589775L30.612379807692307,144.62834798097612L30.727463942307693,144.65679189562798L31.18780048076923,144.68150215744973L31.41796875,144.64198177456856L31.533052884615383,144.64403586387635L31.763221153846153,144.62810849547387L32.33864182692307,144.65636989474297L33.144230769230774,144.66431089639664L33.25931490384615,144.66847604513168L33.48948317307692,144.68374614715577L33.71965144230769,144.7241558969021L33.83473557692307,144.639491969347L33.94981971153846,144.66738939285278L34.06490384615385,144.70205149054527L34.29507211538461,144.6521530508995L34.41015625,144.66356078982352L34.64032451923077,144.64518476128578L34.87049278846154,144.63340460658074L34.98557692307692,144.65838811397552L35.10066105769231,144.70242601633072L35.21574519230769,144.68333891630172L35.56099759615385,144.68504274487495L35.67608173076923,144.72035261392594L36.71183894230769,144.67531245946884L36.82692307692308,144.61508343815802L36.94200721153846,144.66862691044807L37.05709134615385,144.64853333830834L37.172175480769226,144.74012335538865L37.632512019230774,144.66142441034316L37.74759615384615,144.6649808228016L38.43810096153846,144.636458837986L38.66826923076923,144.66223781704903L39.01352163461538,144.66840852499007L39.35877403846154,144.69688619971276L39.47385817307692,144.68125950694085L39.70402644230769,144.68076260089873L39.81911057692307,144.61427636146544L40.04927884615385,144.6889293730259L40.16436298076923,144.62703555822372L40.39453125,144.66943398714065L40.50961538461539,144.64099323749542L40.73978365384615,144.59501202106475L41.08503605769231,144.66004130244255L41.20012019230769,144.64344611763954L41.54537259615385,144.65786905288695L41.66045673076923,144.65130904912948L41.77554086538461,144.64601610302924L42.00570913461539,144.63500293493271L42.69621394230769,144.69837586283683L43.38671875,144.6710481405258L44.42247596153846,144.68880488276483L44.652644230769226,144.69601054787637L44.8828125,144.64412131905556L44.99789663461539,144.69872084856033L45.22806490384616,144.64219172000884L45.45823317307692,144.685534375906L45.80348557692308,144.6932506620884L46.26382211538462,144.6683747649193L46.37890625,144.6748524785042L46.49399038461538,144.68965204954148L46.60907451923077,144.66626898050308L46.72415865384615,144.69466120004654L46.95432692307692,144.65218364596367L47.06941105769231,144.68313741087914L47.41466346153846,144.6842641532421L47.64483173076923,144.73715246915816L48.105168269230774,144.6462123334408L48.22025240384615,144.69905106425284L48.45042067307692,144.72982125878335L48.68058894230769,144.74941475987436L48.79567307692307,144.6697409927845L48.91075721153846,144.65234717130662L49.14092548076923,144.65082585811615L49.48617788461538,144.72407993674278L49.601262019230774,144.71031321287154L50.06159855769231,144.71017922759057L50.40685096153847,144.69321268200875L51.21243990384615,144.69900253415108L51.44260817307693,144.6929478764534L51.90294471153847,144.7138738453388L52.01802884615385,144.68815183639526L52.36328125,144.73012298941612L52.47836538461539,144.71140725016593L53.05378605769231,144.6856113910675L53.28395432692308,144.75326657295227L53.39903846153846,144.6959208726883L53.51412259615385,144.68753677010537L53.74429086538462,144.65816867351532L53.97445913461539,144.72606439590453L54.43479567307692,144.7008319079876L54.54987980769231,144.71033853292465L54.89513221153846,144.73939434885978L55.125300480769226,144.7180590391159L55.47055288461539,144.70084456801413L56.04597355769231,144.69687248468398L56.50631009615385,144.7038059592247L56.96664663461538,144.6742901623249L57.19681490384615,144.70175292491913L57.42698317307692,144.71068879365922L57.542067307692314,144.69229588508605L58.23257211538461,144.71245803236963L58.34765625,144.6747955083847L58.46274038461538,144.7210837304592L58.577824519230774,144.75212295055388L58.80799278846154,144.69722380042077L59.03816105769231,144.73098598122596L59.15324519230769,144.72708774805068L59.49849759615385,144.69723857045173L59.72866586538461,144.7385102570057L59.84375,144.7132165789604L60.07391826923077,144.69058572649956L60.18900240384615,144.7250072836876L60.76442307692307,144.74134715795518L60.99459134615385,144.74037339091302L61.22475961538461,144.69510113596917L61.80018028846153,144.71281989812852L61.91526442307693,144.73715668916702L62.03034855769231,144.7372305393219L62.26051682692307,144.7074035167694L62.95102163461539,144.72309139966964L63.06610576923077,144.7229953944683L63.18118990384616,144.70574716329574L63.87169471153846,144.7555095076561L64.10186298076923,144.7491415143013L64.79236778846153,144.71015918254852L65.36778846153847,144.7464628636837L65.828125,144.7595860362053L66.05829326923077,144.74906133413316L66.17337740384615,144.74425263404845L66.5186298076923,144.7369277536869L66.86388221153847,144.7331118106842L67.66947115384615,144.76172980070115L67.78455528846155,144.77267861366272L67.89963942307692,144.79442009925842L68.0147235576923,144.72491233348848L68.1298076923077,144.71769189834595L68.24489182692308,144.77683215737343L68.70522836538461,144.77608416080474L68.8203125,144.77603141069412L68.93539663461539,144.7730489194393L69.16556490384616,144.77723200321196L69.28064903846153,144.78330248594284L69.97115384615384,144.75556858778L70.20132211538461,144.76224464178085L70.43149038461539,144.79851139783858L70.54657451923076,144.7835852265358L70.66165865384616,144.76564596891404L70.77674278846153,144.7398268997669L71.1219951923077,144.7922689497471L71.23707932692308,144.79437156915665L71.35216346153847,144.8025710463524L71.69741586538461,144.72137385606766L71.8125,144.81115876436235L71.92758413461539,144.7900376200676L72.15775240384616,144.81987624764443L72.27283653846153,144.7906611263752L72.5030048076923,144.7970396697521L72.6180889423077,144.8453978061676L72.73317307692308,144.83314395546913L73.19350961538461,144.84472260475158L73.30859375,144.83737556934358L73.53876201923077,144.84674926400186L73.65384615384616,144.83382654190063L73.9990985576923,144.84260627031327L74.1141826923077,144.81672284603118L74.8046875,144.86453660130502L75.14993990384616,144.84026944041253L75.26502403846155,144.820986109972L75.38010817307692,144.87610575556755L75.4951923076923,144.89382029771804L75.72536057692308,144.90475328564645L75.84044471153847,144.81173268556594L76.07061298076923,144.8697683572769L76.18569711538463,144.82879101634026L76.41586538461539,144.84840667247772L76.53094951923076,144.8804238796234L76.64603365384616,144.86589438915252L76.76111778846155,144.8430303812027L77.91195913461539,144.9047342956066L78.02704326923076,144.8930153310299L78.71754807692308,144.89702222943305L78.83263221153847,144.91775196790695L78.94771634615384,144.86762037277222L79.29296875,144.8734745800495L79.52313701923076,144.90500437617303L79.9834735576923,144.89731341004372L80.32872596153847,144.89484681487085L80.67397836538461,144.94319440126418L80.7890625,144.90565742254256L81.01923076923077,144.9266076564789L81.13431490384615,144.98899099230766L81.24939903846155,144.97623918056487L81.70973557692307,145.00849376320838L81.93990384615385,144.96673466563226L82.05498798076923,144.97874586582185L82.28515625,145.03848642110825L82.40024038461539,145.0466278731823L82.63040865384615,145.00282101631166L82.74549278846153,145.04533655047416L82.86057692307693,145.0717474758625L83.55108173076923,145.06618339419364L83.78125000000001,145.01659618020057L83.89633413461539,145.06425485014915L84.4717548076923,145.07909873127937L84.81700721153847,145.1220531463623L85.04717548076923,145.07554020881653L85.16225961538461,145.15260917544364L85.27734374999999,145.15016368031502L85.39242788461539,145.11203906536102L85.73768028846153,145.14475679397583L85.85276442307693,145.08647847175598L86.0829326923077,145.1180262029171L86.19801682692307,145.16708064079285L86.65835336538461,145.22059457302095L86.88852163461539,145.17329354882241L87.11868990384615,145.20705150961876L87.4639423076923,145.27195419073104L87.69411057692308,145.22775592803956L87.92427884615385,145.22878244519234L88.26953125,145.30254397988318L88.38461538461539,145.3097791850567L88.61478365384616,145.34364581108093L88.72986778846153,145.32755175232887L88.84495192307692,145.32729011178017L89.42037259615385,145.44915341734887L89.88070913461537,145.4732043027878L90.11087740384616,145.5078273653984L90.34104567307692,145.54257913827897L90.68629807692308,145.6233912527561L90.80138221153845,145.61791051626204L90.91646634615384,145.4313312649727L91.26171875,145.56919684410096L91.60697115384616,145.7299549162388L91.72205528846153,145.56227075457574L91.83713942307692,145.73282979726793L91.9522235576923,145.7375203371048L92.41256009615384,145.70016798377037L93.79356971153847,146.07301895320415L94.71424278846155,146.26698691248893L94.9444110576923,146.14031912684442L95.17457932692308,146.18888087868692L95.28966346153847,146.30257002711295L95.51983173076923,146.4923469901085L95.63491586538463,146.40869744718074L95.75,146.38556494116784L95.86508413461539,146.3554409354925L96.09525240384616,146.81200316548347L96.90084134615384,146.74942940175532L97.01592548076923,146.66084192097188L97.13100961538463,146.74253970980644L97.24609375,146.75147030353546L97.47626201923076,146.72129724025726L98.05168269230768,146.83599919080734L98.16676682692308,146.8249944627285L98.62710336538461,147.08241605758667L98.7421875,146.93271177113056L99.08743990384615,147.18178566098214L99.20252403846155,147.3659969598055L99.5477764423077,147.57158998847007L99.77794471153847,147.6137030392885L100.00811298076923,147.88574274480342L100.12319711538461,147.95842342972756L100.35336538461539,147.61686382591725L100.69861778846155,147.73497870862485L100.81370192307693,147.77713817954063L100.9287860576923,147.8952087521553L101.15895432692307,147.98316112160683L101.73437500000001,148.3260167956352L101.84945913461539,148.14653032422066L102.07962740384615,148.4166615307331L102.5399639423077,148.6535902351141L102.65504807692307,148.44501102268697L102.88521634615385,148.61353707611562L103.11538461538461,148.6793343991041L103.46063701923077,148.52905882894993L103.57572115384615,148.92150857448578L104.26622596153847,148.72164737284183L104.7265625,148.79677091538906L104.84164663461539,149.0267123401165L105.4170673076923,149.3316549271345L105.87740384615385,149.84635569155216L105.99248798076923,149.53839474320412L106.33774038461539,149.57754007279874L106.56790865384616,149.4286929756403L106.79807692307692,149.59239872395992L106.9131610576923,149.57080230116844L107.0282451923077,149.88289885818958L107.25841346153845,149.65979859530927L107.60366586538461,149.93843786716462L107.83383413461537,149.73207785189152L107.94891826923077,150.2779729217291L108.29417067307692,149.76295512914658L108.75450721153845,149.80217219889164L108.98467548076924,149.71768867671489L109.21484375,150.130393409729L109.32992788461537,150.08144658207894L109.44501201923077,150.46670358628035L109.79026442307692,150.74708071053027L109.90534855769232,150.55086348652839L110.25060096153845,150.40470084249972L110.48076923076924,150.88552311211825L110.59585336538461,150.5200247168541L110.82602163461537,150.9216012865305L111.17127403846153,150.6909680441022L111.28635817307692,150.771974542737L112.55228365384616,151.02395971119404L112.66736778846155,150.57695237249135L113.24278846153847,150.69732891619205L113.703125,150.89734282940626L113.93329326923076,151.5342721939087L114.27854567307692,151.02141926586629L114.3936298076923,151.59901926219464L114.50871394230768,151.26140272915364L114.73888221153847,151.39559268057346L114.85396634615384,151.4924983263016L114.96905048076923,150.99499937295914L115.31430288461539,151.5498701378703L115.42938701923076,151.41422401964664L115.77463942307692,151.7738304913044L115.8897235576923,151.48807338327168L116.00480769230768,151.1292724058032L116.11989182692308,151.7611749485135L116.23497596153847,151.3913201853633L116.35006009615384,151.53285321593285L116.81039663461539,151.81916815638542L117.04056490384615,151.12032519578935L117.27073317307692,151.90881828814744L117.61598557692308,151.67288946211337L118.42157451923077,151.67396556437015L118.65174278846155,151.91942765414714L118.76682692307692,151.8636910960078L118.8819110576923,151.65838502794503L118.9969951923077,151.35224896967412L119.45733173076923,151.9700070977211L120.03275240384615,151.7611142858863L120.14783653846153,152.42764938622713L120.26292067307693,151.6910434126854L120.3780048076923,152.3288452640176L120.95342548076923,152.1489710792899L121.06850961538461,151.873573037982L121.18359375000001,152.14673948585988L121.29867788461539,151.72673229128122L121.52884615384615,152.43706818223L121.64393028846153,152.33985526710748L121.9891826923077,151.9448334261775L123.14002403846153,151.93831878751516L123.4852764423077,152.40259598493577L123.71544471153845,151.81570722162724L123.83052884615385,152.45061915814875L124.06069711538461,152.42289422750474L124.29086538461539,152.24054448008536L124.40594951923077,151.93337135463952L124.75120192307692,152.14655433297156L125.21153846153845,152.73922886028885L125.671875,152.40969825983046L125.78695913461539,152.61109659969807L126.01712740384616,152.48775022476912L126.13221153846153,152.61165654212238L126.59254807692308,152.4671618565917L126.82271634615385,152.99744500368834L127.05288461538461,153.18687632158398L127.16796875,152.6976285405457L127.39813701923077,152.64895667284728L127.85847355769232,153.0719971306622L128.20372596153845,152.791551695019L128.7791466346154,152.79802057296038L129.12439903846155,152.6857501387596L129.2394831730769,153.0528559617698L129.58473557692307,152.7258207052946L129.69981971153845,152.8954231247306L129.92998798076923,152.36912129223347L130.2752403846154,152.44373421370983L130.39032451923077,152.74387495815753L130.62049278846155,152.16279160827398L130.73557692307693,152.73628738224505L130.9657451923077,152.51671372801064L131.08082932692307,152.95833673104644L131.31099759615384,153.0613073207438L131.5411658653846,152.7960464000702L132.3467548076923,153.017535674572L132.92217548076923,153.30271292701363L133.0372596153846,152.80520355552434L133.2674278846154,152.26666580736637L133.61268028846155,153.00993649363517L133.72776442307693,153.2096819087863L133.8428485576923,153.16711863577365L133.95793269230768,153.20558190643789L134.0730168269231,153.1024764083326L134.18810096153845,153.47119414284825L134.99368990384613,153.38589312583207L135.10877403846155,152.47717725634575L135.22385817307693,153.2256800942123L135.3389423076923,153.09158509299158L135.45402644230768,153.23016121611L135.91436298076923,153.1074194893241L136.0294471153846,153.23867165520787L136.14453125,153.17214572131633L136.60486778846155,153.51754737943412L136.8350360576923,153.18006957918405L136.95012019230768,153.02477312162517L137.5255408653846,153.18761020749807L137.87079326923077,153.54282945245504L137.98587740384616,153.26438786163925L138.21604567307693,153.28046794161202L138.33112980769232,152.95930284932257L138.44621394230768,153.26388093307614L138.67638221153848,153.07196152433752L138.79146634615384,152.50660364180803L138.90655048076923,153.2721066534519L139.36688701923077,153.358912499249L139.48197115384616,153.22018458768724L139.82722355769232,153.47148189470172L139.94230769230768,153.5581887021661L140.5177283653846,152.8630619868636L140.6328125,153.23892340511082L140.7478966346154,152.9939259119332L141.32331730769232,153.46163199841976L141.43840144230768,153.67092518359422L141.55348557692307,152.96437055245042L141.66856971153848,153.3119415588677L141.78365384615384,152.77465781271457L142.0138221153846,152.86627038046717L142.12890625,153.19478646442295L142.35907451923077,153.3131930552423L142.58924278846155,153.2486769005656L142.70432692307693,152.97877977266907L143.27974759615384,153.54412143453956L143.5099158653846,153.42253058329226L143.625,153.1251790009439L143.7400841346154,153.593143299222L144.31550480769232,153.43269157335163L144.4305889423077,153.42514382377266L144.54567307692307,153.20152951106428L145.0060096153846,153.38709991648793L145.12109375,153.4750706166029L145.35126201923077,153.3327589944005L145.9266826923077,153.77631706930697L146.27193509615384,153.39071092531086L146.5021033653846,153.30971036106348L146.6171875,153.6200276568532L146.96243990384616,153.20516887307167L147.07752403846155,153.69583246707916L147.30769230769232,153.5081962354481L147.4227764423077,153.2258685439825L147.65294471153845,153.5903215639293L147.76802884615384,153.18449320346116L148.57361778846155,153.88853936903178L149.26412259615384,153.61701114177703L149.95462740384616,153.1681944742799L150.06971153846152,153.843169394508L150.18479567307693,153.22008409872652L150.41496394230768,153.6587155111134L150.76021634615384,153.22158800438046L151.2205528846154,153.68569587394595L151.56580528846152,153.59340454414487L151.68088942307693,153.75920961499213L152.25631009615384,153.50070730224252L152.83173076923077,153.53747940436006L153.29206730769232,153.8751869313419L153.5222355769231,154.01468928046523L153.86748798076925,153.69491870328784L154.09765625,153.57897541075945L154.32782451923077,153.24500483348965L154.44290865384616,153.71692644506692L154.78816105769232,154.12856318615377L155.24849759615384,153.1880952447653L155.82391826923077,153.7681169986725L156.39933894230768,152.87071444541215L156.74459134615384,153.82925952002407L156.85967548076925,153.31597061231733L156.9747596153846,154.12859740778805L157.32001201923077,154.1211731594056L157.43509615384616,153.63972059190274L157.7803485576923,153.40693580433725L157.89543269230768,154.5428018923849L158.12560096153845,153.82068446204067L158.24068509615384,153.6419823847711L158.70102163461536,153.82045071311296L158.93118990384616,153.84875886216759L159.2764423076923,153.93611258380116L159.5066105769231,154.15190728604793L159.73677884615384,154.20579053498804L159.85186298076923,154.08241514749824L159.9669471153846,154.23806760236621L160.31219951923077,153.81711143329738L160.42728365384616,153.64837635755538L160.54236778846152,153.92240243442356L160.7725360576923,154.35336325541138L160.88762019230768,153.77689316645265L161.0027043269231,153.31415060162544L161.578125,153.59868562147022L161.6932091346154,154.17581746056675L161.92337740384616,154.08430030457674L162.03846153846155,154.20626963786782L162.15354567307693,153.61163788363336L162.2686298076923,153.60218071192503L162.3837139423077,154.20016348287464L162.84405048076923,153.63151161968707L162.9591346153846,153.73327739685774L163.07421875,153.91513175480068L163.41947115384613,153.83678030110894L163.53455528846155,153.17728450521827L163.8798076923077,154.01888212300838L164.4552283653846,154.34186650067568L164.80048076923077,154.1852394875139L164.91556490384613,153.94213941581546L165.49098557692307,153.63080529570578L165.60606971153845,154.31529198400676L165.9513221153846,153.78907679356635L166.06640625000003,153.88350483253598L166.52674278846155,153.9550497416407L167.21724759615387,154.1883708000183L167.33233173076923,153.94363441988827L168.13792067307693,153.74093288853766L168.59825721153845,154.165696824342L169.28876201923077,154.24064246714116L169.40384615384613,154.12401428036392L169.51893028846155,154.0619987446815L170.20943509615387,154.20897077322007L170.32451923076923,153.7182703860104L170.4396033653846,154.25005137249826L170.55468749999997,153.74046420380472L170.6697716346154,153.58452630490063L171.01502403846155,153.96636879444122L171.13010817307693,153.9596388693899L171.3602764423077,154.1705885399133L171.47536057692307,154.30812410116195L171.70552884615387,153.96254579611121L171.9356971153846,154.25182502903044L172.05078125,153.75640264973043L172.97145432692307,153.90306846387685L173.08653846153845,154.37881399691105L173.20162259615387,153.8389503747225L174.00721153846155,154.11863726377487L174.2373798076923,154.43599603995682L174.58263221153845,154.3183501057327L174.69771634615384,154.56286229789256L175.04296875,154.2329610619694L175.1580528846154,154.60279391733928L175.27313701923077,154.449424075149L175.73347355769232,154.09267834089695L175.96364182692307,153.8537992671132L176.30889423076923,154.33256662320346L176.5390625,154.2064596042037L177.22956730769232,154.30973172672094L177.3446514423077,154.14614545740187L177.45973557692307,153.91885294541717L177.92007211538464,154.01792121380566L178.03515625,154.49694427605718L178.1502403846154,154.0046763204038L178.26532451923075,154.4495255531743L178.38040865384616,153.79811928346754L178.49549278846155,154.07823252528905L178.6105769230769,153.95023840405048L178.95582932692307,153.99755030795933L179.30108173076923,154.1216314919293L179.53125,153.9382549636066L179.76141826923075,153.9051404222846L179.87650240384616,154.01896052286028L179.99158653846155,154.37806768175216L180.1066706730769,153.67869105488063L180.22175480769232,153.5093443416059L180.33683894230768,153.98604346476495L180.45192307692307,154.38039673101156L181.02734375,153.9308747615665L181.1424278846154,154.19251715652643L181.37259615384616,154.34734657779336L181.6027644230769,154.09100003018975L181.83293269230768,154.2389227475971L182.5234375,154.2588271446526L182.6385216346154,154.45832789819687L183.0988581730769,153.79920343011617L183.32902644230768,154.4038654530421L183.44411057692307,154.00011613927782L183.78936298076923,153.71561534106732L183.9044471153846,154.18841115385294L184.01953125,153.80743620581924L184.1346153846154,154.18431761339306L184.24969951923075,153.94696756750346L184.47986778846155,154.23151834644378L184.71003605769232,154.16298401802777L184.82512019230768,153.73849952593446L184.94020432692307,153.39616436362266L185.05528846153848,153.82524550035595L185.17037259615384,154.04246702715756L185.6307091346154,154.02447007410228L186.55138221153848,153.72120711654424L186.78155048076923,154.25534201078116L186.8966346153846,154.17994931079448L187.01171875,154.5527007803321L187.1268028846154,154.40665273591875L187.24188701923077,154.21557706519962L187.58713942307693,154.05331132896245L188.85306490384616,154.373265080899L189.4284855769231,154.4558962829411L189.65865384615384,154.44057128783317L190.00390625,154.34582760538905L190.23407451923077,154.39689234998076L190.46424278846152,153.92175822369754L190.69441105769232,153.8208781208843L191.03966346153845,154.62742338906975L191.73016826923077,153.85710201747716L192.07542067307693,154.22231061682106L192.30558894230768,153.72650362327695L192.53575721153845,154.27755435705186L192.65084134615384,153.6413177333772L192.76592548076925,154.06908737048508L192.8810096153846,153.58554583266377L192.99609375,153.96829674504698L193.22626201923077,154.28298069499434L193.34134615384616,154.15346657931804L193.45643028846152,154.33166067302227L193.57151442307693,154.3329266756773L193.68659855769232,154.21348512768745L193.80168269230768,154.3762821564451L194.14693509615384,153.7377913556993L194.26201923076925,154.30520603097975L194.4921875,154.13114635907112L195.06760817307693,154.17196854874493L195.29777644230768,154.0580751914531L195.52794471153845,154.31052027493715L195.64302884615384,154.30833813473583L195.8731971153846,153.89722150973975L195.98828125,153.65296588093042L196.44861778846152,154.12276476211846L196.6787860576923,154.3292824342847L197.25420673076923,154.2507414098829L197.484375,154.26467746160924L197.5994591346154,154.2429076887667L197.71454326923077,154.35800879281015L197.82962740384616,154.39253624584526L198.1748798076923,153.83492006845773L198.4050480769231,153.36563035771252L198.63521634615384,154.5953333867714L198.8653846153846,154.14955970831215L199.21063701923077,154.07207276299596L199.32572115384616,154.31000820323825L199.55588942307693,153.9767142780125L199.6709735576923,153.91674762256443L200.01622596153845,154.00864748060704L200.24639423076923,154.5268240487203L200.4765625,154.41023051217198L201.51231971153845,153.757755690068L201.62740384615387,154.1129225805402L201.8575721153846,154.36398808378726L202.31790865384613,154.1389943227172L203.12349759615387,153.9275792643428L203.23858173076923,154.09390412159263L203.3536658653846,154.24024697318674L203.46875000000003,154.14186069779097L203.5838341346154,154.2129466149956L204.04417067307693,154.1061060793698L204.61959134615387,154.0212167110294L204.8497596153846,153.36092214658856L205.19501201923077,154.19608926214278L205.31009615384613,153.85466687455772L205.54026442307693,154.14778605177997L205.6553485576923,153.97275314033033L206.23076923076923,153.77641267888248L206.3458533653846,153.56814726367594L206.46093749999997,153.96946397311984L206.69110576923077,153.67497124895453L206.80618990384613,154.09579804837705L207.03635817307693,153.65626315847038L207.49669471153845,153.62779049500824L207.95703124999997,154.29926986321806L208.18719951923077,153.79580302610992L208.41736778846155,154.445385427773L208.53245192307693,154.07501813136042L209.5682091346154,154.10344800129533L209.68329326923077,154.03377921581267L209.79837740384613,154.22020720615984L209.91346153846155,153.66210470572113L210.0285456730769,154.09816356115044L210.1436298076923,154.36277964469045L210.2587139423077,154.03468269333243L210.37379807692307,153.8316350553185L210.48888221153845,153.70824285373092L210.8341346153846,154.27139373756944L211.0643028846154,154.09541099444033L211.17938701923077,153.5650434471667L211.40955528846155,154.06803032420575L212.10006009615384,153.29592438340188L212.21514423076923,153.86708095371722L212.5603966346154,154.004251550138L212.67548076923077,153.7067162655294L212.90564903846155,153.8832354772836L213.13581730769232,153.73168935477733L213.94140625,154.2916871007532L214.0564903846154,153.91484973952174L214.17157451923077,154.44357392303647L214.5168269230769,153.80549651831387L214.63191105769232,153.80173016041516L214.97716346153848,154.13363768085839L215.09224759615384,154.0656716030091L215.4375,154.0760694410652L215.66766826923075,154.12999284602702L215.89783653846155,154.0123898372054L216.47325721153848,154.41740419752895L216.58834134615384,153.98294426389037L216.70342548076923,153.45424078479408L216.81850961538464,154.03586765863002L217.0486778846154,153.60908926203848L217.39393028846155,153.90939742214977L217.5090144230769,154.32288196664302L217.73918269230768,153.36196277439595L217.85426682692307,154.39315444417298L218.77493990384616,153.97203013412656L219.12019230769232,153.49640922322868L219.35036057692307,154.02919206619262L219.46544471153848,153.45514769107103L219.81069711538464,154.13732781484723L219.92578125,153.05871452093123L220.38611778846155,153.31788188070058L220.96153846153848,153.53824480846524L221.421875,153.97972716651856L221.76712740384616,153.25928890407084L221.88221153846155,153.25700930804015L221.9972956730769,153.62892422676086L222.22746394230768,154.18431312963367L222.45763221153848,153.85558789148928L222.57271634615384,153.2656216867268L222.68780048076923,153.38584710136055L222.8028846153846,152.98766328692437L222.91796875,153.33273446559906L223.60847355769232,152.8917422220111L224.06881009615384,153.01708729863168L224.18389423076923,153.48783060461284L224.2989783653846,153.26412529796363L224.64423076923077,152.9752416908741L224.87439903846152,153.6596749037504L225.10456730769232,153.3719291165471L225.3347355769231,153.2285067088902L225.44981971153848,152.94125532209873L226.25540865384616,152.61695212572812L226.48557692307693,153.13085122033954L226.60066105769232,151.85805237293243L226.8308293269231,152.77093919366598L227.2911658653846,153.38334674611687L227.40625,152.62298752963542L227.5213341346154,153.71349425911905L227.63641826923077,153.54430830180644L228.44200721153845,152.36058236807585L228.67217548076925,153.53745579868556L229.59284855769232,153.5702082104981L229.8230168269231,153.51592861041428L230.16826923076925,153.53475024551153L231.08894230769232,153.3124934569001L231.43419471153845,153.20073720440269L231.89453125,152.682099699229L232.12469951923077,152.475034019351L232.70012019230768,152.763208796829L233.04537259615384,152.52246032506227L233.2755408653846,152.62238776087761L233.390625,151.9852431759238L233.50570913461536,152.84763706326484L233.85096153846152,152.99711004048586L234.19621394230768,150.60107578933238L234.3112980769231,151.5556388899684L234.65655048076923,152.18541059195996L234.7716346153846,151.66862013190985L235.69230769230768,152.6722797386348L235.8073918269231,152.25565765053034L235.92247596153845,152.08779255598785L236.15264423076923,150.38759345412254L236.4978966346154,151.11658626794815L236.95823317307693,150.34870343506336L237.1884014423077,151.56482242047787L237.3034855769231,152.0709684357047L237.41856971153845,151.36084961146116L237.64873798076923,149.3213343679905L237.7638221153846,148.5735398322344L238.10907451923077,150.59724718630315L238.22415865384613,150.89862834960223L238.33924278846155,151.7265117958188L238.45432692307693,151.0133624777198L238.5694110576923,150.1928379356861L239.02974759615387,151.20929564237593L239.60516826923077,151.11915256083012L239.72025240384613,152.0628024548292L240.41075721153845,150.00886137485503L240.64092548076923,148.94217817783357L240.7560096153846,147.69165557026864L240.9861778846154,147.4273031383753L241.33143028846155,149.55321963429452L241.44651442307693,148.93540611863136L241.79176682692307,148.79636632204057L241.90685096153845,150.2734332472086L242.2521033653846,149.96915425658227L242.4822716346154,150.11464433670045L242.71243990384613,151.87067626565695L242.94260817307693,149.1619594037533L243.40294471153845,149.93889890313147L244.20853365384613,147.90274674296379L244.32361778846155,147.99017319381238L244.6688701923077,148.71696263551712L245.01412259615387,149.42272060811518L245.12920673076923,142.08225522637366L245.35937499999997,145.4565774679184L245.4744591346154,144.4388178884983L245.93479567307693,147.6055320471525L246.0498798076923,147.8835937052965L246.85546875,146.22568041086197L247.20072115384613,147.98578280210495L247.6610576923077,141.28192949295044L247.77614182692307,140.8613127708435L247.89122596153845,139.69636033773423L248.69681490384616,114.54937613010406L248.9269831730769,116.49355952739715L249.50240384615384,111.10356166362762L249.9627403846154,136.48284680843352L250.07782451923077,135.11348980665207L250.53816105769232,129.93845708370208L251.34375,124.71581844091416L251.57391826923077,122.06337829828261L251.80408653846155,109.529532122612L251.9191706730769,90.1078486919403L252.1493389423077,99.00174100399018L252.37950721153848,75.53508625030518L252.49459134615384,82.9513213634491L252.60967548076923,71.0855342388153L252.83984375,78.38244438171387L252.9549278846154,51.17065415382386L253.18509615384616,48.456217861175546L253.53034855769232,59.75378923416138L253.6454326923077,53.01534662246705L253.76051682692307,64.73004055023193L253.87560096153848,47.5511947631836L253.99068509615384,44.49719967842101L254.3359375,116.97339985370637L254.4510216346154,116.26414296627046L254.56610576923075,96.96513941287994L254.68118990384616,91.12082383632661L254.79627403846155,85.89680314064026L254.9113581730769,80.0176134109497L255.37169471153848,70.02938418388366L255.71694711538464,74.88085827827454L255.9471153846154,106.47789602279663L256.0621995192308,102.95409579277039L256.4074519230769,45.21660146713258L256.5225360576923,74.86440868377686L257.0979567307692,57.148423290252694L257.5582932692308,53.9472764968872L257.67337740384613,79.23219380378724L257.78846153846155,42.46876802444457L258.0186298076923,34.82088818550109L258.2487980769231,39.03288745880127L259.0543870192308,34.12145547866822L259.16947115384613,74.74268674850464L259.28455528846155,60.21225099563599L259.3996394230769,105.7441419839859L259.5147235576923,79.30771508216857L259.6298076923077,52.05572504997253L259.7448918269231,82.37033586502075L259.85997596153845,71.01023240089417L259.9750600961538,60.427733087539664L260.2052283653846,40.3480110168457L260.4353966346154,88.74610247611999L260.8957331730769,70.61778001785278L261.1259014423077,23.961995172500615L261.35606971153845,75.16121034622192L262.3918269230769,95.51656651496887L262.7370793269231,36.44750747680665L262.85216346153845,49.62813119888306L263.0823317307692,88.03059997558593L263.1974158653846,57.54281687736511L264.0030048076923,74.66697978973389L264.1180889423077,69.97659187316894L264.2331730769231,16.778316307067875L264.46334134615387,1.9456604003906288L264.6935096153846,71.5439116001129L265.1538461538462,77.15692005157472L265.3840144230769,75.890731716156L265.4990985576923,33.641632032394405L265.7292668269231,49.884707736969L265.84435096153845,63.98832335472106L265.95943509615387,81.40922040939331L266.41977163461536,30.78801140785218L266.5348557692308,26.63990306854248L266.76502403846155,13.116715908050537L267.1102764423077,14.686407279968257L267.34044471153845,48.956905031204215L267.5706129807692,53.697654533386235L267.6856971153846,34.34349546432496L267.80078125,26.912118959426884L268.0309495192308,28.367380571365352L268.6063701923077,16.559778928756714L269.1817908653846,55.22079920768738L269.41195913461536,83.46309871673584L269.5270432692308,68.71332378387451L269.75721153846155,78.47834830284118L269.8722956730769,54.49246788024902L269.98737980769226,86.67304000854493L270.2175480769231,42.55597028732301L270.33263221153845,35.30258531570434L270.44771634615387,62.62496509552001L270.79296875,33.44416937828065L271.0231370192308,36.51680846214294L271.1382211538462,4.2498696327209515L271.25330528846155,-28.85550899505617L271.3683894230769,21.864330053329468L271.4834735576923,30.611041116714482L271.5985576923077,38.05892629623413L271.94381009615387,-18.315209770202628L272.0588942307692,7.153607082366939L272.2890625,-11.540728282928482L273.43990384615387,-27.28851842880249L273.5549879807692,32.19084362983704L273.90024038461536,54.961437463760376L274.1304086538462,90.7988582611084L274.24549278846155,51.513445472717294L274.5907451923077,-6.06654968261718L276.0868389423077,-23.032453823089583L276.43209134615387,22.936212301254272L276.66225961538464,27.079433870315547L277.0075120192308,57.864938592910775L277.12259615384613,3.8250497817993088L277.23768028846155,46.568363142013546L277.4678485576923,-8.902868270874023L277.5829326923077,27.360013818740853L277.69801682692304,-2.589397430419922L277.81310096153845,4.050347614288334L277.92818509615387,-15.701319408416763L278.0432692307692,-41.70530090332032L278.2734375,22.39461636543274L278.38852163461536,39.490522098541256L278.5036057692308,-9.50361185073851L278.61868990384613,-15.772924518585214L278.73377403846155,26.86845030784606L279.5393629807692,46.13215770721435L279.88461538461536,1.2349433898925781L279.9996995192308,41.17431406974793L280.11478365384613,-55.699795532226545L280.22986778846155,-18.424491119384783L280.34495192307696,75.19570469856262L280.4600360576923,51.7129759311676L281.0354567307692,-28.469783306121826L283.68239182692304,-46.52488861083985L283.79747596153845,36.31256003379821L283.91256009615387,-11.676899528503426L284.2578125,-53.976715278625505L284.71814903846155,61.96621327400208L284.9483173076923,-55.86889972686767L285.0634014423077,25.757617378234855L285.29356971153845,22.66216492652893L285.40865384615387,-7.489789867401115L285.63882211538464,-34.5048348426819L285.75390625,2.6297069549560623L286.21424278846155,-24.999112987518302L286.4444110576923,2.6696619987487793L286.5594951923077,-37.852365303039534" style="fill: none;" fill="none"></path></g></g></g></g></g></g><g transform="translate(30, 177)" clip-path="url(#clip_1)"><clipPath id="clip_1"><rect width="299" height="23"></rect></clipPath><g><g><line x1="0" y1="0" x2="0" y2="5" style="visibility: inherit;" fill="rgb(0, 0, 0)" stroke="rgb(204, 204, 204)" stroke-width="1px"></line><line x1="23.016826923076923" y1="0" x2="23.016826923076923" y2="5" style="visibility: inherit;" fill="rgb(0, 0, 0)" stroke="rgb(204, 204, 204)" stroke-width="1px"></line><line x1="46.03365384615385" y1="0" x2="46.03365384615385" y2="5" style="visibility: inherit;" fill="rgb(0, 0, 0)" stroke="rgb(204, 204, 204)" stroke-width="1px"></line><line x1="69.05048076923077" y1="0" x2="69.05048076923077" y2="5" style="visibility: inherit;" fill="rgb(0, 0, 0)" stroke="rgb(204, 204, 204)" stroke-width="1px"></line><line x1="92.0673076923077" y1="0" x2="92.0673076923077" y2="5" style="visibility: inherit;" fill="rgb(0, 0, 0)" stroke="rgb(204, 204, 204)" stroke-width="1px"></line><line x1="115.08413461538463" y1="0" x2="115.08413461538463" y2="5" style="visibility: inherit;" fill="rgb(0, 0, 0)" stroke="rgb(204, 204, 204)" stroke-width="1px"></line><line x1="138.10096153846155" y1="0" x2="138.10096153846155" y2="5" style="visibility: inherit;" fill="rgb(0, 0, 0)" stroke="rgb(204, 204, 204)" stroke-width="1px"></line><line x1="161.11778846153845" y1="0" x2="161.11778846153845" y2="5" style="visibility: inherit;" fill="rgb(0, 0, 0)" stroke="rgb(204, 204, 204)" stroke-width="1px"></line><line x1="184.1346153846154" y1="0" x2="184.1346153846154" y2="5" style="visibility: inherit;" fill="rgb(0, 0, 0)" stroke="rgb(204, 204, 204)" stroke-width="1px"></line><line x1="207.1514423076923" y1="0" x2="207.1514423076923" y2="5" style="visibility: inherit;" fill="rgb(0, 0, 0)" stroke="rgb(204, 204, 204)" stroke-width="1px"></line><line x1="230.16826923076925" y1="0" x2="230.16826923076925" y2="5" style="visibility: inherit;" fill="rgb(0, 0, 0)" stroke="rgb(204, 204, 204)" stroke-width="1px"></line><line x1="253.18509615384616" y1="0" x2="253.18509615384616" y2="5" style="visibility: inherit;" fill="rgb(0, 0, 0)" stroke="rgb(204, 204, 204)" stroke-width="1px"></line><line x1="276.2019230769231" y1="0" x2="276.2019230769231" y2="5" style="visibility: inherit;" fill="rgb(0, 0, 0)" stroke="rgb(204, 204, 204)" stroke-width="1px"></line><line x1="299.21875" y1="0" x2="299.21875" y2="5" style="visibility: inherit;" fill="rgb(0, 0, 0)" stroke="rgb(204, 204, 204)" stroke-width="1px"></line></g><g transform="translate(0, 8)"><text x="0" y="0" dx="0em" dy="0.95em" style="text-anchor: middle; visibility: hidden; font-family: Roboto, sans-serif; font-size: 12px; font-weight: 200;" fill="rgb(255, 255, 255)" stroke="none" stroke-width="1px">-200</text><text x="23.016826923076923" y="0" dx="0em" dy="0.95em" style="text-anchor: middle; visibility: inherit; font-family: Roboto, sans-serif; font-size: 12px; font-weight: 200;" fill="rgb(255, 255, 255)" stroke="none" stroke-width="1px">0</text><text x="46.03365384615385" y="0" dx="0em" dy="0.95em" style="text-anchor: middle; visibility: hidden; font-family: Roboto, sans-serif; font-size: 12px; font-weight: 200;" fill="rgb(255, 255, 255)" stroke="none" stroke-width="1px">200</text><text x="69.05048076923077" y="0" dx="0em" dy="0.95em" style="text-anchor: middle; visibility: inherit; font-family: Roboto, sans-serif; font-size: 12px; font-weight: 200;" fill="rgb(255, 255, 255)" stroke="none" stroke-width="1px">400</text><text x="92.0673076923077" y="0" dx="0em" dy="0.95em" style="text-anchor: middle; visibility: hidden; font-family: Roboto, sans-serif; font-size: 12px; font-weight: 200;" fill="rgb(255, 255, 255)" stroke="none" stroke-width="1px">600</text><text x="115.08413461538463" y="0" dx="0em" dy="0.95em" style="text-anchor: middle; visibility: inherit; font-family: Roboto, sans-serif; font-size: 12px; font-weight: 200;" fill="rgb(255, 255, 255)" stroke="none" stroke-width="1px">800</text><text x="138.10096153846155" y="0" dx="0em" dy="0.95em" style="text-anchor: middle; visibility: hidden; font-family: Roboto, sans-serif; font-size: 12px; font-weight: 200;" fill="rgb(255, 255, 255)" stroke="none" stroke-width="1px">1k</text><text x="161.11778846153845" y="0" dx="0em" dy="0.95em" style="text-anchor: middle; visibility: inherit; font-family: Roboto, sans-serif; font-size: 12px; font-weight: 200;" fill="rgb(255, 255, 255)" stroke="none" stroke-width="1px">1.2k</text><text x="184.1346153846154" y="0" dx="0em" dy="0.95em" style="text-anchor: middle; visibility: hidden; font-family: Roboto, sans-serif; font-size: 12px; font-weight: 200;" fill="rgb(255, 255, 255)" stroke="none" stroke-width="1px">1.4k</text><text x="207.1514423076923" y="0" dx="0em" dy="0.95em" style="text-anchor: middle; visibility: inherit; font-family: Roboto, sans-serif; font-size: 12px; font-weight: 200;" fill="rgb(255, 255, 255)" stroke="none" stroke-width="1px">1.6k</text><text x="230.16826923076925" y="0" dx="0em" dy="0.95em" style="text-anchor: middle; visibility: hidden; font-family: Roboto, sans-serif; font-size: 12px; font-weight: 200;" fill="rgb(255, 255, 255)" stroke="none" stroke-width="1px">1.8k</text><text x="253.18509615384616" y="0" dx="0em" dy="0.95em" style="text-anchor: middle; visibility: inherit; font-family: Roboto, sans-serif; font-size: 12px; font-weight: 200;" fill="rgb(255, 255, 255)" stroke="none" stroke-width="1px">2k</text><text x="276.2019230769231" y="0" dx="0em" dy="0.95em" style="text-anchor: middle; visibility: hidden; font-family: Roboto, sans-serif; font-size: 12px; font-weight: 200;" fill="rgb(255, 255, 255)" stroke="none" stroke-width="1px">2.2k</text><text x="299.21875" y="0" dx="0em" dy="0.95em" style="text-anchor: middle; visibility: hidden; font-family: Roboto, sans-serif; font-size: 12px; font-weight: 200;" fill="rgb(255, 255, 255)" stroke="none" stroke-width="1px">2.4k</text></g><line x1="0" y1="0" x2="299.21875" y2="0" fill="rgb(0, 0, 0)" stroke="rgb(204, 204, 204)" stroke-width="1px"></line></g></g></g></g></svg>