<svg viewBox="0 0 330 200" xmlns="http://www.w3.org/2000/svg"><g><g><g><g><g><line x1="60" y1="177" x2="55" y2="177" style="visibility: inherit;" fill="rgb(0, 0, 0)" stroke="rgb(204, 204, 204)" stroke-width="1px"></line><line x1="60" y1="157.33333333333331" x2="55" y2="157.33333333333331" style="visibility: inherit;" fill="rgb(0, 0, 0)" stroke="rgb(204, 204, 204)" stroke-width="1px"></line><line x1="60" y1="137.66666666666666" x2="55" y2="137.66666666666666" style="visibility: inherit;" fill="rgb(0, 0, 0)" stroke="rgb(204, 204, 204)" stroke-width="1px"></line><line x1="60" y1="118" x2="55" y2="118" style="visibility: inherit;" fill="rgb(0, 0, 0)" stroke="rgb(204, 204, 204)" stroke-width="1px"></line><line x1="60" y1="98.33333333333334" x2="55" y2="98.33333333333334" style="visibility: inherit;" fill="rgb(0, 0, 0)" stroke="rgb(204, 204, 204)" stroke-width="1px"></line><line x1="60" y1="78.66666666666666" x2="55" y2="78.66666666666666" style="visibility: inherit;" fill="rgb(0, 0, 0)" stroke="rgb(204, 204, 204)" stroke-width="1px"></line><line x1="60" y1="59.00000000000001" x2="55" y2="59.00000000000001" style="visibility: inherit;" fill="rgb(0, 0, 0)" stroke="rgb(204, 204, 204)" stroke-width="1px"></line><line x1="60" y1="39.33333333333335" x2="55" y2="39.33333333333335" style="visibility: inherit;" fill="rgb(0, 0, 0)" stroke="rgb(204, 204, 204)" stroke-width="1px"></line><line x1="60" y1="19.666666666666675" x2="55" y2="19.666666666666675" style="visibility: inherit;" fill="rgb(0, 0, 0)" stroke="rgb(204, 204, 204)" stroke-width="1px"></line><line x1="60" y1="0" x2="55" y2="0" style="visibility: inherit;" fill="rgb(0, 0, 0)" stroke="rgb(204, 204, 204)" stroke-width="1px"></line></g><g transform="translate(50, 0)"><text x="0" y="177" dx="0em" dy="0.3em" style="text-anchor: end; visibility: hidden; font-family: Roboto, sans-serif; font-size: 12px; font-weight: 200;" fill="rgb(255, 255, 255)" stroke="none" stroke-width="1px">-0.05</text><text x="0" y="157.33333333333331" dx="0em" dy="0.3em" style="text-anchor: end; visibility: inherit; font-family: Roboto, sans-serif; font-size: 12px; font-weight: 200;" fill="rgb(255, 255, 255)" stroke="none" stroke-width="1px">0</text><text x="0" y="137.66666666666666" dx="0em" dy="0.3em" style="text-anchor: end; visibility: hidden; font-family: Roboto, sans-serif; font-size: 12px; font-weight: 200;" fill="rgb(255, 255, 255)" stroke="none" stroke-width="1px">0.05</text><text x="0" y="118" dx="0em" dy="0.3em" style="text-anchor: end; visibility: inherit; font-family: Roboto, sans-serif; font-size: 12px; font-weight: 200;" fill="rgb(255, 255, 255)" stroke="none" stroke-width="1px">0.1</text><text x="0" y="98.33333333333334" dx="0em" dy="0.3em" style="text-anchor: end; visibility: hidden; font-family: Roboto, sans-serif; font-size: 12px; font-weight: 200;" fill="rgb(255, 255, 255)" stroke="none" stroke-width="1px">0.15</text><text x="0" y="78.66666666666666" dx="0em" dy="0.3em" style="text-anchor: end; visibility: inherit; font-family: Roboto, sans-serif; font-size: 12px; font-weight: 200;" fill="rgb(255, 255, 255)" stroke="none" stroke-width="1px">0.2</text><text x="0" y="59.00000000000001" dx="0em" dy="0.3em" style="text-anchor: end; visibility: hidden; font-family: Roboto, sans-serif; font-size: 12px; font-weight: 200;" fill="rgb(255, 255, 255)" stroke="none" stroke-width="1px">0.25</text><text x="0" y="39.33333333333335" dx="0em" dy="0.3em" style="text-anchor: end; visibility: inherit; font-family: Roboto, sans-serif; font-size: 12px; font-weight: 200;" fill="rgb(255, 255, 255)" stroke="none" stroke-width="1px">0.3</text><text x="0" y="19.666666666666675" dx="0em" dy="0.3em" style="text-anchor: end; visibility: hidden; font-family: Roboto, sans-serif; font-size: 12px; font-weight: 200;" fill="rgb(255, 255, 255)" stroke="none" stroke-width="1px">0.35</text><text x="0" y="0" dx="0em" dy="0.3em" style="text-anchor: end; visibility: hidden; font-family: Roboto, sans-serif; font-size: 12px; font-weight: 200;" fill="rgb(255, 255, 255)" stroke="none" stroke-width="1px">0.4</text></g><line x1="60" y1="0" x2="60" y2="177" fill="rgb(0, 0, 0)" stroke="rgb(204, 204, 204)" stroke-width="1px"></line></g></g><g transform="translate(60, 0)" clip-path="url(#clip_0)"><clipPath id="clip_0"><rect width="270" height="177"></rect></clipPath><g><g><g><line x1="0" y1="0" x2="0" y2="177" fill="rgb(0, 0, 0)" stroke="rgb(189, 189, 189)" stroke-width="1px" opacity="0.25"></line><line x1="20.76923076923077" y1="0" x2="20.76923076923077" y2="177" fill="rgb(0, 0, 0)" stroke="rgb(189, 189, 189)" stroke-width="1px" opacity="0.25"></line><line x1="41.53846153846154" y1="0" x2="41.53846153846154" y2="177" fill="rgb(0, 0, 0)" stroke="rgb(189, 189, 189)" stroke-width="1px" opacity="0.25"></line><line x1="62.307692307692314" y1="0" x2="62.307692307692314" y2="177" fill="rgb(0, 0, 0)" stroke="rgb(189, 189, 189)" stroke-width="1px" opacity="0.25"></line><line x1="83.07692307692308" y1="0" x2="83.07692307692308" y2="177" fill="rgb(0, 0, 0)" stroke="rgb(189, 189, 189)" stroke-width="1px" opacity="0.25"></line><line x1="103.84615384615385" y1="0" x2="103.84615384615385" y2="177" fill="rgb(0, 0, 0)" stroke="rgb(189, 189, 189)" stroke-width="1px" opacity="0.25"></line><line x1="124.61538461538463" y1="0" x2="124.61538461538463" y2="177" fill="rgb(0, 0, 0)" stroke="rgb(189, 189, 189)" stroke-width="1px" opacity="0.25"></line><line x1="145.3846153846154" y1="0" x2="145.3846153846154" y2="177" fill="rgb(0, 0, 0)" stroke="rgb(189, 189, 189)" stroke-width="1px" opacity="0.25"></line><line x1="166.15384615384616" y1="0" x2="166.15384615384616" y2="177" fill="rgb(0, 0, 0)" stroke="rgb(189, 189, 189)" stroke-width="1px" opacity="0.25"></line><line x1="186.9230769230769" y1="0" x2="186.9230769230769" y2="177" fill="rgb(0, 0, 0)" stroke="rgb(189, 189, 189)" stroke-width="1px" opacity="0.25"></line><line x1="207.6923076923077" y1="0" x2="207.6923076923077" y2="177" fill="rgb(0, 0, 0)" stroke="rgb(189, 189, 189)" stroke-width="1px" opacity="0.25"></line><line x1="228.46153846153845" y1="0" x2="228.46153846153845" y2="177" fill="rgb(0, 0, 0)" stroke="rgb(189, 189, 189)" stroke-width="1px" opacity="0.25"></line><line x1="249.23076923076925" y1="0" x2="249.23076923076925" y2="177" fill="rgb(0, 0, 0)" stroke="rgb(189, 189, 189)" stroke-width="1px" opacity="0.25"></line><line x1="270" y1="0" x2="270" y2="177" fill="rgb(0, 0, 0)" stroke="rgb(189, 189, 189)" stroke-width="1px" opacity="0.25"></line></g><g><line x1="0" y1="177" x2="270" y2="177" fill="rgb(0, 0, 0)" stroke="rgb(189, 189, 189)" stroke-width="1px" opacity="0.25"></line><line x1="0" y1="157.33333333333331" x2="270" y2="157.33333333333331" fill="rgb(0, 0, 0)" stroke="rgb(189, 189, 189)" stroke-width="1px" opacity="0.25"></line><line x1="0" y1="137.66666666666666" x2="270" y2="137.66666666666666" fill="rgb(0, 0, 0)" stroke="rgb(189, 189, 189)" stroke-width="1px" opacity="0.25"></line><line x1="0" y1="118" x2="270" y2="118" fill="rgb(0, 0, 0)" stroke="rgb(189, 189, 189)" stroke-width="1px" opacity="0.25"></line><line x1="0" y1="98.33333333333334" x2="270" y2="98.33333333333334" fill="rgb(0, 0, 0)" stroke="rgb(189, 189, 189)" stroke-width="1px" opacity="0.25"></line><line x1="0" y1="78.66666666666666" x2="270" y2="78.66666666666666" fill="rgb(0, 0, 0)" stroke="rgb(189, 189, 189)" stroke-width="1px" opacity="0.25"></line><line x1="0" y1="59.00000000000001" x2="270" y2="59.00000000000001" fill="rgb(0, 0, 0)" stroke="rgb(189, 189, 189)" stroke-width="1px" opacity="0.25"></line><line x1="0" y1="39.33333333333335" x2="270" y2="39.33333333333335" fill="rgb(0, 0, 0)" stroke="rgb(189, 189, 189)" stroke-width="1px" opacity="0.25"></line><line x1="0" y1="19.666666666666675" x2="270" y2="19.666666666666675" fill="rgb(0, 0, 0)" stroke="rgb(189, 189, 189)" stroke-width="1px" opacity="0.25"></line><line x1="0" y1="0" x2="270" y2="0" fill="rgb(0, 0, 0)" stroke="rgb(189, 189, 189)" stroke-width="1px" opacity="0.25"></line></g></g></g><g><g><line x1="0" y1="157.33333333333331" x2="270" y2="157.33333333333331" fill="rgb(0, 0, 0)" stroke="rgb(153, 153, 153)" stroke-width="1.5px"></line></g></g><g><g><line x1="20.76923076923077" y1="0" x2="20.76923076923077" y2="177" fill="rgb(0, 0, 0)" stroke="rgb(153, 153, 153)" stroke-width="1.5px"></line></g></g><g><g><g><g><g><path stroke="rgb(255, 112, 67)" stroke-width="2px" d="M20.76923076923077,157.33293767584414L21.080769230769228,157.33293362113335L21.6,157.33292704665573L21.703846153846154,157.33292299291776L22.015384615384615,157.33291821405L22.22307692307692,157.33291368597617L22.742307692307694,157.33290691633928L22.846153846153847,157.33290156870882L22.950000000000003,157.33289711189698L23.365384615384613,157.3328910350941L23.676923076923078,157.33288447293145L24.092307692307692,157.33287675495538L24.507692307692306,157.33286811744296L24.715384615384615,157.3328602748601L25.02692307692308,157.33285220435002L25.234615384615385,157.3328447073133L25.338461538461537,157.33283839927472L25.546153846153846,157.33283216134407L25.753846153846155,157.33282595370835L25.857692307692307,157.3328205608115L26.27307692307692,157.33281329612223L26.376923076923077,157.33280709442934L26.48076923076923,157.3328016725426L26.68846153846154,157.33279597563748L26.792307692307695,157.33279091091035L27,157.33278544759062L27.103846153846153,157.3327805398681L27.31153846153846,157.3327751618664L27.415384615384614,157.33277030149856L27.83076923076923,157.33276312827218L27.934615384615388,157.33275691302322L28.03846153846154,157.33275140119926L28.14230769230769,157.3327464044334L28.349999999999998,157.33274085432328L28.453846153846154,157.33273581281384L28.86923076923077,157.33272828854825L29.18076923076923,157.33271981623184L29.7,157.33270859051314L29.803846153846155,157.33269927464923L30.011538461538464,157.332690345258L30.115384615384617,157.3326827106515L30.73846153846154,157.33267077114598L30.842307692307692,157.33266086582364L31.05,157.33265137667667L31.257692307692306,157.33264216990767L31.361538461538462,157.33263425480416L31.465384615384615,157.33262728902056L31.569230769230767,157.3326210191871L31.673076923076923,157.33261525776396L32.19230769230769,157.3326052853653L32.29615384615384,157.33259674368875L32.4,157.33258925386338L32.607692307692304,157.3325813526806L32.91923076923077,157.33257191520914L33.02307692307692,157.3325637204542L33.33461538461538,157.33255398012267L33.542307692307695,157.33254428511705L33.75,157.33253459419132L34.26923076923077,157.33252100003227L34.47692307692308,157.3325083177702L34.580769230769235,157.33249760995452L34.684615384615384,157.33248835543944L35.20384615384615,157.3324747344797L35.30769230769231,157.33246327633734L35.51538461538462,157.33245201556252L35.61923076923077,157.33244227937882L35.82692307692308,157.33243224327856L35.93076923076923,157.33242338831087L36.24230769230769,157.33241250011343L36.45,157.33240150962942L36.55384615384615,157.3323918970524L36.65769230769231,157.33238329538355L36.96923076923077,157.3323724120699L37.07307692307692,157.33236283457222L37.28076923076923,157.33235267244336L37.38461538461539,157.33234360143993L37.488461538461536,157.3323353287078L37.800000000000004,157.3323244707663L37.90384615384615,157.3323148384956L38.0076923076923,157.33230610378064L38.42307692307692,157.33229311723073L38.63076923076923,157.33228018766803L39.46153846153847,157.33225694352518L39.77307692307692,157.3322344457905L39.87692307692308,157.3322160108652L40.29230769230769,157.3321951164419L40.707692307692305,157.3321722290362L40.91538461538462,157.33215151345888L41.12307692307692,157.33213236022655L41.53846153846154,157.33211040295402L41.85,157.33208819507908L42.36923076923077,157.33206159168563L43.09615384615384,157.33202715500312L43.2,157.33199951460762L43.40769230769231,157.3319747078703L43.51153846153846,157.33195415515095L43.71923076923077,157.33193451567635L43.823076923076925,157.33191774757375L44.03076923076923,157.3319008297027L44.238461538461536,157.33188374756816L44.44615384615384,157.33186648979273L44.96538461538462,157.33184193570892L45.06923076923077,157.33182136707296L45.380769230769225,157.33179886510288L45.48461538461539,157.3317797578293L45.69230769230769,157.3317606632398L45.79615384615384,157.33174403366618L45.900000000000006,157.33172921341557L46.003846153846155,157.33171571718222L46.41923076923077,157.33169546276523L46.62692307692308,157.3316752494647L47.66538461538461,157.3316332225404L47.769230769230774,157.33159932698507L47.87307692307692,157.3315714320868L48.08076923076923,157.33154511558703L48.184615384615384,157.33152277905694L48.496153846153845,157.33149756117038L48.80769230769231,157.33147005617022L48.91153846153846,157.3314467196541L49.01538461538461,157.3314264501906L49.11923076923077,157.33140843258096L49.43076923076923,157.3313859375951L49.534615384615385,157.33136620115488L49.74230769230769,157.3313453609648L49.95,157.33132363014903L50.05384615384616,157.33130436678832L50.36538461538461,157.33128045103567L50.46923076923077,157.3312594949712L50.676923076923075,157.3312374127225L50.88461538461539,157.3312144192008L51.3,157.3311838612223L51.40384615384615,157.33115781244572L51.715384615384615,157.33112810647052L51.81923076923077,157.3311026062801L52.33846153846154,157.33106583291854L52.44230769230769,157.3310349762743L52.85769230769231,157.33099734826177L53.065384615384616,157.3309619747113L53.16923076923077,157.33093200050567L53.27307692307692,157.33090599935304L53.68846153846154,157.33087125045193L53.896153846153844,157.33083764409645L54,157.33080879429045L54.103846153846156,157.33078344084575L54.72692307692308,157.33074014978695L55.03846153846154,157.33069552066866L55.142307692307696,157.33065824749517L55.349999999999994,157.33062209461644L55.45384615384616,157.33059101814928L55.76538461538461,157.33055489757317L55.869230769230775,157.33052374186076L56.28461538461538,157.3304827177006L56.49230769230769,157.33044321530693L56.59615384615385,157.33040937065547L56.699999999999996,157.3303796855741L57.011538461538464,157.33034363321534L57.11538461538461,157.33031220365442L57.63461538461538,157.33026476775814L57.73846153846154,157.33022474351827L58.15384615384616,157.33017514635472L58.88076923076923,157.33010232763465L58.98461538461538,157.33004315959457L59.29615384615385,157.329983340615L59.919230769230765,157.32990614235442L60.02307692307693,157.32984341293846L60.23076923076923,157.32978568805672L60.43846153846153,157.3297315325944L60.542307692307695,157.3296856873364L61.16538461538462,157.32961641720365L61.78846153846153,157.3295285408313L61.892307692307696,157.3294572828116L61.996153846153845,157.32939828544747L62.41153846153846,157.3293291894499L62.82692307692308,157.32925201384592L63.138461538461534,157.32917496373756L63.2423076923077,157.3291112212186L63.65769230769231,157.32903675033123L63.96923076923077,157.32896073932847L64.07307692307693,157.32889744123227L64.38461538461539,157.32882919964905L64.48846153846154,157.32877148275946L64.59230769230768,157.32872151154416L64.8,157.3286698823115L64.90384615384616,157.32862428649102L65.11153846153846,157.32857563387566L65.63076923076923,157.32850157372593L66.25384615384615,157.32839959580744L66.56538461538462,157.32829991273664L66.77307692307693,157.3282097615179L66.98076923076923,157.3281264696627L67.18846153846154,157.32804805720428L67.5,157.3279644936781L67.60384615384615,157.32789404310685L67.7076923076923,157.3278332452452L68.22692307692309,157.3277441585025L68.33076923076923,157.32766925810117L68.74615384615385,157.32757739353912L68.95384615384616,157.32749086997578L69.0576923076923,157.32741748842352L69.26538461538462,157.32734431154037L69.36923076923077,157.3272806398557L69.57692307692307,157.3272143117608L69.68076923076923,157.3271555383414L69.88846153846154,157.3270924923103L69.99230769230769,157.3270359748037L70.09615384615385,157.32698422999428L70.30384615384615,157.3269259191495L70.82307692307693,157.3268316752104L71.03076923076924,157.32674107214402L71.13461538461539,157.32666350186724L71.23846153846154,157.32659551390947L71.44615384615385,157.32652384266046L71.75769230769231,157.3264382900377L71.86153846153846,157.32636401398477L71.96538461538462,157.32629801804399L72.06923076923077,157.3262380840924L72.48461538461538,157.3261486855128L73.00384615384615,157.32602470767674L73.1076923076923,157.32592119372308L73.31538461538462,157.32582084359873L73.41923076923078,157.32573460413298L73.52307692307693,157.3256587358662L73.83461538461539,157.3255660113817L74.45769230769231,157.32542226247244L75.3923076923077,157.32519809004486L75.60000000000001,157.32500516601348L75.8076923076923,157.32483504527931L75.91153846153846,157.3246953560813L76.11923076923077,157.3245641413742L76.22307692307693,157.3244529965291L76.32692307692308,157.32435662060206L76.74230769230769,157.32422794700213L76.84615384615384,157.32411817715456L77.15769230769232,157.32399277580342L77.36538461538461,157.323870094186L77.57307692307693,157.32374907098566L77.67692307692307,157.32364426038683L77.88461538461537,157.32353592246253L78.0923076923077,157.32342460971427L78.3,157.3233107263427L78.40384615384616,157.32321055688323L78.50769230769231,157.32312044177766L78.92307692307693,157.32298884757697L79.02692307692308,157.32287500008638L79.13076923076923,157.3227741880578L79.23461538461538,157.32268292423754L79.33846153846154,157.32259862768578L79.75384615384615,157.32246820660473L79.85769230769232,157.32235443272276L79.96153846153847,157.3222528754561L80.06538461538462,157.3221602561726L80.16923076923077,157.32207414756846L80.27307692307693,157.32199275325277L80.58461538461538,157.321878870115L80.7923076923077,157.32175829868154L81,157.32163234764045L81.41538461538461,157.3214643764265L81.51923076923076,157.3213211090665L81.83076923076923,157.3211575096035L82.03846153846153,157.32099748890514L82.45384615384614,157.3207997690686L82.55769230769232,157.3206333362519L82.66153846153847,157.32048993714778L82.86923076923077,157.3203429847769L83.18076923076923,157.32017207519613L83.4923076923077,157.31998232858908L83.7,157.3197991083491L84.01153846153846,157.31959836001064L84.21923076923076,157.31940571865815L84.42692307692309,157.31921855375353L84.63461538461539,157.3190349131179L85.05,157.3188071297686L85.15384615384615,157.3186152570711L85.2576923076923,157.31844982097172L85.67307692307692,157.31823220262453L85.77692307692308,157.31804701381355L85.98461538461538,157.31786124191453L86.08846153846153,157.3176991886483L86.29615384615386,157.31752966832974L86.6076923076923,157.31732871734314L86.71153846153847,157.3171545472036L86.81538461538462,157.31700004421305L87.12692307692306,157.31680794885844L87.43846153846154,157.31658664817454L87.64615384615385,157.3163693366363L87.75,157.31618151421796L88.26923076923077,157.31590505203448L88.47692307692307,157.31564433676925L88.58076923076923,157.31542309157877L88.68461538461538,157.31523088719587L89.10000000000001,157.3149730310126L89.61923076923077,157.31463380128605L89.72307692307692,157.31435255983018L89.93076923076924,157.314083481749L90.24230769230769,157.3137915669027L90.45,157.31351276824128L90.6576923076923,157.31324293109668L90.76153846153845,157.31301120671878L90.86538461538463,157.3128074964179L90.96923076923078,157.31262432604743L91.07307692307693,157.3124561636229L91.38461538461539,157.31223271397238L91.59230769230768,157.31200037583108L91.90384615384616,157.31172647579626L92.21538461538461,157.31142000178147L92.31923076923077,157.31115820539375L92.63076923076923,157.31085821324132L92.7346153846154,157.31060037856508L92.83846153846154,157.31037352872823L92.9423076923077,157.31016939486338L93.14999999999999,157.30994516108004L93.98076923076923,157.3094777541579L94.08461538461539,157.30909317971899L94.5,157.30865152139216L94.70769230769231,157.30824475909603L94.81153846153846,157.30790343287188L94.91538461538461,157.30761029123283L95.12307692307692,157.3073115241883L95.53846153846155,157.306923832311L95.6423076923077,157.30659467240685L95.74615384615385,157.30630857540513L96.16153846153846,157.30592426498717L96.26538461538462,157.3055960857031L96.47307692307693,157.30526487705544L96.57692307692308,157.30497521253315L96.78461538461538,157.3046709295751L96.88846153846154,157.30440039537723L96.99230769230769,157.30415456739016L97.09615384615384,157.3039267526393L97.30384615384615,157.30366554937834L97.40769230769232,157.30342553842806L97.51153846153846,157.30320093298698L97.61538461538461,157.30298745082197L97.82307692307693,157.30273408492337L98.13461538461539,157.30240138614255L98.23846153846154,157.30210621392115L99.06923076923077,157.3014854179517L99.27692307692308,157.30092243850063L99.48461538461538,157.300401015528L99.58846153846153,157.299962289128L99.6923076923077,157.2995844449307L99.79615384615384,157.29925133955828L100.10769230769232,157.2988424347184L100.31538461538462,157.29842996864832L100.41923076923077,157.2980693181346L100.52307692307691,157.29774668373383L100.62692307692308,157.2974518516258L100.93846153846154,157.29706343152333L101.4576923076923,157.29648548788438L101.56153846153846,157.29599867245906L101.97692307692309,157.2953983676753L102.08076923076923,157.29489323779396L102.28846153846153,157.2943965503512L102.49615384615385,157.29390465487697L102.6,157.29347792635744L102.91153846153847,157.29297173887164L103.63846153846154,157.29213956540025L104.98846153846154,157.29062220967577L105.09230769230768,157.28942711401328L105.40384615384616,157.2883234158642L106.02692307692307,157.28705622030523L106.33846153846154,157.28588722562145L106.65,157.28478677436183L107.06538461538462,157.28365203765435L107.27307692307693,157.28264927752593L107.37692307692308,157.28182498503907L107.48076923076923,157.28113227048527L107.58461538461539,157.28053643696845L107.68846153846154,157.28001180283277L107.79230769230769,157.27953936067655L108.51923076923077,157.278586170185L108.72692307692307,157.2777037356397L108.83076923076922,157.27696141078448L109.03846153846155,157.27623185890087L109.1423076923077,157.27560107635534L109.24615384615385,157.27504284440025L109.35000000000001,157.27453775967425L110.07692307692308,157.27350464577873L110.18076923076923,157.27264370918823L110.38846153846154,157.2718120386052L110.49230769230769,157.27109844973467L110.59615384615384,157.27047166243094L111.01153846153846,157.2696070428143L111.32307692307693,157.26866036838751L111.63461538461537,157.26764749989044L111.73846153846155,157.26679263518588L111.8423076923077,157.2660540712303L112.15384615384616,157.26518586766647L112.25769230769231,157.26443490454426L112.56923076923076,157.26354985702693L112.88076923076923,157.2625597117389L112.98461538461538,157.2617139460172L113.08846153846154,157.26097435149546L113.71153846153847,157.25973043493923L113.81538461538462,157.25869142133814L114.12692307692308,157.2575627862464L114.23076923076923,157.2566062548831L114.43846153846154,157.25565358251657L114.5423076923077,157.2548250997622L114.95769230769231,157.25371066053992L115.16538461538461,157.25263082925173L115.37307692307694,157.2515735823732L115.47692307692309,157.25066098941326L115.58076923076923,157.2498546694779L115.68461538461538,157.24912621921754L115.8923076923077,157.24832127661958L115.99615384615385,157.247591494271L116.20384615384614,157.24678082459948L116.72307692307692,157.24549023686055L116.93076923076923,157.24425317772574L117.03461538461538,157.24319549030608L117.45,157.2418352911607L117.6576923076923,157.2405348454299L117.86538461538461,157.2392751334062L118.07307692307691,157.2380420403253L118.17692307692309,157.23697776346003L118.28076923076924,157.23603751173607L118.38461538461539,157.23518813975846L118.8,157.23393612428777L118.90384615384615,157.23285145462683L119.0076923076923,157.23188968629074L119.31923076923077,157.23069497238725L119.42307692307692,157.22964797646318L119.52692307692308,157.22870933048227L119.94230769230768,157.22734951189247L120.66923076923077,157.22514071074735L121.39615384615385,157.22225303179204L121.5,157.21993287157838L121.7076923076923,157.2178461383417L122.22692307692307,157.21535812782648L122.43461538461538,157.2131316130944L122.95384615384616,157.2105004270006L123.16153846153846,157.20815173824712L123.57692307692307,157.20559615237147L123.78461538461539,157.20328895759178L124.09615384615384,157.20094827771248L124.71923076923078,157.1979153779372L124.82307692307693,157.19544972844707L124.92692307692307,157.19340253457327L125.03076923076922,157.19166368528437L125.13461538461539,157.19015168353545L125.23846153846154,157.18880622151326L125.34230769230768,157.18758265953056L125.44615384615385,157.18644795528974L125.75769230769231,157.18491231085062L126.17307692307692,157.18282864157214L126.27692307692307,157.1810463918567L126.6923076923077,157.17875191468707L126.79615384615384,157.1768064851955L126.89999999999999,157.1751178866206L127.1076923076923,157.17336594229067L127.52307692307693,157.1710468081983L127.83461538461539,157.16854765416815L128.0423076923077,157.16616854315257L128.35384615384615,157.1636015971929L128.56153846153845,157.16115648298194L129.28846153846155,157.15738615889333L129.3923076923077,157.15430932376793L129.91153846153847,157.1505728718168L130.32692307692307,157.14660886812658L130.43076923076922,157.1433713043911L130.5346153846154,157.1406695144584L130.7423076923077,157.13805276360034L130.84615384615384,157.13580491656785L131.15769230769232,157.13319606568467L131.3653846153846,157.13062587423397L131.57307692307694,157.12807670701906L131.78076923076924,157.1255354306566L131.8846153846154,157.1233245289647L132.5076923076923,157.11966494732144L132.81923076923076,157.11591796133476L133.02692307692308,157.11244232029134L133.23461538461538,157.1091591407211L133.33846153846153,157.1063708303072L133.4423076923077,157.10394660985932L133.65,157.10142452227763L133.75384615384615,157.0991908659004L133.8576923076923,157.09716848183047L134.48076923076923,157.0934087295282L134.89615384615385,157.08907266078327L135,157.08546975212565L135.10384615384618,157.0824070484729L135.51923076923077,157.07853088793772L135.72692307692307,157.07484331213936L136.03846153846155,157.07086743253265L136.1423076923077,157.06750466955017L136.24615384615385,157.0645931246396L136.35,157.06201298691946L136.5576923076923,157.05924493014788L136.66153846153847,157.05676337800102L137.18076923076924,157.05272239806575L137.38846153846154,157.0488318753335L137.4923076923077,157.0454987984339L137.80384615384617,157.04165387779966L137.90769230769232,157.038343718485L138.32307692307694,157.03400688405603L138.73846153846154,157.0288653016516L138.94615384615383,157.02407716191945L139.56923076923078,157.01751333439213L139.67307692307693,157.01214220513256L139.77692307692308,157.00765063671236L140.08846153846153,157.00275767797064L141.64615384615385,156.9908610651368L141.75,156.98147940936389L141.85384615384615,156.97395541091697L141.9576923076923,156.9678026382287L142.1653846153846,156.96206917129675L142.26923076923077,156.9572309568404L143.1,156.94875869882082L143.51538461538462,156.93995540013327L144.13846153846154,156.92952648512255L144.65769230769232,156.91843964356116L144.76153846153846,156.90954949840813L144.8653846153846,156.90228086075888L144.96923076923076,156.8962080551079L145.0730769230769,156.8910160696757L145.3846153846154,156.88505481421464L145.69615384615383,156.87848652307616L145.8,156.8728984839335L146.2153846153846,156.86581006782393L146.52692307692308,156.85830357692745L146.63076923076923,156.85198616091893L147.04615384615386,156.84421549820783L147.3576923076923,156.83609501986652L147.66923076923078,156.82767341376427L147.7730769230769,156.82062775021322L147.87692307692308,156.81459548627103L147.98076923076925,156.80930829253882L148.08461538461538,156.80456759335593L148.29230769230767,156.7993883973302L148.39615384615385,156.79471284184012L148.5,156.79040500388638L148.60384615384615,156.7863642647332L148.70769230769233,156.78251614270533L148.91538461538462,156.77793733146936L149.01923076923077,156.77367573765235L149.12307692307692,156.76964371777873L149.43461538461537,156.76399343812668L149.53846153846155,156.75891284912439L149.6423076923077,156.75424850948602L150.05769230769232,156.74712431822937L150.36923076923077,156.73904063341115L150.47307692307692,156.73211034574186L150.68076923076922,156.72506836490817L151.09615384615384,156.7159618499496L151.30384615384614,156.70724061195367L151.6153846153846,156.697769125198L151.7192307692308,156.68974239604566L152.1346153846154,156.6796707735716L152.65384615384616,156.66691414036418L153.27692307692308,156.65090017324243L153.38076923076923,156.6379313960254L153.48461538461538,156.6272094399316L153.69230769230768,156.6170051051484L153.79615384615386,156.60830877584496L153.89999999999998,156.60072160832544L154.1076923076923,156.592782883202L154.21153846153845,156.58573579404333L154.31538461538463,156.5793416103626L154.41923076923078,156.57342358826173L154.52307692307693,156.56785092535063L154.62692307692308,156.56252675642824L155.35384615384615,156.54998323863413L155.56153846153845,156.53817699395782L155.76923076923075,156.52688640119575L155.87307692307692,156.51724303084822L156.08076923076922,156.50750741500264L156.6,156.4936686760318L156.70384615384614,156.4820775074549L156.91153846153844,156.4707750855523L157.11923076923077,156.45965402491433L157.3269230769231,156.44863447936484L157.43076923076922,156.4390726775071L157.5346153846154,156.43058127219646L157.6384615384615,156.422873602735L157.7423076923077,156.41573749258467L158.05384615384617,156.4061084402528L158.15769230769232,156.39751633826054L158.3653846153846,156.38819892722256L158.6769230769231,156.3767992513762L159.19615384615386,156.3606763128716L159.61153846153846,156.34243047244382L159.71538461538464,156.32732643991912L159.92307692307693,156.31291678071196L160.13076923076923,156.29898264616037L160.54615384615386,156.2820126210738L161.16923076923075,156.25916779280237L161.27307692307693,156.2405124774438L161.5846153846154,156.22139482767633L162,156.20001651793322L162.10384615384615,156.18236196932898L162.2076923076923,156.16745217004717L162.31153846153845,156.15456257991127L162.72692307692307,156.13748856541915L163.45384615384617,156.1112313423763L163.5576923076923,156.08980865128868L163.86923076923077,156.06790796079406L163.97307692307692,156.04966160121853L164.18076923076922,156.03204338166577L164.38846153846154,156.01484122118316L164.7,155.9957718265696L164.9076923076923,155.9773712659857L165.53076923076924,155.9505798040267L165.6346153846154,155.92851264359606L166.05,155.90308380905012L166.15384615384616,155.8819579654642L166.2576923076923,155.86400271540325L166.36153846153846,155.84837998952196L166.77692307692305,155.8273369443589L167.1923076923077,155.80205670781766L167.50384615384615,155.7759164538905L167.71153846153845,155.75154391734793L168.12692307692308,155.72327125711894L168.5423076923077,155.69186834927703L168.9576923076923,155.65789913989968L169.1653846153846,155.62730081956656L169.47692307692307,155.59634480260303L169.6846153846154,155.56781295009498L169.78846153846155,155.5438622731502L169.8923076923077,155.52328485568773L170.5153846153846,155.49057652444498L170.72307692307695,155.4604067027865L171.03461538461536,155.4289996856099L171.13846153846154,155.4026955174305L171.2423076923077,155.38014936129048L171.55384615384617,155.35411236569828L171.96923076923076,155.3221145373489L172.07307692307694,155.29520639796158L172.17692307692306,155.27204553213352L172.5923076923077,155.24171801499486L172.8,155.21256395535468L173.2153846153846,155.17732692527554L173.31923076923078,155.14778519236205L173.52692307692308,155.11893002631007L174.04615384615383,155.0797266172805L174.46153846153848,155.0360522049049L174.5653846153846,155.0000128429518L175.08461538461538,154.95440987979129L175.5,154.9051098920029L176.01923076923077,154.84866305748574L176.12307692307692,154.8028283702395L176.22692307692307,154.76482267067337L176.43461538461537,154.72844976800457L176.95384615384614,154.68048182233824L177.05769230769232,154.64070016751631L177.26538461538462,154.60261498877264L177.36923076923077,154.57007019638274L177.47307692307692,154.54159952659404L177.68076923076924,154.51167827512728L177.88846153846154,154.48057868277303L178.20000000000002,154.44392862659694L178.30384615384614,154.41220833584995L178.40769230769232,154.3841088795711L178.6153846153846,154.35398025236492L178.8230769230769,154.3222394136315L178.9269230769231,154.29398636339275L179.1346153846154,154.26346506153985L179.55,154.22130776163766L179.9653846153846,154.1700732264713L180.06923076923078,154.12707596645342L180.27692307692308,154.0850002002014L180.38076923076923,154.04868966235787L180.79615384615386,154.00081472634386L180.9,153.96005812782985L181.1076923076923,153.91914537664968L181.3153846153846,153.87798963702093L181.5230769230769,153.8365251265726L181.62692307692308,153.80028794511097L181.73076923076925,153.76788612817637L181.83461538461538,153.7382895268255L182.04230769230767,153.70504961801248L182.14615384615385,153.67473263276696L182.25,153.64654470436255L182.45769230769233,153.61407691317135L182.56153846153845,153.58419490662442L182.87307692307692,153.54430611585425L183.08076923076922,153.5027619495947L183.18461538461537,153.4659526521732L183.3923076923077,153.42647291842397L183.49615384615385,153.39108310472207L184.11923076923077,153.3270723077418L184.22307692307692,153.27326958840524L184.43076923076922,153.22047182504755L184.5346153846154,153.17485207771236L184.84615384615384,153.12121191135722L184.95000000000002,153.07481258686525L185.4692307692308,153.0063498092328L185.7807692307692,152.93472317037478L185.98846153846154,152.86753602252747L186.09230769230768,152.8106629550258L186.40384615384616,152.74685847032583L186.7153846153846,152.67753738257986L186.81923076923078,152.61878394513667L186.9230769230769,152.5678064712903L187.54615384615386,152.48414398510016L187.64999999999998,152.41441808378974L187.75384615384615,152.3549590623115L187.96153846153845,152.29509614603157L188.06538461538463,152.2427955354041L188.16923076923078,152.19604379030486L188.37692307692308,152.1452059523353L188.48076923076923,152.09939303217388L188.68846153846155,152.04896028991902L188.79230769230767,152.00330113267609L189.20769230769233,151.93566199851855L189.31153846153845,151.87702085966856L189.41538461538462,151.8249873774478L189.51923076923075,151.77779260599112L189.7269230769231,151.7253340965697L190.03846153846155,151.6598227820575L190.1423076923077,151.602341731098L190.35,151.54164048352138L190.66153846153844,151.46906910978794L191.18076923076922,151.36817887957739L191.2846153846154,151.28391463643837L191.4923076923077,151.202177665522L191.7,151.12208095883213L191.90769230769232,151.04296584461343L192.21923076923076,150.9542133092415L192.4269230769231,150.8680995163176L193.04999999999998,150.74159971804139L193.15384615384616,150.63730966964096L193.36153846153846,150.53858529488107L193.46538461538464,150.45465876385862L193.56923076923076,150.38161844324787L193.67307692307693,150.3165693434146L193.88076923076923,150.24623904521562L193.98461538461538,150.1829991608612L194.08846153846153,150.12493989344603L194.29615384615386,150.05925289970997L194.4,149.99918199857024L194.6076923076923,149.93160104058347L194.81538461538463,149.85818872092761L195.5423076923077,149.7197483805474L196.37307692307692,149.51682603746312L196.58076923076922,149.3407956259285L196.6846153846154,149.19748441444415L196.8923076923077,149.0651050724513L197.20384615384617,148.92706428316887L197.3076923076923,148.81139603338903L197.41153846153847,148.71220345850665L197.61923076923077,148.6113632761076L197.72307692307692,148.52290098175902L198.0346153846154,148.41542460770475L198.2423076923077,148.30746731282065L198.45,148.19881716588523L198.55384615384617,148.10390746158706L198.76153846153846,148.00439974199867L198.86538461538464,147.9159967532559L198.96923076923076,147.8357242130036L199.3846153846154,147.71602174245L199.90384615384616,147.55004000649836L200.11153846153846,147.39560857151577L200.42307692307693,147.2332183221343L200.63076923076923,147.08049977412108L201.15,146.8844157384019L201.46153846153845,146.68828297772743L201.66923076923078,146.5086198167291L201.87692307692308,146.3407348039798L202.5,146.109193128532L202.60384615384618,145.9195962520118L202.7076923076923,145.76093052084641L202.9153846153846,145.60646368179712L203.01923076923077,145.47346673204854L203.12307692307692,145.35624720869288L203.22692307692307,145.25059173674572L203.53846153846155,145.11499443418464L204.0576923076923,144.91668140816034L204.36923076923077,144.7097470797721L204.57692307692307,144.51589842317912L204.68076923076924,144.35191139978195L204.9923076923077,144.16821286268532L205.40769230769232,143.94741191892572L205.71923076923076,143.7190457956719L206.03076923076924,143.48392290063484L206.13461538461536,143.28762713083583L206.55,143.05182240323853L206.65384615384613,142.85435499358482L206.7576923076923,142.68512157281384L207.06923076923078,142.48974370780894L207.38076923076923,142.27376821964233L207.48461538461538,142.0898658156757L207.58846153846153,141.92955539108013L207.6923076923077,141.78655978536324L207.79615384615383,141.6562331378145L208.21153846153848,141.46029498052252L208.52307692307693,141.23912480756664L208.73076923076923,141.02392161121884L208.83461538461538,140.8386740279285L209.25,140.59605671774796L209.4576923076923,140.3628129984982L209.56153846153848,140.1631208927706L209.6653846153846,139.98809697238045L209.87307692307692,139.80359153027834L210.28846153846155,139.55511886711787L210.3923076923077,139.34284984348758L210.6,139.12846823291108L211.22307692307692,138.79380982875358L211.32692307692307,138.5162166063195L211.43076923076924,138.28067522785184L211.7423076923077,138.01493460615902L212.05384615384614,137.7252159799488L212.3653846153846,137.41609411191544L212.46923076923076,137.1553932461757L212.6769230769231,136.8980059699096L212.78076923076924,136.67501914741095L212.8846153846154,136.47729626932448L213.09230769230768,136.26497547778132L213.5076923076923,135.97348966941195L213.7153846153846,135.6894093236453L213.81923076923078,135.44469580849346L213.9230769230769,135.22891030840327L214.02692307692308,135.03432619500026L214.44230769230768,134.74864894158264L214.54615384615386,134.5013014456123L214.75384615384615,134.24573389287417L214.8576923076923,134.02002677878502L215.37692307692308,133.66679990246857L215.68846153846155,133.29102791216647L215.79230769230767,132.9743770253791L216.31153846153845,132.54371177933405L216.41538461538462,132.18505237955375L216.62307692307692,131.83899929264493L216.72692307692307,131.5422397091298L216.93461538461537,131.24055469407523L217.03846153846155,130.9759021110999L217.1423076923077,130.7384089431836L217.35000000000002,130.4786236362893L217.45384615384614,130.2439901172277L217.66153846153844,129.98482220262048L218.18076923076922,129.57472897547902L219.1153846153846,128.86172618075244L219.2192307692308,128.2872451929945L219.3230769230769,127.81499375598001L219.4269230769231,127.41811331426415L219.5307692307692,127.0767277748717L220.04999999999998,126.58137008694672L220.15384615384616,126.16539548287213L220.2576923076923,125.80787177356653L220.36153846153846,125.49330837716364L220.4653846153846,125.21023997724431L220.77692307692308,124.848105090307L220.88076923076923,124.5286344843215L221.29615384615386,124.08320310197857L221.39999999999998,123.70055395838733L221.6076923076923,123.31039122356043L221.71153846153845,122.96769530409244L221.81538461538463,122.6598055725983L222.02307692307693,122.3224138073734L222.12692307692308,122.01748147854532L222.23076923076923,121.73624225779871L222.33461538461538,121.47220753828813L222.85384615384615,120.99223804680602L222.95769230769233,120.57913062745324L223.06153846153845,120.21515902770314L223.16538461538462,119.88720353484786L223.6846153846154,119.3461985936768L223.78846153846155,118.8851293615247L224.41153846153844,118.17197588243997L225.1384615384615,117.19333787895835L225.2423076923077,116.4031993264141L225.34615384615387,115.75216101313579L225.45,115.2036644747025L225.76153846153846,114.59521749062567L225.96923076923076,114.00792463111867L226.0730769230769,113.5041988364966L226.28076923076924,112.9919560962282L226.48846153846154,112.47175739326956L226.69615384615386,111.94399804441107L226.90384615384616,111.40895153542657L227.21538461538464,110.79304253439724L227.73461538461538,109.96189334612748L228.15,109.03847881178089L228.46153846153845,108.11906307513337L228.77307692307693,107.19839593495297L228.87692307692308,106.43605405069164L228.98076923076923,105.79039435369583L229.18846153846152,105.14810355126143L229.2923076923077,104.58982786176868L229.39615384615385,104.09323266260145L229.81153846153845,103.38690566681936L229.91538461538462,102.7782563657632L230.01923076923077,102.24138110274L230.12307692307692,101.75710812401277L230.33076923076922,101.22323032500061L230.6423076923077,100.56097827840317L230.85,99.8901492087192L230.95384615384617,99.30255209036952L231.0576923076923,98.7760071582092L231.26538461538462,98.20129026250093L231.9923076923077,97.11079648240683L232.09615384615387,96.2065427666621L232.4076923076923,95.24206625487706L232.51153846153846,94.42874595392807L232.71923076923076,93.62590280416714L232.82307692307694,92.93041433294515L232.92692307692306,92.31376943425263L233.1346153846154,91.65167344155496L233.44615384615383,90.84847267390802L234.06923076923076,89.61074734550635L234.17307692307693,88.58537552960932L234.27692307692305,87.7164991827218L234.58846153846153,86.73930762621187L235.21153846153845,85.32975478038381L235.3153846153846,84.16990372844776L235.52307692307693,83.07597299305696L235.62692307692308,82.14759914236461L235.93846153846152,81.09977684891545L236.0423076923077,80.20268880598226L236.25,79.2932821597818L236.6653846153846,78.1204343493542L236.97692307692307,76.86980299644303L237.3923076923077,75.4234024294669L237.91153846153847,73.68439435424968L238.11923076923077,72.1244956815471L238.32692307692307,70.69390121991734L238.43076923076924,69.49590138716025L238.95,67.90013318072424L239.26153846153846,66.28357786536111L239.57307692307694,64.64386976365171L239.88461538461536,62.979122647910344L240.61153846153846,60.662479014057986L240.7153846153846,58.789519463415665L240.92307692307693,57.083420624616174L241.13076923076923,55.49700422128936L241.23461538461538,54.15966742128398L241.54615384615383,52.67405703245397L241.65,51.40742161500763L242.48076923076923,49.095755803832894L242.58461538461538,47.208729546968755L242.68846153846155,45.63489421810848L242.89615384615385,44.11222982057478L243,42.80485866765106L243.10384615384615,41.655737791279414L243.4153846153846,40.253919227348156L243.51923076923077,39.03057636552605L243.83076923076925,37.5606853914542L243.93461538461537,36.282531372377214L244.03846153846155,35.145135019853726L244.35,33.721965833932096L244.66153846153847,32.07695314176694L245.18076923076924,29.849653792550015L245.28461538461536,27.995860945190678L245.38846153846154,26.41724684332235L245.59615384615384,24.831781990586453L245.70000000000002,23.448042785894327L246.1153846153846,21.56958376573609L246.6346153846154,19.08269971503061L246.84230769230768,16.79454582493501L247.05,14.64814606145163L247.4653846153846,12.13730082847676L247.6730769230769,9.809803825955795L247.98461538461538,7.372796373101579L248.29615384615386,4.842005353603789L248.4,2.723882516882013L248.50384615384615,0.9096833901497635L248.6076923076923,-0.681072079807447" style="fill: none;" fill="none"></path></g></g></g></g><g opacity="0.2"><g><g><g><path stroke="rgb(255, 112, 67)" stroke-width="2px" d="M20.76923076923077,157.33293767584414L21.080769230769228,157.3329306206474L21.6,157.3329185813583L21.703846153846154,157.33291613065285L22.015384615384615,157.3329086912492L22.22307692307692,157.3329036581472L22.742307692307694,157.33289081274796L22.846153846153847,157.33288819797644L22.950000000000003,157.33288556773292L23.365384615384613,157.33287489042883L23.676923076923078,157.33286671565702L24.092307692307692,157.3328555888147L24.507692307692306,157.33284419662277L24.715384615384615,157.33283839904198L25.02692307692308,157.33282957359566L25.234615384615385,157.3328236027372L25.338461538461537,157.33282059079087L25.546153846153846,157.3328145134616L25.753846153846155,157.33280836404884L25.857692307692307,157.3328052620876L26.27307692307692,157.33279266983027L26.376923076923077,157.3327894751263L26.48076923076923,157.33278626150712L26.68846153846154,157.3327797772995L26.792307692307695,157.33277650639803L27,157.33276990650802L27.103846153846153,157.33276657729584L27.31153846153846,157.33275985975584L27.415384615384614,157.3327564711597L27.83076923076923,157.33274271546014L27.934615384615388,157.3327392255804L28.03846153846154,157.33273571508622L28.14230769230769,157.33273218379873L28.349999999999998,157.33272505862016L28.453846153846154,157.33272146441612L28.86923076923077,157.33270687389813L29.18076923076923,157.33269570318862L29.7,157.3326766408542L29.803846153846155,157.33267276055193L30.011538461538464,157.3326649310387L30.115384615384617,157.33266098151472L30.73846153846154,157.33263678962416L30.842307692307692,157.33263267384305L31.05,157.33262436916888L31.257692307692306,157.33261596607295L31.361538461538462,157.33261172723118L31.465384615384615,157.33260746334795L31.569230769230767,157.3326031742892L31.673076923076923,157.33259885987596L32.19230769230769,157.33257690239557L32.29615384615384,157.33257243277026L32.4,157.3325679366726L32.607692307692304,157.33255886470243L32.91923076923077,157.33254505471663L33.02307692307692,157.33254039692292L33.33461538461538,157.3325262576424L33.542307692307695,157.3325166916408L33.75,157.33250701232677L34.26923076923077,157.33248230896515L34.47692307692308,157.33247222210198L34.580769230769235,157.33246713386416L34.684615384615384,157.33246201566607L35.20384615384615,157.33243596713297L35.30769230769231,157.33243066470158L35.51538461538462,157.33241996566508L35.61923076923077,157.33241456870232L35.82692307692308,157.3324036789933L35.93076923076923,157.3323981857105L36.24230769230769,157.33238151062838L36.45,157.33237022902117L36.55384615384615,157.3323645381794L36.65769230769231,157.3323588137106L36.96923076923077,157.33234143648497L37.07307692307692,157.33233557554044L37.28076923076923,157.33232374946118L37.38461538461539,157.3323177839687L37.488461538461536,157.33231178323936L37.800000000000004,157.33229356739443L37.90384615384615,157.33228742357127L38.0076923076923,157.33228124343805L38.42307692307692,157.33225615551177L38.63076923076923,157.33224338814338L39.46153846153847,157.33219078711863L39.77307692307692,157.3321704137764L39.87692307692308,157.33216354223168L40.29230769230769,157.33213564769875L40.707692307692305,157.33210708795832L40.91538461538462,157.33209255373882L41.12307692307692,157.3320778471807L41.53846153846154,157.33204790917836L41.85,157.33202498805048L42.36923076923077,157.33198587433495L43.09615384615384,157.33192914290672L43.2,157.33192084578968L43.40769230769231,157.3319041040795L43.51153846153846,157.33189565894978L43.71923076923077,157.3318786187101L43.823076923076925,157.33187002297413L44.03076923076923,157.3318526788389L44.238461538461536,157.3318351291852L44.44615384615384,157.3318173715088L44.96538461538462,157.33177205100887L45.06923076923077,157.3317628255706L45.380769230769225,157.33173482103425L45.48461538461539,157.33172537558917L45.69230769230769,157.3317063171004L45.79615384615384,157.33169670334124L45.900000000000006,157.3316870327023L46.003846153846155,157.33167730482577L46.41923076923077,157.33163781557838L46.62692307692308,157.33161771930162L47.66538461538461,157.33151360744824L47.769230769230774,157.33150285501992L47.87307692307692,157.3314920389148L48.08076923076923,157.33147021477998L48.184615384615384,157.33145920585594L48.496153846153845,157.33142578718557L48.80769230769231,157.33139177270823L48.91153846153846,157.33138030033905L49.01538461538461,157.33136876017912L49.11923076923077,157.33135715169192L49.43076923076923,157.33132191340457L49.534615384615385,157.33131002820966L49.74230769230769,157.3312860465776L49.95,157.33126178090424L50.05384615384616,157.33124954030004L50.36538461538461,157.3312123831244L50.46923076923077,157.33119985078764L50.676923076923075,157.33117456324544L50.88461538461539,157.33114897610056L51.3,157.33109688851437L51.40384615384615,157.33108367362001L51.715384615384615,157.33104355869483L51.81923076923077,157.3310300288152L52.33846153846154,157.33096117027404L52.44230769230769,157.33094715351763L52.85769230769231,157.33089025314925L53.065384615384616,157.33086129614458L53.16923076923077,157.33084668930496L53.27307692307692,157.33083199607245L53.68846153846154,157.3307723497334L53.896153846153844,157.33074199523858L54,157.3307266833041L54.103846153846156,157.33071128104166L54.72692307692308,157.33061693677337L55.03846153846154,157.330568499332L55.142307692307696,157.33055216230906L55.349999999999994,157.33051919796162L55.45384615384616,157.33050256974275L55.76538461538461,157.33045209285655L55.869230769230775,157.33043506791L56.28461538461538,157.33036595662938L56.49230769230769,157.33033078541726L56.59615384615385,157.33031304357064L56.699999999999996,157.3302951972655L57.011538461538464,157.33024102265577L57.11538461538461,157.33022275028878L57.63461538461538,157.33012975789947L57.73846153846154,157.33011082837402L58.15384615384616,157.33003398519696L58.88076923076923,157.3298950743544L58.98461538461538,157.3298747582497L59.29615384615385,157.32981308659632L59.919230769230765,157.3296864242281L60.02307692307693,157.32966487537004L60.23076923076923,157.32962139416244L60.43846153846153,157.32957739781705L60.542307692307695,157.329555204679L61.16538461538462,157.32941926374892L61.78846153846153,157.32927843115613L61.892307692307696,157.32925447152473L61.996153846153845,157.32923036987268L62.41153846153846,157.32913253161072L62.82692307692308,157.32903236020383L63.138461538461534,157.3289556672753L63.2423076923077,157.32892980020307L63.65769230769231,157.32882479472877L63.96923076923077,157.32874440032052L64.07307692307693,157.32871728511236L64.38461538461539,157.3286349736045L64.48846153846154,157.3286072116122L64.59230769230768,157.32857928577747L64.8,157.32852293757242L64.90384615384616,157.32849451377115L65.11153846153846,157.32843716104736L65.63076923076923,157.32829078714593L66.25384615384615,157.32810935096254L66.56538461538462,157.32801619938135L66.77307692307693,157.3279531772799L66.98076923076923,157.32788940822866L67.18846153846154,157.32782488328425L67.5,157.32772665902667L67.60384615384615,157.32769352994245L67.7076923076923,157.32766020517738L68.22692307692309,157.3274906039272L68.33076923076923,157.32745608003583L68.74615384615385,157.3273159328625L68.95384615384616,157.32724461060326L69.0576923076923,157.3272086332363L69.26538461538462,157.32713603887288L69.36923076923077,157.32709942044553L69.57692307692307,157.32702553179843L69.68076923076923,157.32698826014771L69.88846153846154,157.3269130536064L69.99230769230769,157.32687511728486L70.09615384615385,157.32683695630595L70.30384615384615,157.32675995751438L70.82307692307693,157.3265634424606L71.03076923076924,157.32648320187823L71.13461538461539,157.32644272492567L71.23846153846154,157.32640200972187L71.44615384615385,157.3263198552595L71.75769230769231,157.32619479411127L71.86153846153846,157.32615261291116L71.96538461538462,157.32611018344323L72.06923076923077,157.32606750284563L72.48461538461538,157.32589424340162L73.00384615384615,157.32567184768172L73.1076923076923,157.32562657708573L73.31538461538462,157.32553523170645L73.41923076923078,157.32548915334579L73.52307692307693,157.32544280310685L73.83461538461539,157.32530210323358L74.45769230769231,157.32501313096145L75.3923076923077,157.32456006082793L75.60000000000001,157.32445607453943L75.8076923076923,157.32435085549758L75.91153846153846,157.324297779133L76.11923076923077,157.32419068413097L76.22307692307693,157.32413666120073L76.32692307692308,157.32408231988666L76.74230769230769,157.32386172214078L76.84615384615384,157.32380575528077L77.15769230769232,157.32363586426555L77.36538461538461,157.3235209234287L77.57307692307693,157.3234046203385L77.67692307692307,157.3233459532979L77.88461538461537,157.32322757606258L78.0923076923077,157.3231077965077L78.3,157.3229865967466L78.40384615384616,157.32292545919094L78.50769230769231,157.32286396032336L78.92307692307693,157.32261431023653L79.02692307692308,157.3225509726132L79.13076923076923,157.32248726151494L79.23461538461538,157.32242317336446L79.33846153846154,157.3223587067308L79.75384615384615,157.32209700814323L79.85769230769232,157.32203061475107L79.96153846153847,157.3219638278509L80.06538461538462,157.32189664744268L80.16923076923077,157.32182906923362L80.27307692307693,157.32176109250818L80.58461538461538,157.32155474118431L80.7923076923077,157.3214151338325L81,157.32127387160048L81.41538461538461,157.32098630450974L81.51923076923076,157.32091334811895L81.83076923076923,157.32069188036257L82.03846153846153,157.32054204537903L82.45384615384614,157.32023702799538L82.55769230769232,157.32015964285046L82.66153846153847,157.32008180123617L82.86923076923077,157.31992473572123L83.18076923076923,157.31968564023555L83.4923076923077,157.31944228055363L83.7,157.31927763535836L84.01153846153846,157.31902699935503L84.21923076923076,157.31885743173189L84.42692307692309,157.31868585364037L84.63461538461539,157.31851224361648L85.05,157.31815882331284L85.15384615384615,157.31806915785515L85.2576923076923,157.31797896438124L85.67307692307692,157.31761282732867L85.77692307692308,157.31751993796692L85.98461538461538,157.31733250650964L86.08846153846153,157.31723796012133L86.29615384615386,157.31704718742304L86.6076923076923,157.31675677991976L86.71153846153847,157.31665883219102L86.81538461538462,157.31656030493224L87.12692307692306,157.3162612159261L87.43846153846154,157.31595679238185L87.64615384615385,157.31575083456605L87.75,157.31564694271947L88.26923076923077,157.3151181981278L88.47692307692307,157.31490230101434L88.58076923076923,157.3147933937289L88.68461538461538,157.3146838439522L89.10000000000001,157.3142391326449L89.61923076923077,157.31366830129508L89.72307692307692,157.31355210337884L89.93076923076924,157.31331764413335L90.24230769230769,157.3129607323402L90.45,157.31271926435875L90.6576923076923,157.31247493306972L90.76153846153845,157.3123516834894L90.86538461538463,157.3122277055615L90.96923076923078,157.31210299499313L91.07307692307693,157.31197754749155L91.38461538461539,157.31159674189016L91.59230769230768,157.31133910573652L91.90384615384616,157.3109469141588L92.21538461538461,157.31054772958547L92.31923076923077,157.31041309259794L92.63076923076923,157.31000438942283L92.7346153846154,157.30986654140966L92.83846153846154,157.3097278791926L92.9423076923077,157.3095883984788L93.14999999999999,157.3093069572351L93.98076923076923,157.30814744214877L94.08461538461539,157.30799862170048L94.5,157.3073944938466L94.70769230769231,157.30708705102248L94.81153846153846,157.3069319659262L94.91538461538461,157.30677596502937L95.12307692307692,157.30646118721538L95.53846153846155,157.30582040158333L95.6423076923077,157.30565783267957L95.74615384615385,157.30549429932339L96.16153846153846,157.30483045841297L96.26538461538462,157.30466203697142L96.47307692307693,157.30432220628913L96.57692307692308,157.304150782739L96.78461538461538,157.3038048934638L96.88846153846154,157.30363041342935L96.99230769230769,157.3034549031193L97.09615384615384,157.30327835680995L97.30384615384615,157.3029221247125L97.40769230769232,157.30274243033878L97.51153846153846,157.30256167134698L97.61538461538461,157.30237984773703L97.82307692307693,157.30201296659652L98.13461538461539,157.3014544742279L98.23846153846154,157.30126610836788L99.06923076923077,157.29971853711567L99.27692307692308,157.29932011237057L99.48461538461538,157.298916965529L99.58846153846153,157.2987136062972L99.6923076923077,157.2985090422153L99.79615384615384,157.29830327042146L100.10769230769232,157.29767862863568L100.31538461538462,157.29725602675657L100.41923076923077,157.29704285128778L100.52307692307691,157.29682841659329L100.62692307692308,157.29661271408742L100.93846153846154,157.2959579281548L101.4576923076923,157.29484057137356L101.56153846153846,157.294613120864L101.97692307692309,157.29368980790605L102.08076923076923,157.2934555604394L102.28846153846153,157.29298290147563L102.49615384615385,157.29250464468106L102.6,157.29226339134038L102.91153846153847,157.29153105141208L103.63846153846154,157.289771071674L104.98846153846154,157.28630358184455L105.09230769230768,157.28602568789697L105.40384615384616,157.2851821211322L106.02692307692307,157.2834495867913L106.33846153846154,157.2825600869061L106.65,157.28165472077671L107.06538461538462,157.28042240241L107.27307692307693,157.27979526792961L107.37692307692308,157.2794789218072L107.48076923076923,157.2791606982937L107.58461538461539,157.27884060311285L107.68846153846154,157.27851861336967L107.79230769230769,157.27819471761663L108.51923076923077,157.2758732434013L108.72692307692307,157.27519219116462L108.83076923076922,157.27484864004268L109.03846153846155,157.27415544200147L109.1423076923077,157.2738057721872L109.24615384615385,157.27345403037424L109.35000000000001,157.2731002108388L110.07692307692308,157.27056424469143L110.18076923076923,157.27019335119985L110.38846153846154,157.2694449761766L110.49230769230769,157.26906746602617L110.59615384615384,157.2686877293357L111.01153846153846,157.26714620236694L111.32307692307693,157.26596598732675L111.63461538461537,157.26476472032178L111.73846153846155,157.26435955871906L111.8423076923077,157.26395200458745L112.15384615384616,157.26271482675415L112.25769230769231,157.26229754796563L112.56923076923076,157.26103087563146L112.88076923076923,157.25974160591917L112.98461538461538,157.25930676665544L113.08846153846154,157.25886935170274L113.71153846153847,157.2561900570484L113.81538461538462,157.25573422878128L114.12692307692308,157.25435051713916L114.23076923076923,157.25388381946445L114.43846153846154,157.25294213039646L114.5423076923077,157.25246711038443L114.95769230769231,157.25053879506112L115.16538461538461,157.2495574632776L115.37307692307694,157.24856449510358L115.47692307692309,157.2480636094503L115.58076923076923,157.24755975889275L115.68461538461538,157.24705293770725L115.8923076923077,157.2460302861485L115.99615384615385,157.24551442143274L116.20384615384614,157.24447353399592L116.72307692307692,157.24181702560358L116.93076923076923,157.24073231711128L117.03461538461538,157.24018514918862L117.45,157.2379639551315L117.6576923076923,157.23683357681148L117.86538461538461,157.2356897991849L118.07307692307691,157.23453246771047L118.17692307692309,157.23394866776653L118.28076923076924,157.23336141067557L118.38461538461539,157.2327706964376L118.8,157.23037269564037L118.90384615384615,157.22976431789965L119.0076923076923,157.22915234564184L119.31923076923077,157.22729463281576L119.42307692307692,157.22666806498697L119.52692307692308,157.22603779961355L119.94230769230768,157.22347925898308L120.66923076923077,157.21885412287278L121.39615384615385,157.2140342532269L121.5,157.21332933866265L121.7076923076923,157.21190697451433L122.22692307692307,157.20827686712923L122.43461538461538,157.20679460962614L122.95384615384616,157.2030116665798L123.16153846153846,157.20146700871797L123.57692307692307,157.19832256180234L123.78461538461539,157.19672232629577L124.09615384615384,157.19428634267146L124.71923076923078,157.1892832785767L124.82307692307693,157.18843211066755L124.92692307692307,157.18757590585543L125.03076923076922,157.1867146526929L125.13461538461539,157.1858482939424L125.23846153846154,157.18497682960393L125.34230769230768,157.1841002138875L125.44615384615385,157.18321841245051L125.75769230769231,157.1805416305239L126.17307692307692,157.17689819824108L126.27692307692307,157.1759738349744L126.6923076923077,157.1722214796658L126.79615384615384,157.1712694935656L126.89999999999999,157.1703118752921L127.1076923076923,157.16837963919775L127.52307692307693,157.16444619578155L127.83461538461539,157.16143467731308L128.0423076923077,157.15939722718517L128.35384615384615,157.15629567407694L128.56153846153845,157.15419731176615L129.28846153846155,157.14665523648728L129.3923076923077,157.14555217764186L129.91153846153847,157.13993835472502L130.32692307692307,157.13532670377754L130.43076923076922,157.13415669991326L130.5346153846154,157.13297980464995L130.7423076923077,157.1306050880812L130.84615384615384,157.12940719809072L131.15769230769232,157.12577087470953L131.3653846153846,157.12331071395116L131.57307692307694,157.12082138494588L131.78076923076924,157.11830256716348L131.8846153846154,157.11703196261078L132.5076923076923,157.10924921495217L132.81923076923076,157.1052534627573L133.02692307692308,157.10255011116777L133.23461538461538,157.0998147065596L133.33846153846153,157.09843486989848L133.4423076923077,157.09704690550765L133.65,157.09424627300663L133.75384615384615,157.0928335362114L133.8576923076923,157.09141246563132L134.48076923076923,157.08270789605254L134.89615384615385,157.07673154204772L135,157.07521531979242L135.10384615384618,157.07369012269191L135.51923076923077,157.06749873872224L135.72692307692307,157.06434790409793L136.03846153846155,157.05955146749815L136.1423076923077,157.0579337287539L136.24615384615385,157.0563064198941L136.35,157.05466951802373L136.5576923076923,157.0513666147211L136.66153846153847,157.04970049881376L137.18076923076924,157.0412211474807L137.38846153846154,157.03775884909555L137.4923076923077,157.03601234879656L137.80384615384617,157.03071064214845L137.90769230769232,157.02892249582027L138.32307692307694,157.0216635860658L138.73846153846154,157.01423156711584L138.94615384615383,157.01044937960492L139.56923076923078,156.9988316714298L139.67307692307693,156.99685514493225L139.77692307692308,156.99486694197793L140.08846153846153,156.98883156462884L141.64615384615385,156.95700147476356L141.75,156.95477777370252L141.85384615384615,156.95254095379886L141.9576923076923,156.95029090057747L142.1653846153846,156.94575084233657L142.26923076923077,156.9434606541569L143.1,156.9246453490729L143.51538461538462,156.91489985771477L144.13846153846154,156.8998441885536L144.65769230769232,156.8868847868095L144.76153846153846,156.8842467775879L144.8653846153846,156.88159319975725L144.96923076923076,156.87892391594747L145.0730769230769,156.87623888036856L145.3846153846154,156.86808816405633L145.69615384615383,156.85979215598977L145.8,156.8569940648352L146.2153846153846,156.84563534505045L146.52692307692308,156.8369389489914L146.63076923076923,156.83400582304844L147.04615384615386,156.82209899664548L147.3576923076923,156.81298288920274L147.66923076923078,156.80370422716564L147.7730769230769,156.80057470779866L147.87692307692308,156.79742673505098L147.98076923076925,156.7942601257625L148.08461538461538,156.79107483414313L148.29230769230767,156.78464760864154L148.39615384615385,156.7814054915992L148.5,156.77814423432574L148.60384615384615,156.7748636994511L148.70769230769233,156.7715637953952L148.91538461538462,156.76490533025935L149.01923076923077,156.7615465860193L149.12307692307692,156.75816796890769L149.43461538461537,156.7479118729631L149.53846153846155,156.74445271119475L149.6423076923077,156.7409730812845L150.05769230769232,156.7268477738835L150.36923076923077,156.71603322277466L150.47307692307692,156.71238568083695L150.68076923076922,156.70502580407387L151.09615384615384,156.69004330737516L151.30384615384614,156.68241862688834L151.6153846153846,156.67081181673953L151.7192307692308,156.66689708999667L152.1346153846154,156.6510053865301L152.65384615384616,156.6306067996969L153.27692307692308,156.60532195912674L153.38076923076923,156.6010202608692L153.48461538461538,156.5966931033569L153.69230769230768,156.5879619984577L153.79615384615386,156.5835576847506L153.89999999999998,156.5791273623084L154.1076923076923,156.57018805015832L154.21153846153845,156.5656786941302L154.31538461538463,156.56114277988672L154.41923076923078,156.55657998689762L154.52307692307693,156.55199026937285L154.62692307692308,156.54737335257232L155.35384615384615,156.51428245722005L155.56153846153845,156.50457460526377L155.76923076923075,156.49475163718063L155.87307692307692,156.48979651524374L156.08076923076922,156.47979835451892L156.6,156.45428149588406L156.70384615384614,156.44908725842834L156.91153846153844,156.43860665398338L157.11923076923077,156.4280017754063L157.3269230769231,156.41727115741622L157.43076923076922,156.41185831837356L157.5346153846154,156.4064134263123L157.6384615384615,156.40093638965237L157.7423076923077,156.39542702523372L158.05384615384617,156.3787026759237L158.15769230769232,156.3730618941287L158.3653846153846,156.3616801419606L158.6769230769231,156.34435402012122L159.19615384615386,156.3147879494354L159.61153846153846,156.29050000353405L159.71538461538464,156.28433803965646L159.92307692307693,156.27190467373777L160.13076923076923,156.25932395551354L160.54615384615386,156.23371331890425L161.16923076923075,156.19414789695293L161.27307692307693,156.1874165798848L161.5846153846154,156.16698305526126L162,156.13917055943358L162.10384615384615,156.13211440791684L162.2076923076923,156.12501658747595L162.31153846153845,156.11787682337064L162.72692307692307,156.0888932934031L163.45384615384617,156.0364992460236L163.5576923076923,156.0288363766546L163.86923076923077,156.0055752263094L163.97307692307692,155.99772965473434L164.18076923076922,155.98189921832332L164.38846153846154,155.96588122596344L164.7,155.9414973957464L164.9076923076923,155.92500043970844L165.53076923076924,155.874327181528L165.6346153846154,155.86570611006272L166.05,155.83070943380395L166.15384615384616,155.82183056448898L166.2576923076923,155.81289931138357L166.36153846153846,155.80391530816755L166.77692307692305,155.76744520043334L167.1923076923077,155.73010526535413L167.50384615384615,155.7015172696362L167.71153846153845,155.6821759287268L168.12692307692308,155.6428029164672L168.5423076923077,155.60249084234238L168.9576923076923,155.5612175439795L169.1653846153846,155.5402132924646L169.47692307692307,155.50823921586078L169.6846153846154,155.48660690834126L169.78846153846155,155.47569496184587L169.8923076923077,155.46471835983294L170.5153846153846,155.39748358167708L170.72307692307695,155.3745387488355L171.03461538461536,155.3396104828765L171.13846153846154,155.32782980799675L171.2423076923077,155.31597953227657L171.55384615384617,155.2800070705513L171.96923076923076,155.2310437951237L172.07307692307694,155.21862169355154L172.17692307692306,155.20612614477676L172.5923076923077,155.15540123544633L172.8,155.12958701637882L173.2153846153846,155.07703691658875L173.31923076923078,155.0637048756083L173.52692307692308,155.03680378446975L174.04615384615383,154.96814768388867L174.46153846153848,154.9117481081436L174.5653846153846,154.89743927431604L175.08461538461538,154.824616830796L175.5,154.76479454214373L176.01923076923077,154.68800668232143L176.12307692307692,154.6723757988463L176.22692307692307,154.65665260267753L176.43461538461537,154.6249268911779L176.95384615384614,154.54395766928792L177.05769230769232,154.5274754576385L177.26538461538462,154.49421871080995L177.36923076923077,154.47744271034998L177.47307692307692,154.46056762027246L177.68076923076924,154.42651779018342L177.88846153846154,154.39206445838013L178.20000000000002,154.3396169282496L178.30384615384614,154.3219275083393L178.40769230769232,154.30413350400823L178.6153846153846,154.26822954416275L178.8230769230769,154.23190010339022L178.9269230769231,154.21357383579016L179.1346153846154,154.1765967408816L179.55,154.10132160037756L179.9653846153846,154.0242518571516L180.06923076923078,154.00469914947945L180.27692307692308,153.9652460962534L180.38076923076923,153.9453442854186L180.79615384615386,153.86455529307324L180.9,153.84405857821304L181.1076923076923,153.80270139252147L181.3153846153846,153.7608540703853L181.5230769230769,153.71851075068116L181.62692307692308,153.6971513517201L181.73076923076925,153.67566557228565L181.83461538461538,153.65405304605764L182.04230769230767,153.61044372369847L182.14615384615385,153.5884458286067L182.25,153.5663175235192L182.45769230769233,153.52166858439645L182.56153846153845,153.4991461187601L182.87307692307692,153.43077648058534L183.08076923076922,153.38452086100975L183.18461538461537,153.36118772874278L183.3923076923077,153.31410752236843L183.49615384615385,153.29035825033984L184.11923076923077,153.144887731721L184.22307692307692,153.120138771832L184.43076923076922,153.07020126779872L184.5346153846154,153.04501125837365L184.84615384615384,152.96854374557734L184.95000000000002,152.94275297100344L185.4692307692308,152.81149421135584L185.7807692307692,152.73086273670197L185.98846153846154,152.67631106326976L186.09230769230768,152.6487934552133L186.40384615384616,152.56526109079522L186.7153846153846,152.4802389020721L186.81923076923078,152.45156262318292L186.9230769230769,152.42271673803526L187.54615384615386,152.24602767825127L187.64999999999998,152.21596744159856L187.75384615384615,152.18572953964272L187.96153846153845,152.12471707661948L188.06538461538463,152.09393995131055L188.16923076923078,152.06298113117617L188.37692307692308,152.00051364426812L188.48076923076923,151.96900241325298L188.68846153846155,151.90542094657818L188.79230769230767,151.87334814667702L189.20769230769233,151.74315061668557L189.31153846153845,151.7101191567878L189.41538461538462,151.67689208189645L189.51923076923075,151.64346902569133L189.7269230769231,151.57602910821637L190.03846153846155,151.473367502292L190.1423076923077,151.43874181682864L190.35,151.36887539426488L190.66153846153844,151.2625198153158L191.18076923076922,151.0810297628244L191.2846153846154,151.04408563673496L191.4923076923077,150.96954167137542L191.7,150.89411340902248L191.90769230769232,150.81779205799103L192.21923076923076,150.70160993933678L192.4269230769231,150.6230064133803L193.04999999999998,150.38156183063984L193.15384615384616,150.34048414727053L193.36153846153846,150.25760053594908L193.46538461538464,150.21579094479483L193.56923076923076,150.17373445381722L193.67307692307693,150.1314295977354L193.88076923076923,150.04606819649538L193.98461538461538,150.00300872077545L194.08846153846153,149.9596942861875L194.29615384615386,149.8722976098458L194.4,149.8282109722495L194.6076923076923,149.73925523708263L194.81538461538463,149.6492459649841L195.5423076923077,149.32572587331137L196.37307692307692,148.93927783022326L196.58076923076922,148.8397859930992L196.6846153846154,148.78959865868092L196.8923076923077,148.6883330990871L197.20384615384617,148.53417895982662L197.3076923076923,148.48218639940023L197.41153846153847,148.42988612999517L197.61923076923077,148.32435660312575L197.72307692307692,148.2711236824592L198.0346153846154,148.1095303123196L198.2423076923077,148.0002042427659L198.45,147.88958213229975L198.55384615384617,147.83377984166145L198.76153846153846,147.72118546317023L198.86538461538464,147.66438824683428L198.96923076923076,147.60725621382394L199.3846153846154,147.37533009548983L199.90384615384616,147.07763045032817L200.11153846153846,146.95607294887304L200.42307692307693,146.77103068927926L200.63076923076923,146.64583929131427L201.15,146.3263304059704L201.46153846153845,146.13005896657705L201.66923076923078,145.9972708200415L201.87692307692308,145.86290822923183L202.5,145.45018989841142L202.60384615384618,145.37997437268496L202.7076923076923,145.3093434398373L202.9153846153846,145.16682729373377L203.01923076923077,145.0949369519949L203.12307692307692,145.02262241144976L203.22692307692307,144.9498800088962L203.53846153846155,144.72906364997226L204.0576923076923,144.352252026399L204.36923076923077,144.12078014512858L204.57692307692307,143.96417532364526L204.68076923076924,143.8851791024208L204.9923076923077,143.64537856479484L205.40769230769232,143.31897846361002L205.71923076923076,143.06908067564171L206.03076923076924,142.81472696860632L206.13461538461536,142.7289391706387L206.55,142.38068587084612L206.65384615384613,142.2923323661089L206.7576923076923,142.20345722138882L207.06923076923078,141.93366824587187L207.38076923076923,141.65906875332198L207.48461538461538,141.56645128130913L207.58846153846153,141.47328725953895L207.6923076923077,141.37957229216894L207.79615384615383,141.28530344863734L208.21153846153848,140.9026248405377L208.52307692307693,140.60964046915373L208.73076923076923,140.41142020622888L208.83461538461538,140.31143090625605L209.25,139.90553052723408L209.4576923076923,139.69896548986435L209.56153846153848,139.59476643800735L209.6653846153846,139.48995196819305L209.87307692307692,139.27846065660316L210.28846153846155,138.8479274411996L210.3923076923077,138.73869954546294L210.6,138.518305187424L211.22307692307692,137.84132052461308L211.32692307692307,137.7261435886224L211.43076923076924,137.6102882275979L211.7423076923077,137.2585959136486L212.05384615384614,136.9006321976582L212.3653846153846,136.53628571828204L212.46923076923076,136.41339847445488L212.6769230769231,136.16544218361378L212.78076923076924,136.04036434491476L212.8846153846154,135.9145465393861L213.09230769230768,135.66067784031233L213.5076923076923,135.14387621482214L213.7153846153846,134.8808729549249L213.81923076923078,134.74820349613825L213.9230769230769,134.61475157737732L214.02692307692308,134.48050987223783L214.44230769230768,133.93556752800941L214.54615384615386,133.7973124186198L214.75384615384615,133.51834931969643L214.8576923076923,133.37762960791588L215.37692307692308,132.66146186987558L215.68846153846155,132.2215230166912L215.79230769230767,132.07313988606134L216.31153846153845,131.3179722328981L216.41538461538462,131.16425254940987L216.62307692307692,130.854078968366L216.72692307692307,130.6976162791252L216.93461538461537,130.3819127281507L217.03846153846155,130.22266014417013L217.1423076923077,130.0624668498834L217.35000000000002,129.73923468589783L217.45384615384614,129.57618702451387L217.66153846153844,129.24719044566154L218.18076923076922,128.40754055976868L219.1153846153846,126.83241053422294L219.2192307692308,126.65218392014505L219.3230769230769,126.47089351216952L219.4269230769231,126.2885305186113L219.5307692307692,126.10509200890861L220.04999999999998,125.17150589823723L220.15384615384616,124.98146776358287L220.2576923076923,124.79030429323515L220.36153846153846,124.59801255663236L220.4653846153846,124.4045837620894L220.77692307692308,123.81741348902385L220.88076923076923,123.6193719903628L221.29615384615386,122.81543685992561L221.39999999999998,122.6114756266276L221.6076923076923,122.19992805520694L221.71153846153845,121.99232999483745L221.81538461538463,121.78350402911504L222.02307692307693,121.36214493711792L222.12692307692308,121.14959715803465L222.23076923076923,120.93579216798149L222.33461538461538,120.72072410583498L222.85384615384615,119.62617103258769L222.95769230769233,119.40336335698764L223.06153846153845,119.17923985918365L223.16538461538462,118.95379174749057L223.6846153846154,117.80641529957452L223.78846153846155,117.57285539309184L224.41153846153844,116.14223136504494L225.1384615384615,114.40798356135686L225.2423076923077,114.15434344609581L225.34615384615387,113.89920581380527L225.45,113.64255894223848L225.76153846153846,112.86348376671474L225.96923076923076,112.33639880021414L226.0730769230769,112.07051772872607L226.28076923076924,111.53403445084892L226.48846153846154,110.99119185407957L226.69615384615386,110.44191374381384L226.90384615384616,109.88612685600917L227.21538461538464,109.04007076223692L227.73461538461538,107.59631488720575L228.15,106.41029898325603L228.46153846153845,105.50226444005968L228.77307692307693,104.57803561290108L228.87692307692308,104.2663117647171L228.98076923076923,103.95274752378464L229.18846153846152,103.32004511356355L229.2923076923077,103.0008893609047L229.39615384615385,102.6798463265101L229.81153846153845,101.3765903711319L229.91538461538462,101.04594681660335L230.01923076923077,100.71335150798164L230.12307692307692,100.37879272301993L230.33076923076922,99.70373197396597L230.6423076923077,98.67610706885657L230.85,97.98086647192636L230.95384615384617,97.63016029198967L231.0576923076923,97.27737927436829L231.26538461538462,96.56555755933128L231.9923076923077,94.00708341598511L232.09615384615387,93.63289757569632L232.4076923076923,92.49701772133508L232.51153846153846,92.11391125122707L232.71923076923076,91.34088768561682L232.82307692307694,90.95094714562099L232.92692307692306,90.55870318412781L233.1346153846154,89.7672463854154L233.44615384615383,88.56243971983591L234.06923076923076,86.08799064159393L234.17307692307693,85.66700959205629L234.27692307692305,85.24354342619579L234.58846153846153,83.958070119222L235.21153846153845,81.31795052687329L235.3153846153846,80.8687891960144L235.52307692307693,79.96247782309851L235.62692307692308,79.50530433654785L235.93846153846152,78.11751339832942L236.0423076923077,77.64943822224936L236.25,76.70497093598048L236.6653846153846,74.7823290427526L236.97692307692307,73.31031376123428L237.3923076923077,71.30672389268875L237.91153846153847,68.73490983247758L238.11923076923077,67.68478407462439L238.32692307692307,66.6222092906634L238.43076923076924,66.08620955546698L238.95,63.358331362406425L239.26153846153846,61.682612737019866L239.57307692307694,59.97700824340185L239.88461538461536,58.24099624156952L240.61153846153846,54.06895482540132L240.7153846153846,53.45878843466442L240.92307692307693,52.22760085264843L241.13076923076923,50.981819073359176L241.23461538461538,50.3534011443456L241.54615384615383,48.445781310399376L241.65,47.80238234996796L242.48076923076923,42.51639926433563L242.58461538461538,41.837962508201606L242.68846153846155,41.15551674365999L242.89615384615385,39.7784926891327L243,39.08387923240662L243.10384615384615,38.385162989298514L243.4153846153846,36.2641279300054L243.51923076923077,35.54875437418621L243.83076923076925,33.377149542172766L243.93461538461537,32.64470839500429L244.03846153846155,31.90793001651764L244.35,29.671407381693523L244.66153846153847,27.394993940989192L245.18076923076924,23.510417183240264L245.28461538461536,22.7196813027064L245.38846153846154,21.92426824569703L245.59615384615384,20.31930510203045L245.70000000000002,19.509708126386013L246.1153846153846,16.22320040067038L246.6346153846154,12.004645109176648L246.84230769230768,10.282107830047615L247.05,8.539162119229639L247.4653846153846,4.991049011548378L247.6730769230769,3.185389280319214L247.98461538461538,0.43669823805492003L248.29615384615386,-2.361015240351355" style="fill: none;" fill="none"></path></g></g></g></g></g></g><g transform="translate(60, 177)" clip-path="url(#clip_1)"><clipPath id="clip_1"><rect width="270" height="23"></rect></clipPath><g><g><line x1="0" y1="0" x2="0" y2="5" style="visibility: inherit;" fill="rgb(0, 0, 0)" stroke="rgb(204, 204, 204)" stroke-width="1px"></line><line x1="20.76923076923077" y1="0" x2="20.76923076923077" y2="5" style="visibility: inherit;" fill="rgb(0, 0, 0)" stroke="rgb(204, 204, 204)" stroke-width="1px"></line><line x1="41.53846153846154" y1="0" x2="41.53846153846154" y2="5" style="visibility: inherit;" fill="rgb(0, 0, 0)" stroke="rgb(204, 204, 204)" stroke-width="1px"></line><line x1="62.307692307692314" y1="0" x2="62.307692307692314" y2="5" style="visibility: inherit;" fill="rgb(0, 0, 0)" stroke="rgb(204, 204, 204)" stroke-width="1px"></line><line x1="83.07692307692308" y1="0" x2="83.07692307692308" y2="5" style="visibility: inherit;" fill="rgb(0, 0, 0)" stroke="rgb(204, 204, 204)" stroke-width="1px"></line><line x1="103.84615384615385" y1="0" x2="103.84615384615385" y2="5" style="visibility: inherit;" fill="rgb(0, 0, 0)" stroke="rgb(204, 204, 204)" stroke-width="1px"></line><line x1="124.61538461538463" y1="0" x2="124.61538461538463" y2="5" style="visibility: inherit;" fill="rgb(0, 0, 0)" stroke="rgb(204, 204, 204)" stroke-width="1px"></line><line x1="145.3846153846154" y1="0" x2="145.3846153846154" y2="5" style="visibility: inherit;" fill="rgb(0, 0, 0)" stroke="rgb(204, 204, 204)" stroke-width="1px"></line><line x1="166.15384615384616" y1="0" x2="166.15384615384616" y2="5" style="visibility: inherit;" fill="rgb(0, 0, 0)" stroke="rgb(204, 204, 204)" stroke-width="1px"></line><line x1="186.9230769230769" y1="0" x2="186.9230769230769" y2="5" style="visibility: inherit;" fill="rgb(0, 0, 0)" stroke="rgb(204, 204, 204)" stroke-width="1px"></line><line x1="207.6923076923077" y1="0" x2="207.6923076923077" y2="5" style="visibility: inherit;" fill="rgb(0, 0, 0)" stroke="rgb(204, 204, 204)" stroke-width="1px"></line><line x1="228.46153846153845" y1="0" x2="228.46153846153845" y2="5" style="visibility: inherit;" fill="rgb(0, 0, 0)" stroke="rgb(204, 204, 204)" stroke-width="1px"></line><line x1="249.23076923076925" y1="0" x2="249.23076923076925" y2="5" style="visibility: inherit;" fill="rgb(0, 0, 0)" stroke="rgb(204, 204, 204)" stroke-width="1px"></line><line x1="270" y1="0" x2="270" y2="5" style="visibility: inherit;" fill="rgb(0, 0, 0)" stroke="rgb(204, 204, 204)" stroke-width="1px"></line></g><g transform="translate(0, 8)"><text x="0" y="0" dx="0em" dy="0.95em" style="text-anchor: middle; visibility: hidden; font-family: Roboto, sans-serif; font-size: 12px; font-weight: 200;" fill="rgb(255, 255, 255)" stroke="none" stroke-width="1px">-200</text><text x="20.76923076923077" y="0" dx="0em" dy="0.95em" style="text-anchor: middle; visibility: inherit; font-family: Roboto, sans-serif; font-size: 12px; font-weight: 200;" fill="rgb(255, 255, 255)" stroke="none" stroke-width="1px">0</text><text x="41.53846153846154" y="0" dx="0em" dy="0.95em" style="text-anchor: middle; visibility: hidden; font-family: Roboto, sans-serif; font-size: 12px; font-weight: 200;" fill="rgb(255, 255, 255)" stroke="none" stroke-width="1px">200</text><text x="62.307692307692314" y="0" dx="0em" dy="0.95em" style="text-anchor: middle; visibility: inherit; font-family: Roboto, sans-serif; font-size: 12px; font-weight: 200;" fill="rgb(255, 255, 255)" stroke="none" stroke-width="1px">400</text><text x="83.07692307692308" y="0" dx="0em" dy="0.95em" style="text-anchor: middle; visibility: hidden; font-family: Roboto, sans-serif; font-size: 12px; font-weight: 200;" fill="rgb(255, 255, 255)" stroke="none" stroke-width="1px">600</text><text x="103.84615384615385" y="0" dx="0em" dy="0.95em" style="text-anchor: middle; visibility: inherit; font-family: Roboto, sans-serif; font-size: 12px; font-weight: 200;" fill="rgb(255, 255, 255)" stroke="none" stroke-width="1px">800</text><text x="124.61538461538463" y="0" dx="0em" dy="0.95em" style="text-anchor: middle; visibility: hidden; font-family: Roboto, sans-serif; font-size: 12px; font-weight: 200;" fill="rgb(255, 255, 255)" stroke="none" stroke-width="1px">1k</text><text x="145.3846153846154" y="0" dx="0em" dy="0.95em" style="text-anchor: middle; visibility: inherit; font-family: Roboto, sans-serif; font-size: 12px; font-weight: 200;" fill="rgb(255, 255, 255)" stroke="none" stroke-width="1px">1.2k</text><text x="166.15384615384616" y="0" dx="0em" dy="0.95em" style="text-anchor: middle; visibility: hidden; font-family: Roboto, sans-serif; font-size: 12px; font-weight: 200;" fill="rgb(255, 255, 255)" stroke="none" stroke-width="1px">1.4k</text><text x="186.9230769230769" y="0" dx="0em" dy="0.95em" style="text-anchor: middle; visibility: inherit; font-family: Roboto, sans-serif; font-size: 12px; font-weight: 200;" fill="rgb(255, 255, 255)" stroke="none" stroke-width="1px">1.6k</text><text x="207.6923076923077" y="0" dx="0em" dy="0.95em" style="text-anchor: middle; visibility: hidden; font-family: Roboto, sans-serif; font-size: 12px; font-weight: 200;" fill="rgb(255, 255, 255)" stroke="none" stroke-width="1px">1.8k</text><text x="228.46153846153845" y="0" dx="0em" dy="0.95em" style="text-anchor: middle; visibility: inherit; font-family: Roboto, sans-serif; font-size: 12px; font-weight: 200;" fill="rgb(255, 255, 255)" stroke="none" stroke-width="1px">2k</text><text x="249.23076923076925" y="0" dx="0em" dy="0.95em" style="text-anchor: middle; visibility: hidden; font-family: Roboto, sans-serif; font-size: 12px; font-weight: 200;" fill="rgb(255, 255, 255)" stroke="none" stroke-width="1px">2.2k</text><text x="270" y="0" dx="0em" dy="0.95em" style="text-anchor: middle; visibility: hidden; font-family: Roboto, sans-serif; font-size: 12px; font-weight: 200;" fill="rgb(255, 255, 255)" stroke="none" stroke-width="1px">2.4k</text></g><line x1="0" y1="0" x2="270" y2="0" fill="rgb(0, 0, 0)" stroke="rgb(204, 204, 204)" stroke-width="1px"></line></g></g></g></g></svg>