<svg viewBox="0 0 330 200" xmlns="http://www.w3.org/2000/svg"><g><g><g><g><g><line x1="60" y1="177" x2="55" y2="177" style="visibility: inherit;" fill="rgb(0, 0, 0)" stroke="rgb(204, 204, 204)" stroke-width="1px"></line><line x1="60" y1="163.3846153846154" x2="55" y2="163.3846153846154" style="visibility: inherit;" fill="rgb(0, 0, 0)" stroke="rgb(204, 204, 204)" stroke-width="1px"></line><line x1="60" y1="149.76923076923077" x2="55" y2="149.76923076923077" style="visibility: inherit;" fill="rgb(0, 0, 0)" stroke="rgb(204, 204, 204)" stroke-width="1px"></line><line x1="60" y1="136.15384615384613" x2="55" y2="136.15384615384613" style="visibility: inherit;" fill="rgb(0, 0, 0)" stroke="rgb(204, 204, 204)" stroke-width="1px"></line><line x1="60" y1="122.53846153846153" x2="55" y2="122.53846153846153" style="visibility: inherit;" fill="rgb(0, 0, 0)" stroke="rgb(204, 204, 204)" stroke-width="1px"></line><line x1="60" y1="108.92307692307693" x2="55" y2="108.92307692307693" style="visibility: inherit;" fill="rgb(0, 0, 0)" stroke="rgb(204, 204, 204)" stroke-width="1px"></line><line x1="60" y1="95.3076923076923" x2="55" y2="95.3076923076923" style="visibility: inherit;" fill="rgb(0, 0, 0)" stroke="rgb(204, 204, 204)" stroke-width="1px"></line><line x1="60" y1="81.6923076923077" x2="55" y2="81.6923076923077" style="visibility: inherit;" fill="rgb(0, 0, 0)" stroke="rgb(204, 204, 204)" stroke-width="1px"></line><line x1="60" y1="68.07692307692307" x2="55" y2="68.07692307692307" style="visibility: inherit;" fill="rgb(0, 0, 0)" stroke="rgb(204, 204, 204)" stroke-width="1px"></line><line x1="60" y1="54.46153846153847" x2="55" y2="54.46153846153847" style="visibility: inherit;" fill="rgb(0, 0, 0)" stroke="rgb(204, 204, 204)" stroke-width="1px"></line><line x1="60" y1="40.84615384615384" x2="55" y2="40.84615384615384" style="visibility: inherit;" fill="rgb(0, 0, 0)" stroke="rgb(204, 204, 204)" stroke-width="1px"></line><line x1="60" y1="27.230769230769234" x2="55" y2="27.230769230769234" style="visibility: inherit;" fill="rgb(0, 0, 0)" stroke="rgb(204, 204, 204)" stroke-width="1px"></line><line x1="60" y1="13.615384615384606" x2="55" y2="13.615384615384606" style="visibility: inherit;" fill="rgb(0, 0, 0)" stroke="rgb(204, 204, 204)" stroke-width="1px"></line><line x1="60" y1="0" x2="55" y2="0" style="visibility: inherit;" fill="rgb(0, 0, 0)" stroke="rgb(204, 204, 204)" stroke-width="1px"></line></g><g transform="translate(50, 0)"><text x="0" y="177" dx="0em" dy="0.3em" style="text-anchor: end; visibility: hidden; font-family: Roboto, sans-serif; font-size: 12px; font-weight: 200;" fill="rgb(255, 255, 255)" stroke="none" stroke-width="1px">4e-3</text><text x="0" y="163.3846153846154" dx="0em" dy="0.3em" style="text-anchor: end; visibility: inherit; font-family: Roboto, sans-serif; font-size: 12px; font-weight: 200;" fill="rgb(255, 255, 255)" stroke="none" stroke-width="1px">6e-3</text><text x="0" y="149.76923076923077" dx="0em" dy="0.3em" style="text-anchor: end; visibility: hidden; font-family: Roboto, sans-serif; font-size: 12px; font-weight: 200;" fill="rgb(255, 255, 255)" stroke="none" stroke-width="1px">8e-3</text><text x="0" y="136.15384615384613" dx="0em" dy="0.3em" style="text-anchor: end; visibility: inherit; font-family: Roboto, sans-serif; font-size: 12px; font-weight: 200;" fill="rgb(255, 255, 255)" stroke="none" stroke-width="1px">0.01</text><text x="0" y="122.53846153846153" dx="0em" dy="0.3em" style="text-anchor: end; visibility: hidden; font-family: Roboto, sans-serif; font-size: 12px; font-weight: 200;" fill="rgb(255, 255, 255)" stroke="none" stroke-width="1px">0.012</text><text x="0" y="108.92307692307693" dx="0em" dy="0.3em" style="text-anchor: end; visibility: inherit; font-family: Roboto, sans-serif; font-size: 12px; font-weight: 200;" fill="rgb(255, 255, 255)" stroke="none" stroke-width="1px">0.014</text><text x="0" y="95.3076923076923" dx="0em" dy="0.3em" style="text-anchor: end; visibility: hidden; font-family: Roboto, sans-serif; font-size: 12px; font-weight: 200;" fill="rgb(255, 255, 255)" stroke="none" stroke-width="1px">0.016</text><text x="0" y="81.6923076923077" dx="0em" dy="0.3em" style="text-anchor: end; visibility: inherit; font-family: Roboto, sans-serif; font-size: 12px; font-weight: 200;" fill="rgb(255, 255, 255)" stroke="none" stroke-width="1px">0.018</text><text x="0" y="68.07692307692307" dx="0em" dy="0.3em" style="text-anchor: end; visibility: hidden; font-family: Roboto, sans-serif; font-size: 12px; font-weight: 200;" fill="rgb(255, 255, 255)" stroke="none" stroke-width="1px">0.02</text><text x="0" y="54.46153846153847" dx="0em" dy="0.3em" style="text-anchor: end; visibility: inherit; font-family: Roboto, sans-serif; font-size: 12px; font-weight: 200;" fill="rgb(255, 255, 255)" stroke="none" stroke-width="1px">0.022</text><text x="0" y="40.84615384615384" dx="0em" dy="0.3em" style="text-anchor: end; visibility: hidden; font-family: Roboto, sans-serif; font-size: 12px; font-weight: 200;" fill="rgb(255, 255, 255)" stroke="none" stroke-width="1px">0.024</text><text x="0" y="27.230769230769234" dx="0em" dy="0.3em" style="text-anchor: end; visibility: inherit; font-family: Roboto, sans-serif; font-size: 12px; font-weight: 200;" fill="rgb(255, 255, 255)" stroke="none" stroke-width="1px">0.026</text><text x="0" y="13.615384615384606" dx="0em" dy="0.3em" style="text-anchor: end; visibility: hidden; font-family: Roboto, sans-serif; font-size: 12px; font-weight: 200;" fill="rgb(255, 255, 255)" stroke="none" stroke-width="1px">0.028</text><text x="0" y="0" dx="0em" dy="0.3em" style="text-anchor: end; visibility: hidden; font-family: Roboto, sans-serif; font-size: 12px; font-weight: 200;" fill="rgb(255, 255, 255)" stroke="none" stroke-width="1px">0.03</text></g><line x1="60" y1="0" x2="60" y2="177" fill="rgb(0, 0, 0)" stroke="rgb(204, 204, 204)" stroke-width="1px"></line></g></g><g transform="translate(60, 0)" clip-path="url(#clip_0)"><clipPath id="clip_0"><rect width="270" height="177"></rect></clipPath><g><g><g><line x1="0" y1="0" x2="0" y2="177" fill="rgb(0, 0, 0)" stroke="rgb(189, 189, 189)" stroke-width="1px" opacity="0.25"></line><line x1="30" y1="0" x2="30" y2="177" fill="rgb(0, 0, 0)" stroke="rgb(189, 189, 189)" stroke-width="1px" opacity="0.25"></line><line x1="60" y1="0" x2="60" y2="177" fill="rgb(0, 0, 0)" stroke="rgb(189, 189, 189)" stroke-width="1px" opacity="0.25"></line><line x1="90" y1="0" x2="90" y2="177" fill="rgb(0, 0, 0)" stroke="rgb(189, 189, 189)" stroke-width="1px" opacity="0.25"></line><line x1="120" y1="0" x2="120" y2="177" fill="rgb(0, 0, 0)" stroke="rgb(189, 189, 189)" stroke-width="1px" opacity="0.25"></line><line x1="150" y1="0" x2="150" y2="177" fill="rgb(0, 0, 0)" stroke="rgb(189, 189, 189)" stroke-width="1px" opacity="0.25"></line><line x1="180" y1="0" x2="180" y2="177" fill="rgb(0, 0, 0)" stroke="rgb(189, 189, 189)" stroke-width="1px" opacity="0.25"></line><line x1="210" y1="0" x2="210" y2="177" fill="rgb(0, 0, 0)" stroke="rgb(189, 189, 189)" stroke-width="1px" opacity="0.25"></line><line x1="240" y1="0" x2="240" y2="177" fill="rgb(0, 0, 0)" stroke="rgb(189, 189, 189)" stroke-width="1px" opacity="0.25"></line><line x1="270" y1="0" x2="270" y2="177" fill="rgb(0, 0, 0)" stroke="rgb(189, 189, 189)" stroke-width="1px" opacity="0.25"></line></g><g><line x1="0" y1="177" x2="270" y2="177" fill="rgb(0, 0, 0)" stroke="rgb(189, 189, 189)" stroke-width="1px" opacity="0.25"></line><line x1="0" y1="163.3846153846154" x2="270" y2="163.3846153846154" fill="rgb(0, 0, 0)" stroke="rgb(189, 189, 189)" stroke-width="1px" opacity="0.25"></line><line x1="0" y1="149.76923076923077" x2="270" y2="149.76923076923077" fill="rgb(0, 0, 0)" stroke="rgb(189, 189, 189)" stroke-width="1px" opacity="0.25"></line><line x1="0" y1="136.15384615384613" x2="270" y2="136.15384615384613" fill="rgb(0, 0, 0)" stroke="rgb(189, 189, 189)" stroke-width="1px" opacity="0.25"></line><line x1="0" y1="122.53846153846153" x2="270" y2="122.53846153846153" fill="rgb(0, 0, 0)" stroke="rgb(189, 189, 189)" stroke-width="1px" opacity="0.25"></line><line x1="0" y1="108.92307692307693" x2="270" y2="108.92307692307693" fill="rgb(0, 0, 0)" stroke="rgb(189, 189, 189)" stroke-width="1px" opacity="0.25"></line><line x1="0" y1="95.3076923076923" x2="270" y2="95.3076923076923" fill="rgb(0, 0, 0)" stroke="rgb(189, 189, 189)" stroke-width="1px" opacity="0.25"></line><line x1="0" y1="81.6923076923077" x2="270" y2="81.6923076923077" fill="rgb(0, 0, 0)" stroke="rgb(189, 189, 189)" stroke-width="1px" opacity="0.25"></line><line x1="0" y1="68.07692307692307" x2="270" y2="68.07692307692307" fill="rgb(0, 0, 0)" stroke="rgb(189, 189, 189)" stroke-width="1px" opacity="0.25"></line><line x1="0" y1="54.46153846153847" x2="270" y2="54.46153846153847" fill="rgb(0, 0, 0)" stroke="rgb(189, 189, 189)" stroke-width="1px" opacity="0.25"></line><line x1="0" y1="40.84615384615384" x2="270" y2="40.84615384615384" fill="rgb(0, 0, 0)" stroke="rgb(189, 189, 189)" stroke-width="1px" opacity="0.25"></line><line x1="0" y1="27.230769230769234" x2="270" y2="27.230769230769234" fill="rgb(0, 0, 0)" stroke="rgb(189, 189, 189)" stroke-width="1px" opacity="0.25"></line><line x1="0" y1="13.615384615384606" x2="270" y2="13.615384615384606" fill="rgb(0, 0, 0)" stroke="rgb(189, 189, 189)" stroke-width="1px" opacity="0.25"></line><line x1="0" y1="0" x2="270" y2="0" fill="rgb(0, 0, 0)" stroke="rgb(189, 189, 189)" stroke-width="1px" opacity="0.25"></line></g></g></g><g><g><line x1="0" y1="204.23076923076923" x2="270" y2="204.23076923076923" fill="rgb(0, 0, 0)" stroke="rgb(153, 153, 153)" stroke-width="1.5px"></line></g></g><g><g><line x1="30" y1="0" x2="30" y2="177" fill="rgb(0, 0, 0)" stroke="rgb(153, 153, 153)" stroke-width="1.5px"></line></g></g><g><g><g><g><g><path stroke="rgb(255, 112, 67)" stroke-width="2px" d="M30.165,0.000004564913402949067L30.915000000000003,0.000004564910455306936L30.945,0.000004564913147486749L30.975,0.000004564911280646733L31.035,0.000004564912754467798L31.2,30.71129509121728L31.544999999999998,26.31078833344372L31.590000000000003,46.06690961239123L31.62,61.43276120993738L31.875,55.261790097647165L32.01,67.0063280651248L32.355,61.39168996770255L32.52,70.8649371101705L33.735,65.77017234343279L33.839999999999996,73.69457146919231L34.14,80.62840335234424L34.335,75.8474997042195L34.905,71.59781962532465L35.085,67.79548570995028L35.73,73.6513947945119L36.03,78.94958057376564L36.135,75.32313849005823L36.195,72.01205134896597L36.69,76.72399510535286L36.75,81.05896600412115L37.755,77.90216753282999L37.83,81.87582399537042L38.22,85.56563123285639L38.474999999999994,82.57357820017472L38.504999999999995,79.78100888044239L39.225,77.1686183981363L39.375,74.7195149871697L39.39,78.07840842375673L39.72,81.23970248923374L40.125,78.87887211167256L40.185,76.64921199644988L40.5,79.59784860930458L40.754999999999995,77.46416491566985L40.980000000000004,80.2430759620564L41.01,82.88302427966434L41.07,85.39417787317112L41.475,83.31900393041222L41.49,85.70538609726994L41.79,87.98328000665136L42.18000000000001,90.15991820919501L42.27,92.24190433809385L42.54,94.23528001520975L42.57,96.14558339391836L42.599999999999994,97.97790053344549L42.644999999999996,95.96992517997302L42.72,97.73566540224182L42.87,99.43347809375196L43.004999999999995,97.50815692726846L43.365,95.65416034480221L43.544999999999995,93.86759791432517L43.665,92.14485709180806L43.74,93.79843982094808L43.964999999999996,92.13468138390958L44.07,93.73397163793423L44.1,95.27993700042502L44.175000000000004,93.67062749008059L44.205,92.11324703805933L44.339999999999996,93.61431539278514L45.15,95.06846007855596L45.24,96.4778468033607L45.3,97.84451002016235L45.345,96.33540578811483L45.57,97.66535168358826L45.675,96.20122522253554L45.69,97.49643479860954L46.05,98.75514489935917L46.545,97.33426129578321L46.830000000000005,98.5619994374578L47.325,97.18085761334339L47.34,98.37915952007369L47.46,99.54591256836841L47.58,100.68234593474811L48.33,101.78962576104256L48.345,100.45022869781772L48.39,101.53391058652774L48.675000000000004,100.22957985619477L49.019999999999996,101.29067581511073L49.11,102.32618903201671L49.17,103.3370331765013L49.44,104.3240789219401L49.68,105.28815644527502L50.235,104.02514530765129L50.294999999999995,102.79085688157353L50.309999999999995,103.74181268825835L50.58,104.67162233942418L51.015,103.46883014003747L51.075,102.29220345819355L51.465,101.14089824461585L51.555,100.01410636701476L52.02,100.93826341024113L52.154999999999994,99.83607210637382L52.32,100.74399080880431L52.35,101.63336616764012L52.395,100.55562450247685L52.5,101.4300488813895L52.589999999999996,102.28714362912167L52.800000000000004,103.127418440993L53.22,103.95136321833267L53.265,102.89945389381994L53.385,101.86759883770785L53.4,102.68192608866092L53.67,103.4810181406031L53.805,102.47066764553449L54.195,101.47887355850618L54.3,102.26886239473531L54.345,101.29590138588712L54.39,102.07427161514785L54.449999999999996,102.8388510965939L54.660000000000004,103.5900027449604L54.72,104.32807685186394L54.855,103.37597386431835L54.885,102.4401642480558L55.665,101.52023376440474L55.845,100.61578209867905L56.22,101.3511294153099L56.34,102.07430775612819L57.074999999999996,101.18597637836511L57.165,100.31210719547252L57.18,101.02773274550026L57.720000000000006,101.73189372308647L57.765,100.87296716177133L57.9,101.56801521438786L57.975,100.7230443040597L58.08,101.40922493701709L58.185,100.57774066161828L58.365,99.75896855564383L58.38,100.4383319820776L58.5,101.10746468560242L58.544999999999995,100.30162574065761L58.905,99.50774289313279L59.37,100.17039104031944L59.7,100.82335068109612L59.82,101.46683243556909L60.57,102.10104086283708L60.765,101.31987055041462L60.794999999999995,100.54979864861572L61.410000000000004,101.17844295831422L61.845000000000006,100.41946014000713L61.89,101.04095042289609L61.905,100.29272322171842L62.16,100.90723122913442L62.61,101.51336382446745L63.195,100.77579690948077L63.345,100.0481481818338L63.645,99.33021927724965L63.87,99.9326948386135L63.96,100.52722811806835L64.065,99.81897054173969L64.155,99.11992895241788L64.425,98.42992497561661L64.695,97.74878481055076L64.995,97.07633908447718L65.325,96.41242271256685L65.46,97.00665933440077L65.505,96.35087409419822L66.045,95.70325253454052L66.19500000000001,95.0636434756069L66.3,95.65339075868287L66.315,95.02129605504634L66.405,94.39688018241556L66.66,94.98117248276951L66.885,94.36389494480756L66.975,93.75398293417499L67.425,93.15130570130006L67.785,92.55573557306813L68.07000000000001,93.13603221787106L68.295,92.54691150168499L68.745,91.96461813073243L68.91000000000001,92.53944118382951L68.955,91.9632896080074L69.48,92.53214106955402L69.53999999999999,93.09454832546415L69.675,92.52387868032375L69.705,91.95960198069733L69.84,92.51691568330243L70.11,93.06805468142007L70.14,93.61312075648735L70.29,94.15221346521415L70.39500000000001,93.5922528899793L70.845,93.03836293620941L71.1,93.57291751950218L71.19,94.10173854082579L71.55,94.62491749379896L71.61000000000001,95.14254393567084L71.97,95.65470553827805L72.04499999999999,95.10479634232487L72.07499999999999,94.56063269677544L72.27,95.06888019172253L72.435,94.53000831583766L72.9,95.0337030466652L72.96,95.53224182663017L73.095,94.99821491093363L73.155,94.46959956912907L73.395,93.94631421901799L73.56,94.44182454659295L74.025,93.92339717855681L74.07,94.41460134004939L74.445,93.90093321102351L74.52000000000001,94.3879137194715L74.61,94.87012679801846L75.045,94.3607592024502L75.06,94.8389199937376L75.19500000000001,94.33412871690432L75.375,93.83418531511495L75.435,93.33902053229218L75.87,93.81439228420602L75.92999999999999,94.28526283343663L75.97500000000001,93.79401463874038L76.095,93.30737482890369L76.455,92.82527910014754L76.56,93.29341176810914L76.62,93.75721314840206L76.83,94.21674284662237L77.025,93.73791726241177L77.03999999999999,94.1938062521592L77.25,94.64555298213521L77.445,94.17036172993812L77.49,94.61860571671349L77.745,94.1473375640555L77.865,93.68027590179665L77.91,94.12563086042749L77.99999999999999,94.56704535742091L78.64500000000001,94.10340541706539L79.035,93.64383220028229L79.47,94.08246235276017L79.605,93.62653105006045L79.74,94.0618819538487L80.04,94.49347924953435L80.115,94.04077432433701L80.295,93.59193971343944L80.58,94.02090004365299L80.69999999999999,94.44622372453628L80.715,94.00049385897223L80.925,93.55851148374315L81.18,93.98129042998055L81.39,94.40054406608829L81.615,93.96155115898391L82.455,93.52618892261607L82.635,93.0944127167424L82.77000000000001,93.51169361622816L84.675,93.08308303535352L85.485,92.65796041573878L85.66499999999999,92.23628356344848L86.65499999999999,91.81801096235806L87.42,92.23369593180004L87.46499999999999,91.81836978244611L87.55499999999999,91.40635710774106L88.11,91.81954482615488L88.335,91.41037918400676L88.62,91.82070134027519L88.71,92.22780055405545L89.53500000000001,91.8210290720381L89.55,92.22535806770998L89.745,91.8213517146685L89.775,91.42047040585305L89.895,91.02267822032077L90.045,90.62793978553671L90.15,91.03068897806554L90.24,91.4303695233022L90.36,91.82701616156922L90.435,91.43402684517544L90.91499999999999,91.04399855752594L91.005,90.65689815185905L91.065,90.27269297429798L91.17,90.66781618887075L91.2,91.06000571981807L91.55999999999999,91.44929392489513L91.785,91.0666787870674L91.815,90.68687373781343L92.07000000000001,91.0740183635186L92.115,90.69657497065643L92.265,90.32187403285134L92.655,89.94988595431546L92.715,89.58058156357015L92.79,89.96624908377984L92.895,89.59915650705493L93.405,89.23468448823944L93.47999999999999,89.61821259988186L94.02,89.99902185340311L94.215,89.63625858477056L94.41000000000001,90.0146928691285L94.455,89.65405136787673L94.515,89.29593144560195L94.56,89.67232822747842L94.755,89.31626666028494L94.87499999999999,88.96266933572969L94.98,89.33704690841768L95.30999999999999,89.7088509154941L95.355,89.35682115146153L95.55,89.72637863118352L95.68499999999999,89.37632626425062L95.83500000000001,89.02864829697265L95.91,89.39628062553918L96.14999999999999,89.76143574718428L96.48,90.12413843505516L96.765,89.7775520403772L97.245,89.43327818255196L97.335,89.09129396413823L97.875,88.75157678897357L98.145,88.41410435723525L98.235,88.07885466059828L98.595,87.74580597748776L99.18,88.10803311741549L99.27,88.46789728231983L99.63,88.82542134083556L99.885,88.49323968727343L100.155,88.16320450010613L100.86,88.51893927983107L101.355,88.19059975293321L101.52,88.54430988289019L101.715,88.21764540129922L102.25500000000001,87.89305897836051L102.495,87.57053100867029L102.84,87.92273786240375L103.275,87.6018135747878L104.08500000000001,87.28290581231913L104.235,86.9659957864115L104.325,86.65106494115109L104.475,86.3380949497063L104.61,86.68922270285589L105.015,86.37774115957046L105.11999999999999,86.72690962307652L105.915,86.41689962689371L106.275,86.10879102036263L106.335,85.80256651702156L106.47,86.15020873371346L106.71,86.4957376736865L106.845,86.19047572945344L106.965,85.88705852692779L107.1,86.23090294635931L107.175,85.92886512431866L107.205,85.62863661008903L107.265,85.33020134359954L107.37,85.67256694997985L107.67,86.01289942925801L107.78999999999999,86.35121666948167L108.255,86.05322095513164L108.27000000000001,86.38974420090469L108.405,86.09306908740979L108.69,86.42782068682362L108.705,86.13245203584822L108.915,85.83880271530182L109.035,85.54685790220286L109.2,85.88025057852579L109.425,85.58956004363237L109.44,85.9212213397828L110.07000000000001,86.25097892563446L110.085,85.9611053655008L110.34,86.28917512065745L110.655,86.00053535886039L110.775,85.71353413153086L111.06,86.04013092456553L111.10499999999999,85.75433282715584L111.28500000000001,85.47014385760657L111.36,85.795281125654L111.375,85.51226558909813L111.675,85.23083058801524L111.99000000000001,85.55452172130515L112.02,85.87641487998926L112.05,86.19652484334921L112.845,85.91541028976695L112.86,86.23394816396483L112.905,85.95397713673641L112.92,86.2709612891333L112.99499999999999,85.99212237124972L113.11500000000001,85.71480370811538L113.385,85.4389930383512L113.49,85.75482063788417L114.075,85.48009913275311L114.135,85.2068598188234L114.36,85.52134912353482L114.585,85.24917303860802L115.22999999999999,85.56215749842421L115.8,85.8734707388669L115.98,86.1831259552495L116.445,85.91121402029032L116.595,85.64074285918834L116.83500000000001,85.37170118520574L116.94,85.68027851579811L117.105,85.41225999740449L117.135,85.14564725911973L117.46499999999999,84.88042940211247L117.585,84.61659563990695L117.66,84.92426259828287L117.765,84.66140041947097L118.05,84.9676417563483L118.155,84.70574225141495L118.215,84.4451925650375L118.245,84.18598241808151L118.485,83.92810163550168L118.5,84.23342556752988L118.72500000000001,83.97645928530002L118.845,83.72080118009659L118.86,84.02488426499372L119.78999999999999,84.32742684786835L119.83500000000001,84.07226366035259L120.015,83.81838688102044L120.075,83.5657869322785L120.435,83.31445433135747L120.6,83.61609240924273L120.765,83.36561372953226L120.78,83.66589677106022L120.825,83.41626472168525L121.17,83.71520737013581L121.18499999999999,83.46641474901057L121.2,83.76403141576685L121.67999999999999,84.06018309103384L121.77000000000001,84.3548804180551L122.01,84.64813393724467L122.16,84.93995408742607L122.50500000000001,84.6904660626068L122.715,84.44219180500001L122.94,84.7329250957882L123,85.02225051953019L123.03,85.31017813409507L123.25500000000001,85.0620017454214L123.585,84.81501884500149L123.795,84.56922096692853L123.825,84.3245997251594L123.85499999999999,84.08114681257513L124.035,83.83885400005462L124.09500000000001,83.59771313556139L124.14,83.88540156590496L124.17,84.17172840783954L124.28999999999999,84.45670316255766L124.33500000000001,84.21559203335804L124.425,83.97561436241118L124.725,83.73676229518013L124.875,83.4990280495169L125.08500000000001,83.26240391483007L125.11500000000001,83.0268822512645L125.16,83.31143732099115L125.22,83.59467246763613L125.355,83.35949979504784L125.505,83.1254131793856L125.88,83.40763460418093L125.89500000000001,83.17425636575322L125.92500000000001,82.94194882918725L126.03,83.22316486867093L126.09,83.50309634729479L126.17999999999999,83.78175190743089L126.39,84.05914011411859L126.825,83.82644306435597L126.99,84.10272802870435L127.065,83.87073036793299L127.215,83.63977880267731L127.29,83.91512443827366L127.335,83.68485784217872L127.72500000000001,83.45562290256261L127.875,83.22741281573676L128.235,83.00022083769079L129.03,83.27492722706536L129.13500000000002,83.04838887368129L129.165,82.82285478916441L129.315,82.59831842236851L129.42,82.87223277849084L129.495,82.6483283831104L129.54000000000002,82.92117667352773L129.975,82.69789960838082L130.59,82.96969207686791L130.62,83.24029713572332L130.74,83.50972241478331L130.8,83.77797547867587L130.995,83.55428075405237L131.1,83.82152007422226L131.235,83.59845379061895L131.26500000000001,83.37635009215113L131.385,83.15520287199674L131.79,83.4217328810548L132.03,83.68711974937109L132.26999999999998,83.95137068358765L132.495,83.73015821230429L132.84,83.99343279923488L132.85500000000002,83.77283050604431L133.305,83.5531648771339L133.95,83.81562239179716L134.01,84.0769699784665L134.055,83.85757346806955L134.175,83.63910109201682L134.745,83.42154713232688L134.805,83.20490591807665L135.195,82.98917182491823L135.285,82.77433927460163L135.54,83.03546763063436L135.96,83.29550902535046L136.185,83.08090525435755L136.76999999999998,83.34001078166919L137.51999999999998,83.59804407521204L137.745,83.3836736451251L138.405,83.17018688235922L138.42000000000002,83.427447147929L138.435,83.2145124615653L138.585,83.00245044665675L138.70499999999998,82.79125585494913L138.81,83.047889576536L138.945,82.83722974459238L139.095,82.62742665867007L140.29500000000002,82.41847520721043L140.73000000000002,82.67448082666473L141,82.92945121294277L141.22500000000002,82.7206925082189L141.29999999999998,82.97477379174092L141.345,82.76653261104013L141.645,82.55912717023077L141.66,82.8124654210633L141.885,82.6055677037486L141.9,82.85803165978062L141.91500000000002,82.65163830597476L142.215,82.44606555719125L142.41000000000003,82.69779977952562L142.42499999999998,82.4927219036332L142.48499999999999,82.2884548734307L143.025,82.084993991103L143.13,82.33613687014872L143.32500000000002,82.13315558677463L143.73,82.38344462972178L144.07500000000002,82.18093987362336L144.315,81.9792270022988L144.33,82.2288016738792L144.555,82.0275564543874L144.63,82.27629123999506L144.82500000000002,82.07551071676689L145.035,81.87550823011625L145.14000000000001,82.1235413085851L145.5,82.37061670773106L145.51500000000001,82.17075572967511L145.59,82.41701254608651L145.74,82.66232365038282L145.76999999999998,82.90669435784686L146.07000000000002,83.15012994402524L146.20499999999998,82.94980342099548L147.075,82.75024075430305L147.64499999999998,82.55143768263228L147.675,82.35338997628813L148.095,82.15609343690336L148.11,82.39928387126776L148.17000000000002,82.64155516235226L148.275,82.44439298742611L149.04000000000002,82.6858859464517L149.16,82.92647096397657L149.25,83.16615303104123L149.47500000000002,82.96883141125598L149.67000000000002,83.2077556993962L149.79000000000002,83.44578793463376L150.585,83.24861397042233L151.095,83.05217363673695L151.155,82.85646294449369L151.17,83.09403014108496L151.56,83.33071796741025L151.605,83.13514596364647L151.74,83.3711003548861L151.965,83.17595899987305L151.995,82.98153505133044L152.07,83.21690157828685L152.1,83.45140575282493L152.17499999999998,83.25711675335488L152.22,83.49090501668854L152.25,83.72384104412515L152.70000000000002,83.9559293712619L153.58499999999998,83.76149716258361L153.75,83.99288809171988L153.82500000000002,83.79888061840832L153.94500000000002,83.6055744592443L153.975,83.41296591456332L154.365,83.22105131066031L154.38000000000002,83.45217807304249L154.41,83.68247487875622L154.65,83.9119460756012L154.76999999999998,84.14059598108268L155.115,83.94825572211307L155.20499999999998,83.75660159675503L155.97,83.98472587163702L155.99999999999997,84.21203902688009L156.195,84.02051910847892L156.39,84.24717210057882L156.405,84.05605909164187L156.48000000000002,84.28205699563247L156.525,84.09134842908044L156.66,84.31669626336804L156.72,84.54125192151335L156.75,84.76501946155065L156.86999999999998,84.98800291386539L156.96,85.21020628142935L157.005,85.01884378157679L157.05,85.24042475741518L157.185,85.04946992746574L157.56,85.27043318039703L157.65,85.49062957195466L157.815,85.29982343395467L157.98000000000002,85.51941218868225L157.99499999999998,85.3290106858305L158.01,85.54799631487795L158.10000000000002,85.7662279418219L158.31,85.98370934552959L158.34,86.20044427967984L158.385,86.00969387490153L158.625,85.81959613997797L158.955,85.63014782553326L159.375,85.44134570370714L159.61499999999998,85.25318656797714L159.69,85.46996293819026L159.855,85.2821920330821L159.915,85.09505763160958L159.93,85.31140403362366L160.155,85.12465138537475L160.38,85.34041893322274L161.295,85.15404576928559L161.94,85.36923866250572L162.01500000000001,85.1832427330214L162.225,84.99787053968252L162.6,85.2126437256284L162.94500000000002,85.02764251483426L163.05,85.24184845489343L163.185,85.05721605174809L163.39499999999998,84.87319812110756L163.41,85.08699026775871L163.82999999999998,85.30007304332452L164.055,85.11617094802074L164.20499999999998,84.93287721230479L164.235,84.750188913709L164.51999999999998,84.9630139525897L164.55,85.17513811230603L164.57999999999998,85.38656474374264L164.595,85.20374101445518L164.88,85.41462425137355L165.225,85.23215667328259L165.27,85.4425003451756L165.39,85.65215746289144L165.42000000000002,85.86113127786436L165.43499999999997,85.6785384913319L165.48000000000002,85.88698569955902L165.6,86.09475654289973L165.85500000000002,85.91228303818842L165.96,86.11953543458604L166.32,86.32611829157123L166.36499999999998,86.14376621702966L167.01,86.34983863739016L167.23499999999999,86.16784114890979L167.37,86.37340663711345L167.46,86.57831284734193L167.48999999999998,86.78256284405232L167.53500000000003,86.60045895217633L167.73,86.80421410318966L167.82,87.0073195430527L167.91000000000003,87.20977827323647L168.33,87.41159327677356L168.525,87.22916929616007L168.645,87.04732368388451L168.855,86.8660537843399L169.125,86.68535695813317L169.29,86.88717068786804L169.335,86.70681936292694L169.47,86.90815466021986L169.785,86.7281468525838L169.89000000000001,86.92900691104691L170.055,86.74934065295886L170.1,86.94972863538587L170.175,86.77040197511866L170.38500000000002,86.59163508647897L170.94,86.79171030042299L171.14999999999998,86.99116272014133L171.285,86.81250868831447L171.615,86.63440922287009L171.735,86.45686183436048L171.84,86.65616217892243L172.01999999999998,86.854846438435L172.11,87.05291736620744L172.185,86.8752569128536L172.53,87.07287413462574L172.71,87.26988383585096L172.785,87.09233443376948L172.86,87.28889719382161L172.935,87.11167559273602L172.95,87.30779430688898L173.55,87.5033142200849L173.68499999999997,87.32620416656741L173.79000000000002,87.52128662527716L173.85,87.71577587180275L174.195,87.53877899893415L174.255,87.36231888753309L174.405,87.18639318753625L174.42000000000002,87.380767104603L174.49499999999998,87.20516011903973L174.54000000000002,87.39910404915962L174.63,87.5924637694005L175.29000000000002,87.7852418191418L175.38,87.97744072308839L175.635,87.80152095216785L175.72500000000002,87.62612827330076L175.935,87.45126040850586L176.11499999999998,87.27691509289016L176.34,87.46917057016233L176.415,87.29513522836119L176.92499999999998,87.1216178866162L176.94,87.31361205968179L176.955,87.14039998663007L177.06,87.33197935409328L177.07500000000002,87.15907088611769L177.225,86.98667369119853L178.365,86.81478559091158L178.44,87.00625941341882L178.76999999999998,87.19716928165478L179.37,87.38751758837644L179.82000000000002,87.57730671284541L180.045,87.40509026635841L180.24,87.59447819549099L180.3,87.78331192222085L180.48,87.97159378152487L180.72,88.15932609530257L180.735,87.98679717413431L181.125,87.8147705259793L181.155,87.64324404639429L181.215,87.47221564265658L181.575,87.30168323368208L181.815,87.13164474994494L181.82999999999998,87.3197635171312L182.07,87.5073388087945L183.36,87.69437288321508L183.55499999999998,87.52421363391555L183.75,87.71086338902434L183.79500000000002,87.54099146621701L184.32,87.72725923061269L184.995,87.55767310624188L185.1,87.74356118823809L185.13,87.92891764049655L185.34,88.1137446480347L185.565,87.9440438523868L185.88,88.12849962702056L186.315,87.9590839911217L186.375,87.7901498547717L186.705,87.62169525235637L187.035,87.45371822892602L187.14000000000001,87.63826641754967L187.17,87.8222926963337L187.29,88.00579918441008L187.41,88.18878798947539L187.845,88.02049395512921L188.19,88.20312244701906L188.51999999999998,88.38523763143975L188.565,88.21702662399926L188.595,88.04928724363384L188.95499999999998,87.88201759321211L189.04500000000002,87.71521578574406L189.375,87.54887994431364L189.405,87.38300820201141L189.585,87.21759870186806L189.735,87.05264959678819L189.825,86.88815904948491L190.11,87.07113083722975L190.425,86.9068974110829L190.815,86.74311890204099L190.965,86.57979350420852L191.115,86.41691942121611L191.235,86.25449486615798L191.31,86.43768944674046L191.98499999999999,86.27551099759235L192.345,86.11377855285066L192.48000000000002,86.29675596112068L192.495,86.13526602885038L192.61499999999998,85.97421862383939L192.69,86.15697926996852L192.96,86.3392402878523L193.14000000000001,86.52100363265961L193.185,86.35979498694815L193.57500000000002,86.1990254915369L193.59,86.3805797381221L193.62,86.56164057358967L194.13,86.74220991637755L194.23499999999999,86.58128231320761L194.32500000000002,86.4207905283365L195.01500000000001,86.26073287375786L195.285,86.10110767015169L195.35999999999999,86.28175975017163L196.035,86.12236662752272L196.07999999999998,86.30267342076334L196.245,86.14351126228803L196.35,86.32347475577288L196.65,86.50295539063501L196.995,86.34382648803388L197.265,86.1851235588657L197.57999999999998,86.36440696852878L197.835,86.20593169443309L198.195,86.04787918383481L198.315,85.89024782607156L198.51,86.06947398511295L198.675,85.91206483510113L199.065,85.75507368858112L199.18499999999997,85.59849896099624L199.425,85.44233907576898L199.515,85.28659246425094L199.56,85.46603175712629L199.65,85.64499724262714L199.71,85.82349070568527L199.785,85.66756176161272L199.86,85.84572274678851L199.965,85.69000767677578L200.31,85.86783806288764L200.34,86.04520205184372L200.42999999999998,86.22210138765402L200.46,86.39853780566663L200.54999999999998,86.57451303262141L200.82,86.75002878670328L200.86499999999998,86.593562162359L201.075,86.43750316564964L201.16500000000002,86.28185028352011L201.22500000000002,86.12660201037451L201.35999999999999,86.30222074728263L201.39000000000001,86.47738398404043L201.465,86.32215574102747L201.60000000000002,86.49700478954561L201.855,86.34198768566438L202.02,86.51652428145255L202.08,86.69061066743144L202.48499999999999,86.5356145697484L202.71,86.70939259621701L203.085,86.5546067145412L203.1,86.72807807204347L203.28,86.90110440428246L203.295,86.74634045199194L203.565,86.591972670969L203.625,86.43799961891942L203.865,86.28441986052161L204.255,86.1312319673844L204.42,86.30451074707149L204.45000000000002,86.47734835127787L204.54,86.64974637656435L204.63,86.8217064118199L205.26000000000002,86.9932300383077L205.54500000000002,86.83949716116402L205.98,87.01072626265282L205.995,86.85719791712837L206.55,87.02813407783208L206.61,87.19863873921861L206.985,87.04513053475884L207.04500000000002,86.8920090128598L207.315,86.73927279064512L207.405,86.5869204918044L207.825,86.4349507465543L208.155,86.28336219159998L208.29000000000002,86.45427034412346L208.845,86.30287603095069L209.01,86.47349334676332L209.10000000000002,86.64368449522948L209.35500000000002,86.49229928721043L209.37,86.66220332584007L209.47500000000002,86.51101159416108L209.595,86.36019593191529L209.7,86.52995112409864L209.98499999999999,86.37932625488028L210.045,86.22907487718642L210.29999999999998,86.39868130934583L210.39000000000001,86.56786805433882L210.63,86.73663658363517L211.17,86.9049883618567L211.215,86.75437834854607L211.29,86.92245264146382L211.42499999999998,86.77203277979748L211.725,86.6219828331418L211.83,86.78991810215923L211.995,86.64005569045713L212.13,86.80771574454337L212.355,86.65804003890706L212.535,86.50873054043306L213,86.67625295832576L213.165,86.52712759902583L213.435,86.37836598877672L213.45000000000002,86.54575080207444L213.63000000000002,86.71272815429948L213.72,86.87929944818542L213.78,87.04546608005724L213.915,86.89634850860384L214.17000000000002,87.0622490180745L214.2,87.22774771085012L214.26,87.3928459624538L214.29,87.55754514216007L214.515,87.40808217350168L214.92000000000002,87.57252251795164L215.31,87.73656657132969L215.34,87.90021568265928L215.385,87.75059028825787L215.61,87.91398575625857L215.7,88.07698901533992L215.715,87.92737757887132L215.73000000000002,88.09013038851359L215.895,87.94070531498227L215.925,87.79163749964488L216.04500000000002,87.64292573712778L216.09,87.80570793757086L216.135,87.65717837228748L216.16500000000002,87.50900252937059L216.69,87.6716736975299L216.825,87.52367760304769L216.97500000000002,87.37603292681193L217.125,87.22873849227106L217.30499999999998,87.08179312809925L217.59,87.24462592399505L218.025,87.09785465408666L218.085,86.95143020169111L218.19,87.1141491613031L218.835,86.96789645552627L219,87.13036690095726L219.01500000000001,86.98428520753473L219.135,86.83854703753461L219.83999999999997,87.00090472449094L220.14000000000001,87.16288134761842L220.41,87.3244781661315L220.785,87.17856366168907L220.8,87.33991748483434L220.98,87.50089404890902L221.37,87.66149459517734L221.76000000000002,87.82172035948716L221.91,87.98157257229919L222.19500000000002,87.83514808451464L222.25500000000002,87.6890643236894L222.39,87.84881888878184L222.735,87.70290582144557L223.155,87.55733132780182L223.215,87.41209430339399L223.35,87.57188667641265L223.695,87.42681654676792L224.36999999999998,87.58637474584302L224.7,87.74556444859533L224.715,87.60049207791658L224.80499999999998,87.4557541214033L224.865,87.3113494962638L225.075,87.16727712435514L225.33,87.32663978489816L226.04999999999998,87.48563645895403L226.56,87.64426832653929L226.935,87.50002114315063L227.67,87.65842448401028L228.435,87.51434001591042L228.585,87.37058491567035L229.27499999999998,87.22715812691193L229.62,87.38560223952842L229.665,87.24233454516798L229.755,87.09939314596485L229.8,87.25774287873512L229.965,87.11495846154475L230.01000000000002,87.27308123503825L230.265,87.13045315160011L230.28,87.28835005920311L230.805,87.14587766491374L230.85,87.3035497926061L230.91,87.46086543644033L231.105,87.31838142861663L231.375,87.17621898083085L231.6,87.33344526377094L231.64499999999998,87.19143659080248L231.81,87.34844130580443L232.53,87.50509297014193L233.01,87.66139269517522L233.16,87.81734158762798L233.74499999999998,87.67499077870677L234.15,87.8307239811996L234.29999999999998,87.98610856320379L234.51,88.14114561652103L234.55499999999998,87.99862341268096L234.66,88.15344895590717L234.67499999999998,88.01108244375908L234.945,87.8690332096111L235.03500000000003,87.72730026487359L235.04999999999998,87.88218321371639L235.17,88.0367219091933L235.47,88.19091742068244L235.545,88.04901270605671L235.995,87.90742256230966L236.16,88.06154446984766L236.17499999999998,87.92010610060767L236.505,87.77898044055486L236.54999999999998,87.93302847817954L236.65499999999997,87.79205261571573L236.70000000000002,87.94589387820498L236.865,87.80506720329173L237.06,87.95870265110766L237.08999999999997,88.11200020377174L237.58499999999998,87.9711613449056L237.645,87.83063169787202L238.27499999999998,87.69041031557937L238.32000000000002,87.84376984330306L238.485,87.70369451162692L238.605,87.5639256495683L238.8,87.71721339352328L238.89,87.87016633993183L238.92,88.02278550814759L238.995,87.88283994298398L239.08499999999998,87.74319924543222L239.20499999999998,87.6038624900198L239.85,87.75654500966405L240.06,87.90889576992525L240.255,87.76954146530075L240.32999999999998,87.92169333531216L240.615,87.78248159934952L240.70499999999998,87.64357132054222L241.035,87.50496159005927" style="fill: none;" fill="none"></path></g></g></g></g><g opacity="0.2"><g><g><g><path stroke="rgb(255, 112, 67)" stroke-width="2px" d="M30.165,0.000004564913402949067L30.915000000000003,0.000004564913402949067L30.945,0.000004564913402949067L30.975,0.000004564913402949067L31.035,0.000004564913402949067L31.2,183.8076921301679L31.544999999999998,0.000004564913402949067L31.590000000000003,183.8076921301679L31.62,183.8076921301679L31.875,0.000004564913402949067L32.01,183.8076921301679L32.355,0.000004564913402949067L32.52,183.8076921301679L33.735,0.000004564913402949067L33.839999999999996,183.8076921301679L34.14,183.8076921301679L34.335,0.000004564913402949067L34.905,0.000004564913402949067L35.085,0.000004564913402949067L35.73,183.8076921301679L36.03,183.8076921301679L36.135,0.000004564913402949067L36.195,0.000004564913402949067L36.69,183.8076921301679L36.75,183.8076921301679L37.755,0.000004564913402949067L37.83,183.8076921301679L38.22,183.8076921301679L38.474999999999994,0.000004564913402949067L38.504999999999995,0.000004564913402949067L39.225,0.000004564913402949067L39.375,0.000004564913402949067L39.39,183.8076921301679L39.72,183.8076921301679L40.125,0.000004564913402949067L40.185,0.000004564913402949067L40.5,183.8076921301679L40.754999999999995,0.000004564913402949067L40.980000000000004,183.8076921301679L41.07,183.8076921301679L41.475,0.000004564913402949067L41.49,183.8076921301679L42.599999999999994,183.8076921301679L42.644999999999996,0.000004564913402949067L42.72,183.8076921301679L42.87,183.8076921301679L43.004999999999995,0.000004564913402949067L43.365,0.000004564913402949067L43.544999999999995,0.000004564913402949067L43.665,0.000004564913402949067L43.74,183.8076921301679L43.964999999999996,0.000004564913402949067L44.07,183.8076921301679L44.1,183.8076921301679L44.175000000000004,0.000004564913402949067L44.205,0.000004564913402949067L44.339999999999996,183.8076921301679L45.3,183.8076921301679L45.345,0.000004564913402949067L45.57,183.8076921301679L45.675,0.000004564913402949067L45.69,183.8076921301679L46.05,183.8076921301679L46.545,0.000004564913402949067L46.830000000000005,183.8076921301679L47.325,0.000004564913402949067L47.34,183.8076921301679L48.33,183.8076921301679L48.345,0.000004564913402949067L48.39,183.8076921301679L48.675000000000004,0.000004564913402949067L49.019999999999996,183.8076921301679L49.68,183.8076921301679L50.235,0.000004564913402949067L50.294999999999995,0.000004564913402949067L50.309999999999995,183.8076921301679L50.58,183.8076921301679L51.015,0.000004564913402949067L51.075,0.000004564913402949067L51.465,0.000004564913402949067L51.555,0.000004564913402949067L52.02,183.8076921301679L52.154999999999994,0.000004564913402949067L52.32,183.8076921301679L52.35,183.8076921301679L52.395,0.000004564913402949067L52.5,183.8076921301679L53.22,183.8076921301679L53.265,0.000004564913402949067L53.385,0.000004564913402949067L53.4,183.8076921301679L53.67,183.8076921301679L53.805,0.000004564913402949067L54.195,0.000004564913402949067L54.3,183.8076921301679L54.345,0.000004564913402949067L54.39,183.8076921301679L54.72,183.8076921301679L54.855,0.000004564913402949067L54.885,0.000004564913402949067L55.665,0.000004564913402949067L55.845,0.000004564913402949067L56.22,183.8076921301679L56.34,183.8076921301679L57.074999999999996,0.000004564913402949067L57.165,0.000004564913402949067L57.18,183.8076921301679L57.720000000000006,183.8076921301679L57.765,0.000004564913402949067L57.9,183.8076921301679L57.975,0.000004564913402949067L58.08,183.8076921301679L58.185,0.000004564913402949067L58.365,0.000004564913402949067L58.38,183.8076921301679L58.5,183.8076921301679L58.544999999999995,0.000004564913402949067L58.905,0.000004564913402949067L59.37,183.8076921301679L60.57,183.8076921301679L60.765,0.000004564913402949067L60.794999999999995,0.000004564913402949067L61.410000000000004,183.8076921301679L61.845000000000006,0.000004564913402949067L61.89,183.8076921301679L61.905,0.000004564913402949067L62.16,183.8076921301679L62.61,183.8076921301679L63.195,0.000004564913402949067L63.345,0.000004564913402949067L63.645,0.000004564913402949067L63.87,183.8076921301679L63.96,183.8076921301679L64.065,0.000004564913402949067L64.155,0.000004564913402949067L64.425,0.000004564913402949067L64.695,0.000004564913402949067L64.995,0.000004564913402949067L65.325,0.000004564913402949067L65.46,183.8076921301679L65.505,0.000004564913402949067L66.045,0.000004564913402949067L66.19500000000001,0.000004564913402949067L66.3,183.8076921301679L66.315,0.000004564913402949067L66.405,0.000004564913402949067L66.66,183.8076921301679L66.885,0.000004564913402949067L66.975,0.000004564913402949067L67.425,0.000004564913402949067L67.785,0.000004564913402949067L68.07000000000001,183.8076921301679L68.295,0.000004564913402949067L68.745,0.000004564913402949067L68.91000000000001,183.8076921301679L68.955,0.000004564913402949067L69.48,183.8076921301679L69.53999999999999,183.8076921301679L69.675,0.000004564913402949067L69.705,0.000004564913402949067L69.84,183.8076921301679L70.29,183.8076921301679L70.39500000000001,0.000004564913402949067L70.845,0.000004564913402949067L71.1,183.8076921301679L71.97,183.8076921301679L72.04499999999999,0.000004564913402949067L72.07499999999999,0.000004564913402949067L72.27,183.8076921301679L72.435,0.000004564913402949067L72.9,183.8076921301679L72.96,183.8076921301679L73.095,0.000004564913402949067L73.155,0.000004564913402949067L73.395,0.000004564913402949067L73.56,183.8076921301679L74.025,0.000004564913402949067L74.07,183.8076921301679L74.445,0.000004564913402949067L74.52000000000001,183.8076921301679L74.61,183.8076921301679L75.045,0.000004564913402949067L75.06,183.8076921301679L75.19500000000001,0.000004564913402949067L75.375,0.000004564913402949067L75.435,0.000004564913402949067L75.87,183.8076921301679L75.92999999999999,183.8076921301679L75.97500000000001,0.000004564913402949067L76.095,0.000004564913402949067L76.455,0.000004564913402949067L76.56,183.8076921301679L76.83,183.8076921301679L77.025,0.000004564913402949067L77.03999999999999,183.8076921301679L77.25,183.8076921301679L77.445,0.000004564913402949067L77.49,183.8076921301679L77.745,0.000004564913402949067L77.865,0.000004564913402949067L77.91,183.8076921301679L77.99999999999999,183.8076921301679L78.64500000000001,0.000004564913402949067L79.035,0.000004564913402949067L79.47,183.8076921301679L79.605,0.000004564913402949067L79.74,183.8076921301679L80.04,183.8076921301679L80.115,0.000004564913402949067L80.295,0.000004564913402949067L80.58,183.8076921301679L80.69999999999999,183.8076921301679L80.715,0.000004564913402949067L80.925,0.000004564913402949067L81.18,183.8076921301679L81.39,183.8076921301679L81.615,0.000004564913402949067L82.455,0.000004564913402949067L82.635,0.000004564913402949067L82.77000000000001,183.8076921301679L84.675,0.000004564913402949067L85.485,0.000004564913402949067L85.66499999999999,0.000004564913402949067L86.65499999999999,0.000004564913402949067L87.42,183.8076921301679L87.46499999999999,0.000004564913402949067L87.55499999999999,0.000004564913402949067L88.11,183.8076921301679L88.335,0.000004564913402949067L88.62,183.8076921301679L88.71,183.8076921301679L89.53500000000001,0.000004564913402949067L89.55,183.8076921301679L89.745,0.000004564913402949067L89.775,0.000004564913402949067L89.895,0.000004564913402949067L90.045,0.000004564913402949067L90.15,183.8076921301679L90.36,183.8076921301679L90.435,0.000004564913402949067L90.91499999999999,0.000004564913402949067L91.005,0.000004564913402949067L91.065,0.000004564913402949067L91.17,183.8076921301679L91.55999999999999,183.8076921301679L91.785,0.000004564913402949067L91.815,0.000004564913402949067L92.07000000000001,183.8076921301679L92.115,0.000004564913402949067L92.265,0.000004564913402949067L92.655,0.000004564913402949067L92.715,0.000004564913402949067L92.79,183.8076921301679L92.895,0.000004564913402949067L93.405,0.000004564913402949067L93.47999999999999,183.8076921301679L94.02,183.8076921301679L94.215,0.000004564913402949067L94.41000000000001,183.8076921301679L94.455,0.000004564913402949067L94.515,0.000004564913402949067L94.56,183.8076921301679L94.755,0.000004564913402949067L94.87499999999999,0.000004564913402949067L94.98,183.8076921301679L95.30999999999999,183.8076921301679L95.355,0.000004564913402949067L95.55,183.8076921301679L95.68499999999999,0.000004564913402949067L95.83500000000001,0.000004564913402949067L95.91,183.8076921301679L96.48,183.8076921301679L96.765,0.000004564913402949067L97.245,0.000004564913402949067L97.335,0.000004564913402949067L97.875,0.000004564913402949067L98.145,0.000004564913402949067L98.235,0.000004564913402949067L98.595,0.000004564913402949067L99.18,183.8076921301679L99.63,183.8076921301679L99.885,0.000004564913402949067L100.155,0.000004564913402949067L100.86,183.8076921301679L101.355,0.000004564913402949067L101.52,183.8076921301679L101.715,0.000004564913402949067L102.25500000000001,0.000004564913402949067L102.495,0.000004564913402949067L102.84,183.8076921301679L103.275,0.000004564913402949067L104.08500000000001,0.000004564913402949067L104.235,0.000004564913402949067L104.325,0.000004564913402949067L104.475,0.000004564913402949067L104.61,183.8076921301679L105.015,0.000004564913402949067L105.11999999999999,183.8076921301679L105.915,0.000004564913402949067L106.275,0.000004564913402949067L106.335,0.000004564913402949067L106.47,183.8076921301679L106.71,183.8076921301679L106.845,0.000004564913402949067L106.965,0.000004564913402949067L107.1,183.8076921301679L107.175,0.000004564913402949067L107.205,0.000004564913402949067L107.265,0.000004564913402949067L107.37,183.8076921301679L107.78999999999999,183.8076921301679L108.255,0.000004564913402949067L108.27000000000001,183.8076921301679L108.405,0.000004564913402949067L108.69,183.8076921301679L108.705,0.000004564913402949067L108.915,0.000004564913402949067L109.035,0.000004564913402949067L109.2,183.8076921301679L109.425,0.000004564913402949067L109.44,183.8076921301679L110.07000000000001,183.8076921301679L110.085,0.000004564913402949067L110.34,183.8076921301679L110.655,0.000004564913402949067L110.775,0.000004564913402949067L111.06,183.8076921301679L111.10499999999999,0.000004564913402949067L111.28500000000001,0.000004564913402949067L111.36,183.8076921301679L111.375,0.000004564913402949067L111.675,0.000004564913402949067L111.99000000000001,183.8076921301679L112.05,183.8076921301679L112.845,0.000004564913402949067L112.86,183.8076921301679L112.905,0.000004564913402949067L112.92,183.8076921301679L112.99499999999999,0.000004564913402949067L113.11500000000001,0.000004564913402949067L113.385,0.000004564913402949067L113.49,183.8076921301679L114.075,0.000004564913402949067L114.135,0.000004564913402949067L114.36,183.8076921301679L114.585,0.000004564913402949067L115.22999999999999,183.8076921301679L115.98,183.8076921301679L116.445,0.000004564913402949067L116.595,0.000004564913402949067L116.83500000000001,0.000004564913402949067L116.94,183.8076921301679L117.105,0.000004564913402949067L117.135,0.000004564913402949067L117.46499999999999,0.000004564913402949067L117.585,0.000004564913402949067L117.66,183.8076921301679L117.765,0.000004564913402949067L118.05,183.8076921301679L118.155,0.000004564913402949067L118.215,0.000004564913402949067L118.245,0.000004564913402949067L118.485,0.000004564913402949067L118.5,183.8076921301679L118.72500000000001,0.000004564913402949067L118.845,0.000004564913402949067L118.86,183.8076921301679L119.78999999999999,183.8076921301679L119.83500000000001,0.000004564913402949067L120.015,0.000004564913402949067L120.075,0.000004564913402949067L120.435,0.000004564913402949067L120.6,183.8076921301679L120.765,0.000004564913402949067L120.78,183.8076921301679L120.825,0.000004564913402949067L121.17,183.8076921301679L121.18499999999999,0.000004564913402949067L121.2,183.8076921301679L122.16,183.8076921301679L122.50500000000001,0.000004564913402949067L122.715,0.000004564913402949067L122.94,183.8076921301679L123.03,183.8076921301679L123.25500000000001,0.000004564913402949067L123.585,0.000004564913402949067L123.795,0.000004564913402949067L123.825,0.000004564913402949067L123.85499999999999,0.000004564913402949067L124.035,0.000004564913402949067L124.09500000000001,0.000004564913402949067L124.14,183.8076921301679L124.28999999999999,183.8076921301679L124.33500000000001,0.000004564913402949067L124.425,0.000004564913402949067L124.725,0.000004564913402949067L124.875,0.000004564913402949067L125.08500000000001,0.000004564913402949067L125.11500000000001,0.000004564913402949067L125.16,183.8076921301679L125.22,183.8076921301679L125.355,0.000004564913402949067L125.505,0.000004564913402949067L125.88,183.8076921301679L125.89500000000001,0.000004564913402949067L125.92500000000001,0.000004564913402949067L126.03,183.8076921301679L126.39,183.8076921301679L126.825,0.000004564913402949067L126.99,183.8076921301679L127.065,0.000004564913402949067L127.215,0.000004564913402949067L127.29,183.8076921301679L127.335,0.000004564913402949067L127.72500000000001,0.000004564913402949067L127.875,0.000004564913402949067L128.235,0.000004564913402949067L129.03,183.8076921301679L129.13500000000002,0.000004564913402949067L129.165,0.000004564913402949067L129.315,0.000004564913402949067L129.42,183.8076921301679L129.495,0.000004564913402949067L129.54000000000002,183.8076921301679L129.975,0.000004564913402949067L130.59,183.8076921301679L130.8,183.8076921301679L130.995,0.000004564913402949067L131.1,183.8076921301679L131.235,0.000004564913402949067L131.26500000000001,0.000004564913402949067L131.385,0.000004564913402949067L131.79,183.8076921301679L132.26999999999998,183.8076921301679L132.495,0.000004564913402949067L132.84,183.8076921301679L132.85500000000002,0.000004564913402949067L133.305,0.000004564913402949067L133.95,183.8076921301679L134.01,183.8076921301679L134.055,0.000004564913402949067L134.175,0.000004564913402949067L134.745,0.000004564913402949067L134.805,0.000004564913402949067L135.195,0.000004564913402949067L135.285,0.000004564913402949067L135.54,183.8076921301679L135.96,183.8076921301679L136.185,0.000004564913402949067L136.76999999999998,183.8076921301679L137.51999999999998,183.8076921301679L137.745,0.000004564913402949067L138.405,0.000004564913402949067L138.42000000000002,183.8076921301679L138.435,0.000004564913402949067L138.585,0.000004564913402949067L138.70499999999998,0.000004564913402949067L138.81,183.8076921301679L138.945,0.000004564913402949067L139.095,0.000004564913402949067L140.29500000000002,0.000004564913402949067L140.73000000000002,183.8076921301679L141,183.8076921301679L141.22500000000002,0.000004564913402949067L141.29999999999998,183.8076921301679L141.345,0.000004564913402949067L141.645,0.000004564913402949067L141.66,183.8076921301679L141.885,0.000004564913402949067L141.9,183.8076921301679L141.91500000000002,0.000004564913402949067L142.215,0.000004564913402949067L142.41000000000003,183.8076921301679L142.42499999999998,0.000004564913402949067L142.48499999999999,0.000004564913402949067L143.025,0.000004564913402949067L143.13,183.8076921301679L143.32500000000002,0.000004564913402949067L143.73,183.8076921301679L144.07500000000002,0.000004564913402949067L144.315,0.000004564913402949067L144.33,183.8076921301679L144.555,0.000004564913402949067L144.63,183.8076921301679L144.82500000000002,0.000004564913402949067L145.035,0.000004564913402949067L145.14000000000001,183.8076921301679L145.5,183.8076921301679L145.51500000000001,0.000004564913402949067L145.59,183.8076921301679L146.07000000000002,183.8076921301679L146.20499999999998,0.000004564913402949067L147.075,0.000004564913402949067L147.64499999999998,0.000004564913402949067L147.675,0.000004564913402949067L148.095,0.000004564913402949067L148.11,183.8076921301679L148.17000000000002,183.8076921301679L148.275,0.000004564913402949067L149.04000000000002,183.8076921301679L149.25,183.8076921301679L149.47500000000002,0.000004564913402949067L149.67000000000002,183.8076921301679L149.79000000000002,183.8076921301679L150.585,0.000004564913402949067L151.095,0.000004564913402949067L151.155,0.000004564913402949067L151.17,183.8076921301679L151.56,183.8076921301679L151.605,0.000004564913402949067L151.74,183.8076921301679L151.965,0.000004564913402949067L151.995,0.000004564913402949067L152.07,183.8076921301679L152.1,183.8076921301679L152.17499999999998,0.000004564913402949067L152.22,183.8076921301679L152.70000000000002,183.8076921301679L153.58499999999998,0.000004564913402949067L153.75,183.8076921301679L153.82500000000002,0.000004564913402949067L153.94500000000002,0.000004564913402949067L153.975,0.000004564913402949067L154.365,0.000004564913402949067L154.38000000000002,183.8076921301679L154.76999999999998,183.8076921301679L155.115,0.000004564913402949067L155.20499999999998,0.000004564913402949067L155.97,183.8076921301679L155.99999999999997,183.8076921301679L156.195,0.000004564913402949067L156.39,183.8076921301679L156.405,0.000004564913402949067L156.48000000000002,183.8076921301679L156.525,0.000004564913402949067L156.66,183.8076921301679L156.96,183.8076921301679L157.005,0.000004564913402949067L157.05,183.8076921301679L157.185,0.000004564913402949067L157.56,183.8076921301679L157.65,183.8076921301679L157.815,0.000004564913402949067L157.98000000000002,183.8076921301679L157.99499999999998,0.000004564913402949067L158.01,183.8076921301679L158.34,183.8076921301679L158.385,0.000004564913402949067L158.625,0.000004564913402949067L158.955,0.000004564913402949067L159.375,0.000004564913402949067L159.61499999999998,0.000004564913402949067L159.69,183.8076921301679L159.855,0.000004564913402949067L159.915,0.000004564913402949067L159.93,183.8076921301679L160.155,0.000004564913402949067L160.38,183.8076921301679L161.295,0.000004564913402949067L161.94,183.8076921301679L162.01500000000001,0.000004564913402949067L162.225,0.000004564913402949067L162.6,183.8076921301679L162.94500000000002,0.000004564913402949067L163.05,183.8076921301679L163.185,0.000004564913402949067L163.39499999999998,0.000004564913402949067L163.41,183.8076921301679L163.82999999999998,183.8076921301679L164.055,0.000004564913402949067L164.20499999999998,0.000004564913402949067L164.235,0.000004564913402949067L164.51999999999998,183.8076921301679L164.57999999999998,183.8076921301679L164.595,0.000004564913402949067L164.88,183.8076921301679L165.225,0.000004564913402949067L165.27,183.8076921301679L165.42000000000002,183.8076921301679L165.43499999999997,0.000004564913402949067L165.48000000000002,183.8076921301679L165.6,183.8076921301679L165.85500000000002,0.000004564913402949067L165.96,183.8076921301679L166.32,183.8076921301679L166.36499999999998,0.000004564913402949067L167.01,183.8076921301679L167.23499999999999,0.000004564913402949067L167.37,183.8076921301679L167.48999999999998,183.8076921301679L167.53500000000003,0.000004564913402949067L167.73,183.8076921301679L168.33,183.8076921301679L168.525,0.000004564913402949067L168.645,0.000004564913402949067L168.855,0.000004564913402949067L169.125,0.000004564913402949067L169.29,183.8076921301679L169.335,0.000004564913402949067L169.47,183.8076921301679L169.785,0.000004564913402949067L169.89000000000001,183.8076921301679L170.055,0.000004564913402949067L170.1,183.8076921301679L170.175,0.000004564913402949067L170.38500000000002,0.000004564913402949067L170.94,183.8076921301679L171.14999999999998,183.8076921301679L171.285,0.000004564913402949067L171.615,0.000004564913402949067L171.735,0.000004564913402949067L171.84,183.8076921301679L172.11,183.8076921301679L172.185,0.000004564913402949067L172.53,183.8076921301679L172.71,183.8076921301679L172.785,0.000004564913402949067L172.86,183.8076921301679L172.935,0.000004564913402949067L172.95,183.8076921301679L173.55,183.8076921301679L173.68499999999997,0.000004564913402949067L173.79000000000002,183.8076921301679L173.85,183.8076921301679L174.195,0.000004564913402949067L174.255,0.000004564913402949067L174.405,0.000004564913402949067L174.42000000000002,183.8076921301679L174.49499999999998,0.000004564913402949067L174.54000000000002,183.8076921301679L175.38,183.8076921301679L175.635,0.000004564913402949067L175.72500000000002,0.000004564913402949067L175.935,0.000004564913402949067L176.11499999999998,0.000004564913402949067L176.34,183.8076921301679L176.415,0.000004564913402949067L176.92499999999998,0.000004564913402949067L176.94,183.8076921301679L176.955,0.000004564913402949067L177.06,183.8076921301679L177.07500000000002,0.000004564913402949067L177.225,0.000004564913402949067L178.365,0.000004564913402949067L178.44,183.8076921301679L179.82000000000002,183.8076921301679L180.045,0.000004564913402949067L180.24,183.8076921301679L180.72,183.8076921301679L180.735,0.000004564913402949067L181.125,0.000004564913402949067L181.155,0.000004564913402949067L181.215,0.000004564913402949067L181.575,0.000004564913402949067L181.815,0.000004564913402949067L181.82999999999998,183.8076921301679L183.36,183.8076921301679L183.55499999999998,0.000004564913402949067L183.75,183.8076921301679L183.79500000000002,0.000004564913402949067L184.32,183.8076921301679L184.995,0.000004564913402949067L185.1,183.8076921301679L185.34,183.8076921301679L185.565,0.000004564913402949067L185.88,183.8076921301679L186.315,0.000004564913402949067L186.375,0.000004564913402949067L186.705,0.000004564913402949067L187.035,0.000004564913402949067L187.14000000000001,183.8076921301679L187.41,183.8076921301679L187.845,0.000004564913402949067L188.19,183.8076921301679L188.51999999999998,183.8076921301679L188.565,0.000004564913402949067L188.595,0.000004564913402949067L188.95499999999998,0.000004564913402949067L189.04500000000002,0.000004564913402949067L189.375,0.000004564913402949067L189.405,0.000004564913402949067L189.585,0.000004564913402949067L189.735,0.000004564913402949067L189.825,0.000004564913402949067L190.11,183.8076921301679L190.425,0.000004564913402949067L190.815,0.000004564913402949067L190.965,0.000004564913402949067L191.115,0.000004564913402949067L191.235,0.000004564913402949067L191.31,183.8076921301679L191.98499999999999,0.000004564913402949067L192.345,0.000004564913402949067L192.48000000000002,183.8076921301679L192.495,0.000004564913402949067L192.61499999999998,0.000004564913402949067L192.69,183.8076921301679L193.14000000000001,183.8076921301679L193.185,0.000004564913402949067L193.57500000000002,0.000004564913402949067L193.59,183.8076921301679L194.13,183.8076921301679L194.23499999999999,0.000004564913402949067L194.32500000000002,0.000004564913402949067L195.01500000000001,0.000004564913402949067L195.285,0.000004564913402949067L195.35999999999999,183.8076921301679L196.035,0.000004564913402949067L196.07999999999998,183.8076921301679L196.245,0.000004564913402949067L196.35,183.8076921301679L196.65,183.8076921301679L196.995,0.000004564913402949067L197.265,0.000004564913402949067L197.57999999999998,183.8076921301679L197.835,0.000004564913402949067L198.195,0.000004564913402949067L198.315,0.000004564913402949067L198.51,183.8076921301679L198.675,0.000004564913402949067L199.065,0.000004564913402949067L199.18499999999997,0.000004564913402949067L199.425,0.000004564913402949067L199.515,0.000004564913402949067L199.56,183.8076921301679L199.71,183.8076921301679L199.785,0.000004564913402949067L199.86,183.8076921301679L199.965,0.000004564913402949067L200.31,183.8076921301679L200.82,183.8076921301679L200.86499999999998,0.000004564913402949067L201.075,0.000004564913402949067L201.16500000000002,0.000004564913402949067L201.22500000000002,0.000004564913402949067L201.35999999999999,183.8076921301679L201.39000000000001,183.8076921301679L201.465,0.000004564913402949067L201.60000000000002,183.8076921301679L201.855,0.000004564913402949067L202.02,183.8076921301679L202.08,183.8076921301679L202.48499999999999,0.000004564913402949067L202.71,183.8076921301679L203.085,0.000004564913402949067L203.1,183.8076921301679L203.28,183.8076921301679L203.295,0.000004564913402949067L203.565,0.000004564913402949067L203.625,0.000004564913402949067L203.865,0.000004564913402949067L204.255,0.000004564913402949067L204.42,183.8076921301679L205.26000000000002,183.8076921301679L205.54500000000002,0.000004564913402949067L205.98,183.8076921301679L205.995,0.000004564913402949067L206.55,183.8076921301679L206.61,183.8076921301679L206.985,0.000004564913402949067L207.04500000000002,0.000004564913402949067L207.315,0.000004564913402949067L207.405,0.000004564913402949067L207.825,0.000004564913402949067L208.155,0.000004564913402949067L208.29000000000002,183.8076921301679L208.845,0.000004564913402949067L209.01,183.8076921301679L209.10000000000002,183.8076921301679L209.35500000000002,0.000004564913402949067L209.37,183.8076921301679L209.47500000000002,0.000004564913402949067L209.595,0.000004564913402949067L209.7,183.8076921301679L209.98499999999999,0.000004564913402949067L210.045,0.000004564913402949067L210.29999999999998,183.8076921301679L211.17,183.8076921301679L211.215,0.000004564913402949067L211.29,183.8076921301679L211.42499999999998,0.000004564913402949067L211.725,0.000004564913402949067L211.83,183.8076921301679L211.995,0.000004564913402949067L212.13,183.8076921301679L212.355,0.000004564913402949067L212.535,0.000004564913402949067L213,183.8076921301679L213.165,0.000004564913402949067L213.435,0.000004564913402949067L213.45000000000002,183.8076921301679L213.78,183.8076921301679L213.915,0.000004564913402949067L214.17000000000002,183.8076921301679L214.29,183.8076921301679L214.515,0.000004564913402949067L214.92000000000002,183.8076921301679L215.34,183.8076921301679L215.385,0.000004564913402949067L215.61,183.8076921301679L215.7,183.8076921301679L215.715,0.000004564913402949067L215.73000000000002,183.8076921301679L215.895,0.000004564913402949067L215.925,0.000004564913402949067L216.04500000000002,0.000004564913402949067L216.09,183.8076921301679L216.135,0.000004564913402949067L216.16500000000002,0.000004564913402949067L216.69,183.8076921301679L216.825,0.000004564913402949067L216.97500000000002,0.000004564913402949067L217.125,0.000004564913402949067L217.30499999999998,0.000004564913402949067L217.59,183.8076921301679L218.025,0.000004564913402949067L218.085,0.000004564913402949067L218.19,183.8076921301679L218.835,0.000004564913402949067L219,183.8076921301679L219.01500000000001,0.000004564913402949067L219.135,0.000004564913402949067L219.83999999999997,183.8076921301679L220.41,183.8076921301679L220.785,0.000004564913402949067L220.8,183.8076921301679L221.91,183.8076921301679L222.19500000000002,0.000004564913402949067L222.25500000000002,0.000004564913402949067L222.39,183.8076921301679L222.735,0.000004564913402949067L223.155,0.000004564913402949067L223.215,0.000004564913402949067L223.35,183.8076921301679L223.695,0.000004564913402949067L224.36999999999998,183.8076921301679L224.7,183.8076921301679L224.715,0.000004564913402949067L224.80499999999998,0.000004564913402949067L224.865,0.000004564913402949067L225.075,0.000004564913402949067L225.33,183.8076921301679L226.56,183.8076921301679L226.935,0.000004564913402949067L227.67,183.8076921301679L228.435,0.000004564913402949067L228.585,0.000004564913402949067L229.27499999999998,0.000004564913402949067L229.62,183.8076921301679L229.665,0.000004564913402949067L229.755,0.000004564913402949067L229.8,183.8076921301679L229.965,0.000004564913402949067L230.01000000000002,183.8076921301679L230.265,0.000004564913402949067L230.28,183.8076921301679L230.805,0.000004564913402949067L230.85,183.8076921301679L230.91,183.8076921301679L231.105,0.000004564913402949067L231.375,0.000004564913402949067L231.6,183.8076921301679L231.64499999999998,0.000004564913402949067L231.81,183.8076921301679L233.16,183.8076921301679L233.74499999999998,0.000004564913402949067L234.15,183.8076921301679L234.51,183.8076921301679L234.55499999999998,0.000004564913402949067L234.66,183.8076921301679L234.67499999999998,0.000004564913402949067L234.945,0.000004564913402949067L235.03500000000003,0.000004564913402949067L235.04999999999998,183.8076921301679L235.47,183.8076921301679L235.545,0.000004564913402949067L235.995,0.000004564913402949067L236.16,183.8076921301679L236.17499999999998,0.000004564913402949067L236.505,0.000004564913402949067L236.54999999999998,183.8076921301679L236.65499999999997,0.000004564913402949067L236.70000000000002,183.8076921301679L236.865,0.000004564913402949067L237.06,183.8076921301679L237.08999999999997,183.8076921301679L237.58499999999998,0.000004564913402949067L237.645,0.000004564913402949067L238.27499999999998,0.000004564913402949067L238.32000000000002,183.8076921301679L238.485,0.000004564913402949067L238.605,0.000004564913402949067L238.8,183.8076921301679L238.92,183.8076921301679L238.995,0.000004564913402949067L239.08499999999998,0.000004564913402949067L239.20499999999998,0.000004564913402949067L239.85,183.8076921301679L240.06,183.8076921301679L240.255,0.000004564913402949067L240.32999999999998,183.8076921301679L240.615,0.000004564913402949067L240.70499999999998,0.000004564913402949067L241.035,0.000004564913402949067" style="fill: none;" fill="none"></path></g></g></g></g></g></g><g transform="translate(60, 177)" clip-path="url(#clip_1)"><clipPath id="clip_1"><rect width="270" height="23"></rect></clipPath><g><g><line x1="0" y1="0" x2="0" y2="5" style="visibility: inherit;" fill="rgb(0, 0, 0)" stroke="rgb(204, 204, 204)" stroke-width="1px"></line><line x1="30" y1="0" x2="30" y2="5" style="visibility: inherit;" fill="rgb(0, 0, 0)" stroke="rgb(204, 204, 204)" stroke-width="1px"></line><line x1="60" y1="0" x2="60" y2="5" style="visibility: inherit;" fill="rgb(0, 0, 0)" stroke="rgb(204, 204, 204)" stroke-width="1px"></line><line x1="90" y1="0" x2="90" y2="5" style="visibility: inherit;" fill="rgb(0, 0, 0)" stroke="rgb(204, 204, 204)" stroke-width="1px"></line><line x1="120" y1="0" x2="120" y2="5" style="visibility: inherit;" fill="rgb(0, 0, 0)" stroke="rgb(204, 204, 204)" stroke-width="1px"></line><line x1="150" y1="0" x2="150" y2="5" style="visibility: inherit;" fill="rgb(0, 0, 0)" stroke="rgb(204, 204, 204)" stroke-width="1px"></line><line x1="180" y1="0" x2="180" y2="5" style="visibility: inherit;" fill="rgb(0, 0, 0)" stroke="rgb(204, 204, 204)" stroke-width="1px"></line><line x1="210" y1="0" x2="210" y2="5" style="visibility: inherit;" fill="rgb(0, 0, 0)" stroke="rgb(204, 204, 204)" stroke-width="1px"></line><line x1="240" y1="0" x2="240" y2="5" style="visibility: inherit;" fill="rgb(0, 0, 0)" stroke="rgb(204, 204, 204)" stroke-width="1px"></line><line x1="270" y1="0" x2="270" y2="5" style="visibility: inherit;" fill="rgb(0, 0, 0)" stroke="rgb(204, 204, 204)" stroke-width="1px"></line></g><g transform="translate(0, 8)"><text x="0" y="0" dx="0em" dy="0.95em" style="text-anchor: middle; visibility: hidden; font-family: Roboto, sans-serif; font-size: 12px; font-weight: 200;" fill="rgb(255, 255, 255)" stroke="none" stroke-width="1px">-2k</text><text x="30" y="0" dx="0em" dy="0.95em" style="text-anchor: middle; visibility: inherit; font-family: Roboto, sans-serif; font-size: 12px; font-weight: 200;" fill="rgb(255, 255, 255)" stroke="none" stroke-width="1px">0</text><text x="60" y="0" dx="0em" dy="0.95em" style="text-anchor: middle; visibility: inherit; font-family: Roboto, sans-serif; font-size: 12px; font-weight: 200;" fill="rgb(255, 255, 255)" stroke="none" stroke-width="1px">2k</text><text x="90" y="0" dx="0em" dy="0.95em" style="text-anchor: middle; visibility: inherit; font-family: Roboto, sans-serif; font-size: 12px; font-weight: 200;" fill="rgb(255, 255, 255)" stroke="none" stroke-width="1px">4k</text><text x="120" y="0" dx="0em" dy="0.95em" style="text-anchor: middle; visibility: inherit; font-family: Roboto, sans-serif; font-size: 12px; font-weight: 200;" fill="rgb(255, 255, 255)" stroke="none" stroke-width="1px">6k</text><text x="150" y="0" dx="0em" dy="0.95em" style="text-anchor: middle; visibility: inherit; font-family: Roboto, sans-serif; font-size: 12px; font-weight: 200;" fill="rgb(255, 255, 255)" stroke="none" stroke-width="1px">8k</text><text x="180" y="0" dx="0em" dy="0.95em" style="text-anchor: middle; visibility: inherit; font-family: Roboto, sans-serif; font-size: 12px; font-weight: 200;" fill="rgb(255, 255, 255)" stroke="none" stroke-width="1px">10k</text><text x="210" y="0" dx="0em" dy="0.95em" style="text-anchor: middle; visibility: inherit; font-family: Roboto, sans-serif; font-size: 12px; font-weight: 200;" fill="rgb(255, 255, 255)" stroke="none" stroke-width="1px">12k</text><text x="240" y="0" dx="0em" dy="0.95em" style="text-anchor: middle; visibility: inherit; font-family: Roboto, sans-serif; font-size: 12px; font-weight: 200;" fill="rgb(255, 255, 255)" stroke="none" stroke-width="1px">14k</text><text x="270" y="0" dx="0em" dy="0.95em" style="text-anchor: middle; visibility: hidden; font-family: Roboto, sans-serif; font-size: 12px; font-weight: 200;" fill="rgb(255, 255, 255)" stroke="none" stroke-width="1px">16k</text></g><line x1="0" y1="0" x2="270" y2="0" fill="rgb(0, 0, 0)" stroke="rgb(204, 204, 204)" stroke-width="1px"></line></g></g></g></g></svg>