<svg viewBox="0 0 330 200" xmlns="http://www.w3.org/2000/svg"><g><g><g><g><g><line x1="60" y1="177" x2="55" y2="177" style="visibility: inherit;" fill="rgb(0, 0, 0)" stroke="rgb(204, 204, 204)" stroke-width="1px"></line><line x1="60" y1="154.875" x2="55" y2="154.875" style="visibility: inherit;" fill="rgb(0, 0, 0)" stroke="rgb(204, 204, 204)" stroke-width="1px"></line><line x1="60" y1="132.75" x2="55" y2="132.75" style="visibility: inherit;" fill="rgb(0, 0, 0)" stroke="rgb(204, 204, 204)" stroke-width="1px"></line><line x1="60" y1="110.625" x2="55" y2="110.625" style="visibility: inherit;" fill="rgb(0, 0, 0)" stroke="rgb(204, 204, 204)" stroke-width="1px"></line><line x1="60" y1="88.5" x2="55" y2="88.5" style="visibility: inherit;" fill="rgb(0, 0, 0)" stroke="rgb(204, 204, 204)" stroke-width="1px"></line><line x1="60" y1="66.375" x2="55" y2="66.375" style="visibility: inherit;" fill="rgb(0, 0, 0)" stroke="rgb(204, 204, 204)" stroke-width="1px"></line><line x1="60" y1="44.25" x2="55" y2="44.25" style="visibility: inherit;" fill="rgb(0, 0, 0)" stroke="rgb(204, 204, 204)" stroke-width="1px"></line><line x1="60" y1="22.12500000000002" x2="55" y2="22.12500000000002" style="visibility: inherit;" fill="rgb(0, 0, 0)" stroke="rgb(204, 204, 204)" stroke-width="1px"></line><line x1="60" y1="0" x2="55" y2="0" style="visibility: inherit;" fill="rgb(0, 0, 0)" stroke="rgb(204, 204, 204)" stroke-width="1px"></line></g><g transform="translate(50, 0)"><text x="0" y="177" dx="0em" dy="0.3em" style="text-anchor: end; visibility: hidden; font-family: Roboto, sans-serif; font-size: 12px; font-weight: 200;" fill="rgb(255, 255, 255)" stroke="none" stroke-width="1px">-5e-3</text><text x="0" y="154.875" dx="0em" dy="0.3em" style="text-anchor: end; visibility: inherit; font-family: Roboto, sans-serif; font-size: 12px; font-weight: 200;" fill="rgb(255, 255, 255)" stroke="none" stroke-width="1px">0</text><text x="0" y="132.75" dx="0em" dy="0.3em" style="text-anchor: end; visibility: hidden; font-family: Roboto, sans-serif; font-size: 12px; font-weight: 200;" fill="rgb(255, 255, 255)" stroke="none" stroke-width="1px">5e-3</text><text x="0" y="110.625" dx="0em" dy="0.3em" style="text-anchor: end; visibility: inherit; font-family: Roboto, sans-serif; font-size: 12px; font-weight: 200;" fill="rgb(255, 255, 255)" stroke="none" stroke-width="1px">0.01</text><text x="0" y="88.5" dx="0em" dy="0.3em" style="text-anchor: end; visibility: hidden; font-family: Roboto, sans-serif; font-size: 12px; font-weight: 200;" fill="rgb(255, 255, 255)" stroke="none" stroke-width="1px">0.015</text><text x="0" y="66.375" dx="0em" dy="0.3em" style="text-anchor: end; visibility: inherit; font-family: Roboto, sans-serif; font-size: 12px; font-weight: 200;" fill="rgb(255, 255, 255)" stroke="none" stroke-width="1px">0.02</text><text x="0" y="44.25" dx="0em" dy="0.3em" style="text-anchor: end; visibility: hidden; font-family: Roboto, sans-serif; font-size: 12px; font-weight: 200;" fill="rgb(255, 255, 255)" stroke="none" stroke-width="1px">0.025</text><text x="0" y="22.12500000000002" dx="0em" dy="0.3em" style="text-anchor: end; visibility: inherit; font-family: Roboto, sans-serif; font-size: 12px; font-weight: 200;" fill="rgb(255, 255, 255)" stroke="none" stroke-width="1px">0.03</text><text x="0" y="0" dx="0em" dy="0.3em" style="text-anchor: end; visibility: hidden; font-family: Roboto, sans-serif; font-size: 12px; font-weight: 200;" fill="rgb(255, 255, 255)" stroke="none" stroke-width="1px">0.035</text></g><line x1="60" y1="0" x2="60" y2="177" fill="rgb(0, 0, 0)" stroke="rgb(204, 204, 204)" stroke-width="1px"></line></g></g><g transform="translate(60, 0)" clip-path="url(#clip_0)"><clipPath id="clip_0"><rect width="270" height="177"></rect></clipPath><g><g><g><line x1="0" y1="0" x2="0" y2="177" fill="rgb(0, 0, 0)" stroke="rgb(189, 189, 189)" stroke-width="1px" opacity="0.25"></line><line x1="30" y1="0" x2="30" y2="177" fill="rgb(0, 0, 0)" stroke="rgb(189, 189, 189)" stroke-width="1px" opacity="0.25"></line><line x1="60" y1="0" x2="60" y2="177" fill="rgb(0, 0, 0)" stroke="rgb(189, 189, 189)" stroke-width="1px" opacity="0.25"></line><line x1="90" y1="0" x2="90" y2="177" fill="rgb(0, 0, 0)" stroke="rgb(189, 189, 189)" stroke-width="1px" opacity="0.25"></line><line x1="120" y1="0" x2="120" y2="177" fill="rgb(0, 0, 0)" stroke="rgb(189, 189, 189)" stroke-width="1px" opacity="0.25"></line><line x1="150" y1="0" x2="150" y2="177" fill="rgb(0, 0, 0)" stroke="rgb(189, 189, 189)" stroke-width="1px" opacity="0.25"></line><line x1="180" y1="0" x2="180" y2="177" fill="rgb(0, 0, 0)" stroke="rgb(189, 189, 189)" stroke-width="1px" opacity="0.25"></line><line x1="210" y1="0" x2="210" y2="177" fill="rgb(0, 0, 0)" stroke="rgb(189, 189, 189)" stroke-width="1px" opacity="0.25"></line><line x1="240" y1="0" x2="240" y2="177" fill="rgb(0, 0, 0)" stroke="rgb(189, 189, 189)" stroke-width="1px" opacity="0.25"></line><line x1="270" y1="0" x2="270" y2="177" fill="rgb(0, 0, 0)" stroke="rgb(189, 189, 189)" stroke-width="1px" opacity="0.25"></line></g><g><line x1="0" y1="177" x2="270" y2="177" fill="rgb(0, 0, 0)" stroke="rgb(189, 189, 189)" stroke-width="1px" opacity="0.25"></line><line x1="0" y1="154.875" x2="270" y2="154.875" fill="rgb(0, 0, 0)" stroke="rgb(189, 189, 189)" stroke-width="1px" opacity="0.25"></line><line x1="0" y1="132.75" x2="270" y2="132.75" fill="rgb(0, 0, 0)" stroke="rgb(189, 189, 189)" stroke-width="1px" opacity="0.25"></line><line x1="0" y1="110.625" x2="270" y2="110.625" fill="rgb(0, 0, 0)" stroke="rgb(189, 189, 189)" stroke-width="1px" opacity="0.25"></line><line x1="0" y1="88.5" x2="270" y2="88.5" fill="rgb(0, 0, 0)" stroke="rgb(189, 189, 189)" stroke-width="1px" opacity="0.25"></line><line x1="0" y1="66.375" x2="270" y2="66.375" fill="rgb(0, 0, 0)" stroke="rgb(189, 189, 189)" stroke-width="1px" opacity="0.25"></line><line x1="0" y1="44.25" x2="270" y2="44.25" fill="rgb(0, 0, 0)" stroke="rgb(189, 189, 189)" stroke-width="1px" opacity="0.25"></line><line x1="0" y1="22.12500000000002" x2="270" y2="22.12500000000002" fill="rgb(0, 0, 0)" stroke="rgb(189, 189, 189)" stroke-width="1px" opacity="0.25"></line><line x1="0" y1="0" x2="270" y2="0" fill="rgb(0, 0, 0)" stroke="rgb(189, 189, 189)" stroke-width="1px" opacity="0.25"></line></g></g></g><g><g><line x1="0" y1="154.875" x2="270" y2="154.875" fill="rgb(0, 0, 0)" stroke="rgb(153, 153, 153)" stroke-width="1.5px"></line></g></g><g><g><line x1="30" y1="0" x2="30" y2="177" fill="rgb(0, 0, 0)" stroke="rgb(153, 153, 153)" stroke-width="1.5px"></line></g></g><g><g><g><g><g><path stroke="rgb(255, 112, 67)" stroke-width="2px" d="M30,22.1250029671937L30.015,22.1250029671937L30.03,22.125002967193744L30.09,22.125002967193744L30.105,22.125002967193744L30.12,22.125002967193744L30.15,51.39761105458893L30.165,68.42777152536354L30.18,78.46093770642572L30.209999999999997,84.41573258388324L30.225,87.96548152751019L30.240000000000002,90.08707074696063L30.255000000000003,91.35706474098957L30.27,92.11799873667617L30.285,105.78717791802322L30.315,113.98457095870111L30.345,118.90152648475257L30.375,121.85116708943848L30.404999999999998,123.6207597187285L30.419999999999998,124.68244628139492L30.435,131.4496161737525L30.450000000000003,135.5098230992305L30.465,137.94591305192057L30.48,139.40755471081155L30.51,140.2845352736116L30.57,140.81072201558902L30.585,143.9717528451008L30.599999999999998,145.8683692722244L30.63,147.00633838308957L30.674999999999997,147.68911958126162L30.69,148.09878820355996L30.705000000000002,148.3445893421612L30.765,149.81274883872572L30.78,150.69364449179562L30.794999999999998,151.2221818674848L30.84,151.5393042870833L30.884999999999998,152.34258255200007L30.900000000000002,152.82454950776852L30.93,153.11372968008425L31.02,153.28723778306133L31.035,153.67587429474065L31.05,153.90905620154876L31.11,154.04896534556178L31.14,154.13291083194375L31.155,154.18327812376364L31.17,154.2134984988522L31.185000000000002,154.36369862337617L31.245,154.45381869808693L31.259999999999998,154.5078907429121L31.305,154.54033396980674L31.349999999999998,154.62110038322587L31.395,154.66956023127707L31.425,154.6986361401077L31.455000000000002,154.71608168540607L31.47,154.72654901258505L31.5,154.76128257033224L31.515,154.7821227049805L31.529999999999998,154.79462678576948L31.544999999999998,154.80212923424287L31.575,154.8066307033269L31.605,154.8093315847773L31.62,154.81095211364757L31.68,154.82513121995055L31.71,154.83363868373232L31.799999999999997,154.8448732100516L31.830000000000002,154.85161392584314L31.86,154.85565835531807L31.875,154.858085013003L31.905,154.85954100761398L31.935,154.863259920927L31.95,154.8654912689148L31.965,154.86683007770748L31.98,154.8676333629831L31.994999999999997,154.86811533414846L32.025,154.8684045168477L32.055,154.86857802646722L32.1,154.8700028110364L32.160000000000004,154.87085768177792L32.205,154.87137060422285L32.22,154.87167835768977L32.235,154.8724760145951L32.265,154.87295460873827L32.28,154.87324176522418L32.295,154.87341405911573L32.31,154.87351743545065L32.324999999999996,154.8735794612516L32.355,154.87361667673218L32.37,154.87363900602054L32.385000000000005,154.8739369352532L32.43,154.87411569279283L32.445,154.87422294731658L32.49,154.87428730003083L32.505,154.8743259116594L32.535,154.87448114651124L32.55,154.87457428742238L32.58,154.87463017196902L32.655,154.874663702697L32.715,154.87474512162012L32.73,154.87479397297395L32.745,154.87482328378627L32.76,154.87484087027366L32.79,154.8748514221661L32.805,154.87485775330154L32.82,154.87486155198283L32.865,154.87489228435345L32.88,154.87491072377586L32.910000000000004,154.8749217874293L32.97,154.87492842562136L33,154.87494561532452L33.09,154.87495592914644L33.105000000000004,154.87496211743957L33.18,154.8749719604637L33.21,154.8749778662782L33.225,154.87498140976686L33.254999999999995,154.87498353586005L33.269999999999996,154.874984811516L33.285,154.87498842222584L33.33,154.87499058865177L33.36,154.8749918885073L33.375,154.87499266842065L33.42,154.87499313636866L33.435,154.87499473781634L33.45,154.87499569868493L33.464999999999996,154.8749962752061L33.48,154.87499662111878L33.495,154.8749968286664L33.54,154.874996953195L33.555,154.87499702791212L33.585,154.87499768574727L33.66,154.87499808044836L33.675,154.87499831726902L33.72,154.87499845936142L33.735,154.87499882914847L33.795,154.87499905102072L33.87,154.87499918414406L33.9,154.87499939608594L33.915,154.87499952325106L33.945,154.87499959955016L33.959999999999994,154.8749996453296L33.974999999999994,154.8749996727973L33.99,154.87499968927787L34.035000000000004,154.87499976046675L34.050000000000004,154.87499980318003L34.065000000000005,154.87499982880803L34.080000000000005,154.87499984418483L34.095,154.87499985341088L34.125,154.87499985894655L34.185,154.87499989072109L34.215,154.87499990978583L34.23,154.87499992122466L34.275,154.87499992808796L34.29,154.87499993220595L34.305,154.8749999346767L34.32,154.8749999361592L34.335,154.87499995025547L34.379999999999995,154.87499995871323L34.394999999999996,154.8749999637879L34.425,154.8749999668327L34.455000000000005,154.87499996865958L34.470000000000006,154.8749999697557L34.5,154.87499997654342L34.515,154.87499998061605L34.53,154.87499998305964L34.545,154.87499998452577L34.56,154.87499998540548L34.59,154.87499998593327L34.62,154.87499998624995L34.65,154.8749999892853L34.665,154.8749999911065L34.695,154.8749999921992L34.71,154.87499999285484L34.725,154.87499999324822L34.754999999999995,154.87499999348427L34.769999999999996,154.87499999362586L34.785,154.87499999503152L34.8,154.8749999958749L34.86,154.87499999638092L34.875,154.87499999668458L34.92,154.87499999686673L34.935,154.87499999758901L34.965,154.87499999802242L34.995000000000005,154.87499999828245L35.025,154.87499999843848L35.055,154.87499999853208L35.085,154.8749999988728L35.1,154.8749999990772L35.19,154.87499999919984L35.205,154.87499999927346L35.265,154.87499999944964L35.294999999999995,154.8749999995554L35.309999999999995,154.87499999961884L35.324999999999996,154.8749999996569L35.339999999999996,154.87499999967972L35.355000000000004,154.87499999969344L35.370000000000005,154.87499999970166L35.400000000000006,154.8749999997679L35.46,154.87499999980764L35.475,154.87499999983146L35.49,154.87499999984578L35.505,154.8749999998544L35.535000000000004,154.874999999888L35.55,154.87499999990814L35.58,154.87499999992025L35.595,154.8749999999275L35.625,154.87499999993184L35.64,154.87499999993446L35.67,154.87499999993602L35.714999999999996,154.87499999995018L35.73,154.87499999995867L35.775,154.87499999996376L35.80500000000001,154.8749999999668L35.85,154.87499999997476L35.865,154.87499999997956L35.88,154.87499999998244L35.895,154.87499999998414L35.910000000000004,154.8749999999852L35.955,154.8749999999858L35.97,154.87499999998616L35.985,154.87499999998923L36.015,154.87499999999108L36.03,154.87499999999218L36.06,154.87499999999284L36.089999999999996,154.87499999999324L36.105,154.87499999999346L36.12,154.87499999999363L36.135,154.87499999999503L36.15,154.87499999999588L36.254999999999995,154.8749999999964L36.27,154.87499999999667L36.285000000000004,154.8749999999975L36.300000000000004,154.87499999999795L36.36,154.87499999999824L36.39,154.8749999999984L36.405,154.8749999999985L36.45,154.87499999999886L36.465,154.8749999999991L36.48,154.8749999999992L36.555,154.87499999999926L36.6,154.87499999999946L36.614999999999995,154.87499999999955L36.66,154.87499999999963L36.675,154.87499999999966L36.69,154.8749999999997L36.720000000000006,154.8749999999997L36.73500000000001,154.87499999999977L36.75,154.8749999999998L36.795,154.87499999999983L36.81,154.87499999999983L36.84,154.87499999999983L36.855000000000004,154.87499999999986L36.870000000000005,154.87499999999986L36.885,154.8749999999999L36.9,154.87499999999991L36.945,154.87499999999991L36.96,154.87499999999991L37.019999999999996,154.87499999999991L37.035,101.77500118687745L44.07,69.91500189900394L51.105,50.79900232627984L58.13999999999999,39.329402582645386L65.175,32.44764273646472L72.21,28.31858682875632L79.24499999999999,25.841153284131288L86.28,24.35469315735627L93.315,23.462817081291234L100.35,22.927691435652235L107.38499999999999,22.606616048268823L114.41999999999999,22.413970815838802L121.455,22.298383676380748L128.48999999999998,22.22903139270596L135.525,22.18742002250106L142.56,69.95245196734429L149.595,98.61147113425021L156.63,115.8068826343938L163.665,126.12412953447995L170.70000000000002,132.31447767453162L177.73499999999999,136.0286865585626L184.77,138.25721188898123L191.80499999999998,139.5943270872324L198.84,140.3965962061831L205.875,140.8779576775535L212.91,141.16677456037576L219.945,141.3400646900691L226.98,141.44403876788513L234.015,141.50642321457474L241.05,141.54385388258848" style="fill: none;" fill="none"></path></g></g></g></g><g opacity="0.2"><g><g><g><path stroke="rgb(255, 112, 67)" stroke-width="2px" d="M30,22.125002967193744L30.015,22.125002967193744L30.03,22.125002967193744L30.09,22.125002967193744L30.105,22.125002967193744L30.12,22.125002967193744L30.15,93.25790898129344L30.165,93.25790898129344L30.18,93.25790898129344L30.209999999999997,93.25790898129344L30.225,93.25790898129344L30.240000000000002,93.25790898129344L30.255000000000003,93.25790898129344L30.27,93.25790898129344L30.285,126.27487908303738L30.315,126.27487908303738L30.345,126.27487908303738L30.375,126.27487908303738L30.404999999999998,126.27487908303738L30.419999999999998,126.27487908303738L30.435,141.59999988460913L30.450000000000003,141.59999988460913L30.465,141.59999988460913L30.48,141.59999988460913L30.51,141.59999988460913L30.57,141.59999988460913L30.585,148.7132910011569L30.599999999999998,148.7132910011569L30.63,148.7132910011569L30.674999999999997,148.7132910011569L30.69,148.7132910011569L30.705000000000002,148.7132910011569L30.765,152.01498790830374L30.78,152.01498790830374L30.794999999999998,152.01498790830374L30.84,152.01498790830374L30.884999999999998,153.54749993694713L30.900000000000002,153.54749993694713L30.93,153.54749993694713L31.02,153.54749993694713L31.035,154.25882906148036L31.05,154.25882906148036L31.11,154.25882906148036L31.14,154.25882906148036L31.155,154.25882906148036L31.17,154.25882906148036L31.185000000000002,154.58899881014804L31.245,154.58899881014804L31.259999999999998,154.58899881014804L31.305,154.58899881014804L31.349999999999998,154.74225000335355L31.395,154.74225000335355L31.425,154.74225000335355L31.455000000000002,154.74225000335355L31.47,154.74225000335355L31.5,154.81338290695294L31.515,154.81338290695294L31.529999999999998,154.81338290695294L31.544999999999998,154.81338290695294L31.575,154.81338290695294L31.605,154.81338290695294L31.62,154.81338290695294L31.68,154.846399879405L31.71,154.846399879405L31.799999999999997,154.86172499953045L31.830000000000002,154.86172499953045L31.86,154.86172499953045L31.875,154.86172499953045L31.905,154.86172499953045L31.935,154.86883829089652L31.95,154.86883829089652L31.965,154.86883829089652L31.98,154.86883829089652L31.994999999999997,154.86883829089652L32.025,154.86883829089652L32.055,154.86883829089652L32.1,154.8721399878902L32.160000000000004,154.8721399878902L32.205,154.8721399878902L32.22,154.8721399878902L32.235,154.87367249995305L32.265,154.87367249995305L32.28,154.87367249995305L32.295,154.87367249995305L32.31,154.87367249995305L32.324999999999996,154.87367249995305L32.355,154.87367249995305L32.37,154.87367249995305L32.385000000000005,154.87438382910221L32.43,154.87438382910221L32.445,154.87438382910221L32.49,154.87438382910221L32.505,154.87438382910221L32.535,154.87471399878902L32.55,154.87471399878902L32.58,154.87471399878902L32.655,154.87471399878902L32.715,154.87486725000474L32.73,154.87486725000474L32.745,154.87486725000474L32.76,154.87486725000474L32.79,154.87486725000474L32.805,154.87486725000474L32.82,154.87486725000474L32.865,154.87493838290945L32.88,154.87493838290945L32.910000000000004,154.87493838290945L32.97,154.87493838290945L33,154.87497139987929L33.09,154.87497139987929L33.105000000000004,154.87497139987929L33.18,154.87498672499987L33.21,154.87498672499987L33.225,154.87498672499987L33.254999999999995,154.87498672499987L33.269999999999996,154.87498672499987L33.285,154.87499383829064L33.33,154.87499383829064L33.36,154.87499383829064L33.375,154.87499383829064L33.42,154.87499383829064L33.435,154.87499713998784L33.45,154.87499713998784L33.464999999999996,154.87499713998784L33.48,154.87499713998784L33.495,154.87499713998784L33.54,154.87499713998784L33.555,154.87499713998784L33.585,154.8749986725L33.66,154.8749986725L33.675,154.8749986725L33.72,154.8749986725L33.735,154.87499938382905L33.795,154.87499938382905L33.87,154.87499938382905L33.9,154.8749997139988L33.915,154.8749997139988L33.945,154.8749997139988L33.959999999999994,154.8749997139988L33.974999999999994,154.8749997139988L33.99,154.8749997139988L34.035000000000004,154.87499986725L34.050000000000004,154.87499986725L34.065000000000005,154.87499986725L34.080000000000005,154.87499986725L34.095,154.87499986725L34.125,154.87499986725L34.185,154.8749999383829L34.215,154.8749999383829L34.23,154.8749999383829L34.275,154.8749999383829L34.29,154.8749999383829L34.305,154.8749999383829L34.32,154.8749999383829L34.335,154.8749999713999L34.379999999999995,154.8749999713999L34.394999999999996,154.8749999713999L34.425,154.8749999713999L34.455000000000005,154.8749999713999L34.470000000000006,154.8749999713999L34.5,154.874999986725L34.515,154.874999986725L34.53,154.874999986725L34.545,154.874999986725L34.56,154.874999986725L34.59,154.874999986725L34.62,154.874999986725L34.65,154.8749999938383L34.665,154.8749999938383L34.695,154.8749999938383L34.71,154.8749999938383L34.725,154.8749999938383L34.754999999999995,154.8749999938383L34.769999999999996,154.8749999938383L34.785,154.87499999714L34.8,154.87499999714L34.86,154.87499999714L34.875,154.87499999714L34.92,154.87499999714L34.935,154.8749999986725L34.965,154.8749999986725L34.995000000000005,154.8749999986725L35.025,154.8749999986725L35.055,154.8749999986725L35.085,154.87499999938382L35.1,154.87499999938382L35.19,154.87499999938382L35.205,154.87499999938382L35.265,154.874999999714L35.294999999999995,154.874999999714L35.309999999999995,154.874999999714L35.324999999999996,154.874999999714L35.339999999999996,154.874999999714L35.355000000000004,154.874999999714L35.370000000000005,154.874999999714L35.400000000000006,154.87499999986724L35.46,154.87499999986724L35.475,154.87499999986724L35.49,154.87499999986724L35.505,154.87499999986724L35.535000000000004,154.87499999993838L35.55,154.87499999993838L35.58,154.87499999993838L35.595,154.87499999993838L35.625,154.87499999993838L35.64,154.87499999993838L35.67,154.87499999993838L35.714999999999996,154.87499999997138L35.73,154.87499999997138L35.775,154.87499999997138L35.80500000000001,154.87499999997138L35.85,154.87499999998673L35.865,154.87499999998673L35.88,154.87499999998673L35.895,154.87499999998673L35.910000000000004,154.87499999998673L35.955,154.87499999998673L35.97,154.87499999998673L35.985,154.87499999999383L36.015,154.87499999999383L36.03,154.87499999999383L36.06,154.87499999999383L36.089999999999996,154.87499999999383L36.105,154.87499999999383L36.12,154.87499999999383L36.135,154.87499999999713L36.15,154.87499999999713L36.254999999999995,154.87499999999713L36.27,154.87499999999713L36.285000000000004,154.87499999999866L36.300000000000004,154.87499999999866L36.36,154.87499999999866L36.39,154.87499999999866L36.405,154.87499999999866L36.45,154.87499999999937L36.465,154.87499999999937L36.48,154.87499999999937L36.555,154.87499999999937L36.6,154.87499999999972L36.614999999999995,154.87499999999972L36.66,154.87499999999972L36.675,154.87499999999972L36.69,154.87499999999972L36.720000000000006,154.87499999999972L36.73500000000001,154.87499999999986L36.75,154.87499999999986L36.795,154.87499999999986L36.81,154.87499999999986L36.84,154.87499999999986L36.855000000000004,154.87499999999986L36.870000000000005,154.87499999999986L36.885,154.87499999999994L36.9,154.87499999999994L36.945,154.87499999999994L36.96,154.87499999999994L37.019999999999996,154.87499999999994L37.035,22.125002967193744L44.07,22.125002967193744L51.105,22.125002967193744L58.13999999999999,22.125002967193744L65.175,22.125002967193744L72.21,22.125002967193744L79.24499999999999,22.125002967193744L86.28,22.125002967193744L93.315,22.125002967193744L100.35,22.125002967193744L107.38499999999999,22.125002967193744L114.41999999999999,22.125002967193744L121.455,22.125002967193744L128.48999999999998,22.125002967193744L135.525,22.125002967193744L142.56,141.59999988460913L149.595,141.59999988460913L156.63,141.59999988460913L163.665,141.59999988460913L170.70000000000002,141.59999988460913L177.73499999999999,141.59999988460913L184.77,141.59999988460913L191.80499999999998,141.59999988460913L198.84,141.59999988460913L205.875,141.59999988460913L212.91,141.59999988460913L219.945,141.59999988460913L226.98,141.59999988460913L234.015,141.59999988460913L241.05,141.59999988460913" style="fill: none;" fill="none"></path></g></g></g></g></g></g><g transform="translate(60, 177)" clip-path="url(#clip_1)"><clipPath id="clip_1"><rect width="270" height="23"></rect></clipPath><g><g><line x1="0" y1="0" x2="0" y2="5" style="visibility: inherit;" fill="rgb(0, 0, 0)" stroke="rgb(204, 204, 204)" stroke-width="1px"></line><line x1="30" y1="0" x2="30" y2="5" style="visibility: inherit;" fill="rgb(0, 0, 0)" stroke="rgb(204, 204, 204)" stroke-width="1px"></line><line x1="60" y1="0" x2="60" y2="5" style="visibility: inherit;" fill="rgb(0, 0, 0)" stroke="rgb(204, 204, 204)" stroke-width="1px"></line><line x1="90" y1="0" x2="90" y2="5" style="visibility: inherit;" fill="rgb(0, 0, 0)" stroke="rgb(204, 204, 204)" stroke-width="1px"></line><line x1="120" y1="0" x2="120" y2="5" style="visibility: inherit;" fill="rgb(0, 0, 0)" stroke="rgb(204, 204, 204)" stroke-width="1px"></line><line x1="150" y1="0" x2="150" y2="5" style="visibility: inherit;" fill="rgb(0, 0, 0)" stroke="rgb(204, 204, 204)" stroke-width="1px"></line><line x1="180" y1="0" x2="180" y2="5" style="visibility: inherit;" fill="rgb(0, 0, 0)" stroke="rgb(204, 204, 204)" stroke-width="1px"></line><line x1="210" y1="0" x2="210" y2="5" style="visibility: inherit;" fill="rgb(0, 0, 0)" stroke="rgb(204, 204, 204)" stroke-width="1px"></line><line x1="240" y1="0" x2="240" y2="5" style="visibility: inherit;" fill="rgb(0, 0, 0)" stroke="rgb(204, 204, 204)" stroke-width="1px"></line><line x1="270" y1="0" x2="270" y2="5" style="visibility: inherit;" fill="rgb(0, 0, 0)" stroke="rgb(204, 204, 204)" stroke-width="1px"></line></g><g transform="translate(0, 8)"><text x="0" y="0" dx="0em" dy="0.95em" style="text-anchor: middle; visibility: hidden; font-family: Roboto, sans-serif; font-size: 12px; font-weight: 200;" fill="rgb(255, 255, 255)" stroke="none" stroke-width="1px">-2k</text><text x="30" y="0" dx="0em" dy="0.95em" style="text-anchor: middle; visibility: inherit; font-family: Roboto, sans-serif; font-size: 12px; font-weight: 200;" fill="rgb(255, 255, 255)" stroke="none" stroke-width="1px">0</text><text x="60" y="0" dx="0em" dy="0.95em" style="text-anchor: middle; visibility: inherit; font-family: Roboto, sans-serif; font-size: 12px; font-weight: 200;" fill="rgb(255, 255, 255)" stroke="none" stroke-width="1px">2k</text><text x="90" y="0" dx="0em" dy="0.95em" style="text-anchor: middle; visibility: inherit; font-family: Roboto, sans-serif; font-size: 12px; font-weight: 200;" fill="rgb(255, 255, 255)" stroke="none" stroke-width="1px">4k</text><text x="120" y="0" dx="0em" dy="0.95em" style="text-anchor: middle; visibility: inherit; font-family: Roboto, sans-serif; font-size: 12px; font-weight: 200;" fill="rgb(255, 255, 255)" stroke="none" stroke-width="1px">6k</text><text x="150" y="0" dx="0em" dy="0.95em" style="text-anchor: middle; visibility: inherit; font-family: Roboto, sans-serif; font-size: 12px; font-weight: 200;" fill="rgb(255, 255, 255)" stroke="none" stroke-width="1px">8k</text><text x="180" y="0" dx="0em" dy="0.95em" style="text-anchor: middle; visibility: inherit; font-family: Roboto, sans-serif; font-size: 12px; font-weight: 200;" fill="rgb(255, 255, 255)" stroke="none" stroke-width="1px">10k</text><text x="210" y="0" dx="0em" dy="0.95em" style="text-anchor: middle; visibility: inherit; font-family: Roboto, sans-serif; font-size: 12px; font-weight: 200;" fill="rgb(255, 255, 255)" stroke="none" stroke-width="1px">12k</text><text x="240" y="0" dx="0em" dy="0.95em" style="text-anchor: middle; visibility: inherit; font-family: Roboto, sans-serif; font-size: 12px; font-weight: 200;" fill="rgb(255, 255, 255)" stroke="none" stroke-width="1px">14k</text><text x="270" y="0" dx="0em" dy="0.95em" style="text-anchor: middle; visibility: hidden; font-family: Roboto, sans-serif; font-size: 12px; font-weight: 200;" fill="rgb(255, 255, 255)" stroke="none" stroke-width="1px">16k</text></g><line x1="0" y1="0" x2="270" y2="0" fill="rgb(0, 0, 0)" stroke="rgb(204, 204, 204)" stroke-width="1px"></line></g></g></g></g></svg>